<svg width="25" height="18" viewBox="0 0 25 18" fill="none" xmlns="http://www.w3.org/2000/svg">
<path fill-rule="evenodd" clip-rule="evenodd" d="M24.7811 12.0984C24.2795 12.6016 23.7223 13.0141 23.0687 13.2649C22.0751 13.6457 21.1604 13.4198 20.295 12.8506C20.0929 12.718 19.9064 12.5588 19.7161 12.38C20.7443 12.3971 21.7629 12.3551 22.7618 12.1104C22.7635 12.0856 22.7644 12.0616 22.7652 12.0368C22.2586 11.9717 21.7548 11.881 21.2467 11.8477C20.742 11.8151 20.2332 11.8408 19.726 11.8408C19.7139 11.8143 19.701 11.7869 19.6889 11.7603C20.0182 11.5404 20.3338 11.2922 20.6783 11.1039C21.8756 10.451 23.0018 10.6872 24.0671 11.4677C24.3132 11.6482 24.5436 11.8536 24.7802 12.0479C24.7811 12.065 24.7811 12.0813 24.7811 12.0984Z" fill="#00A513"/>
<path fill-rule="evenodd" clip-rule="evenodd" d="M0.334642 12.0478C0.686447 11.7765 1.02224 11.477 1.39343 11.2408C2.76188 10.3713 4.1483 10.6254 5.44538 11.839C4.88732 11.839 4.37704 11.8133 3.87069 11.8458C3.36096 11.8783 2.8546 11.969 2.34825 12.0692C3.34803 12.3542 4.36495 12.397 5.45746 12.3456C4.81258 12.9216 4.16376 13.3204 3.38344 13.4222C2.23951 13.5703 1.34005 13.0114 0.51083 12.2652C0.450697 12.2112 0.392529 12.1539 0.333801 12.0983C0.334644 12.0811 0.334642 12.0649 0.334642 12.0478Z" fill="#00A513"/>
<path fill-rule="evenodd" clip-rule="evenodd" d="M16.3388 5.64461C16.9033 4.71008 17.3692 3.75241 17.6536 2.70233C16.9466 3.48542 16.3992 4.38487 15.9322 5.35279C15.7107 4.86413 15.772 3.6249 16.0547 2.96336C16.5641 1.77035 17.5383 1.21921 18.6413 0.833252C19.2252 2.97276 18.5384 4.91717 16.3388 5.64461Z" fill="#00A513"/>
<path fill-rule="evenodd" clip-rule="evenodd" d="M7.44174 2.72367C7.7559 3.75407 8.20577 4.716 8.77029 5.63001C6.99102 5.40492 5.72289 2.77076 6.46219 0.864868C8.60675 1.45537 9.66301 3.10538 9.21145 5.35958C8.9417 4.8846 8.69611 4.41047 8.41202 3.96374C8.1285 3.51871 7.80732 3.10109 7.50216 2.67147C7.4822 2.68944 7.46197 2.70657 7.44174 2.72367Z" fill="#00A513"/>
<path fill-rule="evenodd" clip-rule="evenodd" d="M12.4844 4.06061C12.4321 4.82827 12.3796 5.59594 12.3282 6.34476C11.2944 5.66953 11.3967 3.51034 12.5496 2.42603C13.7146 3.6173 13.8515 5.06876 12.7879 6.38244C12.737 5.60963 12.6864 4.83684 12.6356 4.06403C12.585 4.06319 12.535 4.06232 12.4844 4.06061Z" fill="#00A513"/>
<path fill-rule="evenodd" clip-rule="evenodd" d="M8.0289 15.0911C7.5321 16.7796 6.24487 17.3642 4.69995 16.9294C4.74491 15.5045 6.49917 14.2704 7.81788 14.7505C7.4953 14.9585 7.17075 15.1493 6.86474 15.3693C6.56689 15.5832 6.28758 15.8271 6.02035 16.0881C6.73745 15.8887 7.38008 15.531 8.0289 15.0911Z" fill="#00A513"/>
<path fill-rule="evenodd" clip-rule="evenodd" d="M4.68155 7.25443C6.24023 6.81196 7.53956 7.39479 8.01472 9.05076C7.68202 8.8582 7.36478 8.6571 7.03321 8.4868C6.69995 8.31562 6.35291 8.17443 5.99717 8.0486C6.53247 8.61688 7.16049 9.03965 7.83657 9.4162C6.25372 9.81671 5.10585 8.93008 4.68155 7.25443Z" fill="#00A513"/>
<path fill-rule="evenodd" clip-rule="evenodd" d="M17.327 9.44364C17.9388 9.00374 18.5539 8.56129 19.169 8.11884C19.153 8.09231 19.1375 8.06577 19.1223 8.03923C18.4083 8.27118 17.7528 8.63659 17.1152 9.0628C17.2149 7.69006 19.0361 6.7059 20.4298 7.25531C20.0538 8.81633 18.9877 9.80648 17.327 9.44364Z" fill="#00A513"/>
<path fill-rule="evenodd" clip-rule="evenodd" d="M17.2769 14.7537C18.8283 14.3908 20.0006 15.1816 20.4257 16.9078C19.0207 17.3708 17.5837 16.8522 17.1119 15.1619C17.7608 15.4966 18.4321 15.8432 19.1045 16.1898C19.1182 16.1624 19.1317 16.135 19.1455 16.1076C18.5939 15.5633 17.962 15.1405 17.2769 14.7537Z" fill="#00A513"/>
<path fill-rule="evenodd" clip-rule="evenodd" d="M10.1891 7.8191C10.3107 8.08612 10.433 8.35227 10.5555 8.62186C9.91536 8.43871 9.6383 7.80113 9.82938 7.09082C10.4563 7.13275 10.9531 7.90982 10.7286 8.49691C10.574 8.25642 10.4203 8.01594 10.2655 7.77546C10.2408 7.79001 10.2149 7.80457 10.1891 7.8191Z" fill="#00A513"/>
<path fill-rule="evenodd" clip-rule="evenodd" d="M14.3849 8.49939C14.1798 7.90629 14.592 7.24304 15.2681 7.07788C15.5097 7.7822 15.1885 8.44374 14.5605 8.6286C14.6934 8.33421 14.8238 8.04493 14.955 7.75482C14.9356 7.74197 14.9163 7.72999 14.8963 7.71717C14.7255 7.97904 14.5549 8.24007 14.3849 8.49939Z" fill="#00A513"/>
<path fill-rule="evenodd" clip-rule="evenodd" d="M16.3799 12.2035C16.6941 12.1761 16.983 12.1522 17.2721 12.1265C17.2713 12.1 17.2713 12.0734 17.2704 12.046C16.9773 12.0229 16.6843 11.9998 16.3954 11.9767C16.8422 11.4598 17.5329 11.5557 17.9974 12.0675C17.5837 12.6349 16.8694 12.6965 16.3799 12.2035Z" fill="#00A513"/>
<path d="M12.3507 17.3862C14.6029 17.3862 16.435 15.58 16.435 13.3599C16.435 11.9267 15.6712 10.6662 14.5242 9.95251V10.9316C15.2326 11.5473 15.6358 12.4235 15.6358 13.3599C15.6358 15.1456 14.1623 16.5984 12.3507 16.5984C10.5394 16.5984 9.06587 15.1456 9.06587 13.3599C9.06587 12.4235 9.4691 11.5473 10.1775 10.9316V9.95254C9.03047 10.6662 8.26672 11.9267 8.26672 13.3599C8.26672 15.58 10.0988 17.3862 12.3507 17.3862Z" fill="url(#paint0_linear)"/>
<path d="M10.8355 11.0826C10.8355 11.1813 10.7903 11.2746 10.7119 11.3362C10.0841 11.831 9.72418 12.5686 9.72418 13.3597C9.72418 14.7875 10.9024 15.949 12.3504 15.949C13.7986 15.949 14.9768 14.7875 14.9768 13.3597C14.9768 12.5686 14.6169 11.8311 13.9889 11.3362C13.9107 11.2746 13.8652 11.1813 13.8652 11.0826V9.61954C13.3841 9.42956 12.8755 9.33337 12.3504 9.33337C11.8255 9.33337 11.3169 9.42956 10.8355 9.61954V11.0826ZM14.0774 13.3597C14.0774 14.2985 13.3027 15.0623 12.3504 15.0623C11.3981 15.0623 10.6234 14.2985 10.6234 13.3597C10.6234 12.4209 11.3981 11.6571 12.3504 11.6571C13.3027 11.6571 14.0774 12.4209 14.0774 13.3597ZM12.7176 10.6623C12.7266 10.8579 12.5426 11.0244 12.3504 11.0244C12.1447 11.0244 11.9921 10.8585 11.9831 10.6623C11.9744 10.4668 12.1584 10.3003 12.3504 10.3003C12.5563 10.3003 12.7089 10.4662 12.7176 10.6623Z" fill="url(#paint1_linear)"/>
<path d="M12.3507 14.4131C12.9408 14.4131 13.4193 13.9415 13.4193 13.3597C13.4193 12.778 12.9408 12.3064 12.3507 12.3064C11.7606 12.3064 11.2823 12.778 11.2823 13.3597C11.2823 13.9415 11.7606 14.4131 12.3507 14.4131Z" fill="#FF3D00"/>
<defs>
<linearGradient id="paint0_linear" x1="12.3509" y1="9.95251" x2="12.3509" y2="17.3862" gradientUnits="userSpaceOnUse">
<stop stop-color="#00FFE0"/>
<stop offset="1" stop-color="#02827A"/>
</linearGradient>
<linearGradient id="paint1_linear" x1="12.3505" y1="9.33337" x2="12.3505" y2="15.949" gradientUnits="userSpaceOnUse">
<stop stop-color="#00FFE0"/>
<stop offset="1" stop-color="#02827A"/>
</linearGradient>
</defs>
</svg>
