<svg width="23" height="23" viewBox="0 0 23 23" fill="none" xmlns="http://www.w3.org/2000/svg">
<g clip-path="url(#clip0)">
<path d="M5.09729 13.8991L4.29669 16.8879L1.37052 16.9498C0.496027 15.3278 0 13.472 0 11.4999C0 9.59295 0.463773 7.79463 1.28584 6.21118H1.28647L3.89158 6.68879L5.03278 9.27827C4.79393 9.9746 4.66374 10.7221 4.66374 11.4999C4.66383 12.3441 4.81675 13.1529 5.09729 13.8991Z" fill="#FBBB00"/>
<path d="M22.7992 9.35159C22.9312 10.0473 23.0001 10.7657 23.0001 11.4999C23.0001 12.3233 22.9136 13.1264 22.7486 13.9011C22.1888 16.5372 20.726 18.8391 18.6997 20.468L18.699 20.4674L15.4177 20.3L14.9533 17.401C16.2979 16.6124 17.3488 15.3784 17.9023 13.9011H11.7529V9.35159H17.992H22.7992Z" fill="#518EF8"/>
<path d="M18.6987 20.4675L18.6993 20.4681C16.7286 22.0522 14.2251 23 11.4998 23C7.12036 23 3.31274 20.5522 1.37036 16.9499L5.09713 13.8992C6.06829 16.4912 8.5686 18.3362 11.4998 18.3362C12.7598 18.3362 13.9401 17.9956 14.953 17.401L18.6987 20.4675Z" fill="#28B446"/>
<path d="M18.8405 2.64752L15.115 5.69753C14.0667 5.0423 12.8276 4.66379 11.5 4.66379C8.50245 4.66379 5.95538 6.5935 5.03287 9.27834L1.28652 6.21126H1.28589C3.19983 2.52115 7.05547 0 11.5 0C14.2904 0 16.8488 0.993941 18.8405 2.64752Z" fill="#F14336"/>
</g>
<defs>
<clipPath id="clip0">
<rect width="23" height="23" fill="white"/>
</clipPath>
</defs>
</svg>
