<svg width="311" height="90" viewBox="0 0 311 90" fill="none" xmlns="http://www.w3.org/2000/svg">
<path d="M8.28 68C7.34647 68 6.53471 67.655 5.84471 66.965C5.15471 66.275 4.80971 65.4632 4.80971 64.5297V27.0262C4.80971 26.0926 5.15471 25.2809 5.84471 24.5909C6.53471 23.9009 7.34647 23.5559 8.28 23.5559H9.80206C10.8574 23.5559 11.8315 23.84 12.7244 24.4082C13.6174 24.9765 14.2668 25.7274 14.6726 26.6609L25.3271 49.6744C25.3271 49.715 25.3474 49.7353 25.3879 49.7353C25.4285 49.7353 25.4488 49.715 25.4488 49.6744L36.1032 26.6609C36.5091 25.7274 37.1585 24.9765 38.0515 24.4082C38.9444 23.84 39.9185 23.5559 40.9738 23.5559H42.7394C43.6729 23.5559 44.4847 23.9009 45.1747 24.5909C45.8647 25.2809 46.2097 26.0926 46.2097 27.0262V64.5297C46.2097 65.4632 45.8647 66.275 45.1747 66.965C44.4847 67.655 43.6729 68 42.7394 68H41.4C40.4665 68 39.6547 67.655 38.9647 66.965C38.2747 66.275 37.9297 65.4632 37.9297 64.5297V38.0459C37.9297 38.0053 37.9094 37.985 37.8688 37.985C37.8282 37.985 37.8079 38.0053 37.8079 38.0459L30.5021 53.6926C30.0556 54.6262 29.3656 55.3974 28.4321 56.0062C27.5391 56.5744 26.5853 56.8585 25.5706 56.8585H25.2053C24.1906 56.8585 23.2165 56.5744 22.2829 56.0062C21.39 55.3974 20.7203 54.6262 20.2738 53.6926L12.9679 38.0459C12.9679 38.0053 12.9476 37.985 12.9071 37.985C12.8665 37.985 12.8462 38.0053 12.8462 38.0459V64.5297C12.8462 65.4632 12.5012 66.275 11.8112 66.965C11.1212 67.655 10.3094 68 9.37588 68H8.28ZM73.8436 44.195C72.6666 42.4903 70.8807 41.6379 68.486 41.6379C66.0913 41.6379 64.2851 42.4903 63.0675 44.195C61.8904 45.8591 61.3019 48.5176 61.3019 52.1706C61.3019 55.8235 61.8904 58.5024 63.0675 60.2071C64.2851 61.8712 66.0913 62.7032 68.486 62.7032C70.8807 62.7032 72.6666 61.8712 73.8436 60.2071C75.0613 58.5024 75.6701 55.8235 75.6701 52.1706C75.6701 48.5176 75.0613 45.8591 73.8436 44.195ZM79.8101 64.3471C77.1313 67.1882 73.3566 68.6088 68.486 68.6088C63.6154 68.6088 59.8204 67.1882 57.101 64.3471C54.4222 61.4653 53.0828 57.4065 53.0828 52.1706C53.0828 46.9347 54.4222 42.8962 57.101 40.055C59.8204 37.1732 63.6154 35.7324 68.486 35.7324C73.3566 35.7324 77.1313 37.1732 79.8101 40.055C82.5295 42.8962 83.8892 46.9347 83.8892 52.1706C83.8892 57.4065 82.5295 61.4653 79.8101 64.3471ZM103.324 41.6988C98.3722 41.6988 95.8964 43.1397 95.8964 46.0215C95.8964 48.9844 98.4737 50.4659 103.628 50.4659H106.003C106.328 50.4659 106.49 50.2832 106.49 49.9179V42.3685C106.49 42.0032 106.328 41.8206 106.003 41.8206C104.785 41.7394 103.892 41.6988 103.324 41.6988ZM95.7746 53.4491C93.5422 52.8403 91.7158 51.8256 90.2952 50.405C88.8746 48.9438 88.1643 47.2188 88.1643 45.23C88.1643 39.02 93.0958 35.915 102.959 35.915C105.475 35.915 108.195 36.0165 111.117 36.2194C112.091 36.26 112.903 36.6659 113.552 37.4371C114.242 38.1676 114.587 39.02 114.587 39.9941V64.5297C114.587 65.4632 114.242 66.275 113.552 66.965C112.862 67.655 112.05 68 111.117 68H109.96C109.027 68 108.215 67.655 107.525 66.965C106.835 66.275 106.49 65.4632 106.49 64.5297V56.5541C106.49 56.2294 106.328 56.0671 106.003 56.0671H103.994C102.411 56.0671 101.315 56.27 100.706 56.6759C100.097 57.0412 99.4275 58.0153 98.697 59.5982L96.4443 64.8341C95.9978 65.7676 95.3281 66.5388 94.4352 67.1476C93.5828 67.7159 92.6493 68 91.6346 68H90.5387C89.727 68 89.0978 67.655 88.6514 66.965C88.2455 66.275 88.2049 65.5647 88.5296 64.8341L91.1475 59.1721C92.487 56.2903 94.0496 54.4435 95.8355 53.6318C95.8761 53.6318 95.8964 53.6115 95.8964 53.5709C95.8964 53.4897 95.8558 53.4491 95.7746 53.4491ZM123.361 68C122.59 68 122.001 67.6753 121.595 67.0259C121.189 66.3359 121.169 65.6459 121.534 64.9559L132.25 45.23C132.412 44.9459 132.392 44.6415 132.189 44.3168L122.022 26.5391C121.616 25.8491 121.595 25.1794 121.961 24.53C122.367 23.8806 122.955 23.5559 123.726 23.5559H125.674C126.73 23.5559 127.704 23.8197 128.597 24.3474C129.53 24.875 130.261 25.6056 130.789 26.5391L138.947 40.9074C139.109 41.1915 139.373 41.3335 139.738 41.3335H141.687C142.052 41.3335 142.234 41.1712 142.234 40.8465V27.0262C142.234 26.0926 142.559 25.2809 143.209 24.5909C143.899 23.9009 144.71 23.5559 145.644 23.5559H147.105C148.039 23.5559 148.83 23.9009 149.479 24.5909C150.169 25.2809 150.514 26.0926 150.514 27.0262V40.8465C150.514 41.1712 150.697 41.3335 151.062 41.3335H153.011C153.376 41.3335 153.64 41.1915 153.802 40.9074L161.96 26.5391C162.488 25.6056 163.198 24.875 164.091 24.3474C165.025 23.8197 166.019 23.5559 167.074 23.5559H169.023C169.794 23.5559 170.362 23.8806 170.727 24.53C171.133 25.1794 171.133 25.8491 170.727 26.5391L160.56 44.3168C160.357 44.6415 160.337 44.9459 160.499 45.23L171.214 64.9559C171.58 65.6459 171.559 66.3359 171.154 67.0259C170.748 67.6753 170.159 68 169.388 68H167.318C166.263 68 165.268 67.7362 164.335 67.2085C163.442 66.6403 162.752 65.8894 162.265 64.9559L153.802 48.7612C153.68 48.4365 153.417 48.2741 153.011 48.2741H151.062C150.697 48.2741 150.514 48.4568 150.514 48.8221V64.5297C150.514 65.4632 150.169 66.275 149.479 66.965C148.83 67.655 148.039 68 147.105 68H145.644C144.71 68 143.899 67.655 143.209 66.965C142.559 66.275 142.234 65.4632 142.234 64.5297V48.8221C142.234 48.4568 142.052 48.2741 141.687 48.2741H139.738C139.332 48.2741 139.069 48.4365 138.947 48.7612L130.484 64.9559C129.997 65.8894 129.287 66.6403 128.353 67.2085C127.46 67.7362 126.486 68 125.431 68H123.361ZM180.627 68C179.693 68 178.882 67.655 178.192 66.965C177.502 66.275 177.157 65.4632 177.157 64.5297V39.8115C177.157 38.8779 177.502 38.0662 178.192 37.3762C178.882 36.6862 179.693 36.3412 180.627 36.3412H181.784C182.717 36.3412 183.529 36.6862 184.219 37.3762C184.909 38.0662 185.254 38.8779 185.254 39.8115V56.9194L185.315 56.9803L185.376 56.9194L195.178 39.3244C196.314 37.3356 198.039 36.3412 200.353 36.3412H201.692C202.626 36.3412 203.438 36.6862 204.128 37.3762C204.818 38.0662 205.163 38.8779 205.163 39.8115V64.5297C205.163 65.4632 204.818 66.275 204.128 66.965C203.438 67.655 202.626 68 201.692 68H200.536C199.602 68 198.79 67.655 198.1 66.965C197.41 66.275 197.065 65.4632 197.065 64.5297V47.4218L197.004 47.3609L196.943 47.4218L187.141 65.0168C186.005 67.0056 184.28 68 181.966 68H180.627ZM214.639 67.6347C213.787 67.4318 213.077 66.965 212.508 66.2344C211.981 65.5038 211.717 64.6718 211.717 63.7382C211.717 63.0076 212.021 62.4191 212.63 61.9726C213.239 61.5262 213.909 61.4044 214.639 61.6074C217.278 62.2974 219.956 62.6424 222.676 62.6424C227.668 62.6424 230.164 61.2421 230.164 58.4415C230.164 57.0615 229.373 56.0265 227.79 55.3365C226.248 54.6465 223.508 54.2812 219.571 54.2406C218.84 54.2406 218.211 53.9768 217.683 53.4491C217.156 52.8809 216.892 52.2315 216.892 51.5009C216.892 50.7703 217.156 50.1412 217.683 49.6135C218.211 49.0859 218.84 48.8221 219.571 48.8221C226.349 48.7003 229.738 47.4218 229.738 44.9865C229.738 42.6729 227.242 41.5162 222.25 41.5162C220.139 41.5162 217.765 41.8815 215.126 42.6121C214.396 42.815 213.726 42.7135 213.117 42.3076C212.508 41.9018 212.204 41.3132 212.204 40.5421C212.204 39.6085 212.468 38.7968 212.995 38.1068C213.523 37.3762 214.233 36.9094 215.126 36.7065C217.724 36.0571 220.362 35.7324 223.041 35.7324C227.628 35.7324 231.22 36.5238 233.817 38.1068C236.455 39.6491 237.775 41.5365 237.775 43.7688C237.775 45.4735 237.125 46.9956 235.826 48.335C234.568 49.6744 232.742 50.6485 230.347 51.2574C230.266 51.2574 230.225 51.2979 230.225 51.3791C230.225 51.4197 230.266 51.44 230.347 51.44C232.701 51.8053 234.588 52.7388 236.009 54.2406C237.47 55.7424 238.201 57.4876 238.201 59.4765C238.201 62.2365 236.882 64.4485 234.243 66.1126C231.646 67.7768 227.912 68.6088 223.041 68.6088C220.2 68.6088 217.399 68.2841 214.639 67.6347ZM248.167 68C247.233 68 246.422 67.655 245.732 66.965C245.082 66.275 244.758 65.4632 244.758 64.5297V39.8115C244.758 38.8779 245.082 38.0662 245.732 37.3762C246.422 36.6862 247.233 36.3412 248.167 36.3412H249.506C250.44 36.3412 251.252 36.6862 251.942 37.3762C252.632 38.0662 252.977 38.8779 252.977 39.8115V47.9697C252.977 48.335 253.159 48.5176 253.525 48.5176H263.753C264.118 48.5176 264.301 48.335 264.301 47.9697V39.8115C264.301 38.8779 264.646 38.0662 265.336 37.3762C266.026 36.6862 266.838 36.3412 267.771 36.3412H269.11C270.044 36.3412 270.835 36.6862 271.485 37.3762C272.175 38.0662 272.52 38.8779 272.52 39.8115V64.5297C272.52 65.4632 272.175 66.275 271.485 66.965C270.835 67.655 270.044 68 269.11 68H267.771C266.838 68 266.026 67.655 265.336 66.965C264.646 66.275 264.301 65.4632 264.301 64.5297V54.7885C264.301 54.4232 264.118 54.2406 263.753 54.2406H253.525C253.159 54.2406 252.977 54.4232 252.977 54.7885V64.5297C252.977 65.4632 252.632 66.275 251.942 66.965C251.252 67.655 250.44 68 249.506 68H248.167ZM288.821 51.5618V61.79C288.821 62.1147 289.004 62.3176 289.369 62.3988C290.465 62.6018 291.439 62.7032 292.291 62.7032C294.889 62.7032 296.776 62.1959 297.953 61.1812C299.171 60.1259 299.78 58.5024 299.78 56.3106C299.78 54.5247 299.131 53.1447 297.832 52.1706C296.573 51.1559 294.686 50.6485 292.17 50.6485C291.277 50.6485 290.323 50.75 289.308 50.9529C288.983 51.0341 288.821 51.2371 288.821 51.5618ZM284.316 68.1826C283.342 68.0609 282.53 67.6144 281.881 66.8432C281.231 66.0721 280.906 65.1994 280.906 64.2253V39.8115C280.906 38.8779 281.251 38.0662 281.941 37.3762C282.631 36.6862 283.443 36.3412 284.377 36.3412H285.412C286.345 36.3412 287.137 36.6862 287.786 37.3762C288.476 38.0662 288.821 38.8779 288.821 39.8115V44.6212C288.821 44.7429 288.882 44.8647 289.004 44.9865C289.126 45.1082 289.247 45.1488 289.369 45.1082C290.993 44.8647 292.332 44.7429 293.387 44.7429C297.893 44.7429 301.343 45.7779 303.737 47.8479C306.173 49.9179 307.39 52.7388 307.39 56.3106C307.39 60.4506 306.112 63.5353 303.555 65.5647C300.998 67.5941 297 68.6088 291.561 68.6088C288.882 68.6088 286.467 68.4668 284.316 68.1826Z" fill="url(#paint0_linear)"/>
<path fill-rule="evenodd" clip-rule="evenodd" d="M213.142 24.8795C212.257 25.7675 211.274 26.4955 210.121 26.938C208.367 27.61 206.753 27.2113 205.226 26.207C204.869 25.9729 204.54 25.692 204.204 25.3764C206.019 25.4066 207.816 25.3326 209.579 24.9007C209.582 24.8569 209.584 24.8146 209.585 24.7708C208.691 24.656 207.802 24.4959 206.905 24.437C206.015 24.3796 205.117 24.4249 204.222 24.4249C204.2 24.3781 204.178 24.3298 204.156 24.283C204.737 23.8948 205.294 23.4569 205.902 23.1246C208.015 21.9723 210.003 22.3891 211.882 23.7664C212.317 24.0851 212.723 24.4476 213.141 24.7904C213.142 24.8206 213.142 24.8493 213.142 24.8795Z" fill="#00A513"/>
<path fill-rule="evenodd" clip-rule="evenodd" d="M170.001 24.7902C170.622 24.3114 171.215 23.7829 171.87 23.3661C174.285 21.8316 176.731 22.2802 179.02 24.4217C178.036 24.4217 177.135 24.3764 176.242 24.4338C175.342 24.4912 174.448 24.6513 173.555 24.8279C175.319 25.3309 177.114 25.4064 179.042 25.3158C177.904 26.3322 176.759 27.036 175.382 27.2157C173.363 27.4769 171.776 26.4907 170.312 25.1738C170.206 25.0786 170.104 24.9775 170 24.8793C170.001 24.8491 170.001 24.8204 170.001 24.7902Z" fill="#00A513"/>
<path fill-rule="evenodd" clip-rule="evenodd" d="M198.244 13.4906C199.241 11.8415 200.063 10.1515 200.565 8.29837C199.317 9.68029 198.351 11.2676 197.527 12.9757C197.136 12.1133 197.244 9.92644 197.743 8.75901C198.642 6.65371 200.361 5.6811 202.308 5C203.338 8.77561 202.126 12.2069 198.244 13.4906Z" fill="#00A513"/>
<path fill-rule="evenodd" clip-rule="evenodd" d="M182.544 8.33615C183.098 10.1545 183.892 11.852 184.888 13.465C181.748 13.0678 179.51 8.41924 180.815 5.05591C184.599 6.09797 186.463 9.00975 185.667 12.9877C185.191 12.1496 184.757 11.3128 184.256 10.5245C183.756 9.73916 183.189 9.00219 182.65 8.24403C182.615 8.27574 182.579 8.30597 182.544 8.33615Z" fill="#00A513"/>
<path fill-rule="evenodd" clip-rule="evenodd" d="M191.442 10.6951C191.35 12.0498 191.257 13.4045 191.167 14.726C189.342 13.5344 189.523 9.72404 191.557 7.81055C193.613 9.91279 193.855 12.4742 191.978 14.7925C191.888 13.4287 191.799 12.0649 191.709 10.7011C191.62 10.6997 191.532 10.6981 191.442 10.6951Z" fill="#00A513"/>
<path fill-rule="evenodd" clip-rule="evenodd" d="M183.58 30.1608C182.703 33.1405 180.431 34.172 177.705 33.4048C177.784 30.8902 180.88 28.7124 183.207 29.5597C182.638 29.9267 182.065 30.2635 181.525 30.6516C181 31.0291 180.507 31.4596 180.035 31.9202C181.301 31.5683 182.435 30.937 183.58 30.1608Z" fill="#00A513"/>
<path fill-rule="evenodd" clip-rule="evenodd" d="M177.672 16.3315C180.423 15.5506 182.716 16.5792 183.554 19.5015C182.967 19.1617 182.407 18.8068 181.822 18.5062C181.234 18.2042 180.622 17.955 179.994 17.733C180.939 18.7358 182.047 19.4819 183.24 20.1464C180.447 20.8532 178.421 19.2885 177.672 16.3315Z" fill="#00A513"/>
<path fill-rule="evenodd" clip-rule="evenodd" d="M199.988 20.1946C201.067 19.4183 202.153 18.6375 203.238 17.8567C203.21 17.8099 203.183 17.763 203.156 17.7162C201.896 18.1255 200.739 18.7704 199.614 19.5225C199.79 17.1 203.004 15.3633 205.463 16.3328C204.8 19.0875 202.918 20.8349 199.988 20.1946Z" fill="#00A513"/>
<path fill-rule="evenodd" clip-rule="evenodd" d="M199.9 29.5657C202.638 28.9253 204.706 30.3208 205.457 33.367C202.977 34.184 200.441 33.2688 199.609 30.2861C200.754 30.8766 201.938 31.4883 203.125 32.0999C203.149 32.0515 203.173 32.0032 203.197 31.9549C202.224 30.9944 201.109 30.2483 199.9 29.5657Z" fill="#00A513"/>
<path fill-rule="evenodd" clip-rule="evenodd" d="M187.391 17.3282C187.606 17.7994 187.822 18.2691 188.038 18.7448C186.908 18.4216 186.419 17.2965 186.757 16.043C187.863 16.117 188.74 17.4883 188.343 18.5243C188.071 18.0999 187.799 17.6755 187.526 17.2512C187.483 17.2768 187.437 17.3025 187.391 17.3282Z" fill="#00A513"/>
<path fill-rule="evenodd" clip-rule="evenodd" d="M194.796 18.5288C194.434 17.4822 195.162 16.3117 196.355 16.0203C196.781 17.2632 196.214 18.4306 195.106 18.7568C195.341 18.2373 195.571 17.7268 195.802 17.2149C195.768 17.1922 195.734 17.171 195.699 17.1484C195.397 17.6105 195.096 18.0712 194.796 18.5288Z" fill="#00A513"/>
<path fill-rule="evenodd" clip-rule="evenodd" d="M198.317 25.0653C198.871 25.017 199.381 24.9747 199.891 24.9294C199.89 24.8826 199.89 24.8358 199.888 24.7874C199.371 24.7467 198.854 24.7059 198.344 24.6651C199.133 23.7529 200.351 23.9221 201.171 24.8252C200.441 25.8265 199.181 25.9352 198.317 25.0653Z" fill="#00A513"/>
<path d="M191.207 34.2106C195.181 34.2106 198.415 31.0232 198.415 27.1052C198.415 24.5761 197.067 22.3517 195.043 21.0923V22.82C196.293 23.9066 197.004 25.4529 197.004 27.1052C197.004 30.2566 194.404 32.8203 191.207 32.8203C188.011 32.8203 185.41 30.2566 185.41 27.1053C185.41 25.4529 186.122 23.9066 187.372 22.8201V21.0923C185.348 22.3517 184 24.5761 184 27.1053C184 31.0232 187.233 34.2106 191.207 34.2106Z" fill="url(#paint1_linear)"/>
<path d="M188.533 23.087C188.533 23.2611 188.454 23.4257 188.315 23.5344C187.207 24.4076 186.572 25.7092 186.572 27.1054C186.572 29.6249 188.651 31.6746 191.207 31.6746C193.762 31.6746 195.842 29.6249 195.842 27.1054C195.842 25.7092 195.206 24.4077 194.098 23.5344C193.96 23.4257 193.88 23.261 193.88 23.087V20.505C193.031 20.1697 192.134 20 191.207 20C190.28 20 189.383 20.1697 188.533 20.505V23.087ZM194.254 27.1054C194.254 28.7621 192.887 30.11 191.207 30.11C189.526 30.11 188.159 28.7621 188.159 27.1054C188.159 25.4486 189.526 24.1008 191.207 24.1008C192.887 24.1008 194.254 25.4486 194.254 27.1054ZM191.855 22.3452C191.871 22.6903 191.546 22.9842 191.207 22.9842C190.844 22.9842 190.574 22.6914 190.559 22.3452C190.543 22.0001 190.868 21.7063 191.207 21.7063C191.57 21.7063 191.839 21.9991 191.855 22.3452Z" fill="url(#paint2_linear)"/>
<path d="M191.207 28.9643C192.248 28.9643 193.092 28.132 193.092 27.1054C193.092 26.0788 192.248 25.2466 191.207 25.2466C190.165 25.2466 189.321 26.0788 189.321 27.1054C189.321 28.132 190.165 28.9643 191.207 28.9643Z" fill="url(#paint3_linear)"/>
<defs>
<linearGradient id="paint0_linear" x1="155.5" y1="0" x2="155.5" y2="90" gradientUnits="userSpaceOnUse">
<stop stop-color="#00FFE0"/>
<stop offset="1" stop-color="#02827A"/>
</linearGradient>
<linearGradient id="paint1_linear" x1="191.207" y1="21.0923" x2="191.207" y2="34.2106" gradientUnits="userSpaceOnUse">
<stop stop-color="#00FFE0"/>
<stop offset="1" stop-color="#02827A"/>
</linearGradient>
<linearGradient id="paint2_linear" x1="191.207" y1="20" x2="191.207" y2="31.6746" gradientUnits="userSpaceOnUse">
<stop stop-color="#00FFE0"/>
<stop offset="1" stop-color="#02827A"/>
</linearGradient>
<linearGradient id="paint3_linear" x1="191.207" y1="25.2466" x2="191.207" y2="28.9643" gradientUnits="userSpaceOnUse">
<stop stop-color="#00FFE0"/>
<stop offset="1" stop-color="#02827A"/>
</linearGradient>
</defs>
</svg>
