<svg width="46" height="31" viewBox="0 0 46 31" fill="none" xmlns="http://www.w3.org/2000/svg">
<path d="M23.3818 28.0405C27.3568 28.0405 30.5889 24.7788 30.5889 20.774C30.5889 18.1884 29.2441 15.9073 27.2157 14.6219V16.3903C28.4639 17.5048 29.1772 19.0874 29.1772 20.774C29.1772 23.9986 26.5767 26.6214 23.3818 26.6214C20.1869 26.6214 17.5864 23.9986 17.5864 20.774C17.5864 19.08 18.2997 17.5048 19.5479 16.3903V14.6219C17.5269 15.9073 16.1747 18.1884 16.1747 20.774C16.1747 24.7788 19.4067 28.0405 23.3818 28.0405Z" fill="#0085FF"/>
<path d="M20.707 16.6652C20.707 16.8435 20.6253 17.0144 20.4915 17.1258C19.3845 18.0174 18.7455 19.3474 18.7455 20.7814C18.7455 23.3596 20.8259 25.4549 23.3818 25.4549C25.9377 25.4549 28.0181 23.3596 28.0181 20.7814C28.0181 19.3548 27.3791 18.0249 26.2721 17.1258C26.1383 17.0144 26.0566 16.8435 26.0566 16.6652V14.0201C25.2096 13.6783 24.3106 13.5 23.3818 13.5C22.4531 13.5 21.554 13.6709 20.707 14.0201V16.6652ZM26.4281 20.774C26.4281 22.468 25.061 23.85 23.3818 23.85C21.7026 23.85 20.3355 22.468 20.3355 20.774C20.3355 19.0799 21.7026 17.698 23.3818 17.698C25.061 17.698 26.4281 19.0799 26.4281 20.774ZM24.0282 15.8999C24.0431 16.2565 23.7162 16.5537 23.3818 16.5537C23.0177 16.5537 22.7503 16.2565 22.7354 15.8999C22.7205 15.5433 23.0475 15.2461 23.3818 15.2461C23.7459 15.2461 24.0134 15.5507 24.0282 15.8999Z" fill="#0085FF"/>
<path d="M23.3817 22.6762C24.4219 22.6762 25.2689 21.8218 25.2689 20.7742C25.2689 19.7265 24.4219 18.8721 23.3817 18.8721C22.3415 18.8721 21.4945 19.7265 21.4945 20.7742C21.4945 21.8218 22.3415 22.6762 23.3817 22.6762Z" fill="#FF3D00"/>
<path d="M45.8947 21.3092C44.9659 22.2603 43.9406 23.0404 42.7295 23.5159C40.8943 24.2366 39.2002 23.8057 37.6028 22.7358C37.2313 22.4832 36.8821 22.186 36.5329 21.8442C38.435 21.8739 40.3147 21.7996 42.1648 21.3315C42.1648 21.2869 42.1722 21.2424 42.1722 21.1903C41.2361 21.064 40.3073 20.8931 39.3637 20.8337C38.4349 20.7743 37.4913 20.8188 36.5552 20.8188C36.5329 20.7668 36.5106 20.7148 36.4883 20.6702C37.0975 20.2542 37.6771 19.7861 38.3161 19.4294C40.5302 18.1961 42.6106 18.6419 44.5796 20.1204C45.0328 20.4622 45.4637 20.8486 45.8947 21.2201C45.8947 21.2424 45.8947 21.2721 45.8947 21.3092Z" fill="#00A513"/>
<path d="M0.720267 21.2129C1.37411 20.7002 1.99079 20.1355 2.67435 19.6897C5.20056 18.0477 7.76391 18.5232 10.1638 20.8191C9.13103 20.8191 8.18742 20.7671 7.25124 20.8339C6.30763 20.8934 5.37145 21.0643 4.43527 21.2574C6.28534 21.7998 8.16513 21.8741 10.1787 21.7775C8.98986 22.8698 7.7862 23.6202 6.34478 23.8134C4.22723 24.0957 2.57033 23.0332 1.03975 21.6289C0.928302 21.5249 0.82428 21.4209 0.71283 21.3169C0.72026 21.2723 0.720267 21.2426 0.720267 21.2129Z" fill="#00A513"/>
<path d="M30.2991 9.10176C31.3393 7.33342 32.2011 5.52049 32.7287 3.53668C31.421 5.01525 30.4105 6.71673 29.5486 8.54451C29.14 7.62319 29.2514 5.2753 29.7715 4.02706C30.7151 1.76834 32.5132 0.728141 34.549 0C35.6264 4.05678 34.3633 7.72721 30.2991 9.10176Z" fill="#00A513"/>
<path d="M13.8565 3.58129C14.4361 5.52795 15.2682 7.3483 16.3084 9.07949C13.0169 8.65598 10.6765 3.67045 12.0436 0.0668945C16.0038 1.1814 17.9579 4.302 17.1257 8.56682C16.6279 7.66779 16.1747 6.76876 15.6472 5.92917C15.1271 5.08958 14.5327 4.29457 13.968 3.4847C13.9308 3.51442 13.8937 3.55157 13.8565 3.58129Z" fill="#00A513"/>
<path d="M23.1737 6.10748C23.0771 7.55634 22.9805 9.01262 22.8839 10.4243C20.9744 9.14636 21.1602 5.06728 23.2926 3.0166C25.4473 5.26789 25.6999 8.00957 23.7309 10.4986C23.6343 9.03491 23.5452 7.57863 23.4486 6.11491C23.3594 6.11491 23.2628 6.11491 23.1737 6.10748Z" fill="#00A513"/>
<path d="M14.9412 26.9635C14.0199 30.1584 11.6423 31.258 8.78918 30.4407C8.87091 27.7436 12.1178 25.4106 14.5549 26.3245C13.9605 26.7183 13.3586 27.0749 12.794 27.491C12.2441 27.8922 11.724 28.3603 11.2337 28.8507C12.5488 28.4718 13.7376 27.7956 14.9412 26.9635Z" fill="#00A513"/>
<path d="M8.75201 12.1482C11.6349 11.3086 14.0348 12.4156 14.9115 15.5437C14.2948 15.1796 13.7078 14.8007 13.0986 14.4738C12.4819 14.1468 11.8429 13.8868 11.1816 13.6416C12.1698 14.7189 13.3289 15.514 14.5771 16.2272C11.6571 16.9925 9.53216 15.3133 8.75201 12.1482Z" fill="#00A513"/>
<path d="M32.1195 16.2867C33.2489 15.4545 34.3856 14.6149 35.5224 13.7827C35.4927 13.7307 35.463 13.6787 35.4333 13.6341C34.1107 14.0725 32.8996 14.7635 31.7257 15.5659C31.9115 12.9729 35.2773 11.1079 37.848 12.1481C37.157 15.1053 35.1881 16.9702 32.1195 16.2867Z" fill="#00A513"/>
<path d="M32.0303 26.3246C34.8983 25.641 37.0679 27.1345 37.848 30.3962C35.255 31.273 32.595 30.2922 31.7257 27.0973C32.9219 27.7289 34.1627 28.3827 35.411 29.044C35.4333 28.992 35.463 28.9399 35.4853 28.8879C34.4599 27.8552 33.2934 27.0602 32.0303 26.3246Z" fill="#00A513"/>
</svg>
