<svg width="253" height="87" viewBox="0 0 253 87" fill="none" xmlns="http://www.w3.org/2000/svg">
<path d="M244.934 86.8891H7.90111C3.5555 86.8891 0 82.9791 0 78.2002V8.68891C0 3.91001 3.5555 0 7.90111 0H244.934C249.28 0 252.836 3.91001 252.836 8.68891V78.2002C252.836 82.9791 249.28 86.8891 244.934 86.8891Z" fill="white"/>
<path fill-rule="evenodd" clip-rule="evenodd" d="M19.3577 42.5754V19.7669C19.3577 18.4636 20.3453 17.3774 21.3329 17.3774C22.3206 17.3774 22.7156 17.5947 23.3082 18.0291L61.4311 41.0548C62.2212 41.4893 62.6162 42.1409 62.6162 42.7926C62.6162 43.4443 62.2212 44.096 61.4311 44.5304L23.3082 67.5561C22.9132 67.7733 22.3206 68.2078 21.3329 68.2078C20.3453 68.2078 19.3577 67.1217 19.3577 65.8183V42.5754Z" fill="url(#paint0_linear)"/>
<path fill-rule="evenodd" clip-rule="evenodd" d="M44.0487 42.7927L20.938 17.3774C21.1355 17.3774 21.1355 17.3774 21.333 17.3774C22.3207 17.3774 22.7157 17.5947 23.3083 18.0291L51.3573 34.9727L44.0487 42.7927Z" fill="url(#paint1_linear)"/>
<path fill-rule="evenodd" clip-rule="evenodd" d="M51.1597 50.3961L44.0487 42.5758L51.3572 34.5383L61.4312 40.6208C62.2213 41.0552 62.6163 41.7069 62.6163 42.3586C62.6163 43.0103 62.2213 43.662 61.4312 44.0964L51.1597 50.3961Z" fill="url(#paint2_linear)"/>
<path fill-rule="evenodd" clip-rule="evenodd" d="M21.1355 67.7744L44.0487 42.5762L51.1597 50.3963L23.3083 67.1227C22.7157 67.5572 22.3207 67.7744 21.1355 67.7744C21.333 67.7744 21.333 67.7744 21.1355 67.7744Z" fill="url(#paint3_linear)"/>
<path fill-rule="evenodd" clip-rule="evenodd" d="M140.442 73.6389C139.455 72.77 138.664 71.2495 138.269 70.3806L141.43 68.86C141.627 69.2945 142.022 69.9462 142.418 70.5978C143.208 71.4667 144.393 72.3356 145.578 72.3356C146.763 72.3356 148.146 71.6839 148.936 70.5978C149.529 69.5117 149.924 68.4256 149.924 66.905V65.6017C147.553 68.86 142.615 68.4256 139.85 64.95C136.887 61.4745 136.887 55.6095 139.85 52.1339C142.813 48.8756 147.158 48.4411 149.726 51.4823V49.9617H153.084V66.2534C153.084 70.3806 151.701 72.77 149.924 74.2906C148.738 75.3767 146.961 75.8112 145.38 75.8112C143.603 75.5939 141.825 74.9423 140.442 73.6389ZM223.206 74.5078L226.564 65.8189L220.639 50.8306H223.996L228.145 61.4745L232.293 50.8306H235.651L226.564 74.5078H223.206ZM207.207 66.2534C206.219 65.1673 205.824 63.6467 205.824 62.1261C205.824 60.8228 206.219 59.5195 207.009 58.6506C208.392 57.13 210.367 56.4784 212.54 56.4784C213.923 56.4784 215.108 56.6956 216.095 57.3473C216.095 54.7406 214.12 53.6545 212.54 53.6545C211.157 53.6545 209.774 54.5234 209.182 56.0439L206.219 54.7406C206.812 53.22 208.392 50.3961 212.342 50.3961C214.318 50.3961 216.293 51.0478 217.478 52.5684C218.663 54.0889 219.058 55.8267 219.058 58.2161V67.3395H215.7V65.8189C215.305 66.4706 214.515 66.905 213.923 67.3395C213.132 67.7739 212.145 67.9912 211.157 67.9912C209.972 67.7739 208.194 67.3395 207.207 66.2534ZM101.924 58.4334C101.924 54.0889 104.887 49.31 110.22 49.31C115.356 49.31 118.517 54.0889 118.517 58.4334C118.517 62.7778 115.554 67.5567 110.22 67.5567C104.887 67.5567 101.924 62.7778 101.924 58.4334ZM119.702 58.4334C119.702 54.0889 122.665 49.31 127.998 49.31C133.134 49.31 136.294 54.0889 136.294 58.4334C136.294 62.7778 133.331 67.5567 127.998 67.5567C122.862 67.5567 119.702 62.7778 119.702 58.4334ZM79.6037 63.2123C74.6655 57.7817 74.863 48.8756 79.8012 43.2278C82.3691 40.4039 85.5295 39.1006 88.8875 39.1006C92.0479 39.1006 95.2084 40.4039 97.5787 43.0106L95.2084 45.8345C91.6529 41.9245 85.9246 42.1417 82.5666 46.0517C79.0111 50.1789 79.0111 56.4784 82.5666 60.6056C86.1221 64.7328 92.0479 64.95 95.6034 60.8228C96.7886 59.5195 97.1837 57.7817 97.3812 56.0439H89.085V52.1339H100.739C100.937 53.0028 100.937 54.0889 100.937 55.175C100.937 58.4334 99.7515 61.6917 97.7762 63.8639C95.6034 66.2534 92.443 67.5567 89.2825 67.5567C85.727 67.3395 82.1715 66.0361 79.6037 63.2123ZM163.158 64.7328C160.195 61.2573 160.195 55.3923 163.158 51.6995C166.121 48.2239 171.059 48.2239 173.824 51.6995C174.812 52.7856 175.405 54.3061 175.997 55.8267L165.133 60.8228C165.726 62.3434 167.109 63.6467 169.084 63.6467C170.862 63.6467 172.047 62.995 173.232 61.04L176.195 63.2123C175.8 63.6467 175.405 64.0812 175.207 64.5156C171.849 68.2084 166.121 68.2084 163.158 64.7328ZM183.701 67.3395V43.2278H190.812C194.96 43.2278 198.318 46.4861 198.318 50.3961C198.318 54.3061 195.355 57.5645 191.602 57.5645H187.256V67.1223H183.701V67.3395ZM200.293 67.3395V43.2278H203.651V67.3395H200.293ZM155.652 66.905V39.9695H159.207V66.905H155.652ZM215.898 60.1712C215.108 59.5195 213.923 59.3023 212.737 59.3023C210.367 59.3023 208.984 60.6056 208.984 62.1261C208.984 63.6467 210.367 64.5156 211.75 64.5156C213.725 64.5156 215.898 62.7778 215.898 60.1712ZM114.764 58.4334C114.764 55.8267 113.183 53.0028 110.22 53.0028C107.258 53.0028 105.677 55.8267 105.677 58.4334C105.677 61.04 107.258 63.8639 110.22 63.8639C112.986 63.8639 114.764 61.04 114.764 58.4334ZM132.541 58.4334C132.541 55.8267 130.961 53.0028 127.998 53.0028C125.035 53.0028 123.455 55.8267 123.455 58.4334C123.455 61.04 125.035 63.8639 127.998 63.8639C130.961 63.8639 132.541 61.04 132.541 58.4334ZM150.121 59.9539C150.121 59.7367 150.121 59.5195 150.319 59.3023C150.319 59.085 150.319 58.6506 150.319 58.4334C150.319 58.2162 150.319 57.7817 150.319 57.5645V57.3473C150.319 57.13 150.121 56.6956 150.121 56.4784C149.529 54.3061 147.751 52.7856 145.973 52.7856C143.603 52.7856 141.627 55.3923 141.627 58.2161C141.627 61.2573 143.603 63.6467 146.171 63.6467C147.751 63.8639 149.331 62.3434 150.121 59.9539ZM164.541 57.9989L171.849 54.5234C171.059 53.0028 169.874 52.5684 168.886 52.5684C165.923 52.7856 164.146 56.2612 164.541 57.9989ZM194.762 50.6134C194.762 48.4411 193.182 46.9206 191.009 46.9206H187.059V54.5234H191.207C193.182 54.5234 194.762 52.7856 194.762 50.6134Z" fill="black"/>
<path fill-rule="evenodd" clip-rule="evenodd" d="M225.775 70.1675H225.577V69.9463H225.775H225.577V70.1675H225.775Z" fill="black"/>
<path fill-rule="evenodd" clip-rule="evenodd" d="M226.17 70.1675C226.17 69.9463 226.17 69.9463 226.17 70.1675C225.972 69.9463 225.972 69.9463 226.17 70.1675C225.972 70.1675 225.972 70.1675 226.17 70.1675ZM226.17 69.9463C226.17 70.1675 226.17 70.1675 226.17 69.9463C226.17 70.1675 225.972 70.1675 226.17 69.9463C225.972 69.9463 226.17 69.9463 226.17 69.9463Z" fill="black"/>
<path fill-rule="evenodd" clip-rule="evenodd" d="M226.368 69.9463H226.169H226.368V70.1675V69.9463Z" fill="black"/>
<path d="M76.8383 21.94C76.8383 18.0301 79.4061 15.6406 82.5666 15.6406C84.7394 15.6406 86.1221 16.7267 87.1097 18.2473L85.5295 19.3334C84.9369 18.4645 83.9493 17.8128 82.5666 17.8128C80.3938 17.8128 78.8135 19.5506 78.8135 22.1573C78.8135 24.7639 80.3938 26.5017 82.5666 26.5017C83.7517 26.5017 84.7394 25.85 85.1344 25.4156V23.4606H81.974V21.5056H87.3072V26.0673C86.3196 27.3706 84.7394 28.2395 82.7641 28.2395C79.4061 28.2395 76.8383 25.6328 76.8383 21.94Z" fill="black"/>
<path d="M89.6776 28.0217V15.8569H97.1837V17.812H91.4554V20.8532H96.9862V22.8083H91.4554V26.2839H97.1837V28.239L89.6776 28.0217Z" fill="black"/>
<path d="M102.714 28.0216V17.812H99.3564V15.8569H108.048V17.812H104.69V28.0216H102.714Z" fill="black"/>
<path d="M114.764 28.0216V15.8569H116.739V28.0216H114.764Z" fill="black"/>
<path d="M122.072 28.0216V17.812H118.714V15.8569H127.405V17.812H124.047V28.0216H122.072Z" fill="black"/>
<path d="M133.726 21.94C133.726 18.2473 136.097 15.6406 139.455 15.6406C142.813 15.6406 145.183 18.2473 145.183 21.94C145.183 25.6328 142.813 28.2395 139.455 28.2395C136.097 28.2395 133.726 25.4156 133.726 21.94ZM143.01 21.94C143.01 19.3334 141.627 17.5956 139.257 17.5956C137.084 17.5956 135.504 19.5506 135.504 21.94C135.504 24.5467 136.887 26.2845 139.257 26.2845C141.627 26.2845 143.01 24.3295 143.01 21.94Z" fill="black"/>
<path d="M155.059 28.0216L149.331 19.3326V28.0216H147.356V15.8569H149.331L155.059 24.3288V15.8569H157.035V28.0216H155.059Z" fill="black"/>
<defs>
<linearGradient id="paint0_linear" x1="32.1326" y1="14.279" x2="45.3509" y2="63.6422" gradientUnits="userSpaceOnUse">
<stop stop-color="#006884"/>
<stop offset="1" stop-color="#8AD1D0"/>
</linearGradient>
<linearGradient id="paint1_linear" x1="18.648" y1="21.3826" x2="50.0109" y2="36.8002" gradientUnits="userSpaceOnUse">
<stop stop-color="#24BBB6"/>
<stop offset="1" stop-color="#DBE692"/>
</linearGradient>
<linearGradient id="paint2_linear" x1="53.3215" y1="51.3087" x2="53.3215" y2="34.0424" gradientUnits="userSpaceOnUse">
<stop stop-color="#FCC072"/>
<stop offset="1" stop-color="#F58A5B"/>
</linearGradient>
<linearGradient id="paint3_linear" x1="24.483" y1="72.269" x2="50.588" y2="48.1107" gradientUnits="userSpaceOnUse">
<stop stop-color="#712B8F"/>
<stop offset="1" stop-color="#EA1D27"/>
</linearGradient>
</defs>
</svg>
