<svg width="43" height="43" viewBox="0 0 43 43" fill="none" xmlns="http://www.w3.org/2000/svg">
<g clip-path="url(#clip0)">
<path d="M30.4579 16.1267H12.5424C12.0479 16.1267 11.6466 16.528 11.6466 17.0225V31.3549C11.6466 33.5191 13.1873 35.3268 15.2297 35.7442V40.3127C15.2297 41.7943 16.4354 43 17.917 43C19.3986 43 20.6043 41.7943 20.6043 40.3127V35.8338H22.3958V40.3127C22.3958 41.7943 23.6015 43 25.0832 43C26.5648 43 27.7705 41.7943 27.7705 40.3127V35.7442C29.8129 35.3286 31.3536 33.5191 31.3536 31.3549V17.0225C31.3536 16.5263 30.9524 16.1267 30.4579 16.1267Z" fill="url(#paint0_linear)"/>
<path d="M26.1885 4.77382L27.6988 1.24982C27.894 0.794738 27.6826 0.26987 27.2276 0.0745356C26.7779 -0.122563 26.2458 0.088896 26.0523 0.545741L24.542 4.07151C23.5836 3.75978 22.5624 3.58603 21.5017 3.58603C20.4412 3.58603 19.42 3.75978 18.4614 4.07151L16.9477 0.545741C16.7542 0.088896 16.2221 -0.124326 15.7724 0.0745356C15.3174 0.269786 15.1077 0.796501 15.3031 1.24982L16.8134 4.77382C13.7373 6.44357 11.6466 9.70237 11.6466 13.4395C11.6466 13.934 12.0479 14.3353 12.5424 14.3353H30.4578C30.9523 14.3353 31.3536 13.934 31.3536 13.4395C31.3535 9.70237 29.2628 6.44357 26.1885 4.77382ZM17.9169 10.7522C17.4225 10.7522 17.0211 10.3509 17.0211 9.85639C17.0211 9.36192 17.4225 8.96058 17.9169 8.96058C18.4114 8.96058 18.8127 9.36192 18.8127 9.85639C18.8127 10.3509 18.4114 10.7522 17.9169 10.7522ZM25.0832 10.7522C24.5887 10.7522 24.1874 10.3509 24.1874 9.85639C24.1874 9.36192 24.5887 8.96058 25.0832 8.96058C25.5776 8.96058 25.979 9.36192 25.979 9.85639C25.979 10.3509 25.5776 10.7522 25.0832 10.7522Z" fill="#009B3A"/>
<path d="M35.8323 16.1267C34.3507 16.1267 33.145 17.3324 33.145 18.814V27.7718C33.145 29.2534 34.3507 30.4591 35.8323 30.4591C37.3139 30.4591 38.5196 29.2534 38.5196 27.7718V18.814C38.5196 17.3325 37.3139 16.1267 35.8323 16.1267Z" fill="url(#paint1_linear)"/>
<path d="M7.16747 16.1267C5.68583 16.1267 4.48015 17.3324 4.48015 18.814V27.7718C4.48015 29.2534 5.68583 30.4591 7.16747 30.4591C8.64911 30.4591 9.85479 29.2534 9.85479 27.7718V18.814C9.85479 17.3325 8.64911 16.1267 7.16747 16.1267Z" fill="url(#paint2_linear)"/>
</g>
<defs>
<linearGradient id="paint0_linear" x1="21.5001" y1="16.1267" x2="21.5001" y2="43" gradientUnits="userSpaceOnUse">
<stop stop-color="#009B3A"/>
<stop offset="1" stop-color="#028031"/>
</linearGradient>
<linearGradient id="paint1_linear" x1="35.8323" y1="16.1267" x2="35.8323" y2="30.4591" gradientUnits="userSpaceOnUse">
<stop stop-color="#009B3A"/>
<stop offset="1" stop-color="#028031"/>
</linearGradient>
<linearGradient id="paint2_linear" x1="7.16747" y1="16.1267" x2="7.16747" y2="30.4591" gradientUnits="userSpaceOnUse">
<stop stop-color="#009B3A"/>
<stop offset="1" stop-color="#028031"/>
</linearGradient>
<clipPath id="clip0">
<rect width="43" height="43" fill="white"/>
</clipPath>
</defs>
</svg>
