<svg width="25" height="17" viewBox="0 0 25 17" fill="none" xmlns="http://www.w3.org/2000/svg">
<path d="M9.78564 10.2719H15.0858V15.2775H9.78564V10.2719Z" fill="white"/>
<path d="M12.4917 16.2184C14.6157 16.2184 16.3436 14.5184 16.3436 12.4288C16.3436 11.08 15.6233 9.89361 14.5415 9.22192V10.1434C15.2096 10.7229 15.5899 11.5476 15.5899 12.4288C15.5899 14.1095 14.2002 15.4769 12.4917 15.4769C10.7834 15.4769 9.39373 14.1096 9.39373 12.4289C9.39373 11.5476 9.77401 10.7229 10.4421 10.1434V9.22195C9.36033 9.89364 8.64005 11.08 8.64005 12.4289C8.64005 14.5184 10.3679 16.2184 12.4917 16.2184Z" fill="url(#paint0_linear)"/>
<path d="M11.0627 10.285C11.0627 10.3779 11.02 10.4657 10.9461 10.5237C10.3541 10.9894 10.0146 11.6836 10.0146 12.4282C10.0146 13.7719 11.1258 14.8651 12.4914 14.8651C13.8572 14.8651 14.9684 13.7719 14.9684 12.4282C14.9684 11.6836 14.6289 10.9894 14.0366 10.5237C13.963 10.4657 13.92 10.3779 13.92 10.285V8.908C13.4663 8.7292 12.9867 8.63867 12.4914 8.63867C11.9963 8.63867 11.5167 8.7292 11.0627 8.908V10.285ZM14.1201 12.4282C14.1201 13.3118 13.3895 14.0306 12.4914 14.0306C11.5932 14.0306 10.8626 13.3118 10.8626 12.4282C10.8626 11.5446 11.5932 10.8257 12.4914 10.8257C13.3895 10.8257 14.1201 11.5446 14.1201 12.4282ZM12.8377 9.88946C12.8462 10.0735 12.6726 10.2302 12.4914 10.2302C12.2974 10.2302 12.1535 10.0741 12.145 9.88946C12.1368 9.70541 12.3104 9.54868 12.4914 9.54868C12.6856 9.54868 12.8295 9.70483 12.8377 9.88946Z" fill="url(#paint1_linear)"/>
<path d="M12.4916 13.4206C13.0482 13.4206 13.4995 12.9767 13.4995 12.4292C13.4995 11.8817 13.0482 11.4379 12.4916 11.4379C11.9351 11.4379 11.4841 11.8817 11.4841 12.4292C11.4841 12.9767 11.9351 13.4206 12.4916 13.4206Z" fill="#FF3D00"/>
<path fill-rule="evenodd" clip-rule="evenodd" d="M24.0111 10.669C23.538 11.1426 23.0125 11.5308 22.3961 11.7668C21.4591 12.1253 20.5965 11.9126 19.7802 11.377C19.5897 11.2521 19.4137 11.1023 19.2343 10.934C20.204 10.9501 21.1646 10.9106 22.1067 10.6803C22.1083 10.6569 22.1091 10.6343 22.1099 10.611C21.6321 10.5498 21.157 10.4644 20.6778 10.433C20.2019 10.4024 19.7219 10.4265 19.2436 10.4265C19.2322 10.4016 19.22 10.3758 19.2086 10.3508C19.5192 10.1438 19.8168 9.91023 20.1417 9.73303C21.2709 9.11846 22.3331 9.34077 23.3377 10.0753C23.5699 10.2453 23.7872 10.4386 24.0103 10.6215C24.0111 10.6376 24.0111 10.6529 24.0111 10.669Z" fill="#FEDF00"/>
<path fill-rule="evenodd" clip-rule="evenodd" d="M0.955199 10.6208C1.28699 10.3654 1.60367 10.0836 1.95375 9.86125C3.24434 9.04289 4.55188 9.28211 5.77516 10.4243C5.24885 10.4243 4.76761 10.4001 4.29006 10.4307C3.80934 10.4613 3.33178 10.5467 2.85424 10.6409C3.79714 10.9091 4.7562 10.9494 5.78655 10.9011C5.17836 11.4432 4.56646 11.8185 3.83054 11.9144C2.75169 12.0537 1.9034 11.5277 1.12136 10.8254C1.06465 10.7746 1.00979 10.7207 0.954407 10.6683C0.955202 10.6522 0.955199 10.6369 0.955199 10.6208Z" fill="#FEDF00"/>
<path fill-rule="evenodd" clip-rule="evenodd" d="M16.0491 4.59474C16.5815 3.71519 17.0209 2.81385 17.2891 1.82554C16.6223 2.56256 16.1061 3.4091 15.6656 4.32009C15.4568 3.86017 15.5146 2.69384 15.7812 2.07121C16.2616 0.948383 17.1804 0.429662 18.2206 0.0664062C18.7713 2.08007 18.1236 3.91009 16.0491 4.59474Z" fill="#FEDF00"/>
<path fill-rule="evenodd" clip-rule="evenodd" d="M7.65806 1.84566C7.95434 2.81544 8.37862 3.72079 8.91101 4.58103C7.23299 4.36918 6.03702 1.88997 6.73425 0.0961914C8.75678 0.651955 9.75294 2.20491 9.32708 4.32651C9.07267 3.87947 8.84105 3.43323 8.57313 3.01277C8.30574 2.59393 8.00284 2.20088 7.71504 1.79652C7.69622 1.81344 7.67714 1.82956 7.65806 1.84566Z" fill="#FEDF00"/>
<path fill-rule="evenodd" clip-rule="evenodd" d="M12.4137 3.10374C12.3644 3.82625 12.3149 4.54875 12.2664 5.25353C11.2914 4.61802 11.3879 2.58584 12.4752 1.56531C13.5739 2.6865 13.703 4.05258 12.6999 5.28899C12.652 4.56164 12.6043 3.83431 12.5563 3.10696C12.5086 3.10616 12.4614 3.10535 12.4137 3.10374Z" fill="#FEDF00"/>
<path fill-rule="evenodd" clip-rule="evenodd" d="M8.21193 13.4855C7.7434 15.0747 6.5294 15.6249 5.07239 15.2157C5.11479 13.8746 6.76923 12.7131 8.01291 13.165C7.70869 13.3607 7.4026 13.5403 7.11401 13.7473C6.8331 13.9487 6.56968 14.1782 6.31766 14.4239C6.99396 14.2362 7.60003 13.8995 8.21193 13.4855Z" fill="#FEDF00"/>
<path fill-rule="evenodd" clip-rule="evenodd" d="M5.05463 6.11017C6.52463 5.69372 7.75003 6.24227 8.19816 7.80083C7.88439 7.6196 7.5852 7.43033 7.27249 7.27004C6.95819 7.10894 6.6309 6.97605 6.2954 6.85763C6.80024 7.39247 7.39253 7.79037 8.03014 8.14478C6.53735 8.52173 5.45479 7.68725 5.05463 6.11017Z" fill="#FEDF00"/>
<path fill-rule="evenodd" clip-rule="evenodd" d="M16.9807 8.17018C17.5576 7.75615 18.1377 7.33973 18.7178 6.92331C18.7027 6.89834 18.6881 6.87336 18.6738 6.84839C18.0004 7.06669 17.3822 7.4106 16.7809 7.81174C16.8749 6.51975 18.5925 5.59348 19.9069 6.11057C19.5523 7.57977 18.5469 8.51167 16.9807 8.17018Z" fill="#FEDF00"/>
<path fill-rule="evenodd" clip-rule="evenodd" d="M16.9335 13.1678C18.3966 12.8263 19.5022 13.5706 19.9032 15.1952C18.5781 15.6309 17.2229 15.1428 16.7779 13.552C17.3898 13.867 18.0229 14.1932 18.6571 14.5194C18.6701 14.4936 18.6828 14.4678 18.6958 14.4421C18.1756 13.9298 17.5796 13.5319 16.9335 13.1678Z" fill="#FEDF00"/>
<path fill-rule="evenodd" clip-rule="evenodd" d="M10.2486 6.64161C10.3633 6.89293 10.4786 7.14342 10.5942 7.39716C9.99046 7.22478 9.72916 6.6247 9.90937 5.95618C10.5006 5.99564 10.9692 6.727 10.7574 7.27955C10.6117 7.05321 10.4667 6.82688 10.3207 6.60054C10.2973 6.61424 10.273 6.62794 10.2486 6.64161Z" fill="#FEDF00"/>
<path fill-rule="evenodd" clip-rule="evenodd" d="M14.2061 7.28174C14.0127 6.72352 14.4014 6.09929 15.039 5.94385C15.2669 6.60673 14.964 7.22936 14.3717 7.40335C14.4971 7.12627 14.6201 6.85402 14.7438 6.58097C14.7255 6.56887 14.7072 6.5576 14.6884 6.54553C14.5273 6.792 14.3664 7.03767 14.2061 7.28174Z" fill="#FEDF00"/>
<path fill-rule="evenodd" clip-rule="evenodd" d="M16.0876 10.7681C16.3839 10.7423 16.6563 10.7198 16.929 10.6956C16.9282 10.6706 16.9282 10.6457 16.9274 10.6199C16.651 10.5982 16.3746 10.5764 16.1022 10.5547C16.5236 10.0682 17.175 10.1584 17.613 10.6401C17.2229 11.1741 16.5493 11.2321 16.0876 10.7681Z" fill="#FEDF00"/>
<defs>
<linearGradient id="paint0_linear" x1="12.4918" y1="9.22192" x2="12.4918" y2="16.2184" gradientUnits="userSpaceOnUse">
<stop stop-color="#FEDF00"/>
<stop offset="1" stop-color="#328002"/>
</linearGradient>
<linearGradient id="paint1_linear" x1="12.4915" y1="8.63867" x2="12.4915" y2="14.8651" gradientUnits="userSpaceOnUse">
<stop offset="0.492708" stop-color="#FEDF00"/>
<stop offset="1" stop-color="#028031"/>
</linearGradient>
</defs>
</svg>
