<svg width="254" height="87" viewBox="0 0 254 87" fill="none" xmlns="http://www.w3.org/2000/svg">
<path d="M246.089 87H8.75311C4.40195 87 0.841919 83.085 0.841919 78.3V8.7C0.841919 3.915 4.40195 0 8.75311 0H246.089C250.44 0 254 3.915 254 8.7V78.3C254 83.085 250.44 87 246.089 87Z" fill="white"/>
<path d="M54.2425 43.0659C54.2425 36.3234 59.3847 33.0609 59.5825 32.8434C56.6158 28.2758 52.2647 27.6233 50.6824 27.4058C46.9246 26.9708 43.1668 29.7984 41.3868 29.7984C39.409 29.7984 36.4423 27.4058 33.2778 27.4058C29.1245 27.4058 25.3666 30.0159 23.1911 34.1484C18.8399 42.4134 22.0044 54.5934 26.1578 61.3359C28.3333 64.5984 30.7067 68.2959 33.8712 68.0784C37.0356 67.8609 38.2223 65.9034 41.9801 65.9034C45.738 65.9034 46.7268 68.0784 50.0891 68.0784C53.4514 68.0784 55.6269 64.8159 57.6047 61.5534C59.9781 57.8559 60.967 54.1584 60.967 53.9409C60.7692 53.7234 54.2425 51.1134 54.2425 43.0659Z" fill="black"/>
<path d="M48.1112 23.0547C49.6934 20.6622 50.8801 17.6172 50.6824 14.3547C48.309 14.5722 45.1445 16.0947 43.5623 18.4872C41.98 20.4447 40.5956 23.7072 40.9911 26.7521C43.5623 26.9696 46.3312 25.2296 48.1112 23.0547Z" fill="black"/>
<path d="M99.3363 67.642H94.9851L92.6118 59.3771H84.305L82.1295 67.642H77.9761L86.2828 39.5847H91.4251L99.3363 67.642ZM91.8206 55.8971L89.6451 48.5022C89.4473 47.8497 89.0517 45.8922 88.2606 43.2822C88.0628 44.3697 87.6673 46.3272 87.0739 48.5022L84.8984 55.8971H91.8206Z" fill="black"/>
<path d="M120.499 57.42C120.499 60.9 119.708 63.51 117.928 65.685C116.345 67.425 114.565 68.295 112.192 68.295C109.819 68.295 108.039 67.425 107.05 65.4675V76.1251H102.896V54.375C102.896 52.2 102.896 50.025 102.698 47.6325H106.259L106.456 50.895C107.841 48.5025 109.819 47.1975 112.587 47.1975C114.763 47.1975 116.543 48.0675 117.928 50.025C119.708 51.765 120.499 54.1575 120.499 57.42ZM116.345 57.42C116.345 55.4625 115.95 53.7225 115.159 52.635C114.367 51.33 113.181 50.6775 111.599 50.6775C110.61 50.6775 109.621 51.1125 108.83 51.765C108.039 52.4175 107.445 53.505 107.247 54.5925C107.05 55.245 107.05 55.68 107.05 55.8975V59.3775C107.05 60.9 107.445 61.9875 108.236 63.075C109.027 64.1625 110.214 64.5975 111.401 64.5975C112.983 64.5975 114.17 63.945 114.961 62.64C115.95 61.335 116.345 59.595 116.345 57.42Z" fill="black"/>
<path d="M141.661 57.42C141.661 60.9 140.87 63.51 139.09 65.685C137.508 67.425 135.728 68.295 133.354 68.295C130.981 68.295 129.201 67.425 128.212 65.4675V76.1251H124.059V54.375C124.059 52.2 124.059 50.025 123.861 47.6325H127.421L127.619 50.895C129.003 48.5025 130.981 47.1975 133.75 47.1975C135.926 47.1975 137.706 48.0675 139.09 50.025C140.87 51.765 141.661 54.1575 141.661 57.42ZM137.508 57.42C137.508 55.4625 137.112 53.7225 136.321 52.635C135.53 51.33 134.343 50.6775 132.761 50.6775C131.772 50.6775 130.783 51.1125 129.992 51.765C129.201 52.4175 128.608 53.505 128.41 54.5925C128.212 55.245 128.212 55.68 128.212 55.8975V59.3775C128.212 60.9 128.608 61.9875 129.399 63.075C130.19 64.1625 131.377 64.5975 132.563 64.5975C134.146 64.5975 135.332 63.945 136.123 62.64C137.112 61.335 137.508 59.595 137.508 57.42Z" fill="black"/>
<path d="M165.395 59.8126C165.395 62.2051 164.604 64.1626 163.219 65.6851C161.637 67.4251 159.264 68.0776 156.297 68.0776C153.528 68.0776 151.352 67.4251 149.77 66.3376L150.759 62.6401C152.539 63.7276 154.517 64.3801 156.692 64.3801C158.275 64.3801 159.461 63.9451 160.252 63.2926C161.044 62.4226 161.439 61.5526 161.439 60.2476C161.439 59.1601 161.044 58.0726 160.45 57.4201C159.659 56.5501 158.472 55.8976 156.89 55.245C152.341 53.505 150.166 50.6775 150.166 47.1975C150.166 44.805 150.957 43.065 152.539 41.5424C154.121 40.0199 156.099 39.3674 158.868 39.3674C161.241 39.3674 163.021 39.8024 164.604 40.6724L163.615 44.37C162.23 43.5 160.648 43.065 158.67 43.065C157.286 43.065 156.099 43.5 155.308 44.1525C154.715 44.805 154.319 45.675 154.319 46.7625C154.319 47.85 154.715 48.72 155.506 49.59C156.099 50.2425 157.484 50.895 159.264 51.765C161.439 52.635 163.021 53.94 164.208 55.245C164.801 56.3326 165.395 57.8551 165.395 59.8126Z" fill="black"/>
<path d="M178.844 50.895H174.295V60.6824C174.295 63.0749 175.086 64.3799 176.668 64.3799C177.459 64.3799 178.053 64.3799 178.448 64.1624L178.646 67.6424C177.855 68.0774 176.866 68.0774 175.481 68.0774C173.899 68.0774 172.515 67.6424 171.724 66.5549C170.735 65.4674 170.339 63.7274 170.339 61.1174V50.895H167.57V47.4151H170.339V43.7176L174.295 42.4126V47.4151H178.844V50.895Z" fill="black"/>
<path d="M199.215 57.4203C199.215 60.4653 198.424 63.0753 196.842 65.0328C195.062 66.9903 192.886 68.0778 190.117 68.0778C187.348 68.0778 185.173 66.9903 183.59 65.0328C182.008 63.0753 181.217 60.6828 181.217 57.6378C181.217 54.5928 182.008 51.9828 183.788 50.0252C185.37 48.0677 187.744 46.9802 190.513 46.9802C193.282 46.9802 195.457 48.0677 197.039 50.0252C198.424 51.9828 199.215 54.3753 199.215 57.4203ZM194.864 57.6378C194.864 55.6803 194.468 54.1578 193.677 52.8528C192.886 51.3302 191.502 50.4602 189.919 50.4602C188.337 50.4602 186.953 51.3302 186.162 52.8528C185.37 54.1578 184.975 55.8978 184.975 57.6378C184.975 59.5953 185.37 61.1178 186.162 62.4228C186.953 63.9453 188.337 64.8153 189.919 64.8153C191.502 64.8153 192.688 63.9453 193.677 62.4228C194.468 61.1178 194.864 59.3778 194.864 57.6378Z" fill="black"/>
<path d="M212.466 51.3299C212.071 51.3299 211.675 51.1124 211.082 51.1124C209.697 51.1124 208.511 51.7649 207.72 52.8524C207.126 53.9399 206.731 55.2449 206.731 56.7674V67.4248H202.577V53.5049C202.577 51.1124 202.577 49.1549 202.38 47.1974H205.94L206.137 51.1124H206.335C206.731 49.8074 207.522 48.7199 208.313 47.8499C209.302 47.1974 210.291 46.7625 211.28 46.7625C211.675 46.7625 212.071 46.7625 212.268 46.7625V51.3299H212.466Z" fill="black"/>
<path d="M230.662 56.5503C230.662 57.4203 230.662 58.0728 230.464 58.5078H218.202C218.202 60.4653 218.795 61.9878 219.982 63.0753C220.971 63.9453 222.355 64.5978 223.937 64.5978C225.717 64.5978 227.498 64.3803 228.882 63.7278L229.475 66.7728C227.695 67.6428 225.717 68.0778 223.344 68.0778C220.575 68.0778 218.202 67.2078 216.62 65.2503C215.037 63.5103 214.246 60.9003 214.246 57.8553C214.246 54.8103 215.037 52.2002 216.422 50.2427C218.004 48.0677 220.18 46.9802 222.949 46.9802C225.52 46.9802 227.695 48.0677 228.882 50.2427C230.266 51.9827 230.662 54.1578 230.662 56.5503ZM226.904 55.4628C226.904 54.1578 226.706 53.0703 226.113 51.9828C225.322 50.6777 224.333 50.0252 222.949 50.0252C221.564 50.0252 220.575 50.6777 219.784 51.7652C219.191 52.6353 218.795 53.9403 218.597 55.2453H226.904V55.4628Z" fill="black"/>
<path d="M90.6339 22.4028C90.6339 24.7952 90.0406 26.7527 88.6561 28.0577C87.4694 29.1451 85.6894 29.7976 83.3161 29.7976C82.1294 29.7976 81.1405 29.7976 80.3494 29.5801V16.0954C81.3383 15.8779 82.5249 15.8779 83.9094 15.8779C86.085 15.8779 87.6672 16.3129 88.8539 17.4004C89.8428 18.4879 90.6339 20.2278 90.6339 22.4028ZM88.4583 22.4028C88.4583 20.8803 88.0628 19.5754 87.2717 18.7054C86.4805 17.8354 85.2939 17.4004 83.9094 17.4004C83.3161 17.4004 82.7227 17.4004 82.3272 17.6179V27.8402C82.5249 27.8402 83.1183 27.8402 83.7116 27.8402C85.2939 27.8402 86.4805 27.4052 87.2717 26.5352C88.0628 25.6652 88.4583 24.1428 88.4583 22.4028Z" fill="black"/>
<path d="M101.71 24.5777C101.71 26.1002 101.314 27.4053 100.523 28.2753C99.7318 29.3628 98.5451 29.7978 97.1606 29.7978C95.7762 29.7978 94.7873 29.3628 93.9961 28.2753C93.205 27.4053 92.8094 26.1002 92.8094 24.5777C92.8094 23.0552 93.205 21.7502 93.9961 20.8802C94.7873 19.7927 95.9739 19.3577 97.3584 19.3577C98.7429 19.3577 99.7318 19.7927 100.523 20.8802C101.314 21.7502 101.71 23.0552 101.71 24.5777ZM99.7318 24.5777C99.7318 23.7077 99.534 22.8377 99.1384 22.1852C98.7429 21.3152 98.1495 21.0977 97.3584 21.0977C96.5673 21.0977 95.9739 21.5327 95.5784 22.1852C95.1828 22.8377 94.985 23.7077 94.985 24.5777C94.985 25.4477 95.1828 26.3177 95.5784 26.9703C95.9739 27.8403 96.5673 28.0578 97.3584 28.0578C98.1495 28.0578 98.7429 27.6228 99.1384 26.7527C99.534 26.3177 99.7318 25.4477 99.7318 24.5777Z" fill="black"/>
<path d="M116.939 19.575L114.17 29.5798H112.39L111.203 25.2299C110.807 24.1424 110.61 23.0549 110.412 21.9674C110.214 23.0549 110.016 24.1424 109.621 25.2299L108.434 29.5798H106.654L103.687 19.575H105.665L106.654 24.3599C106.852 25.4474 107.05 26.5349 107.247 27.6223C107.445 26.7524 107.643 25.6649 108.039 24.3599L109.225 19.575H110.807L111.994 24.1424C112.39 25.2299 112.587 26.3174 112.785 27.4048C112.983 26.3174 113.181 25.2299 113.379 24.1424L114.565 19.575H116.939Z" fill="black"/>
<path d="M127.223 29.5805H125.245V23.9254C125.245 22.1854 124.652 21.3154 123.465 21.3154C122.872 21.3154 122.476 21.5329 122.081 21.9679C121.685 22.4029 121.488 23.0554 121.488 23.7079V29.5805H119.51V22.4029C119.51 21.5329 119.51 20.6629 119.51 19.5754H121.29V21.0979C121.488 20.6629 121.883 20.2279 122.279 19.7929C122.872 19.3579 123.465 19.1404 124.059 19.1404C124.85 19.1404 125.641 19.3579 126.234 20.0104C127.025 20.6629 127.223 21.7504 127.223 23.2729V29.5805Z" fill="black"/>
<path d="M132.761 29.5802H130.783V15.0073H132.761V29.5802Z" fill="black"/>
<path d="M144.628 24.5777C144.628 26.1002 144.232 27.4053 143.441 28.2753C142.65 29.3628 141.463 29.7978 140.079 29.7978C138.694 29.7978 137.705 29.3628 136.914 28.2753C136.123 27.4053 135.728 26.1002 135.728 24.5777C135.728 23.0552 136.123 21.7502 136.914 20.8802C137.705 20.0102 138.892 19.3577 140.277 19.3577C141.661 19.3577 142.65 19.7927 143.441 20.8802C144.232 21.7502 144.628 23.0552 144.628 24.5777ZM142.65 24.5777C142.65 23.7077 142.452 22.8377 142.057 22.1852C141.661 21.3152 141.068 21.0977 140.277 21.0977C139.485 21.0977 138.892 21.5327 138.497 22.1852C138.101 22.8377 137.903 23.7077 137.903 24.5777C137.903 25.4477 138.101 26.3177 138.497 26.9703C138.892 27.8403 139.485 28.0578 140.277 28.0578C141.068 28.0578 141.661 27.6228 142.057 26.7527C142.452 26.3177 142.65 25.4477 142.65 24.5777Z" fill="black"/>
<path d="M154.319 29.5803H152.539L152.341 28.4928C151.748 29.3628 150.759 29.7978 149.77 29.7978C148.979 29.7978 148.188 29.5803 147.792 28.9278C147.397 28.2753 147.001 27.6228 147.001 26.9703C147.001 25.6652 147.397 24.7952 148.386 24.1427C149.374 23.4902 150.561 23.2727 152.341 23.2727V23.0552C152.341 21.7502 151.748 21.0977 150.561 21.0977C149.572 21.0977 148.979 21.3152 148.188 21.7502L147.792 20.2277C148.583 19.5752 149.572 19.3577 150.957 19.3577C153.33 19.3577 154.517 20.6627 154.517 23.4902V27.1878C154.319 28.2753 154.319 28.9278 154.319 29.5803ZM152.341 26.1002V24.5777C150.166 24.5777 148.979 25.2302 148.979 26.5352C148.979 26.9703 149.177 27.4053 149.374 27.6228C149.572 27.8403 149.968 28.0578 150.363 28.0578C150.759 28.0578 151.154 27.8403 151.55 27.6228C151.946 27.4053 152.143 26.9703 152.341 26.5352C152.341 26.5352 152.341 26.3177 152.341 26.1002Z" fill="black"/>
<path d="M165.79 29.5802H164.01V28.0577C163.417 29.3627 162.428 29.7977 161.044 29.7977C159.857 29.7977 159.066 29.3627 158.275 28.4927C157.484 27.6227 157.286 26.3177 157.286 24.7952C157.286 23.2726 157.681 21.9676 158.472 20.8801C159.264 20.0101 160.252 19.5751 161.241 19.5751C162.428 19.5751 163.219 20.0101 163.812 20.8801V15.2251H165.79V26.9702C165.79 27.8402 165.79 28.7102 165.79 29.5802ZM163.812 25.4477V23.7076C163.812 23.4901 163.812 23.2726 163.812 23.0551C163.615 22.6201 163.417 22.1851 163.021 21.7501C162.626 21.3151 162.23 21.3151 161.637 21.3151C160.846 21.3151 160.252 21.7501 159.857 22.4026C159.461 23.0551 159.264 23.9251 159.264 25.0127C159.264 26.1002 159.461 26.7527 159.857 27.4052C160.252 28.0577 160.846 28.4927 161.637 28.4927C162.23 28.4927 162.824 28.2752 163.219 27.6227C163.615 26.7527 163.812 26.1002 163.812 25.4477Z" fill="black"/>
<path d="M182.997 24.5777C182.997 26.1002 182.602 27.4053 181.81 28.2753C181.019 29.3628 179.833 29.7978 178.448 29.7978C177.064 29.7978 176.075 29.3628 175.284 28.2753C174.493 27.4053 174.097 26.1002 174.097 24.5777C174.097 23.0552 174.493 21.7502 175.284 20.8802C176.075 19.7927 177.262 19.3577 178.646 19.3577C180.03 19.3577 181.019 19.7927 181.81 20.8802C182.602 21.7502 182.997 23.0552 182.997 24.5777ZM180.822 24.5777C180.822 23.7077 180.624 22.8377 180.228 22.1852C179.833 21.3152 179.239 21.0977 178.448 21.0977C177.657 21.0977 177.064 21.5327 176.668 22.1852C176.273 22.8377 176.075 23.7077 176.075 24.5777C176.075 25.4477 176.273 26.3177 176.668 26.9703C177.064 27.8403 177.657 28.0578 178.448 28.0578C179.239 28.0578 179.833 27.6228 180.228 26.7527C180.624 26.3177 180.822 25.4477 180.822 24.5777Z" fill="black"/>
<path d="M193.875 29.5805H191.897V23.9254C191.897 22.1854 191.304 21.3154 190.117 21.3154C189.524 21.3154 189.128 21.5329 188.733 21.9679C188.337 22.4029 188.139 23.0554 188.139 23.7079V29.5805H186.161V22.4029C186.161 21.5329 186.161 20.6629 186.161 19.5754H187.942V21.0979C188.139 20.6629 188.535 20.2279 188.93 19.7929C189.524 19.3579 190.117 19.1404 190.71 19.1404C191.502 19.1404 192.293 19.3579 192.886 20.0104C193.677 20.6629 193.875 21.7504 193.875 23.2729V29.5805Z" fill="black"/>
<path d="M207.324 21.315H205.148V26.1001C205.148 27.4051 205.544 27.8401 206.335 27.8401C206.731 27.8401 206.928 27.8401 207.324 27.8401V29.5802C206.928 29.7977 206.335 29.7977 205.742 29.7977C204.951 29.7977 204.357 29.5802 203.962 28.9277C203.566 28.4926 203.368 27.4051 203.368 26.3176V21.315H201.984V19.5749H203.368V17.8349L205.346 17.1824V19.5749H207.522V21.315H207.324Z" fill="black"/>
<path d="M218.004 29.5802H216.026V23.925C216.026 22.185 215.433 21.315 214.246 21.315C213.257 21.315 212.664 21.75 212.268 22.8375C212.268 23.055 212.268 23.2725 212.268 23.7075V29.5802H210.291V15.0073H212.268V21.0975C212.862 20.01 213.851 19.3574 215.037 19.3574C215.828 19.3574 216.62 19.5749 217.015 20.2275C217.608 20.88 218.004 22.185 218.004 23.49V29.5802Z" fill="black"/>
<path d="M228.882 24.1424C228.882 24.5774 228.882 24.7949 228.882 25.2299H222.949C222.949 26.3174 223.344 26.9699 223.74 27.4049C224.333 27.8399 224.926 28.0574 225.717 28.0574C226.706 28.0574 227.498 27.8399 228.091 27.6224L228.486 29.1449C227.695 29.5799 226.706 29.7974 225.52 29.7974C224.135 29.7974 222.949 29.3624 222.158 28.4924C221.366 27.6224 220.971 26.3174 220.971 24.7949C220.971 23.2724 221.366 21.9675 222.158 21.0975C222.949 20.01 223.937 19.575 225.322 19.575C226.706 19.575 227.695 20.01 228.289 21.0975C228.684 21.75 228.882 22.8374 228.882 24.1424ZM227.102 23.4899C227.102 22.8374 226.904 22.1849 226.706 21.7499C226.311 21.0974 225.915 20.88 225.124 20.88C224.531 20.88 223.938 21.0974 223.542 21.7499C223.146 22.1849 222.949 22.8374 222.949 23.4899H227.102Z" fill="black"/>
</svg>
