<svg width="305" height="90" viewBox="0 0 305 90" fill="none" xmlns="http://www.w3.org/2000/svg">
<path d="M8.28 68C7.34647 68 6.53471 67.655 5.84471 66.965C5.15471 66.275 4.80971 65.4632 4.80971 64.5297V27.0262C4.80971 26.0926 5.15471 25.2809 5.84471 24.5909C6.53471 23.9009 7.34647 23.5559 8.28 23.5559H9.80206C10.8574 23.5559 11.8315 23.84 12.7244 24.4082C13.6174 24.9765 14.2668 25.7274 14.6726 26.6609L25.3271 49.6744C25.3271 49.715 25.3474 49.7353 25.3879 49.7353C25.4285 49.7353 25.4488 49.715 25.4488 49.6744L36.1032 26.6609C36.5091 25.7274 37.1585 24.9765 38.0515 24.4082C38.9444 23.84 39.9185 23.5559 40.9738 23.5559H42.7394C43.6729 23.5559 44.4847 23.9009 45.1747 24.5909C45.8647 25.2809 46.2097 26.0926 46.2097 27.0262V64.5297C46.2097 65.4632 45.8647 66.275 45.1747 66.965C44.4847 67.655 43.6729 68 42.7394 68H41.4C40.4665 68 39.6547 67.655 38.9647 66.965C38.2747 66.275 37.9297 65.4632 37.9297 64.5297V38.0459C37.9297 38.0053 37.9094 37.985 37.8688 37.985C37.8282 37.985 37.8079 38.0053 37.8079 38.0459L30.5021 53.6926C30.0556 54.6262 29.3656 55.3974 28.4321 56.0062C27.5391 56.5744 26.5853 56.8585 25.5706 56.8585H25.2053C24.1906 56.8585 23.2165 56.5744 22.2829 56.0062C21.39 55.3974 20.7203 54.6262 20.2738 53.6926L12.9679 38.0459C12.9679 38.0053 12.9476 37.985 12.9071 37.985C12.8665 37.985 12.8462 38.0053 12.8462 38.0459V64.5297C12.8462 65.4632 12.5012 66.275 11.8112 66.965C11.1212 67.655 10.3094 68 9.37588 68H8.28ZM60.5104 68C59.5769 68 58.7651 67.655 58.0751 66.965C57.3851 66.275 57.0401 65.4632 57.0401 64.5297V39.8115C57.0401 38.8779 57.3851 38.0662 58.0751 37.3762C58.7651 36.6862 59.5769 36.3412 60.5104 36.3412H62.0933C63.0269 36.3412 63.8386 36.6862 64.5286 37.3762C65.2186 38.0662 65.5636 38.8779 65.5636 39.8115V64.5297C65.5636 65.4632 65.2186 66.275 64.5286 66.965C63.8386 67.655 63.0269 68 62.0933 68H60.5104ZM60.5104 29.6441C59.5769 29.6441 58.7651 29.2991 58.0751 28.6091C57.3851 27.9191 57.0401 27.1074 57.0401 26.1738V25.8085C57.0401 24.875 57.3851 24.0632 58.0751 23.3732C58.7651 22.6832 59.5769 22.3382 60.5104 22.3382H62.0933C63.0269 22.3382 63.8386 22.6832 64.5286 23.3732C65.2186 24.0632 65.5636 24.875 65.5636 25.8085V26.1738C65.5636 27.1074 65.2186 27.9191 64.5286 28.6091C63.8386 29.2991 63.0269 29.6441 62.0933 29.6441H60.5104ZM79.2555 68C78.322 68 77.5102 67.655 76.8202 66.965C76.1302 66.275 75.7852 65.4632 75.7852 64.5297V39.8115C75.7852 38.8779 76.1302 38.0662 76.8202 37.3762C77.5102 36.6862 78.322 36.3412 79.2555 36.3412H80.047C81.0211 36.3412 81.8329 36.6862 82.4823 37.3762C83.1723 38.0256 83.5376 38.8374 83.5782 39.8115V40.2376C83.5782 40.2782 83.5984 40.2985 83.639 40.2985C83.6796 40.2985 83.7202 40.2782 83.7608 40.2376C86.5208 37.2341 89.7476 35.7324 93.4411 35.7324C97.1346 35.7324 99.8134 36.7876 101.478 38.8982C103.182 40.9682 104.035 44.4385 104.035 49.3091V64.5297C104.035 65.4632 103.69 66.275 103 66.965C102.31 67.655 101.498 68 100.564 68H99.5293C98.5958 68 97.784 67.655 97.094 66.965C96.4446 66.275 96.1199 65.4632 96.1199 64.5297V49.9179C96.1199 46.8738 95.714 44.8038 94.9023 43.7079C94.1311 42.5715 92.7308 42.0032 90.7014 42.0032C89.0373 42.0032 87.4949 42.7135 86.0743 44.1341C84.6537 45.5547 83.9434 47.0768 83.9434 48.7003V64.5297C83.9434 65.4632 83.5984 66.275 82.9084 66.965C82.2184 67.655 81.4067 68 80.4732 68H79.2555ZM115.826 68C114.893 68 114.081 67.655 113.391 66.965C112.742 66.275 112.417 65.4632 112.417 64.5297V25.8085C112.417 24.875 112.742 24.0632 113.391 23.3732C114.081 22.6832 114.893 22.3382 115.826 22.3382H117.044C117.977 22.3382 118.789 22.6832 119.479 23.3732C120.169 24.0632 120.514 24.875 120.514 25.8085V39.9332C120.514 39.9738 120.535 39.9941 120.575 39.9941C120.616 39.9941 120.656 39.9738 120.697 39.9332C123.538 37.1326 126.663 35.7324 130.073 35.7324C133.766 35.7324 136.445 36.7876 138.109 38.8982C139.773 41.0088 140.605 44.6212 140.605 49.7353V64.5297C140.605 65.4632 140.26 66.275 139.57 66.965C138.88 67.655 138.069 68 137.135 68H136.161C135.227 68 134.416 67.655 133.726 66.965C133.036 66.275 132.691 65.4632 132.691 64.5297V50.9529C132.691 47.4218 132.305 45.0879 131.534 43.9515C130.803 42.815 129.403 42.2468 127.333 42.2468C125.71 42.2468 124.167 42.9774 122.706 44.4385C121.245 45.8997 120.514 47.4624 120.514 49.1265V64.5297C120.514 65.4632 120.169 66.275 119.479 66.965C118.789 67.655 117.977 68 117.044 68H115.826ZM163.594 52.7794C157.79 52.7794 154.888 54.5653 154.888 58.1371C154.888 59.4359 155.253 60.4912 155.983 61.3029C156.755 62.1147 157.729 62.5206 158.906 62.5206C161.219 62.5206 163.086 61.8103 164.507 60.3897C165.928 58.9285 166.638 56.9397 166.638 54.4232V53.3274C166.638 52.9621 166.455 52.7794 166.09 52.7794H163.594ZM156.714 68.6088C153.954 68.6088 151.661 67.7159 149.834 65.93C148.048 64.1035 147.155 61.7494 147.155 58.8676C147.155 55.3365 148.495 52.5968 151.174 50.6485C153.893 48.7003 158.033 47.7262 163.594 47.7262H166.09C166.455 47.7262 166.638 47.5435 166.638 47.1782V46.6912C166.638 44.8241 166.191 43.5253 165.298 42.7947C164.405 42.0235 162.823 41.6379 160.55 41.6379C158.195 41.6379 155.314 42.0641 151.904 42.9165C151.174 43.1194 150.504 42.9976 149.895 42.5512C149.286 42.0641 148.982 41.435 148.982 40.6638C148.982 39.7303 149.266 38.8982 149.834 38.1676C150.403 37.3965 151.133 36.9297 152.026 36.7674C155.111 36.0774 158.013 35.7324 160.732 35.7324C165.928 35.7324 169.56 36.6659 171.63 38.5329C173.7 40.4 174.735 43.6674 174.735 48.335V64.5297C174.735 65.4632 174.39 66.275 173.7 66.965C173.051 67.655 172.259 68 171.326 68H170.656C169.682 68 168.85 67.6753 168.16 67.0259C167.47 66.3359 167.105 65.5038 167.064 64.5297V63.6774C167.064 63.6368 167.044 63.6165 167.003 63.6165C166.922 63.6165 166.881 63.6368 166.881 63.6774C164.405 66.965 161.016 68.6088 156.714 68.6088ZM188.341 64.7124L175.738 26.8435C175.454 26.0318 175.555 25.2809 176.042 24.5909C176.529 23.9009 177.199 23.5559 178.051 23.5559H180.243C181.258 23.5559 182.191 23.8806 183.044 24.53C183.896 25.1388 184.444 25.9303 184.688 26.9044L194.003 59.5982C194.003 59.6388 194.023 59.6591 194.063 59.6591C194.104 59.6591 194.124 59.6388 194.124 59.5982L203.561 26.8435C203.845 25.8694 204.393 25.0779 205.205 24.4691C206.057 23.8603 206.991 23.5559 208.006 23.5559H209.954C210.806 23.5559 211.476 23.9009 211.963 24.5909C212.45 25.2809 212.551 26.0318 212.267 26.8435L199.665 64.7124C199.34 65.6865 198.751 66.4779 197.899 67.0868C197.087 67.6956 196.154 68 195.098 68H192.907C191.892 68 190.958 67.6956 190.106 67.0868C189.294 66.4779 188.706 65.6865 188.341 64.7124ZM223.002 68C222.069 68 221.257 67.655 220.567 66.965C219.877 66.275 219.532 65.4632 219.532 64.5297V39.8115C219.532 38.8779 219.877 38.0662 220.567 37.3762C221.257 36.6862 222.069 36.3412 223.002 36.3412H224.585C225.519 36.3412 226.33 36.6862 227.02 37.3762C227.71 38.0662 228.055 38.8779 228.055 39.8115V64.5297C228.055 65.4632 227.71 66.275 227.02 66.965C226.33 67.655 225.519 68 224.585 68H223.002ZM223.002 29.6441C222.069 29.6441 221.257 29.2991 220.567 28.6091C219.877 27.9191 219.532 27.1074 219.532 26.1738V25.8085C219.532 24.875 219.877 24.0632 220.567 23.3732C221.257 22.6832 222.069 22.3382 223.002 22.3382H224.585C225.519 22.3382 226.33 22.6832 227.02 23.3732C227.71 24.0632 228.055 24.875 228.055 25.8085V26.1738C228.055 27.1074 227.71 27.9191 227.02 28.6091C226.33 29.2991 225.519 29.6441 224.585 29.6441H223.002ZM251.488 41.8206C246.821 41.8206 244.487 45.2706 244.487 52.1706C244.487 55.6206 245.116 58.2182 246.374 59.9635C247.632 61.6682 249.337 62.5206 251.488 62.5206C253.396 62.5206 255.04 61.8915 256.42 60.6332C257.8 59.375 258.49 57.9341 258.49 56.3106V48.0306C258.49 46.4071 257.8 44.9662 256.42 43.7079C255.04 42.4497 253.396 41.8206 251.488 41.8206ZM249.053 68.6088C245.441 68.6088 242.437 67.1476 240.042 64.2253C237.648 61.2624 236.45 57.2441 236.45 52.1706C236.45 46.9347 237.587 42.8962 239.86 40.055C242.173 37.1732 245.238 35.7324 249.053 35.7324C252.503 35.7324 255.547 36.9906 258.185 39.5071C258.226 39.5476 258.267 39.5679 258.307 39.5679C258.348 39.5679 258.368 39.5476 258.368 39.5071V25.8085C258.368 24.875 258.713 24.0632 259.403 23.3732C260.093 22.6832 260.905 22.3382 261.838 22.3382H263.056C263.99 22.3382 264.801 22.6832 265.491 23.3732C266.181 24.0632 266.526 24.875 266.526 25.8085V64.5297C266.526 65.4632 266.181 66.275 265.491 66.965C264.801 67.655 263.99 68 263.056 68H262.386C261.412 68 260.58 67.6753 259.89 67.0259C259.241 66.3359 258.896 65.5038 258.855 64.5297L258.794 64.1035C258.794 64.0629 258.774 64.0426 258.733 64.0426C258.693 64.0426 258.652 64.0629 258.612 64.1035C255.933 67.1071 252.747 68.6088 249.053 68.6088ZM290.174 52.7794C284.37 52.7794 281.468 54.5653 281.468 58.1371C281.468 59.4359 281.833 60.4912 282.564 61.3029C283.335 62.1147 284.309 62.5206 285.486 62.5206C287.8 62.5206 289.667 61.8103 291.088 60.3897C292.508 58.9285 293.218 56.9397 293.218 54.4232V53.3274C293.218 52.9621 293.036 52.7794 292.67 52.7794H290.174ZM283.295 68.6088C280.535 68.6088 278.241 67.7159 276.415 65.93C274.629 64.1035 273.736 61.7494 273.736 58.8676C273.736 55.3365 275.075 52.5968 277.754 50.6485C280.474 48.7003 284.614 47.7262 290.174 47.7262H292.67C293.036 47.7262 293.218 47.5435 293.218 47.1782V46.6912C293.218 44.8241 292.772 43.5253 291.879 42.7947C290.986 42.0235 289.403 41.6379 287.13 41.6379C284.776 41.6379 281.894 42.0641 278.485 42.9165C277.754 43.1194 277.085 42.9976 276.476 42.5512C275.867 42.0641 275.563 41.435 275.563 40.6638C275.563 39.7303 275.847 38.8982 276.415 38.1676C276.983 37.3965 277.714 36.9297 278.607 36.7674C281.691 36.0774 284.593 35.7324 287.313 35.7324C292.508 35.7324 296.141 36.6659 298.211 38.5329C300.281 40.4 301.316 43.6674 301.316 48.335V64.5297C301.316 65.4632 300.971 66.275 300.281 66.965C299.631 67.655 298.84 68 297.906 68H297.237C296.263 68 295.43 67.6753 294.74 67.0259C294.05 66.3359 293.685 65.5038 293.645 64.5297V63.6774C293.645 63.6368 293.624 63.6165 293.584 63.6165C293.503 63.6165 293.462 63.6368 293.462 63.6774C290.986 66.965 287.597 68.6088 283.295 68.6088Z" fill="url(#paint0_linear)"/>
<path d="M218.525 21.1345H228.443V30.5202H218.525V21.1345Z" fill="#788473"/>
<path d="M223.589 32.2843C227.563 32.2843 230.796 29.0969 230.796 25.179C230.796 22.6498 229.449 20.4254 227.424 19.166V20.8938C228.675 21.9803 229.386 23.5266 229.386 25.179C229.386 28.3303 226.786 30.8941 223.589 30.8941C220.392 30.8941 217.792 28.3303 217.792 25.179C217.792 23.5266 218.504 21.9803 219.754 20.8938V19.1661C217.73 20.4255 216.382 22.6498 216.382 25.179C216.382 29.0969 219.615 32.2843 223.589 32.2843Z" fill="url(#paint1_linear)"/>
<path d="M220.915 21.1607C220.915 21.3348 220.835 21.4995 220.697 21.6081C219.589 22.4813 218.954 23.7829 218.954 25.1791C218.954 27.6986 221.033 29.7484 223.589 29.7484C226.144 29.7484 228.223 27.6986 228.223 25.1791C228.223 23.7829 227.588 22.4814 226.48 21.6081C226.342 21.4994 226.262 21.3348 226.262 21.1607V18.5787C225.413 18.2435 224.515 18.0737 223.589 18.0737C222.662 18.0737 221.765 18.2435 220.915 18.5787V21.1607ZM226.636 25.1791C226.636 26.8358 225.269 28.1837 223.589 28.1837C221.908 28.1837 220.541 26.8358 220.541 25.1791C220.541 23.5224 221.908 22.1745 223.589 22.1745C225.269 22.1745 226.636 23.5223 226.636 25.1791ZM224.237 20.419C224.253 20.764 223.928 21.0579 223.589 21.0579C223.226 21.0579 222.956 20.7651 222.94 20.419C222.925 20.0739 223.25 19.78 223.589 19.78C223.952 19.78 224.221 20.0728 224.237 20.419Z" fill="url(#paint2_linear)"/>
<path d="M223.588 27.0377C224.63 27.0377 225.474 26.2055 225.474 25.1789C225.474 24.1523 224.63 23.3201 223.588 23.3201C222.547 23.3201 221.703 24.1523 221.703 25.1789C221.703 26.2055 222.547 27.0377 223.588 27.0377Z" fill="url(#paint3_linear)"/>
<path fill-rule="evenodd" clip-rule="evenodd" d="M245.143 21.8795C244.257 22.7675 243.274 23.4955 242.121 23.938C240.367 24.61 238.753 24.2113 237.226 23.207C236.869 22.9729 236.54 22.692 236.204 22.3764C238.019 22.4066 239.816 22.3326 241.579 21.9007C241.582 21.8569 241.584 21.8146 241.585 21.7708C240.691 21.656 239.802 21.4959 238.905 21.437C238.015 21.3796 237.117 21.4249 236.222 21.4249C236.2 21.3781 236.178 21.3298 236.156 21.283C236.737 20.8948 237.294 20.4569 237.902 20.1246C240.015 18.9723 242.003 19.3891 243.883 20.7664C244.317 21.0851 244.724 21.4476 245.141 21.7904C245.143 21.8206 245.143 21.8493 245.143 21.8795Z" fill="#FEDF00"/>
<path fill-rule="evenodd" clip-rule="evenodd" d="M202.001 21.7902C202.622 21.3114 203.215 20.7829 203.87 20.3661C206.285 18.8316 208.731 19.2802 211.02 21.4217C210.036 21.4217 209.135 21.3764 208.242 21.4338C207.342 21.4912 206.448 21.6513 205.555 21.8279C207.319 22.3309 209.114 22.4064 211.042 22.3158C209.904 23.3322 208.759 24.036 207.382 24.2157C205.363 24.4769 203.776 23.4907 202.312 22.1738C202.206 22.0786 202.104 21.9775 202 21.8793C202.001 21.8491 202.001 21.8204 202.001 21.7902Z" fill="#FEDF00"/>
<path fill-rule="evenodd" clip-rule="evenodd" d="M230.244 10.4906C231.241 8.84147 232.063 7.15145 232.565 5.29837C231.317 6.68029 230.351 8.26756 229.527 9.97565C229.136 9.11331 229.244 6.92644 229.743 5.75901C230.642 3.65371 232.361 2.6811 234.308 2C235.338 5.77561 234.126 9.20692 230.244 10.4906Z" fill="#FEDF00"/>
<path fill-rule="evenodd" clip-rule="evenodd" d="M214.544 5.33615C215.098 7.15451 215.892 8.85203 216.888 10.465C213.748 10.0678 211.51 5.41924 212.815 2.05591C216.599 3.09797 218.463 6.00975 217.667 9.98775C217.191 9.14956 216.757 8.31285 216.256 7.5245C215.755 6.73916 215.189 6.00219 214.65 5.24403C214.615 5.27574 214.579 5.30597 214.544 5.33615Z" fill="#FEDF00"/>
<path fill-rule="evenodd" clip-rule="evenodd" d="M223.442 7.69511C223.35 9.04981 223.257 10.4045 223.167 11.726C221.342 10.5344 221.523 6.72404 223.557 4.81055C225.613 6.91279 225.855 9.47419 223.978 11.7925C223.888 10.4287 223.799 9.06492 223.709 7.70114C223.62 7.69965 223.532 7.69812 223.442 7.69511Z" fill="#FEDF00"/>
<path fill-rule="evenodd" clip-rule="evenodd" d="M215.58 27.1608C214.703 30.1405 212.431 31.172 209.705 30.4048C209.784 27.8902 212.88 25.7124 215.207 26.5597C214.638 26.9267 214.065 27.2635 213.525 27.6516C213 28.0291 212.507 28.4596 212.035 28.9202C213.301 28.5683 214.435 27.937 215.58 27.1608Z" fill="#FEDF00"/>
<path fill-rule="evenodd" clip-rule="evenodd" d="M209.672 13.3315C212.423 12.5506 214.716 13.5792 215.554 16.5015C214.967 16.1617 214.407 15.8068 213.822 15.5062C213.234 15.2042 212.622 14.955 211.994 14.733C212.939 15.7358 214.047 16.4819 215.24 17.1464C212.447 17.8532 210.421 16.2885 209.672 13.3315Z" fill="#FEDF00"/>
<path fill-rule="evenodd" clip-rule="evenodd" d="M231.988 17.1946C233.067 16.4183 234.153 15.6375 235.238 14.8567C235.21 14.8099 235.183 14.763 235.156 14.7162C233.896 15.1255 232.739 15.7704 231.614 16.5225C231.79 14.1 235.004 12.3633 237.463 13.3328C236.8 16.0875 234.918 17.8349 231.988 17.1946Z" fill="#FEDF00"/>
<path fill-rule="evenodd" clip-rule="evenodd" d="M231.9 26.5657C234.638 25.9253 236.706 27.3208 237.457 30.367C234.977 31.184 232.441 30.2688 231.609 27.2861C232.754 27.8766 233.938 28.4883 235.125 29.0999C235.149 29.0515 235.173 29.0032 235.197 28.9549C234.224 27.9944 233.109 27.2483 231.9 26.5657Z" fill="#FEDF00"/>
<path fill-rule="evenodd" clip-rule="evenodd" d="M219.391 14.3282C219.606 14.7994 219.822 15.2691 220.038 15.7448C218.908 15.4216 218.419 14.2965 218.757 13.043C219.863 13.117 220.74 14.4883 220.343 15.5243C220.071 15.0999 219.799 14.6755 219.526 14.2512C219.483 14.2768 219.437 14.3025 219.391 14.3282Z" fill="#FEDF00"/>
<path fill-rule="evenodd" clip-rule="evenodd" d="M226.796 15.5288C226.434 14.4822 227.162 13.3117 228.355 13.0203C228.781 14.2632 228.214 15.4306 227.106 15.7568C227.341 15.2373 227.571 14.7268 227.802 14.2149C227.768 14.1922 227.734 14.171 227.699 14.1484C227.397 14.6105 227.096 15.0712 226.796 15.5288Z" fill="#FEDF00"/>
<path fill-rule="evenodd" clip-rule="evenodd" d="M230.317 22.0653C230.871 22.017 231.381 21.9747 231.891 21.9294C231.89 21.8826 231.89 21.8358 231.888 21.7874C231.371 21.7467 230.854 21.7059 230.344 21.6651C231.133 20.7529 232.352 20.9221 233.171 21.8252C232.441 22.8265 231.181 22.9352 230.317 22.0653Z" fill="#FEDF00"/>
<defs>
<linearGradient id="paint0_linear" x1="153" y1="0" x2="153" y2="90" gradientUnits="userSpaceOnUse">
<stop stop-color="#009B3A"/>
<stop offset="1" stop-color="#028031"/>
</linearGradient>
<linearGradient id="paint1_linear" x1="223.589" y1="19.166" x2="223.589" y2="32.2843" gradientUnits="userSpaceOnUse">
<stop stop-color="#FEDF00"/>
<stop offset="1" stop-color="#328002"/>
</linearGradient>
<linearGradient id="paint2_linear" x1="223.589" y1="18.0737" x2="223.589" y2="29.7484" gradientUnits="userSpaceOnUse">
<stop offset="0.492708" stop-color="#FEDF00"/>
<stop offset="1" stop-color="#028031"/>
</linearGradient>
<linearGradient id="paint3_linear" x1="223.589" y1="23.3201" x2="223.589" y2="27.0377" gradientUnits="userSpaceOnUse">
<stop stop-color="#FEDF00"/>
<stop offset="1" stop-color="#FEDF00"/>
</linearGradient>
</defs>
</svg>
