<svg width="32" height="42" viewBox="0 0 32 42" fill="none" xmlns="http://www.w3.org/2000/svg">
<rect x="0.25" y="19" width="31" height="22" rx="3.75" fill="url(#paint0_linear_624_504)" stroke="#47453F" stroke-width="0.5"/>
<path fill-rule="evenodd" clip-rule="evenodd" d="M20.0732 18.8232L15.75 23.1465L11.4268 18.8232L11.0732 19.1768L15.5 23.6036V26H11.5H11H0V26.5H11V33.5H0V34H11H11.5H15.5V36.3965L11.0732 40.8232L11.4268 41.1768L15.75 36.8536L20.0732 41.1768L20.4268 40.8232L16 36.3965V34H20H20.5H31.5V33.5H20.5V26.5H31.5V26H20.25C20.1119 26 20 26.1119 20 26.25V33.5H15.75H11.5V26.5H15.75C15.8881 26.5 16 26.3881 16 26.25V23.6036L20.4268 19.1768L20.0732 18.8232Z" fill="#47453F"/>
<g clip-path="url(#clip0_624_504)">
<path d="M23.9082 2.99563C23.8347 3.24972 23.5323 3.50725 23.2437 3.56134C23.0558 3.59664 22.9254 3.55359 22.4043 3.28426C20.2989 2.19588 18.3614 1.72286 16.0097 1.72286C13.7369 1.72286 11.9685 2.14166 9.84904 3.18204C9.39405 3.4054 8.97158 3.58813 8.9105 3.58813C8.68497 3.58813 8.35799 3.39944 8.22974 3.19512C8.05386 2.91486 8.08675 2.44528 8.2978 2.22051C8.37894 2.13417 8.74745 1.90966 9.11647 1.72172C10.5782 0.977341 12.1819 0.467245 13.8511 0.215436C14.8841 0.0596266 16.8419 0.0286407 17.7876 0.153085C19.5321 0.382799 21.0887 0.843246 22.6136 1.58052C23.5354 2.0261 23.9146 2.30585 23.9146 2.54001C23.9146 2.58686 23.9262 2.66331 23.9406 2.70978C23.9547 2.75651 23.9402 2.88502 23.9082 2.99563ZM22.3233 6.02508C22.2099 6.4148 21.7318 6.69582 21.3736 6.58318C21.2869 6.55588 20.8874 6.37239 20.4859 6.17556C18.7858 5.34191 16.9633 4.99512 15.174 5.16502C13.7038 5.3047 12.7765 5.5682 11.4198 6.23194C10.5096 6.67728 10.3685 6.69797 10.0021 6.43905C9.65361 6.19283 9.5971 5.57836 9.89323 5.25556C10.0984 5.03182 11.5516 4.33594 12.3746 4.06737C15.0982 3.17848 18.0219 3.3141 20.6974 4.45328C22.068 5.03677 22.4917 5.44642 22.3233 6.02508ZM20.7161 9.14915C20.6075 9.38991 20.3529 9.59715 20.0963 9.65353C19.94 9.68794 19.767 9.62877 19.1885 9.34305C17.0634 8.29378 15.0165 8.28248 12.9408 9.30851C12.0292 9.75905 11.8478 9.76896 11.4883 9.38788C11.3109 9.19982 11.2795 9.11994 11.2795 8.85582C11.2795 8.41277 11.5021 8.18305 12.3153 7.78712C13.5661 7.17823 14.6512 6.92896 16.0414 6.93099C17.4704 6.93315 18.4513 7.16616 19.7703 7.8167C20.5255 8.18928 20.7248 8.3734 20.776 8.74636C20.7916 8.86013 20.7646 9.04134 20.7161 9.14915ZM19.2189 12.0643C19.14 12.2551 18.8804 12.4728 18.6548 12.5376C18.4026 12.6098 18.2024 12.5507 17.7316 12.2643C17.126 11.8961 16.801 11.8104 16.0095 11.8104C15.2182 11.8104 14.8931 11.8961 14.2875 12.2643C14.0822 12.3891 13.8362 12.5145 13.7408 12.5429C13.3417 12.6615 12.8526 12.329 12.7688 11.8822C12.6977 11.5036 12.8667 11.2435 13.4102 10.8953C14.9838 9.88718 17.0859 9.88731 18.6461 10.8958C19.1966 11.2515 19.3911 11.6482 19.2189 12.0643Z" fill="black"/>
</g>
<defs>
<linearGradient id="paint0_linear_624_504" x1="3.36369e-07" y1="19" x2="32" y2="41" gradientUnits="userSpaceOnUse">
<stop stop-color="#F7F1B4"/>
<stop offset="1" stop-color="#BEA475"/>
</linearGradient>
<clipPath id="clip0_624_504">
<rect width="12.5714" height="16" fill="white" transform="translate(8 12.5714) rotate(-90)"/>
</clipPath>
</defs>
</svg>
