<?xml version="1.0" encoding="utf-8"?>
<!-- Generator: Adobe Illustrator 24.2.0, SVG Export Plug-In . SVG Version: 6.00 Build 0)  -->
<svg version="1.1" id="Layer_1" xmlns="http://www.w3.org/2000/svg" xmlns:xlink="http://www.w3.org/1999/xlink" x="0px" y="0px"
	 viewBox="0 0 152.12 111.41" style="enable-background:new 0 0 152.12 111.41;" xml:space="preserve">
<style type="text/css">
	.st0{fill:#606060;}
</style>
<g>
	<path class="st0" d="M105.96,43.83c11.33,0,20.52-9.19,20.52-20.52c0-11.33-9.19-20.52-20.52-20.52
		c-11.33,0-20.52,9.19-20.52,20.52C85.44,34.64,94.63,43.83,105.96,43.83z"/>
	<path class="st0" d="M149.27,89.76c0,0-2.37-20.64-6.59-26.8c-4.22-6.16-15.38-13.1-36.72-13.1c-21.33,0-32.5,6.94-36.72,13.1
		c-4.22,6.16-6.58,26.8-6.58,26.8H149.27z"/>
	<circle class="st0" cx="46.16" cy="42.17" r="20.52"/>
	<path class="st0" d="M53.61,96.77l0.58-5.08c0.31-2.73,1.7-13.85,4.33-22.07c-3.68-0.57-7.78-0.9-12.37-0.9
		c-21.33,0-32.5,6.94-36.72,13.1c-4.22,6.16-6.58,26.8-6.58,26.8h86.62c0,0-0.65-5.61-1.86-11.85H53.61z"/>
</g>
</svg>
