<svg xmlns="http://www.w3.org/2000/svg" viewBox="0 0 16 16"><path fill="#ba9b48" d="M11.001,1C11.552,1,12,1.448,12,1.999s-0.448,0.999-0.999,0.999L8.618,2.999 C9.358,1.952,10.287,1,11.001,1 M11.001,0C8.836,0,6.849,4,6.849,4s3.562-0.003,4.153-0.003C12.105,3.997,13,3.103,13,1.999 C13,0.895,12.105,0,11.001,0L11.001,0z"></path><path fill="#ba9b48" d="M4.999,1c0.714,0,1.644,0.952,2.383,1.999L4.999,2.997C4.448,2.997,4,2.549,4,1.999 S4.448,1,4.999,1 M4.999,0C3.895,0,3,0.895,3,1.999c0,1.104,0.895,1.999,1.999,1.999C5.589,3.997,9.151,4,9.151,4S7.164,0,4.999,0 L4.999,0z"></path><path fill="#f78f8f" d="M0.5 3.5H15.5V6.5H0.5z"></path><path fill="#c74343" d="M15,4v2H1V4H15 M16,3H0v4h16V3L16,3z"></path><path fill="#f78f8f" d="M1.5 6.5H14.5V15.5H1.5z"></path><path fill="#c74343" d="M14,7v8H2V7H14 M15,6H1v10h14V6L15,6z"></path><g><path fill="#ffeea3" d="M6.5 3.5H9.5V6.5H6.5z"></path><path fill="#c74343" d="M9,4v2H7V4H9 M10,3H6v4h4V3L10,3z"></path></g><g><path fill="#ffeea3" d="M6.5 6.5H9.5V15.5H6.5z"></path><path fill="#c74343" d="M9,7v8H7V7H9 M10,6H6v10h4V6L10,6z"></path></g></svg>