<svg width="41" height="25" viewBox="0 0 41 25" fill="none" xmlns="http://www.w3.org/2000/svg">
<path d="M26.2396 2.67285H14.2073V22.3252H26.2396V2.67285Z" fill="#FF5F00"/>
<path d="M15.4465 12.4997C15.445 10.6074 15.874 8.73947 16.701 7.03738C17.528 5.3353 18.7313 3.84363 20.2199 2.67526C18.3762 1.22632 16.162 0.325304 13.8305 0.0752013C11.4989 -0.174902 9.14408 0.235995 7.03501 1.26093C4.92595 2.28586 3.14779 3.88349 1.90375 5.8712C0.659718 7.85892 0 10.1565 0 12.5015C0 14.8464 0.659718 17.144 1.90375 19.1317C3.14779 21.1194 4.92595 22.717 7.03501 23.742C9.14408 24.7669 11.4989 25.1778 13.8305 24.9277C16.162 24.6776 18.3762 23.7766 20.2199 22.3276C18.7308 21.1589 17.5272 19.6667 16.7002 17.964C15.8732 16.2612 15.4445 14.3926 15.4465 12.4997Z" fill="#EB001B"/>
<path d="M39.2473 20.2455V19.8428H39.4209V19.7595H39.0078V19.8428H39.171V20.2455H39.2473ZM40.0493 20.2455V19.7595H39.9243L39.7785 20.1067L39.6327 19.7595H39.5077V20.2455H39.598V19.8776L39.7334 20.1935H39.8271L39.9625 19.8776V20.2455H40.0493Z" fill="#F79E1B"/>
<path d="M40.4417 12.5007C40.4416 14.8458 39.7818 17.1436 38.5375 19.1314C37.2932 21.1191 35.5148 22.7167 33.4055 23.7415C31.2962 24.7663 28.941 25.1769 26.6094 24.9265C24.2777 24.676 22.0635 23.7746 20.22 22.3252C21.708 21.1558 22.911 19.6637 23.7382 17.9615C24.5654 16.2593 24.9952 14.3915 24.9952 12.499C24.9952 10.6065 24.5654 8.73864 23.7382 7.03647C22.911 5.33429 21.708 3.84221 20.22 2.6728C22.0635 1.2234 24.2777 0.321952 26.6094 0.0714899C28.941 -0.178972 31.2962 0.23166 33.4055 1.25645C35.5148 2.28124 37.2932 3.87883 38.5375 5.86662C39.7818 7.8544 40.4416 10.1522 40.4417 12.4973V12.5007Z" fill="#F79E1B"/>
</svg>
