<svg width="163" height="48" viewBox="0 0 163 48" fill="none" xmlns="http://www.w3.org/2000/svg">
<path d="M4.416 36C3.91812 36 3.48518 35.816 3.11718 35.448C2.74918 35.08 2.56518 34.6471 2.56518 34.1492V14.1473C2.56518 13.6494 2.74918 13.2165 3.11718 12.8485C3.48518 12.4805 3.91812 12.2965 4.416 12.2965H5.22777C5.79059 12.2965 6.31012 12.448 6.78635 12.7511C7.26259 13.0541 7.60894 13.4546 7.82541 13.9525L13.5078 26.2264C13.5078 26.248 13.5186 26.2588 13.5402 26.2588C13.5619 26.2588 13.5727 26.248 13.5727 26.2264L19.2551 13.9525C19.4715 13.4546 19.8179 13.0541 20.2941 12.7511C20.7704 12.448 21.2899 12.2965 21.8527 12.2965H22.7944C23.2922 12.2965 23.7252 12.4805 24.0932 12.8485C24.4612 13.2165 24.6452 13.6494 24.6452 14.1473V34.1492C24.6452 34.6471 24.4612 35.08 24.0932 35.448C23.7252 35.816 23.2922 36 22.7944 36H22.08C21.5821 36 21.1492 35.816 20.7812 35.448C20.4132 35.08 20.2292 34.6471 20.2292 34.1492V20.0245C20.2292 20.0028 20.2184 19.992 20.1967 19.992C20.1751 19.992 20.1642 20.0028 20.1642 20.0245L16.2678 28.3694C16.0296 28.8673 15.6616 29.2786 15.1638 29.6033C14.6875 29.9064 14.1788 30.0579 13.6376 30.0579H13.4428C12.9016 30.0579 12.3821 29.9064 11.8842 29.6033C11.408 29.2786 11.0508 28.8673 10.8127 28.3694L6.91624 20.0245C6.91624 20.0028 6.90541 19.992 6.88377 19.992C6.86212 19.992 6.85129 20.0028 6.85129 20.0245V34.1492C6.85129 34.6471 6.66729 35.08 6.29929 35.448C5.93129 35.816 5.49835 36 5.00047 36H4.416ZM32.2722 36C31.7743 36 31.3414 35.816 30.9734 35.448C30.6054 35.08 30.4214 34.6471 30.4214 34.1492V20.9661C30.4214 20.4682 30.6054 20.0353 30.9734 19.6673C31.3414 19.2993 31.7743 19.1153 32.2722 19.1153H33.1164C33.6143 19.1153 34.0473 19.2993 34.4153 19.6673C34.7833 20.0353 34.9673 20.4682 34.9673 20.9661V34.1492C34.9673 34.6471 34.7833 35.08 34.4153 35.448C34.0473 35.816 33.6143 36 33.1164 36H32.2722ZM32.2722 15.5435C31.7743 15.5435 31.3414 15.3595 30.9734 14.9915C30.6054 14.6235 30.4214 14.1906 30.4214 13.6927V13.4979C30.4214 13 30.6054 12.5671 30.9734 12.1991C31.3414 11.8311 31.7743 11.6471 32.2722 11.6471H33.1164C33.6143 11.6471 34.0473 11.8311 34.4153 12.1991C34.7833 12.5671 34.9673 13 34.9673 13.4979V13.6927C34.9673 14.1906 34.7833 14.6235 34.4153 14.9915C34.0473 15.3595 33.6143 15.5435 33.1164 15.5435H32.2722ZM42.2696 36C41.7717 36 41.3388 35.816 40.9708 35.448C40.6028 35.08 40.4188 34.6471 40.4188 34.1492V20.9661C40.4188 20.4682 40.6028 20.0353 40.9708 19.6673C41.3388 19.2993 41.7717 19.1153 42.2696 19.1153H42.6917C43.2113 19.1153 43.6442 19.2993 43.9905 19.6673C44.3585 20.0136 44.5534 20.4466 44.575 20.9661V21.1934C44.575 21.2151 44.5858 21.2259 44.6075 21.2259C44.6291 21.2259 44.6508 21.2151 44.6724 21.1934C46.1444 19.5915 47.8654 18.7906 49.8353 18.7906C51.8051 18.7906 53.2338 19.3534 54.1214 20.4791C55.0305 21.5831 55.4851 23.4339 55.4851 26.0315V34.1492C55.4851 34.6471 55.3011 35.08 54.9331 35.448C54.5651 35.816 54.1322 36 53.6343 36H53.0823C52.5844 36 52.1515 35.816 51.7835 35.448C51.4371 35.08 51.264 34.6471 51.264 34.1492V26.3562C51.264 24.7327 51.0475 23.6287 50.6145 23.0442C50.2033 22.4381 49.4564 22.1351 48.3741 22.1351C47.4865 22.1351 46.664 22.5139 45.9063 23.2715C45.1487 24.0292 44.7698 24.8409 44.7698 25.7068V34.1492C44.7698 34.6471 44.5858 35.08 44.2178 35.448C43.8498 35.816 43.4169 36 42.919 36H42.2696ZM61.774 36C61.2761 36 60.8432 35.816 60.4752 35.448C60.1288 35.08 59.9557 34.6471 59.9557 34.1492V13.4979C59.9557 13 60.1288 12.5671 60.4752 12.1991C60.8432 11.8311 61.2761 11.6471 61.774 11.6471H62.4234C62.9213 11.6471 63.3543 11.8311 63.7223 12.1991C64.0903 12.5671 64.2743 13 64.2743 13.4979V21.0311C64.2743 21.0527 64.2851 21.0635 64.3067 21.0635C64.3284 21.0635 64.35 21.0527 64.3717 21.0311C65.887 19.5374 67.5538 18.7906 69.3721 18.7906C71.342 18.7906 72.7707 19.3534 73.6583 20.4791C74.5458 21.6047 74.9896 23.5313 74.9896 26.2588V34.1492C74.9896 34.6471 74.8056 35.08 74.4376 35.448C74.0696 35.816 73.6366 36 73.1387 36H72.6192C72.1213 36 71.6884 35.816 71.3204 35.448C70.9524 35.08 70.7684 34.6471 70.7684 34.1492V26.9082C70.7684 25.0249 70.5627 23.7802 70.1514 23.1741C69.7618 22.568 69.015 22.2649 67.911 22.2649C67.0451 22.2649 66.2225 22.6546 65.4432 23.4339C64.6639 24.2132 64.2743 25.0466 64.2743 25.9341V34.1492C64.2743 34.6471 64.0903 35.08 63.7223 35.448C63.3543 35.816 62.9213 36 62.4234 36H61.774ZM87.25 27.8824C84.1545 27.8824 82.6067 28.8348 82.6067 30.7398C82.6067 31.4325 82.8015 31.9953 83.1912 32.4282C83.6025 32.8612 84.122 33.0776 84.7498 33.0776C85.9836 33.0776 86.9794 32.6988 87.7371 31.9412C88.4947 31.1619 88.8735 30.1012 88.8735 28.7591V28.1746C88.8735 27.9798 88.7761 27.8824 88.5813 27.8824H87.25ZM83.5808 36.3247C82.1088 36.3247 80.8858 35.8485 79.9116 34.896C78.9592 33.9219 78.4829 32.6664 78.4829 31.1294C78.4829 29.2461 79.1973 27.7849 80.626 26.7459C82.0763 25.7068 84.2843 25.1873 87.25 25.1873H88.5813C88.7761 25.1873 88.8735 25.0899 88.8735 24.8951V24.6353C88.8735 23.6395 88.6354 22.9468 88.1592 22.5572C87.6829 22.1459 86.8387 21.9402 85.6265 21.9402C84.3709 21.9402 82.834 22.1675 81.0156 22.6221C80.626 22.7304 80.2688 22.6654 79.9441 22.4273C79.6194 22.1675 79.4571 21.832 79.4571 21.4207C79.4571 20.9228 79.6086 20.4791 79.9116 20.0894C80.2147 19.6781 80.6043 19.4292 81.0806 19.3426C82.7258 18.9746 84.2735 18.7906 85.7239 18.7906C88.4947 18.7906 90.4321 19.2885 91.5361 20.2842C92.6401 21.28 93.1921 23.0226 93.1921 25.512V34.1492C93.1921 34.6471 93.0081 35.08 92.6401 35.448C92.2938 35.816 91.8716 36 91.3738 36H91.0166C90.4971 36 90.0533 35.8268 89.6853 35.4805C89.3173 35.1125 89.1225 34.6687 89.1008 34.1492V33.6946C89.1008 33.6729 89.09 33.6621 89.0683 33.6621C89.0251 33.6621 89.0034 33.6729 89.0034 33.6946C87.6829 35.448 85.8754 36.3247 83.5808 36.3247ZM100.448 34.2466L93.7269 14.0499C93.5753 13.6169 93.6295 13.2165 93.8892 12.8485C94.149 12.4805 94.5062 12.2965 94.9607 12.2965H96.1297C96.6709 12.2965 97.1687 12.4696 97.6233 12.816C98.0779 13.1407 98.3702 13.5628 98.5 14.0824L103.468 31.5191C103.468 31.5407 103.479 31.5515 103.501 31.5515C103.522 31.5515 103.533 31.5407 103.533 31.5191L108.566 14.0499C108.717 13.5304 109.01 13.1082 109.443 12.7835C109.897 12.4588 110.395 12.2965 110.936 12.2965H111.975C112.43 12.2965 112.787 12.4805 113.047 12.8485C113.307 13.2165 113.361 13.6169 113.209 14.0499L106.488 34.2466C106.315 34.7661 106.001 35.1882 105.546 35.5129C105.113 35.8376 104.615 36 104.053 36H102.884C102.342 36 101.845 35.8376 101.39 35.5129C100.957 35.1882 100.643 34.7661 100.448 34.2466ZM118.934 36C118.437 36 118.004 35.816 117.636 35.448C117.268 35.08 117.084 34.6471 117.084 34.1492V20.9661C117.084 20.4682 117.268 20.0353 117.636 19.6673C118.004 19.2993 118.437 19.1153 118.934 19.1153H119.779C120.277 19.1153 120.709 19.2993 121.077 19.6673C121.445 20.0353 121.629 20.4682 121.629 20.9661V34.1492C121.629 34.6471 121.445 35.08 121.077 35.448C120.709 35.816 120.277 36 119.779 36H118.934ZM118.934 15.5435C118.437 15.5435 118.004 15.3595 117.636 14.9915C117.268 14.6235 117.084 14.1906 117.084 13.6927V13.4979C117.084 13 117.268 12.5671 117.636 12.1991C118.004 11.8311 118.437 11.6471 118.934 11.6471H119.779C120.277 11.6471 120.709 11.8311 121.077 12.1991C121.445 12.5671 121.629 13 121.629 13.4979V13.6927C121.629 14.1906 121.445 14.6235 121.077 14.9915C120.709 15.3595 120.277 15.5435 119.779 15.5435H118.934ZM134.127 22.0376C131.638 22.0376 130.393 23.8776 130.393 27.5576C130.393 29.3976 130.729 30.7831 131.4 31.7139C132.071 32.6231 132.98 33.0776 134.127 33.0776C135.145 33.0776 136.021 32.7421 136.757 32.0711C137.493 31.4 137.861 30.6315 137.861 29.7656V25.3496C137.861 24.4838 137.493 23.7153 136.757 23.0442C136.021 22.3732 135.145 22.0376 134.127 22.0376ZM132.828 36.3247C130.902 36.3247 129.3 35.5454 128.023 33.9868C126.745 32.4066 126.107 30.2635 126.107 27.5576C126.107 24.7652 126.713 22.6113 127.925 21.096C129.159 19.5591 130.793 18.7906 132.828 18.7906C134.668 18.7906 136.292 19.4616 137.699 20.8038C137.721 20.8254 137.742 20.8362 137.764 20.8362C137.785 20.8362 137.796 20.8254 137.796 20.8038V13.4979C137.796 13 137.98 12.5671 138.348 12.1991C138.716 11.8311 139.149 11.6471 139.647 11.6471H140.297C140.794 11.6471 141.227 11.8311 141.595 12.1991C141.963 12.5671 142.147 13 142.147 13.4979V34.1492C142.147 34.6471 141.963 35.08 141.595 35.448C141.227 35.816 140.794 36 140.297 36H139.939C139.42 36 138.976 35.8268 138.608 35.4805C138.262 35.1125 138.078 34.6687 138.056 34.1492L138.024 33.9219C138.024 33.9002 138.013 33.8894 137.991 33.8894C137.969 33.8894 137.948 33.9002 137.926 33.9219C136.497 35.5238 134.798 36.3247 132.828 36.3247ZM154.76 27.8824C151.664 27.8824 150.116 28.8348 150.116 30.7398C150.116 31.4325 150.311 31.9953 150.701 32.4282C151.112 32.8612 151.632 33.0776 152.259 33.0776C153.493 33.0776 154.489 32.6988 155.247 31.9412C156.004 31.1619 156.383 30.1012 156.383 28.7591V28.1746C156.383 27.9798 156.286 27.8824 156.091 27.8824H154.76ZM151.09 36.3247C149.618 36.3247 148.395 35.8485 147.421 34.896C146.469 33.9219 145.993 32.6664 145.993 31.1294C145.993 29.2461 146.707 27.7849 148.136 26.7459C149.586 25.7068 151.794 25.1873 154.76 25.1873H156.091C156.286 25.1873 156.383 25.0899 156.383 24.8951V24.6353C156.383 23.6395 156.145 22.9468 155.669 22.5572C155.193 22.1459 154.348 21.9402 153.136 21.9402C151.881 21.9402 150.344 22.1675 148.525 22.6221C148.136 22.7304 147.778 22.6654 147.454 22.4273C147.129 22.1675 146.967 21.832 146.967 21.4207C146.967 20.9228 147.118 20.4791 147.421 20.0894C147.724 19.6781 148.114 19.4292 148.59 19.3426C150.235 18.9746 151.783 18.7906 153.234 18.7906C156.004 18.7906 157.942 19.2885 159.046 20.2842C160.15 21.28 160.702 23.0226 160.702 25.512V34.1492C160.702 34.6471 160.518 35.08 160.15 35.448C159.803 35.816 159.381 36 158.883 36H158.526C158.007 36 157.563 35.8268 157.195 35.4805C156.827 35.1125 156.632 34.6687 156.61 34.1492V33.6946C156.61 33.6729 156.6 33.6621 156.578 33.6621C156.535 33.6621 156.513 33.6729 156.513 33.6946C155.193 35.448 153.385 36.3247 151.09 36.3247Z" fill="url(#paint0_linear)"/>
<path d="M116.786 11.2719H122.086V16.2775H116.786V11.2719Z" fill="white"/>
<path d="M119.492 17.2184C121.616 17.2184 123.344 15.5184 123.344 13.4288C123.344 12.08 122.623 10.8936 121.542 10.2219V11.1434C122.21 11.7229 122.59 12.5476 122.59 13.4288C122.59 15.1095 121.2 16.4769 119.492 16.4769C117.783 16.4769 116.394 15.1096 116.394 13.4289C116.394 12.5476 116.774 11.7229 117.442 11.1434V10.2219C116.36 10.8936 115.64 12.08 115.64 13.4289C115.64 15.5184 117.368 17.2184 119.492 17.2184Z" fill="url(#paint1_linear)"/>
<path d="M118.063 11.285C118.063 11.3779 118.02 11.4657 117.946 11.5237C117.354 11.9894 117.015 12.6836 117.015 13.4282C117.015 14.7719 118.126 15.8651 119.491 15.8651C120.857 15.8651 121.968 14.7719 121.968 13.4282C121.968 12.6836 121.629 11.9894 121.037 11.5237C120.963 11.4657 120.92 11.3779 120.92 11.285V9.908C120.466 9.7292 119.987 9.63867 119.491 9.63867C118.996 9.63867 118.517 9.7292 118.063 9.908V11.285ZM121.12 13.4282C121.12 14.3118 120.389 15.0306 119.491 15.0306C118.593 15.0306 117.863 14.3118 117.863 13.4282C117.863 12.5446 118.593 11.8257 119.491 11.8257C120.389 11.8257 121.12 12.5446 121.12 13.4282ZM119.838 10.8895C119.846 11.0735 119.673 11.2302 119.491 11.2302C119.297 11.2302 119.153 11.0741 119.145 10.8895C119.137 10.7054 119.31 10.5487 119.491 10.5487C119.686 10.5487 119.83 10.7048 119.838 10.8895Z" fill="url(#paint2_linear)"/>
<path d="M119.492 14.4206C120.048 14.4206 120.499 13.9767 120.499 13.4292C120.499 12.8817 120.048 12.4379 119.492 12.4379C118.935 12.4379 118.484 12.8817 118.484 13.4292C118.484 13.9767 118.935 14.4206 119.492 14.4206Z" fill="#FF3D00"/>
<path fill-rule="evenodd" clip-rule="evenodd" d="M131.011 11.669C130.538 12.1426 130.013 12.5308 129.396 12.7668C128.459 13.1253 127.596 12.9126 126.78 12.377C126.59 12.2521 126.414 12.1023 126.234 11.934C127.204 11.9501 128.165 11.9106 129.107 11.6803C129.108 11.6569 129.109 11.6343 129.11 11.611C128.632 11.5498 128.157 11.4644 127.678 11.433C127.202 11.4024 126.722 11.4265 126.244 11.4265C126.232 11.4016 126.22 11.3758 126.209 11.3508C126.519 11.1438 126.817 10.9102 127.142 10.733C128.271 10.1185 129.333 10.3408 130.338 11.0753C130.57 11.2453 130.787 11.4386 131.01 11.6215C131.011 11.6376 131.011 11.6529 131.011 11.669Z" fill="#FEDF00"/>
<path fill-rule="evenodd" clip-rule="evenodd" d="M107.955 11.6208C108.287 11.3654 108.604 11.0836 108.954 10.8612C110.244 10.0429 111.552 10.2821 112.775 11.4243C112.249 11.4243 111.768 11.4001 111.29 11.4307C110.809 11.4613 110.332 11.5467 109.854 11.6409C110.797 11.9091 111.756 11.9494 112.787 11.9011C112.178 12.4432 111.566 12.8185 110.831 12.9144C109.752 13.0537 108.903 12.5277 108.121 11.8254C108.065 11.7746 108.01 11.7207 107.954 11.6683C107.955 11.6522 107.955 11.6369 107.955 11.6208Z" fill="#FEDF00"/>
<path fill-rule="evenodd" clip-rule="evenodd" d="M123.049 5.59474C123.582 4.71519 124.021 3.81385 124.289 2.82554C123.622 3.56256 123.106 4.4091 122.666 5.32009C122.457 4.86017 122.515 3.69384 122.781 3.07121C123.262 1.94838 124.18 1.42966 125.221 1.06641C125.771 3.08007 125.124 4.91009 123.049 5.59474Z" fill="#FEDF00"/>
<path fill-rule="evenodd" clip-rule="evenodd" d="M114.658 2.84566C114.954 3.81544 115.379 4.72079 115.911 5.58103C114.233 5.36918 113.037 2.88997 113.734 1.09619C115.757 1.65196 116.753 3.20491 116.327 5.32651C116.073 4.87947 115.841 4.43323 115.573 4.01277C115.306 3.59393 115.003 3.20088 114.715 2.79652C114.696 2.81344 114.677 2.82956 114.658 2.84566Z" fill="#FEDF00"/>
<path fill-rule="evenodd" clip-rule="evenodd" d="M119.414 4.10374C119.364 4.82625 119.315 5.54875 119.266 6.25353C118.291 5.61802 118.388 3.58584 119.475 2.56531C120.574 3.6865 120.703 5.05258 119.7 6.28899C119.652 5.56164 119.604 4.83431 119.556 4.10696C119.509 4.10616 119.461 4.10535 119.414 4.10374Z" fill="#FEDF00"/>
<path fill-rule="evenodd" clip-rule="evenodd" d="M115.212 14.4855C114.743 16.0747 113.529 16.6249 112.072 16.2157C112.115 14.8746 113.769 13.7131 115.013 14.165C114.709 14.3607 114.403 14.5403 114.114 14.7473C113.833 14.9487 113.57 15.1782 113.318 15.4239C113.994 15.2362 114.6 14.8995 115.212 14.4855Z" fill="#FEDF00"/>
<path fill-rule="evenodd" clip-rule="evenodd" d="M112.055 7.11017C113.525 6.69372 114.75 7.24227 115.198 8.80083C114.884 8.6196 114.585 8.43033 114.272 8.27004C113.958 8.10894 113.631 7.97605 113.295 7.85763C113.8 8.39247 114.393 8.79037 115.03 9.14478C113.537 9.52173 112.455 8.68725 112.055 7.11017Z" fill="#FEDF00"/>
<path fill-rule="evenodd" clip-rule="evenodd" d="M123.981 9.17018C124.558 8.75615 125.138 8.33973 125.718 7.92331C125.703 7.89834 125.688 7.87336 125.674 7.84839C125 8.06669 124.382 8.4106 123.781 8.81174C123.875 7.51975 125.592 6.59348 126.907 7.11057C126.552 8.57977 125.547 9.51167 123.981 9.17018Z" fill="#FEDF00"/>
<path fill-rule="evenodd" clip-rule="evenodd" d="M123.933 14.1678C125.397 13.8263 126.502 14.5706 126.903 16.1952C125.578 16.6309 124.223 16.1428 123.778 14.552C124.39 14.867 125.023 15.1932 125.657 15.5194C125.67 15.4936 125.683 15.4678 125.696 15.4421C125.176 14.9298 124.58 14.5319 123.933 14.1678Z" fill="#FEDF00"/>
<path fill-rule="evenodd" clip-rule="evenodd" d="M117.249 7.64161C117.363 7.89293 117.479 8.14342 117.594 8.39716C116.99 8.22478 116.729 7.6247 116.909 6.95618C117.501 6.99564 117.969 7.727 117.757 8.27955C117.612 8.05321 117.467 7.82688 117.321 7.60054C117.297 7.61424 117.273 7.62794 117.249 7.64161Z" fill="#FEDF00"/>
<path fill-rule="evenodd" clip-rule="evenodd" d="M121.206 8.28174C121.013 7.72352 121.401 7.09929 122.039 6.94385C122.267 7.60673 121.964 8.22936 121.372 8.40335C121.497 8.12627 121.62 7.85402 121.744 7.58097C121.726 7.56887 121.707 7.5576 121.688 7.54553C121.527 7.792 121.366 8.03767 121.206 8.28174Z" fill="#FEDF00"/>
<path fill-rule="evenodd" clip-rule="evenodd" d="M123.088 11.7681C123.384 11.7423 123.656 11.7198 123.929 11.6956C123.928 11.6706 123.928 11.6457 123.927 11.6199C123.651 11.5982 123.375 11.5764 123.102 11.5547C123.524 11.0682 124.175 11.1584 124.613 11.6401C124.223 12.1741 123.549 12.2321 123.088 11.7681Z" fill="#FEDF00"/>
<defs>
<linearGradient id="paint0_linear" x1="81.6" y1="0" x2="81.6" y2="48" gradientUnits="userSpaceOnUse">
<stop stop-color="#009B3A"/>
<stop offset="1" stop-color="#028031"/>
</linearGradient>
<linearGradient id="paint1_linear" x1="119.492" y1="10.2219" x2="119.492" y2="17.2184" gradientUnits="userSpaceOnUse">
<stop stop-color="#FEDF00"/>
<stop offset="1" stop-color="#328002"/>
</linearGradient>
<linearGradient id="paint2_linear" x1="119.491" y1="9.63867" x2="119.491" y2="15.8651" gradientUnits="userSpaceOnUse">
<stop offset="0.492708" stop-color="#FEDF00"/>
<stop offset="1" stop-color="#028031"/>
</linearGradient>
</defs>
</svg>
