<svg width="126" height="56" viewBox="0 0 126 56" fill="none" xmlns="http://www.w3.org/2000/svg">
<path d="M5.04 41C4.47176 41 3.97765 40.79 3.55765 40.37C3.13765 39.95 2.92765 39.4559 2.92765 38.8876V16.0594C2.92765 15.4912 3.13765 14.9971 3.55765 14.5771C3.97765 14.1571 4.47176 13.9471 5.04 13.9471H5.96647C6.60882 13.9471 7.20176 14.12 7.74529 14.4659C8.28882 14.8118 8.68412 15.2688 8.93118 15.8371L15.4165 29.8453C15.4165 29.87 15.4288 29.8824 15.4535 29.8824C15.4782 29.8824 15.4906 29.87 15.4906 29.8453L21.9759 15.8371C22.2229 15.2688 22.6182 14.8118 23.1618 14.4659C23.7053 14.12 24.2982 13.9471 24.9406 13.9471H26.0153C26.5835 13.9471 27.0776 14.1571 27.4976 14.5771C27.9176 14.9971 28.1276 15.4912 28.1276 16.0594V38.8876C28.1276 39.4559 27.9176 39.95 27.4976 40.37C27.0776 40.79 26.5835 41 26.0153 41H25.2C24.6318 41 24.1376 40.79 23.7176 40.37C23.2976 39.95 23.0876 39.4559 23.0876 38.8876V22.7671C23.0876 22.7424 23.0753 22.73 23.0506 22.73C23.0259 22.73 23.0135 22.7424 23.0135 22.7671L18.5665 32.2912C18.2947 32.8594 17.8747 33.3288 17.3065 33.6994C16.7629 34.0453 16.1824 34.2182 15.5647 34.2182H15.3424C14.7247 34.2182 14.1318 34.0453 13.5635 33.6994C13.02 33.3288 12.6124 32.8594 12.3406 32.2912L7.89353 22.7671C7.89353 22.7424 7.88118 22.73 7.85647 22.73C7.83176 22.73 7.81941 22.7424 7.81941 22.7671V38.8876C7.81941 39.4559 7.60941 39.95 7.18941 40.37C6.76941 40.79 6.27529 41 5.70706 41H5.04ZM36.8324 41C36.2642 41 35.7701 40.79 35.3501 40.37C34.9301 39.95 34.7201 39.4559 34.7201 38.8876V23.8418C34.7201 23.2735 34.9301 22.7794 35.3501 22.3594C35.7701 21.9394 36.2642 21.7294 36.8324 21.7294H37.7959C38.3642 21.7294 38.8583 21.9394 39.2783 22.3594C39.6983 22.7794 39.9083 23.2735 39.9083 23.8418V38.8876C39.9083 39.4559 39.6983 39.95 39.2783 40.37C38.8583 40.79 38.3642 41 37.7959 41H36.8324ZM36.8324 17.6529C36.2642 17.6529 35.7701 17.4429 35.3501 17.0229C34.9301 16.6029 34.7201 16.1088 34.7201 15.5406V15.3182C34.7201 14.75 34.9301 14.2559 35.3501 13.8359C35.7701 13.4159 36.2642 13.2059 36.8324 13.2059H37.7959C38.3642 13.2059 38.8583 13.4159 39.2783 13.8359C39.6983 14.2559 39.9083 14.75 39.9083 15.3182V15.5406C39.9083 16.1088 39.6983 16.6029 39.2783 17.0229C38.8583 17.4429 38.3642 17.6529 37.7959 17.6529H36.8324ZM52.4672 38.9988L44.796 15.9482C44.6231 15.4541 44.6848 14.9971 44.9813 14.5771C45.2778 14.1571 45.6854 13.9471 46.2042 13.9471H47.5384C48.156 13.9471 48.7242 14.1447 49.2431 14.54C49.7619 14.9106 50.0954 15.3924 50.2437 15.9853L55.9137 35.8859C55.9137 35.9106 55.926 35.9229 55.9507 35.9229C55.9754 35.9229 55.9878 35.9106 55.9878 35.8859L61.7319 15.9482C61.9048 15.3553 62.2384 14.8735 62.7325 14.5029C63.2513 14.1324 63.8195 13.9471 64.4372 13.9471H65.6231C66.1419 13.9471 66.5495 14.1571 66.846 14.5771C67.1425 14.9971 67.2042 15.4541 67.0313 15.9482L59.3601 38.9988C59.1625 39.5918 58.8042 40.0735 58.2854 40.4441C57.7913 40.8147 57.2231 41 56.5807 41H55.2466C54.6289 41 54.0607 40.8147 53.5419 40.4441C53.0478 40.0735 52.6895 39.5918 52.4672 38.9988ZM73.5655 41C72.9973 41 72.5032 40.79 72.0832 40.37C71.6632 39.95 71.4532 39.4559 71.4532 38.8876V23.8418C71.4532 23.2735 71.6632 22.7794 72.0832 22.3594C72.5032 21.9394 72.9973 21.7294 73.5655 21.7294H74.5291C75.0973 21.7294 75.5914 21.9394 76.0114 22.3594C76.4314 22.7794 76.6414 23.2735 76.6414 23.8418V38.8876C76.6414 39.4559 76.4314 39.95 76.0114 40.37C75.5914 40.79 75.0973 41 74.5291 41H73.5655ZM73.5655 17.6529C72.9973 17.6529 72.5032 17.4429 72.0832 17.0229C71.6632 16.6029 71.4532 16.1088 71.4532 15.5406V15.3182C71.4532 14.75 71.6632 14.2559 72.0832 13.8359C72.5032 13.4159 72.9973 13.2059 73.5655 13.2059H74.5291C75.0973 13.2059 75.5914 13.4159 76.0114 13.8359C76.4314 14.2559 76.6414 14.75 76.6414 15.3182V15.5406C76.6414 16.1088 76.4314 16.6029 76.0114 17.0229C75.5914 17.4429 75.0973 17.6529 74.5291 17.6529H73.5655ZM90.905 25.0647C88.0638 25.0647 86.6432 27.1647 86.6432 31.3647C86.6432 33.4647 87.0262 35.0459 87.792 36.1082C88.5579 37.1459 89.5956 37.6647 90.905 37.6647C92.0662 37.6647 93.0668 37.2818 93.9068 36.5159C94.7468 35.75 95.1668 34.8729 95.1668 33.8847V28.8447C95.1668 27.8565 94.7468 26.9794 93.9068 26.2135C93.0668 25.4476 92.0662 25.0647 90.905 25.0647ZM89.4226 41.3706C87.2238 41.3706 85.3956 40.4812 83.9379 38.7024C82.4803 36.8988 81.7515 34.4529 81.7515 31.3647C81.7515 28.1776 82.4432 25.7194 83.8268 23.99C85.235 22.2359 87.1003 21.3588 89.4226 21.3588C91.5226 21.3588 93.3756 22.1247 94.9815 23.6565C95.0062 23.6812 95.0309 23.6935 95.0556 23.6935C95.0803 23.6935 95.0926 23.6812 95.0926 23.6565V15.3182C95.0926 14.75 95.3026 14.2559 95.7226 13.8359C96.1426 13.4159 96.6368 13.2059 97.205 13.2059H97.9462C98.5144 13.2059 99.0085 13.4159 99.4285 13.8359C99.8485 14.2559 100.059 14.75 100.059 15.3182V38.8876C100.059 39.4559 99.8485 39.95 99.4285 40.37C99.0085 40.79 98.5144 41 97.9462 41H97.5385C96.9456 41 96.4391 40.8024 96.0191 40.4071C95.6238 39.9871 95.4138 39.4806 95.3891 38.8876L95.352 38.6282C95.352 38.6035 95.3397 38.5912 95.315 38.5912C95.2903 38.5912 95.2656 38.6035 95.2409 38.6282C93.6103 40.4565 91.6709 41.3706 89.4226 41.3706ZM114.453 31.7353C110.92 31.7353 109.154 32.8224 109.154 34.9965C109.154 35.7871 109.376 36.4294 109.821 36.9235C110.29 37.4176 110.883 37.6647 111.599 37.6647C113.008 37.6647 114.144 37.2324 115.009 36.3676C115.874 35.4782 116.306 34.2676 116.306 32.7359V32.0688C116.306 31.8465 116.195 31.7353 115.972 31.7353H114.453ZM110.265 41.3706C108.585 41.3706 107.189 40.8271 106.078 39.74C104.991 38.6282 104.447 37.1953 104.447 35.4412C104.447 33.2918 105.262 31.6241 106.893 30.4382C108.548 29.2524 111.068 28.6594 114.453 28.6594H115.972C116.195 28.6594 116.306 28.5482 116.306 28.3259V28.0294C116.306 26.8929 116.034 26.1024 115.491 25.6576C114.947 25.1882 113.984 24.9535 112.6 24.9535C111.167 24.9535 109.413 25.2129 107.338 25.7318C106.893 25.8553 106.485 25.7812 106.115 25.5094C105.744 25.2129 105.559 24.83 105.559 24.3606C105.559 23.7924 105.732 23.2859 106.078 22.8412C106.424 22.3718 106.868 22.0876 107.412 21.9888C109.289 21.5688 111.056 21.3588 112.711 21.3588C115.874 21.3588 118.085 21.9271 119.345 23.0635C120.605 24.2 121.235 26.1888 121.235 29.03V38.8876C121.235 39.4559 121.025 39.95 120.605 40.37C120.209 40.79 119.728 41 119.159 41H118.752C118.159 41 117.652 40.8024 117.232 40.4071C116.812 39.9871 116.59 39.4806 116.565 38.8876V38.3688C116.565 38.3441 116.553 38.3318 116.528 38.3318C116.479 38.3318 116.454 38.3441 116.454 38.3688C114.947 40.37 112.884 41.3706 110.265 41.3706Z" fill="url(#paint0_linear)"/>
<path d="M71.366 13.2351H77.4028V18.9481H71.366V13.2351Z" fill="white"/>
<path d="M74.448 20.0223C76.8673 20.0223 78.8352 18.0822 78.8352 15.6973C78.8352 14.1578 78.0149 12.8039 76.7828 12.0373V13.0889C77.5437 13.7503 77.9768 14.6915 77.9768 15.6973C77.9768 17.6155 76.394 19.1761 74.448 19.1761C72.5024 19.1761 70.9196 17.6155 70.9196 15.6974C70.9196 14.6915 71.3527 13.7503 72.1136 13.089V12.0373C70.8815 12.8039 70.0612 14.1578 70.0612 15.6974C70.0612 18.0822 72.0291 20.0223 74.448 20.0223Z" fill="url(#paint1_linear)"/>
<path d="M72.8208 13.2513C72.8208 13.3573 72.7722 13.4575 72.688 13.5236C72.0137 14.0551 71.6271 14.8474 71.6271 15.6973C71.6271 17.2309 72.8927 18.4786 74.448 18.4786C76.0037 18.4786 77.2693 17.2309 77.2693 15.6973C77.2693 14.8474 76.8827 14.0552 76.208 13.5236C76.1241 13.4574 76.0752 13.3572 76.0752 13.2513V11.6796C75.5585 11.4756 75.0122 11.3723 74.448 11.3723C73.8842 11.3723 73.3379 11.4756 72.8208 11.6796V13.2513ZM76.3031 15.6973C76.3031 16.7057 75.471 17.5261 74.448 17.5261C73.4251 17.5261 72.593 16.7057 72.593 15.6973C72.593 14.6888 73.4251 13.8684 74.448 13.8684C75.471 13.8684 76.3031 14.6888 76.3031 15.6973ZM74.8425 12.7998C74.8522 13.0098 74.6545 13.1887 74.448 13.1887C74.2271 13.1887 74.0632 13.0105 74.0535 12.7998C74.0442 12.5897 74.2419 12.4108 74.448 12.4108C74.6693 12.4108 74.8332 12.5891 74.8425 12.7998Z" fill="url(#paint2_linear)"/>
<path d="M74.4478 16.8288C75.0817 16.8288 75.5957 16.3222 75.5957 15.6973C75.5957 15.0724 75.0817 14.5659 74.4478 14.5659C73.814 14.5659 73.3002 15.0724 73.3002 15.6973C73.3002 16.3222 73.814 16.8288 74.4478 16.8288Z" fill="#FF3D00"/>
<path fill-rule="evenodd" clip-rule="evenodd" d="M87.5677 13.6889C87.0289 14.2294 86.4303 14.6725 85.7283 14.9419C84.661 15.351 83.6785 15.1083 82.7488 14.4969C82.5318 14.3544 82.3314 14.1835 82.1271 13.9913C83.2315 14.0097 84.3256 13.9647 85.3987 13.7018C85.4005 13.6751 85.4014 13.6494 85.4023 13.6227C84.8581 13.5529 84.3169 13.4554 83.7712 13.4196C83.2291 13.3846 82.6824 13.4122 82.1376 13.4122C82.1246 13.3837 82.1108 13.3543 82.0978 13.3258C82.4515 13.0895 82.7905 12.8229 83.1605 12.6207C84.4467 11.9193 85.6564 12.173 86.8007 13.0114C87.0651 13.2053 87.3126 13.426 87.5668 13.6347C87.5677 13.653 87.5677 13.6705 87.5677 13.6889Z" fill="#00A513"/>
<path fill-rule="evenodd" clip-rule="evenodd" d="M61.3079 13.6346C61.6858 13.3431 62.0465 13.0214 62.4452 12.7677C63.9152 11.8337 65.4044 12.1067 66.7977 13.4103C66.1983 13.4103 65.6501 13.3827 65.1062 13.4176C64.5587 13.4526 64.0148 13.55 63.4709 13.6575C64.5448 13.9637 65.6371 14.0096 66.8107 13.9545C66.118 14.5732 65.421 15.0015 64.5828 15.1109C63.3541 15.27 62.3879 14.6697 61.4972 13.8681C61.4326 13.8101 61.3701 13.7486 61.307 13.6888C61.3079 13.6704 61.3079 13.6529 61.3079 13.6346Z" fill="#00A513"/>
<path fill-rule="evenodd" clip-rule="evenodd" d="M78.4992 6.75659C79.1056 5.75275 79.6061 4.72405 79.9115 3.59609C79.1521 4.43725 78.5641 5.40341 78.0625 6.44312C77.8246 5.91822 77.8904 4.58708 78.1941 3.87647C78.7413 2.59498 79.7878 2.00296 80.9725 1.58838C81.5997 3.88658 80.862 5.9752 78.4992 6.75659Z" fill="#00A513"/>
<path fill-rule="evenodd" clip-rule="evenodd" d="M68.942 3.61902C69.2795 4.72584 69.7627 5.75911 70.3691 6.74091C68.4579 6.49913 67.0957 3.66959 67.8898 1.62234C70.1934 2.25664 71.328 4.02903 70.843 6.45042C70.5532 5.94022 70.2894 5.43092 69.9843 4.95105C69.6797 4.47302 69.3347 4.02443 69.0069 3.56294C68.9855 3.58224 68.9638 3.60064 68.942 3.61902Z" fill="#00A513"/>
<path fill-rule="evenodd" clip-rule="evenodd" d="M74.359 5.05474C74.3029 5.87934 74.2464 6.70394 74.1912 7.5083C73.0807 6.78299 73.1906 4.46365 74.429 3.29892C75.6804 4.57855 75.8274 6.13766 74.685 7.54878C74.6303 6.71864 74.576 5.88854 74.5214 5.05841C74.4671 5.05751 74.4133 5.05657 74.359 5.05474Z" fill="#00A513"/>
<path fill-rule="evenodd" clip-rule="evenodd" d="M69.5729 16.9035C69.0393 18.7172 67.6566 19.3451 65.9971 18.8781C66.0454 17.3475 67.9297 16.0219 69.3463 16.5376C68.9997 16.761 68.6511 16.966 68.3224 17.2022C68.0025 17.432 67.7024 17.6941 67.4154 17.9744C68.1857 17.7602 68.876 17.376 69.5729 16.9035Z" fill="#00A513"/>
<path fill-rule="evenodd" clip-rule="evenodd" d="M65.9773 8.48548C67.6516 8.01018 69.0473 8.63624 69.5577 10.415C69.2003 10.2082 68.8595 9.99218 68.5034 9.80924C68.1454 9.62538 67.7726 9.47371 67.3905 9.33855C67.9655 9.94897 68.6401 10.4031 69.3663 10.8076C67.6661 11.2378 66.4331 10.2854 65.9773 8.48548Z" fill="#00A513"/>
<path fill-rule="evenodd" clip-rule="evenodd" d="M79.5605 10.837C80.2176 10.3645 80.8783 9.88922 81.539 9.41396C81.5218 9.38545 81.5052 9.35695 81.4889 9.32845C80.7219 9.57759 80.0178 9.97011 79.3329 10.4279C79.44 8.95337 81.3962 7.89622 82.8934 8.48638C82.4895 10.1632 81.3443 11.2268 79.5605 10.837Z" fill="#00A513"/>
<path fill-rule="evenodd" clip-rule="evenodd" d="M79.5071 16.5414C81.1736 16.1516 82.4328 17.001 82.8895 18.8552C81.3803 19.3525 79.8367 18.7955 79.33 16.9799C80.0269 17.3393 80.748 17.7116 81.4703 18.0839C81.4851 18.0545 81.4996 18.0251 81.5143 17.9957C80.9218 17.411 80.243 16.9569 79.5071 16.5414Z" fill="#00A513"/>
<path fill-rule="evenodd" clip-rule="evenodd" d="M71.8933 9.09244C72.024 9.37927 72.1553 9.66516 72.2869 9.95475C71.5993 9.75801 71.3017 9.07314 71.5069 8.31015C72.1803 8.35519 72.714 9.1899 72.4728 9.82052C72.3068 9.5622 72.1417 9.30389 71.9754 9.04557C71.9488 9.0612 71.9211 9.07684 71.8933 9.09244Z" fill="#00A513"/>
<path fill-rule="evenodd" clip-rule="evenodd" d="M76.4004 9.8229C76.18 9.18581 76.6228 8.47336 77.349 8.29596C77.6086 9.05251 77.2636 9.76312 76.589 9.9617C76.7318 9.64547 76.8718 9.33474 77.0128 9.02311C76.992 9.00931 76.9711 8.99644 76.9497 8.98266C76.7662 9.26396 76.583 9.54434 76.4004 9.8229Z" fill="#00A513"/>
<path fill-rule="evenodd" clip-rule="evenodd" d="M78.5435 13.802C78.8809 13.7726 79.1912 13.7469 79.5018 13.7193C79.5009 13.6908 79.5009 13.6623 79.5 13.6329C79.1852 13.6081 78.8704 13.5832 78.5601 13.5584C79.04 13.0032 79.7819 13.1061 80.2808 13.6559C79.8365 14.2654 79.0693 14.3315 78.5435 13.802Z" fill="#00A513"/>
<defs>
<linearGradient id="paint0_linear" x1="63" y1="0" x2="63" y2="55.0588" gradientUnits="userSpaceOnUse">
<stop stop-color="#FF9F2F"/>
<stop offset="1" stop-color="#C15303"/>
</linearGradient>
<linearGradient id="paint1_linear" x1="74.4482" y1="12.0373" x2="74.4482" y2="20.0223" gradientUnits="userSpaceOnUse">
<stop stop-color="#FF9F2F"/>
<stop offset="1" stop-color="#C15303"/>
</linearGradient>
<linearGradient id="paint2_linear" x1="74.4482" y1="11.3723" x2="74.4482" y2="18.4786" gradientUnits="userSpaceOnUse">
<stop stop-color="#FF9F2F"/>
<stop offset="1" stop-color="#C15303"/>
</linearGradient>
</defs>
</svg>
