<svg width="41" height="40" viewBox="0 0 41 40" fill="none" xmlns="http://www.w3.org/2000/svg">
<g clip-path="url(#clip0_509_5827)">
<path d="M38.3221 31.6364H1.89324C0.891449 31.6364 0.0717773 30.8182 0.0717773 29.8182V9.8182C0.0717773 8.8182 0.891449 8 1.89324 8H38.3222C39.324 8 40.1437 8.8182 40.1437 9.8182V29.8182C40.1436 30.8182 39.3239 31.6364 38.3221 31.6364Z" fill="#0E9347"/>
<path d="M33.7683 24.3635C31.6736 24.3635 29.7611 25.3635 28.6682 26.9998C27.7576 26.5454 26.7558 26.1817 25.5718 26.1817C22.3843 26.1817 19.7432 28.5454 19.2878 31.6362H38.322C39.2326 31.6362 39.9612 30.9999 40.1434 30.0908C39.7791 26.909 37.0469 24.3635 33.7683 24.3635Z" fill="#0D8944"/>
<path d="M34.6793 29.8183H5.53617C5.53617 27.8183 3.8969 26.1819 1.89331 26.1819V13.4547C3.8969 13.4547 5.53617 11.8184 5.53617 9.81836H34.6793C34.6793 11.8184 36.3186 13.4547 38.3222 13.4547V26.1819C36.3186 26.1819 34.6793 27.8183 34.6793 29.8183Z" fill="#3BB54A"/>
<path d="M20.1073 27.9998C24.1312 27.9998 27.3931 24.3367 27.3931 19.818C27.3931 15.2993 24.1312 11.6362 20.1073 11.6362C16.0835 11.6362 12.8215 15.2993 12.8215 19.818C12.8215 24.3367 16.0835 27.9998 20.1073 27.9998Z" fill="#0E9347"/>
<path d="M9.17889 21.6362C10.1849 21.6362 11.0004 20.8221 11.0004 19.818C11.0004 18.8138 10.1849 17.9998 9.17889 17.9998C8.17292 17.9998 7.35742 18.8138 7.35742 19.818C7.35742 20.8221 8.17292 21.6362 9.17889 21.6362Z" fill="#0E9347"/>
<path d="M31.0363 21.6362C32.0423 21.6362 32.8578 20.8221 32.8578 19.818C32.8578 18.8138 32.0423 17.9998 31.0363 17.9998C30.0303 17.9998 29.2148 18.8138 29.2148 19.818C29.2148 20.8221 30.0303 21.6362 31.0363 21.6362Z" fill="#0E9347"/>
<path d="M21.0181 18.9091H19.1967C18.6502 18.9091 18.286 18.5454 18.286 18C18.286 17.4546 18.6503 17.091 19.1967 17.091H21.9288C22.4753 17.091 22.8395 16.7273 22.8395 16.1819C22.8395 15.6364 22.4752 15.2728 21.9288 15.2728H21.0181C21.0181 14.7274 20.6538 14.3638 20.1074 14.3638C19.561 14.3638 19.1968 14.7274 19.1968 15.2728C17.6485 15.2728 16.4646 16.4546 16.4646 18.0001C16.4646 19.5456 17.6485 20.7274 19.1968 20.7274H21.0182C21.5647 20.7274 21.9289 21.091 21.9289 21.6364C21.9289 22.1819 21.5646 22.5455 21.0182 22.5455H18.2861C17.7396 22.5455 17.3754 22.9092 17.3754 23.4546C17.3754 24 17.7397 24.3636 18.2861 24.3636H19.1968C19.1968 24.9091 19.5611 25.2727 20.1074 25.2727C20.6539 25.2727 21.0181 24.909 21.0181 24.3636C22.5664 24.3636 23.7503 23.1818 23.7503 21.6363C23.7503 20.0909 22.5664 18.9091 21.0181 18.9091Z" fill="#89C763"/>
</g>
<defs>
<clipPath id="clip0_509_5827">
<rect width="40.0718" height="40" fill="white" transform="translate(0.0717773)"/>
</clipPath>
</defs>
</svg>
