<svg width="185" height="59" viewBox="0 0 185 59" fill="none" xmlns="http://www.w3.org/2000/svg">
<g filter="url(#filter0_d)">
<path d="M8.692 39C8.163 39 7.703 38.8045 7.312 38.4135C6.921 38.0225 6.7255 37.5625 6.7255 37.0335V15.7815C6.7255 15.2525 6.921 14.7925 7.312 14.4015C7.703 14.0105 8.163 13.815 8.692 13.815H9.5545C10.1525 13.815 10.7045 13.976 11.2105 14.298C11.7165 14.62 12.0845 15.0455 12.3145 15.5745L18.352 28.6155C18.352 28.6385 18.3635 28.65 18.3865 28.65C18.4095 28.65 18.421 28.6385 18.421 28.6155L24.4585 15.5745C24.6885 15.0455 25.0565 14.62 25.5625 14.298C26.0685 13.976 26.6205 13.815 27.2185 13.815H28.219C28.748 13.815 29.208 14.0105 29.599 14.4015C29.99 14.7925 30.1855 15.2525 30.1855 15.7815V37.0335C30.1855 37.5625 29.99 38.0225 29.599 38.4135C29.208 38.8045 28.748 39 28.219 39H27.46C26.931 39 26.471 38.8045 26.08 38.4135C25.689 38.0225 25.4935 37.5625 25.4935 37.0335V22.026C25.4935 22.003 25.482 21.9915 25.459 21.9915C25.436 21.9915 25.4245 22.003 25.4245 22.026L21.2845 30.8925C21.0315 31.4215 20.6405 31.8585 20.1115 32.2035C19.6055 32.5255 19.065 32.6865 18.49 32.6865H18.283C17.708 32.6865 17.156 32.5255 16.627 32.2035C16.121 31.8585 15.7415 31.4215 15.4885 30.8925L11.3485 22.026C11.3485 22.003 11.337 21.9915 11.314 21.9915C11.291 21.9915 11.2795 22.003 11.2795 22.026V37.0335C11.2795 37.5625 11.084 38.0225 10.693 38.4135C10.302 38.8045 9.842 39 9.313 39H8.692ZM45.8447 25.5105C45.1777 24.5445 44.1657 24.0615 42.8087 24.0615C41.4517 24.0615 40.4282 24.5445 39.7382 25.5105C39.0712 26.4535 38.7377 27.96 38.7377 30.03C38.7377 32.1 39.0712 33.618 39.7382 34.584C40.4282 35.527 41.4517 35.9985 42.8087 35.9985C44.1657 35.9985 45.1777 35.527 45.8447 34.584C46.5347 33.618 46.8797 32.1 46.8797 30.03C46.8797 27.96 46.5347 26.4535 45.8447 25.5105ZM49.2257 36.93C47.7077 38.54 45.5687 39.345 42.8087 39.345C40.0487 39.345 37.8982 38.54 36.3572 36.93C34.8392 35.297 34.0802 32.997 34.0802 30.03C34.0802 27.063 34.8392 24.7745 36.3572 23.1645C37.8982 21.5315 40.0487 20.715 42.8087 20.715C45.5687 20.715 47.7077 21.5315 49.2257 23.1645C50.7667 24.7745 51.5372 27.063 51.5372 30.03C51.5372 32.997 50.7667 35.297 49.2257 36.93ZM62.5503 24.096C59.7443 24.096 58.3413 24.9125 58.3413 26.5455C58.3413 28.2245 59.8018 29.064 62.7228 29.064H64.0683C64.2523 29.064 64.3443 28.9605 64.3443 28.7535V24.4755C64.3443 24.2685 64.2523 24.165 64.0683 24.165C63.3783 24.119 62.8723 24.096 62.5503 24.096ZM58.2723 30.7545C57.0073 30.4095 55.9723 29.8345 55.1673 29.0295C54.3623 28.2015 53.9598 27.224 53.9598 26.097C53.9598 22.578 56.7543 20.8185 62.3433 20.8185C63.7693 20.8185 65.3103 20.876 66.9663 20.991C67.5183 21.014 67.9783 21.244 68.3463 21.681C68.7373 22.095 68.9328 22.578 68.9328 23.13V37.0335C68.9328 37.5625 68.7373 38.0225 68.3463 38.4135C67.9553 38.8045 67.4953 39 66.9663 39H66.3108C65.7818 39 65.3218 38.8045 64.9308 38.4135C64.5398 38.0225 64.3443 37.5625 64.3443 37.0335V32.514C64.3443 32.33 64.2523 32.238 64.0683 32.238H62.9298C62.0328 32.238 61.4118 32.353 61.0668 32.583C60.7218 32.79 60.3423 33.342 59.9283 34.239L58.6518 37.206C58.3988 37.735 58.0193 38.172 57.5133 38.517C57.0303 38.839 56.5013 39 55.9263 39H55.3053C54.8453 39 54.4888 38.8045 54.2358 38.4135C54.0058 38.0225 53.9828 37.62 54.1668 37.206L55.6503 33.9975C56.4093 32.3645 57.2948 31.318 58.3068 30.858C58.3298 30.858 58.3413 30.8465 58.3413 30.8235C58.3413 30.7775 58.3183 30.7545 58.2723 30.7545ZM73.9045 39C73.4675 39 73.134 38.816 72.904 38.448C72.674 38.057 72.6625 37.666 72.8695 37.275L78.9415 26.097C79.0335 25.936 79.022 25.7635 78.907 25.5795L73.1455 15.5055C72.9155 15.1145 72.904 14.735 73.111 14.367C73.341 13.999 73.6745 13.815 74.1115 13.815H75.2155C75.8135 13.815 76.3655 13.9645 76.8715 14.2635C77.4005 14.5625 77.8145 14.9765 78.1135 15.5055L82.7365 23.6475C82.8285 23.8085 82.978 23.889 83.185 23.889H84.289C84.496 23.889 84.5995 23.797 84.5995 23.613V15.7815C84.5995 15.2525 84.7835 14.7925 85.1515 14.4015C85.5425 14.0105 86.0025 13.815 86.5315 13.815H87.3595C87.8885 13.815 88.337 14.0105 88.705 14.4015C89.096 14.7925 89.2915 15.2525 89.2915 15.7815V23.613C89.2915 23.797 89.395 23.889 89.602 23.889H90.706C90.913 23.889 91.0625 23.8085 91.1545 23.6475L95.7775 15.5055C96.0765 14.9765 96.479 14.5625 96.985 14.2635C97.514 13.9645 98.0775 13.815 98.6755 13.815H99.7795C100.217 13.815 100.539 13.999 100.746 14.367C100.976 14.735 100.976 15.1145 100.746 15.5055L94.984 25.5795C94.869 25.7635 94.8575 25.936 94.9495 26.097L101.022 37.275C101.229 37.666 101.217 38.057 100.987 38.448C100.757 38.816 100.424 39 99.9865 39H98.8135C98.2155 39 97.652 38.8505 97.123 38.5515C96.617 38.2295 96.226 37.804 95.95 37.275L91.1545 28.098C91.0855 27.914 90.936 27.822 90.706 27.822H89.602C89.395 27.822 89.2915 27.9255 89.2915 28.1325V37.0335C89.2915 37.5625 89.096 38.0225 88.705 38.4135C88.337 38.8045 87.8885 39 87.3595 39H86.5315C86.0025 39 85.5425 38.8045 85.1515 38.4135C84.7835 38.0225 84.5995 37.5625 84.5995 37.0335V28.1325C84.5995 27.9255 84.496 27.822 84.289 27.822H83.185C82.955 27.822 82.8055 27.914 82.7365 28.098L77.941 37.275C77.665 37.804 77.2625 38.2295 76.7335 38.5515C76.2275 38.8505 75.6755 39 75.0775 39H73.9045ZM106.355 39C105.826 39 105.366 38.8045 104.975 38.4135C104.584 38.0225 104.389 37.5625 104.389 37.0335V23.0265C104.389 22.4975 104.584 22.0375 104.975 21.6465C105.366 21.2555 105.826 21.06 106.355 21.06H107.011C107.54 21.06 108 21.2555 108.391 21.6465C108.782 22.0375 108.977 22.4975 108.977 23.0265V32.721L109.012 32.7555L109.046 32.721L114.601 22.7505C115.245 21.6235 116.222 21.06 117.533 21.06H118.292C118.821 21.06 119.281 21.2555 119.672 21.6465C120.063 22.0375 120.259 22.4975 120.259 23.0265V37.0335C120.259 37.5625 120.063 38.0225 119.672 38.4135C119.281 38.8045 118.821 39 118.292 39H117.637C117.108 39 116.648 38.8045 116.257 38.4135C115.866 38.0225 115.67 37.5625 115.67 37.0335V27.339L115.636 27.3045L115.601 27.339L110.047 37.3095C109.403 38.4365 108.425 39 107.114 39H106.355ZM125.629 38.793C125.146 38.678 124.743 38.4135 124.421 37.9995C124.122 37.5855 123.973 37.114 123.973 36.585C123.973 36.171 124.145 35.8375 124.49 35.5845C124.835 35.3315 125.215 35.2625 125.629 35.3775C127.124 35.7685 128.642 35.964 130.183 35.964C133.012 35.964 134.426 35.1705 134.426 33.5835C134.426 32.8015 133.978 32.215 133.081 31.824C132.207 31.433 130.654 31.226 128.423 31.203C128.009 31.203 127.653 31.0535 127.354 30.7545C127.055 30.4325 126.905 30.0645 126.905 29.6505C126.905 29.2365 127.055 28.88 127.354 28.581C127.653 28.282 128.009 28.1325 128.423 28.1325C132.264 28.0635 134.185 27.339 134.185 25.959C134.185 24.648 132.77 23.9925 129.941 23.9925C128.745 23.9925 127.4 24.1995 125.905 24.6135C125.491 24.7285 125.111 24.671 124.766 24.441C124.421 24.211 124.249 23.8775 124.249 23.4405C124.249 22.9115 124.398 22.4515 124.697 22.0605C124.996 21.6465 125.399 21.382 125.905 21.267C127.377 20.899 128.872 20.715 130.39 20.715C132.989 20.715 135.024 21.1635 136.496 22.0605C137.991 22.9345 138.739 24.004 138.739 25.269C138.739 26.235 138.371 27.0975 137.635 27.8565C136.922 28.6155 135.887 29.1675 134.53 29.5125C134.484 29.5125 134.461 29.5355 134.461 29.5815C134.461 29.6045 134.484 29.616 134.53 29.616C135.864 29.823 136.933 30.352 137.738 31.203C138.566 32.054 138.98 33.043 138.98 34.17C138.98 35.734 138.233 36.9875 136.738 37.9305C135.266 38.8735 133.15 39.345 130.39 39.345C128.78 39.345 127.193 39.161 125.629 38.793ZM144.628 39C144.099 39 143.639 38.8045 143.248 38.4135C142.88 38.0225 142.696 37.5625 142.696 37.0335V23.0265C142.696 22.4975 142.88 22.0375 143.248 21.6465C143.639 21.2555 144.099 21.06 144.628 21.06H145.387C145.916 21.06 146.376 21.2555 146.767 21.6465C147.158 22.0375 147.353 22.4975 147.353 23.0265V27.6495C147.353 27.8565 147.457 27.96 147.664 27.96H153.46C153.667 27.96 153.77 27.8565 153.77 27.6495V23.0265C153.77 22.4975 153.966 22.0375 154.357 21.6465C154.748 21.2555 155.208 21.06 155.737 21.06H156.496C157.025 21.06 157.473 21.2555 157.841 21.6465C158.232 22.0375 158.428 22.4975 158.428 23.0265V37.0335C158.428 37.5625 158.232 38.0225 157.841 38.4135C157.473 38.8045 157.025 39 156.496 39H155.737C155.208 39 154.748 38.8045 154.357 38.4135C153.966 38.0225 153.77 37.5625 153.77 37.0335V31.5135C153.77 31.3065 153.667 31.203 153.46 31.203H147.664C147.457 31.203 147.353 31.3065 147.353 31.5135V37.0335C147.353 37.5625 147.158 38.0225 146.767 38.4135C146.376 38.8045 145.916 39 145.387 39H144.628ZM167.665 29.685V35.481C167.665 35.665 167.769 35.78 167.976 35.826C168.597 35.941 169.149 35.9985 169.632 35.9985C171.104 35.9985 172.173 35.711 172.84 35.136C173.53 34.538 173.875 33.618 173.875 32.376C173.875 31.364 173.507 30.582 172.771 30.03C172.058 29.455 170.989 29.1675 169.563 29.1675C169.057 29.1675 168.516 29.225 167.941 29.34C167.757 29.386 167.665 29.501 167.665 29.685ZM165.112 39.1035C164.56 39.0345 164.1 38.7815 163.732 38.3445C163.364 37.9075 163.18 37.413 163.18 36.861V23.0265C163.18 22.4975 163.376 22.0375 163.767 21.6465C164.158 21.2555 164.618 21.06 165.147 21.06H165.733C166.262 21.06 166.711 21.2555 167.079 21.6465C167.47 22.0375 167.665 22.4975 167.665 23.0265V25.752C167.665 25.821 167.7 25.89 167.769 25.959C167.838 26.028 167.907 26.051 167.976 26.028C168.896 25.89 169.655 25.821 170.253 25.821C172.806 25.821 174.761 26.4075 176.118 27.5805C177.498 28.7535 178.188 30.352 178.188 32.376C178.188 34.722 177.463 36.47 176.014 37.62C174.565 38.77 172.3 39.345 169.218 39.345C167.7 39.345 166.331 39.2645 165.112 39.1035Z" fill="url(#paint0_linear)"/>
<path fill-rule="evenodd" clip-rule="evenodd" d="M124.781 14.0984C124.279 14.6016 123.722 15.0141 123.069 15.2649C122.075 15.6457 121.16 15.4198 120.295 14.8506C120.093 14.718 119.906 14.5588 119.716 14.38C120.744 14.3971 121.763 14.3551 122.762 14.1104C122.764 14.0856 122.764 14.0616 122.765 14.0368C122.259 13.9717 121.755 13.881 121.247 13.8477C120.742 13.8151 120.233 13.8408 119.726 13.8408C119.714 13.8143 119.701 13.7869 119.689 13.7603C120.018 13.5404 120.334 13.2922 120.678 13.1039C121.876 12.451 123.002 12.6872 124.067 13.4677C124.313 13.6482 124.544 13.8536 124.78 14.0479C124.781 14.065 124.781 14.0813 124.781 14.0984Z" fill="#00A513"/>
<path fill-rule="evenodd" clip-rule="evenodd" d="M100.335 14.0478C100.686 13.7765 101.022 13.477 101.393 13.2408C102.762 12.3713 104.148 12.6254 105.445 13.839C104.887 13.839 104.377 13.8133 103.871 13.8458C103.361 13.8783 102.855 13.969 102.348 14.0692C103.348 14.3542 104.365 14.397 105.457 14.3456C104.813 14.9216 104.164 15.3204 103.383 15.4222C102.24 15.5703 101.34 15.0114 100.511 14.2652C100.451 14.2112 100.393 14.1539 100.334 14.0983C100.335 14.0811 100.335 14.0649 100.335 14.0478Z" fill="#00A513"/>
<path fill-rule="evenodd" clip-rule="evenodd" d="M116.339 7.64461C116.903 6.71008 117.369 5.75241 117.654 4.70233C116.947 5.48542 116.399 6.38487 115.932 7.35279C115.711 6.86413 115.772 5.6249 116.055 4.96336C116.564 3.77035 117.538 3.21921 118.641 2.83325C119.225 4.97276 118.538 6.91717 116.339 7.64461Z" fill="#00A513"/>
<path fill-rule="evenodd" clip-rule="evenodd" d="M107.442 4.72367C107.756 5.75407 108.206 6.716 108.77 7.63001C106.991 7.40492 105.723 4.77076 106.462 2.86487C108.607 3.45537 109.663 5.10538 109.211 7.35958C108.942 6.8846 108.696 6.41047 108.412 5.96374C108.128 5.51871 107.807 5.10109 107.502 4.67147C107.482 4.68944 107.462 4.70657 107.442 4.72367Z" fill="#00A513"/>
<path fill-rule="evenodd" clip-rule="evenodd" d="M112.484 6.06061C112.432 6.82827 112.38 7.59594 112.328 8.34476C111.294 7.66953 111.397 5.51034 112.55 4.42603C113.715 5.6173 113.851 7.06876 112.788 8.38244C112.737 7.60963 112.686 6.83684 112.636 6.06403C112.585 6.06319 112.535 6.06232 112.484 6.06061Z" fill="#00A513"/>
<path fill-rule="evenodd" clip-rule="evenodd" d="M108.029 17.0911C107.532 18.7796 106.245 19.3642 104.7 18.9294C104.745 17.5045 106.499 16.2704 107.818 16.7505C107.495 16.9585 107.171 17.1493 106.865 17.3693C106.567 17.5832 106.288 17.8271 106.02 18.0881C106.737 17.8887 107.38 17.531 108.029 17.0911Z" fill="#00A513"/>
<path fill-rule="evenodd" clip-rule="evenodd" d="M104.682 9.25443C106.24 8.81196 107.54 9.39479 108.015 11.0508C107.682 10.8582 107.365 10.6571 107.033 10.4868C106.7 10.3156 106.353 10.1744 105.997 10.0486C106.532 10.6169 107.16 11.0396 107.837 11.4162C106.254 11.8167 105.106 10.9301 104.682 9.25443Z" fill="#00A513"/>
<path fill-rule="evenodd" clip-rule="evenodd" d="M117.327 11.4436C117.939 11.0037 118.554 10.5613 119.169 10.1188C119.153 10.0923 119.138 10.0658 119.122 10.0392C118.408 10.2712 117.753 10.6366 117.115 11.0628C117.215 9.69006 119.036 8.7059 120.43 9.25531C120.054 10.8163 118.988 11.8065 117.327 11.4436Z" fill="#00A513"/>
<path fill-rule="evenodd" clip-rule="evenodd" d="M117.277 16.7537C118.828 16.3908 120.001 17.1816 120.426 18.9078C119.021 19.3708 117.584 18.8522 117.112 17.1619C117.761 17.4966 118.432 17.8432 119.104 18.1898C119.118 18.1624 119.132 18.135 119.146 18.1076C118.594 17.5633 117.962 17.1405 117.277 16.7537Z" fill="#00A513"/>
<path fill-rule="evenodd" clip-rule="evenodd" d="M110.189 9.8191C110.311 10.0861 110.433 10.3523 110.555 10.6219C109.915 10.4387 109.638 9.80113 109.829 9.09082C110.456 9.13275 110.953 9.90982 110.729 10.4969C110.574 10.2564 110.42 10.0159 110.265 9.77546C110.241 9.79001 110.215 9.80457 110.189 9.8191Z" fill="#00A513"/>
<path fill-rule="evenodd" clip-rule="evenodd" d="M114.385 10.4994C114.18 9.90629 114.592 9.24304 115.268 9.07788C115.51 9.7822 115.189 10.4437 114.561 10.6286C114.693 10.3342 114.824 10.0449 114.955 9.75482C114.936 9.74197 114.916 9.72999 114.896 9.71717C114.725 9.97904 114.555 10.2401 114.385 10.4994Z" fill="#00A513"/>
<path fill-rule="evenodd" clip-rule="evenodd" d="M116.38 14.2035C116.694 14.1761 116.983 14.1522 117.272 14.1265C117.271 14.1 117.271 14.0734 117.27 14.046C116.977 14.0229 116.684 13.9998 116.395 13.9767C116.842 13.4598 117.533 13.5557 117.997 14.0675C117.584 14.6349 116.869 14.6965 116.38 14.2035Z" fill="#00A513"/>
<path d="M112.351 19.3862C114.603 19.3862 116.435 17.58 116.435 15.3599C116.435 13.9267 115.671 12.6662 114.524 11.9525V12.9316C115.233 13.5473 115.636 14.4235 115.636 15.3599C115.636 17.1456 114.162 18.5984 112.351 18.5984C110.539 18.5984 109.066 17.1456 109.066 15.3599C109.066 14.4235 109.469 13.5473 110.177 12.9316V11.9525C109.03 12.6662 108.267 13.9267 108.267 15.3599C108.267 17.58 110.099 19.3862 112.351 19.3862Z" fill="url(#paint1_linear)"/>
<path d="M110.836 13.0826C110.836 13.1813 110.79 13.2746 110.712 13.3362C110.084 13.831 109.724 14.5686 109.724 15.3597C109.724 16.7875 110.902 17.949 112.35 17.949C113.799 17.949 114.977 16.7875 114.977 15.3597C114.977 14.5686 114.617 13.8311 113.989 13.3362C113.911 13.2746 113.865 13.1813 113.865 13.0826V11.6195C113.384 11.4296 112.876 11.3334 112.35 11.3334C111.825 11.3334 111.317 11.4296 110.836 11.6195V13.0826ZM114.077 15.3597C114.077 16.2985 113.303 17.0623 112.35 17.0623C111.398 17.0623 110.623 16.2985 110.623 15.3597C110.623 14.4209 111.398 13.6571 112.35 13.6571C113.303 13.6571 114.077 14.4209 114.077 15.3597ZM112.718 12.6623C112.727 12.8579 112.543 13.0244 112.35 13.0244C112.145 13.0244 111.992 12.8585 111.983 12.6623C111.974 12.4668 112.158 12.3003 112.35 12.3003C112.556 12.3003 112.709 12.4662 112.718 12.6623Z" fill="url(#paint2_linear)"/>
<path d="M112.351 16.4131C112.941 16.4131 113.419 15.9415 113.419 15.3597C113.419 14.778 112.941 14.3064 112.351 14.3064C111.761 14.3064 111.282 14.778 111.282 15.3597C111.282 15.9415 111.761 16.4131 112.351 16.4131Z" fill="#FF3D00"/>
</g>
<defs>
<filter id="filter0_d" x="0" y="0" width="184.233" height="59" filterUnits="userSpaceOnUse" color-interpolation-filters="sRGB">
<feFlood flood-opacity="0" result="BackgroundImageFix"/>
<feColorMatrix in="SourceAlpha" type="matrix" values="0 0 0 0 0 0 0 0 0 0 0 0 0 0 0 0 0 0 127 0" result="hardAlpha"/>
<feOffset dy="4"/>
<feGaussianBlur stdDeviation="2"/>
<feComposite in2="hardAlpha" operator="out"/>
<feColorMatrix type="matrix" values="0 0 0 0 0 0 0 0 0 0 0 0 0 0 0 0 0 0 0.25 0"/>
<feBlend mode="normal" in2="BackgroundImageFix" result="effect1_dropShadow"/>
<feBlend mode="normal" in="SourceGraphic" in2="effect1_dropShadow" result="shape"/>
</filter>
<linearGradient id="paint0_linear" x1="92.1167" y1="0" x2="92.1167" y2="51" gradientUnits="userSpaceOnUse">
<stop stop-color="#00FFE0"/>
<stop offset="1" stop-color="#02827A"/>
</linearGradient>
<linearGradient id="paint1_linear" x1="112.351" y1="11.9525" x2="112.351" y2="19.3862" gradientUnits="userSpaceOnUse">
<stop stop-color="#00FFE0"/>
<stop offset="1" stop-color="#02827A"/>
</linearGradient>
<linearGradient id="paint2_linear" x1="112.351" y1="11.3334" x2="112.351" y2="17.949" gradientUnits="userSpaceOnUse">
<stop stop-color="#00FFE0"/>
<stop offset="1" stop-color="#02827A"/>
</linearGradient>
</defs>
</svg>
