<svg width="40" height="40" viewBox="0 0 40 40" fill="none" xmlns="http://www.w3.org/2000/svg">
<path d="M33.506 10.3344C33.5737 9.78398 33.6091 9.22359 33.6091 8.65492C33.6091 3.875 29.7342 0 24.9542 0H10.4899C9.58011 0 8.80331 0.657031 8.65237 1.55422L3.32268 33.232C3.13143 34.3687 4.00768 35.4045 5.16026 35.4045H10.4502C11.36 35.4045 12.1514 34.748 12.3023 33.8507C12.3023 33.8507 12.3111 33.7981 12.3271 33.7034H12.3271L11.5899 38.0852C11.4215 39.087 12.1938 40 13.2096 40H17.8375C18.6395 40 19.3242 39.4209 19.4571 38.6301L20.7719 30.816C20.9985 29.469 22.1647 28.4827 23.5306 28.4827H24.7464C31.3503 28.4827 36.7037 23.1291 36.7037 16.5253C36.7037 13.9699 35.4406 11.7111 33.506 10.3344Z" fill="#002987"/>
<path d="M33.506 10.3345C32.6783 17.0672 26.9401 22.2806 19.9837 22.2806H15.9473C15.0363 22.2806 14.2495 22.8874 14.0027 23.7453L11.5901 38.0851C11.4215 39.087 12.1938 40.0001 13.2097 40.0001H17.8376C18.6395 40.0001 19.3242 39.421 19.4572 38.6302L20.7719 30.8161C20.9986 29.4691 22.1647 28.4828 23.5306 28.4828H24.7464C31.3503 28.4828 36.7037 23.1292 36.7037 16.5254C36.7037 13.97 35.4406 11.7112 33.506 10.3345Z" fill="#0085CC"/>
<path d="M15.9474 22.2805H19.9837C26.9402 22.2805 32.6785 17.0671 33.506 10.3345C32.2648 9.45118 30.7479 8.92993 29.1084 8.92993H18.5732C17.3738 8.92993 16.3496 9.7961 16.1506 10.9789L14.0027 23.7452C14.2495 22.8872 15.0364 22.2805 15.9474 22.2805Z" fill="#00186A"/>
</svg>
