<svg width="50" height="33" viewBox="0 0 50 33" fill="none" xmlns="http://www.w3.org/2000/svg">
<path d="M15.7091 13.8127C15.4583 12.1633 14.5406 10.8466 13.3557 10.3405L2.60707 5.74972C2.36382 5.64583 2.13084 5.94409 2.19339 6.27925L2.31879 6.95111C2.60665 8.4932 3.46324 9.72302 4.58236 10.201L4.82698 10.3419L4.96228 11.7242C5.10725 13.2053 5.71135 14.3273 6.55856 14.6891L7.63591 15.1492L7.63698 16.4742C7.63817 17.8939 7.98798 18.9072 8.5614 19.1521L12.4643 20.8191L14.0422 21.493C14.2139 21.5663 14.3968 21.4372 14.4508 21.2045L15.6203 16.1724C15.7977 15.4092 15.8284 14.5969 15.7091 13.8127Z" fill="url(#paint0_linear_509_5917)"/>
<path d="M34.2909 13.8127C34.5417 12.1633 35.4594 10.8466 36.6443 10.3405L47.3929 5.74972C47.6362 5.64583 47.8692 5.94409 47.8066 6.27925L47.6812 6.95112C47.3933 8.49321 46.5368 9.72303 45.4176 10.201L45.173 10.3419L45.0377 11.7242C44.8927 13.2053 44.2886 14.3273 43.4414 14.6891L42.3641 15.1493L42.363 16.4742C42.3618 17.8939 42.012 18.9073 41.4386 19.1522L37.5357 20.8191L35.9577 21.4931C35.7861 21.5663 35.6032 21.4372 35.5491 21.2045L34.3797 16.1724C34.2023 15.4092 34.1716 14.5969 34.2909 13.8127Z" fill="url(#paint1_linear_509_5917)"/>
<path d="M25.3475 0.280518L16.2568 16.5001L25.3475 32.7197L25.6721 32.6077C29.8299 31.1737 33.3951 28.5613 35.9818 25.0528C38.6251 21.4676 40.0223 17.2307 40.0223 12.8002V4.35227L25.3475 0.280518Z" fill="url(#paint2_linear_509_5917)"/>
<path d="M10.6726 4.35227V12.8002C10.6726 17.2307 12.0698 21.4677 14.7131 25.0528C17.2999 28.5614 20.865 31.1738 25.0229 32.6078L25.3475 32.7197V0.280518L10.6726 4.35227Z" fill="url(#paint3_linear_509_5917)"/>
<path d="M36.0749 14.1253C36.1089 13.6863 36.1263 13.2444 36.1263 12.8V7.22322L25.3475 4.23254L18.2048 14.1253H36.0749Z" fill="#C4C4C4"/>
<path d="M25.3475 4.23254L14.5686 7.22328V12.8C14.5686 13.2444 14.586 13.6864 14.6201 14.1253H25.3475V4.23254Z" fill="#F2F2F2"/>
<path d="M25.3475 11.149L18.8542 19.9055L25.3475 28.6619L25.7476 28.4861C28.5578 27.2508 31.0031 25.296 32.8193 22.8328C34.7179 20.2577 35.8308 17.2707 36.0749 14.1255L25.3475 11.149Z" fill="#C4C4C4"/>
<path d="M14.6201 14.1255C14.8643 17.2707 15.9772 20.2577 17.8758 22.8328C19.6919 25.296 22.1372 27.2507 24.9475 28.4861L25.3475 28.6619V11.149L14.6201 14.1255Z" fill="#F2F2F2"/>
<path fill-rule="evenodd" clip-rule="evenodd" d="M33.3519 17.3926C33.0234 17.7398 32.6586 18.0245 32.2306 18.1975C31.5799 18.4603 30.981 18.3044 30.4142 17.9117C30.2819 17.8202 30.1598 17.7103 30.0352 17.5869C30.7085 17.5987 31.3755 17.5698 32.0296 17.4009C32.0307 17.3837 32.0313 17.3672 32.0318 17.3501C31.7001 17.3052 31.3701 17.2426 31.0375 17.2196C30.707 17.1971 30.3738 17.2148 30.0416 17.2148C30.0337 17.1965 30.0252 17.1776 30.0173 17.1593C30.233 17.0076 30.4396 16.8363 30.6652 16.7064C31.4493 16.2558 32.1868 16.4188 32.8843 16.9574C33.0455 17.082 33.1964 17.2237 33.3513 17.3578C33.3519 17.3696 33.3519 17.3808 33.3519 17.3926Z" fill="#00A513"/>
<path fill-rule="evenodd" clip-rule="evenodd" d="M17.3436 17.3579C17.5739 17.1707 17.7938 16.964 18.0369 16.801C18.933 16.201 19.8409 16.3764 20.6903 17.2138C20.3248 17.2138 19.9907 17.1961 19.6591 17.2185C19.3253 17.241 18.9937 17.3036 18.6621 17.3726C19.3168 17.5693 19.9828 17.5988 20.6982 17.5634C20.2759 17.9608 19.851 18.236 19.34 18.3063C18.5909 18.4085 18.0019 18.0229 17.4589 17.5079C17.4196 17.4707 17.3815 17.4311 17.343 17.3927C17.3436 17.3809 17.3436 17.3697 17.3436 17.3579Z" fill="#00A513"/>
<path fill-rule="evenodd" clip-rule="evenodd" d="M27.824 12.9391C28.1937 12.2943 28.4987 11.6334 28.685 10.9088C28.222 11.4492 27.8635 12.0698 27.5577 12.7378C27.4127 12.4005 27.4528 11.5454 27.638 11.0889C27.9716 10.2657 28.6095 9.88535 29.3317 9.61902C29.7141 11.0954 29.2644 12.4372 27.824 12.9391Z" fill="#00A513"/>
<path fill-rule="evenodd" clip-rule="evenodd" d="M21.9973 10.9231C22.2031 11.6341 22.4977 12.2979 22.8673 12.9286C21.7022 12.7733 20.8718 10.9556 21.3559 9.64038C22.7602 10.0479 23.4519 11.1865 23.1562 12.742C22.9796 12.4142 22.8187 12.087 22.6327 11.7788C22.4471 11.4717 22.2367 11.1835 22.0369 10.887C22.0238 10.8994 22.0106 10.9113 21.9973 10.9231Z" fill="#00A513"/>
<path fill-rule="evenodd" clip-rule="evenodd" d="M25.2997 11.8461C25.2655 12.3758 25.2311 12.9056 25.1974 13.4223C24.5204 12.9563 24.5874 11.4664 25.3424 10.7181C26.1053 11.5402 26.1949 12.5418 25.4984 13.4483C25.4651 12.915 25.432 12.3817 25.3987 11.8485C25.3656 11.8479 25.3328 11.8473 25.2997 11.8461Z" fill="#00A513"/>
<path fill-rule="evenodd" clip-rule="evenodd" d="M22.3821 19.4579C22.0567 20.623 21.2138 21.0264 20.2021 20.7264C20.2316 19.7431 21.3803 18.8915 22.2439 19.2228C22.0326 19.3663 21.8201 19.498 21.6197 19.6498C21.4247 19.7974 21.2418 19.9657 21.0668 20.1458C21.5364 20.0083 21.9572 19.7614 22.3821 19.4579Z" fill="#00A513"/>
<path fill-rule="evenodd" clip-rule="evenodd" d="M20.1899 14.05C21.2106 13.7447 22.0615 14.1469 22.3726 15.2896C22.1548 15.1567 21.947 15.018 21.7299 14.9004C21.5117 14.7823 21.2844 14.6849 21.0515 14.5981C21.402 14.9902 21.8132 15.2819 22.256 15.5418C21.2195 15.8182 20.4678 15.2063 20.1899 14.05Z" fill="#00A513"/>
<path fill-rule="evenodd" clip-rule="evenodd" d="M28.4708 15.5606C28.8714 15.2571 29.2741 14.9517 29.6769 14.6464C29.6664 14.6281 29.6563 14.6098 29.6464 14.5915C29.1788 14.7515 28.7495 15.0037 28.332 15.2978C28.3974 14.3505 29.5899 13.6714 30.5026 14.0505C30.2564 15.1277 29.5582 15.811 28.4708 15.5606Z" fill="#00A513"/>
<path fill-rule="evenodd" clip-rule="evenodd" d="M28.4381 19.2251C29.454 18.9747 30.2217 19.5204 30.5001 20.7115C29.58 21.031 28.639 20.6731 28.3301 19.5068C28.7549 19.7377 29.1945 19.9769 29.6349 20.216C29.6439 20.1971 29.6527 20.1782 29.6617 20.1593C29.3005 19.7837 28.8867 19.492 28.4381 19.2251Z" fill="#00A513"/>
<path d="M25.3474 21.1455C27.0746 21.1455 28.4797 19.6858 28.4797 17.8915C28.4797 16.7333 27.894 15.7146 27.0143 15.1378V15.9291C27.5576 16.4267 27.8668 17.1348 27.8668 17.8915C27.8668 19.3347 26.7367 20.5088 25.3474 20.5088C23.9583 20.5088 22.8282 19.3347 22.8282 17.8915C22.8282 17.1348 23.1375 16.4267 23.6807 15.9291V15.1378C22.8011 15.7146 22.2153 16.7333 22.2153 17.8915C22.2153 19.6858 23.6204 21.1455 25.3474 21.1455Z" fill="#0164C1"/>
<path d="M24.1856 16.0514C24.1856 16.1311 24.1509 16.2065 24.0907 16.2563C23.6093 16.6562 23.3333 17.2523 23.3333 17.8917C23.3333 19.0455 24.2368 19.9842 25.3473 19.9842C26.458 19.9842 27.3616 19.0455 27.3616 17.8917C27.3616 17.2523 27.0855 16.6562 26.6039 16.2563C26.544 16.2065 26.5091 16.1311 26.5091 16.0514V14.869C26.1401 14.7154 25.7501 14.6377 25.3473 14.6377C24.9448 14.6377 24.5547 14.7154 24.1856 14.869V16.0514ZM26.6718 17.8917C26.6718 18.6504 26.0776 19.2677 25.3473 19.2677C24.617 19.2677 24.0229 18.6504 24.0229 17.8917C24.0229 17.133 24.617 16.5157 25.3473 16.5157C26.0776 16.5157 26.6718 17.1329 26.6718 17.8917ZM25.629 15.7117C25.6359 15.8697 25.4947 16.0043 25.3473 16.0043C25.1896 16.0043 25.0726 15.8703 25.0657 15.7117C25.059 15.5537 25.2001 15.4191 25.3473 15.4191C25.5053 15.4191 25.6223 15.5532 25.629 15.7117Z" fill="#0164C1"/>
<path d="M25.3474 18.7431C25.8 18.7431 26.167 18.3619 26.167 17.8918C26.167 17.4216 25.8 17.0405 25.3474 17.0405C24.8949 17.0405 24.5281 17.4216 24.5281 17.8918C24.5281 18.3619 24.8949 18.7431 25.3474 18.7431Z" fill="#FF3D00"/>
<path d="M2.03231 6.22012L2.13976 6.88574C2.38621 8.41539 3.16289 9.60925 4.1916 10.0407L4.41601 10.1711L4.52378 11.5477C4.63901 13.0214 5.18328 14.1177 5.96178 14.4442L6.9522 14.8596L6.93658 16.1845C6.91931 17.6026 7.22996 18.6009 7.75716 18.822L10.1989 19.8462C9.64204 19.6126 9.31393 18.5586 9.3319 17.0597L9.34857 15.6609L8.30219 15.222C7.47972 14.877 6.90448 13.7185 6.78308 12.1612L6.66949 10.7077L6.43232 10.5701C5.34535 10.1142 4.52514 8.85286 4.26491 7.23738L4.1516 6.53393C4.14403 6.48704 4.14142 6.44036 4.14341 6.39553L2.42195 5.67351C2.198 5.57976 1.97922 5.88713 2.03231 6.22012Z" fill="url(#paint4_linear_509_5917)"/>
<path d="M48.2247 6.06933L48.0991 6.74133C47.811 8.28559 46.9531 9.51704 45.8326 9.9956L45.5877 10.1363L45.452 11.521C45.3068 13.0033 44.7021 14.1265 43.8541 14.4887L42.7753 14.9495L42.774 16.2767C42.7732 17.6974 42.4229 18.7119 41.8486 18.9572L39.189 20.0931C39.7956 19.8341 40.1656 18.7628 40.1668 17.2613L40.168 15.86L41.3077 15.3732C42.2035 14.9906 42.8427 13.8035 42.9957 12.2371L43.1388 10.7752L43.3977 10.6266C44.5816 10.121 45.4876 8.81992 45.7918 7.189L45.9243 6.47884C45.9331 6.4315 45.9366 6.3846 45.935 6.33975L47.8101 5.53891C48.054 5.4349 48.2868 5.73319 48.2247 6.06933Z" fill="url(#paint5_linear_509_5917)"/>
<defs>
<linearGradient id="paint0_linear_509_5917" x1="9.47235" y1="8.68191" x2="5.54984" y2="17.8659" gradientUnits="userSpaceOnUse">
<stop stop-color="#F7E671"/>
<stop offset="0.523958" stop-color="#F6B244"/>
<stop offset="1" stop-color="#F0C63A"/>
</linearGradient>
<linearGradient id="paint1_linear_509_5917" x1="40.5276" y1="8.68191" x2="44.4502" y2="17.8659" gradientUnits="userSpaceOnUse">
<stop stop-color="#F7E671"/>
<stop offset="0.523958" stop-color="#F6B244"/>
<stop offset="1" stop-color="#F0C63A"/>
</linearGradient>
<linearGradient id="paint2_linear_509_5917" x1="28.1396" y1="0.280518" x2="28.1396" y2="32.7197" gradientUnits="userSpaceOnUse">
<stop offset="0.00833321" stop-color="#F5DF58"/>
<stop offset="0.00843321" stop-color="#F4E4D6"/>
<stop offset="0.00853321" stop-color="#F5DF58"/>
<stop offset="0.179082" stop-color="#FFFFCC"/>
<stop offset="0.303495" stop-color="#FAE742"/>
<stop offset="0.440625" stop-color="#F49545"/>
<stop offset="0.539583" stop-color="#EA9F2A"/>
<stop offset="0.685417" stop-color="#EBBD3E"/>
<stop offset="0.820833" stop-color="#F0CD4A"/>
<stop offset="1" stop-color="#F0C02E"/>
</linearGradient>
<linearGradient id="paint3_linear_509_5917" x1="18.01" y1="0.280518" x2="18.01" y2="32.7197" gradientUnits="userSpaceOnUse">
<stop stop-color="#F5E6EA"/>
<stop offset="0.102083" stop-color="#F5E05A"/>
<stop offset="0.289583" stop-color="#EED362"/>
<stop offset="0.440625" stop-color="#F1CA41"/>
<stop offset="0.565625" stop-color="#DAAA2E"/>
<stop offset="0.732292" stop-color="#FAB041"/>
<stop offset="0.836458" stop-color="#FAC93E"/>
<stop offset="1" stop-color="#E8C960"/>
</linearGradient>
<linearGradient id="paint4_linear_509_5917" x1="7.29145" y1="7.71588" x2="3.3998" y2="16.9945" gradientUnits="userSpaceOnUse">
<stop stop-color="#F0993B"/>
<stop offset="1" stop-color="#FFCA27"/>
</linearGradient>
<linearGradient id="paint5_linear_509_5917" x1="42.5061" y1="7.80424" x2="46.4333" y2="16.9991" gradientUnits="userSpaceOnUse">
<stop stop-color="#F0993B"/>
<stop offset="1" stop-color="#FFCA27"/>
</linearGradient>
</defs>
</svg>
