<svg width="22" height="26" viewBox="0 0 22 26" fill="none" xmlns="http://www.w3.org/2000/svg">
<path d="M11 0.842285L4.18579 13.0002L11 25.1581L11.2433 25.0742C14.3599 23.9993 17.0323 22.041 18.9713 19.4111C20.9526 16.7237 22 13.5478 22 10.2268V3.89439L11 0.842285Z" fill="url(#paint0_linear_509_5945)"/>
<path d="M0 3.89439V10.2268C0 13.5479 1.04734 16.7238 3.0287 19.4111C4.96772 22.0411 7.64004 23.9993 10.7567 25.0742L11 25.1581V0.842285L0 3.89439Z" fill="url(#paint1_linear_509_5945)"/>
<path d="M19.041 11.2201C19.0666 10.8911 19.0796 10.5598 19.0796 10.2267V6.04644L11 3.80469L5.646 11.2201H19.041Z" fill="#C4C4C4"/>
<path d="M11.0001 3.80469L2.92041 6.04649V10.2267C2.92041 10.5598 2.93345 10.8911 2.95901 11.2201H11.0001V3.80469Z" fill="#F2F2F2"/>
<path d="M11.0001 8.98901L6.13281 15.5527L11.0001 22.1163L11.2999 21.9845C13.4064 21.0586 15.2394 19.5933 16.6008 17.7469C18.0239 15.8167 18.8581 13.5777 19.0411 11.2201L11.0001 8.98901Z" fill="#C4C4C4"/>
<path d="M2.95898 11.2201C3.14199 13.5777 3.97619 15.8167 5.39938 17.7469C6.7607 19.5933 8.59366 21.0585 10.7002 21.9845L11 22.1163V8.98901L2.95898 11.2201Z" fill="#F2F2F2"/>
<path fill-rule="evenodd" clip-rule="evenodd" d="M11.0356 9.24772C11.0119 9.61424 10.9881 9.98076 10.9648 10.3383C10.4964 10.0159 10.5427 8.98499 11.0651 8.46729C11.5929 9.03606 11.6549 9.72906 11.1731 10.3563C11.15 9.9873 11.1271 9.61833 11.104 9.24935C11.0811 9.24895 11.0585 9.24854 11.0356 9.24772Z" fill="#00A513"/>
<path fill-rule="evenodd" clip-rule="evenodd" d="M9.01684 14.5143C8.79174 15.3204 8.20852 15.5995 7.50854 15.392C7.52892 14.7116 8.32374 14.1224 8.92123 14.3516C8.77507 14.4509 8.62802 14.542 8.48938 14.6471C8.35442 14.7492 8.22787 14.8657 8.1068 14.9903C8.4317 14.8951 8.72287 14.7243 9.01684 14.5143Z" fill="#00A513"/>
<path fill-rule="evenodd" clip-rule="evenodd" d="M7.5 10.7727C8.20621 10.5615 8.79491 10.8398 9.0102 11.6304C8.85946 11.5385 8.71573 11.4424 8.5655 11.3611C8.4145 11.2794 8.25727 11.212 8.09609 11.1519C8.33862 11.4232 8.62317 11.6251 8.92948 11.8049C8.21232 11.9961 7.69224 11.5728 7.5 10.7727Z" fill="#00A513"/>
<path fill-rule="evenodd" clip-rule="evenodd" d="M13.2295 11.8178C13.5067 11.6078 13.7854 11.3965 14.0641 11.1853C14.0568 11.1726 14.0498 11.1599 14.043 11.1473C13.7194 11.258 13.4224 11.4325 13.1335 11.636C13.1787 10.9805 14.0039 10.5106 14.6353 10.773C14.465 11.5183 13.982 11.991 13.2295 11.8178Z" fill="#00A513"/>
<path fill-rule="evenodd" clip-rule="evenodd" d="M13.2071 14.3533C13.91 14.18 14.4411 14.5576 14.6337 15.3818C13.9972 15.6028 13.3461 15.3552 13.1323 14.5482C13.4263 14.708 13.7304 14.8735 14.0351 15.0389C14.0413 15.0259 14.0475 15.0128 14.0537 14.9997C13.8038 14.7398 13.5175 14.538 13.2071 14.3533Z" fill="#00A513"/>
<path d="M11 13.8212C11.3957 13.8212 11.7167 13.4879 11.7167 13.0767C11.7167 12.6656 11.3957 12.3323 11 12.3323C10.6042 12.3323 10.2834 12.6656 10.2834 13.0767C10.2834 13.4879 10.6042 13.8212 11 13.8212Z" fill="#FF3D00"/>
<defs>
<linearGradient id="paint0_linear_509_5945" x1="13.0929" y1="0.842285" x2="13.0929" y2="25.1581" gradientUnits="userSpaceOnUse">
<stop offset="0.00833321" stop-color="#F5DF58"/>
<stop offset="0.00843321" stop-color="#F4E4D6"/>
<stop offset="0.00853321" stop-color="#F5DF58"/>
<stop offset="0.179082" stop-color="#FFFFCC"/>
<stop offset="0.303495" stop-color="#FAE742"/>
<stop offset="0.440625" stop-color="#F49545"/>
<stop offset="0.539583" stop-color="#EA9F2A"/>
<stop offset="0.685417" stop-color="#EBBD3E"/>
<stop offset="0.820833" stop-color="#F0CD4A"/>
<stop offset="1" stop-color="#F0C02E"/>
</linearGradient>
<linearGradient id="paint1_linear_509_5945" x1="5.5" y1="0.842285" x2="5.5" y2="25.1581" gradientUnits="userSpaceOnUse">
<stop stop-color="#F5E6EA"/>
<stop offset="0.102083" stop-color="#F5E05A"/>
<stop offset="0.289583" stop-color="#EED362"/>
<stop offset="0.440625" stop-color="#F1CA41"/>
<stop offset="0.565625" stop-color="#DAAA2E"/>
<stop offset="0.732292" stop-color="#FAB041"/>
<stop offset="0.836458" stop-color="#FAC93E"/>
<stop offset="1" stop-color="#E8C960"/>
</linearGradient>
</defs>
</svg>
