<?xml version="1.0" encoding="utf-8"?>
<!-- Generator: Adobe Illustrator 24.2.0, SVG Export Plug-In . SVG Version: 6.00 Build 0)  -->
<svg version="1.1" id="Layer_1" xmlns="http://www.w3.org/2000/svg" xmlns:xlink="http://www.w3.org/1999/xlink" x="0px" y="0px"
	 viewBox="0 0 100 100" style="enable-background:new 0 0 100 100;" xml:space="preserve">
<style type="text/css">
	.st0{fill:#4C1F11;}
	.st1{fill:#33120A;}
	.st2{fill:#894919;}
	.st3{fill:#230202;}
	.st4{fill:#823919;}
	.st5{fill:#CE7728;}
	.st6{fill:#B76623;}
	.st7{fill:#EC902F;}
	.st8{fill:#602000;}
	.st9{fill:#BC691E;}
	.st10{fill:#EF9A4D;}
	.st11{fill:#2B0101;}
	.st12{fill:#FAFBFC;}
	.st13{fill:#0068C9;}
	.st14{fill:#FF0000;}
	.st15{fill:#161616;}
	.st16{fill:#FFFFFA;}
</style>
<g>
	<g>
		<polygon class="st0" points="10.04,26.51 22.82,45.56 78.07,45.56 89.36,25.93 		"/>
		<rect x="22.82" y="17.01" class="st1" width="55.25" height="28.55"/>
		<g>
			<g>
				<polygon class="st2" points="22.13,46.68 9.5,27.67 12.06,27.67 24.85,46.68 				"/>
				<polygon class="st2" points="78.88,46.68 90.66,26.98 88.09,26.98 76.17,46.68 				"/>
			</g>
			<rect x="22.13" y="44.45" class="st2" width="55.94" height="2.23"/>
		</g>
		<rect x="18.93" y="50.67" class="st3" width="63.25" height="14.87"/>
		<path class="st4" d="M19.14,6.41c0,0,29.61-1.46,60.76,0l4.12,0.88l2.36,19.38l-75.75-0.58l3.5-17.92L19.14,6.41z"/>
		<polygon class="st5" points="9.29,59.13 22.13,46.68 22.13,54.67 17.37,58.91 		"/>
		<polygon class="st5" points="91.29,59.21 78.88,46.68 78.88,54.67 83.15,58.91 		"/>
		<rect x="22.13" y="46.68" class="st6" width="56.76" height="7.99"/>
		<path class="st7" d="M87.69,7.36c-0.59-0.99-1.65-1.59-2.8-1.59h-4.45c-0.51,0-0.81,0.58-0.51,0.99
			c6.74,9.37,4.59,18.01,4.59,18.01H52.9h-5.8H15.48c0,0-2.15-8.64,4.59-18.01c0.3-0.41,0-0.99-0.51-0.99h-4.45
			c-1.15,0-2.22,0.6-2.8,1.59c-2,3.39-6.13,10.64-4.26,18.86c0.29,1.29,1.45,2.2,2.77,2.2H47.1h5.8h36.28c1.32,0,2.48-0.91,2.77-2.2
			C93.82,17.99,89.7,10.75,87.69,7.36z"/>
		<polygon class="st8" points="84.12,15.6 15.87,15.63 16.23,14.36 83.77,14.36 		"/>
	</g>
	<g>
		<path class="st9" d="M54.38,22.9h-9.57c-1.4,0-2.53,1.13-2.53,2.53v5.24c0,1.4,1.13,2.53,2.53,2.53h9.57
			c1.4,0,2.53-1.13,2.53-2.53v-5.24C56.91,24.04,55.78,22.9,54.38,22.9z"/>
		<path class="st10" d="M54.38,22.13h-9.57c-1.4,0-2.53,1.13-2.53,2.53v5.24c0,1.4,1.13,2.53,2.53,2.53h9.57
			c1.4,0,2.53-1.13,2.53-2.53v-5.24C56.91,23.26,55.78,22.13,54.38,22.13z"/>
		<g>
			<circle class="st11" cx="49.59" cy="25.53" r="1.58"/>
			<polygon class="st11" points="49.59,25.53 48.21,29.98 51.17,29.98 			"/>
		</g>
	</g>
</g>
<g>
	<g>
		<circle class="st12" cx="63.63" cy="35.99" r="11.23"/>
		<g>
			<path class="st13" d="M68.73,27.78v2.38c1.62,1.42,2.66,3.51,2.66,5.83c0,4.28-3.48,7.76-7.76,7.76s-7.76-3.48-7.76-7.76
				c0-2.32,1.03-4.41,2.66-5.83v-2.38c-2.74,1.71-4.57,4.75-4.57,8.21c0,5.34,4.34,9.68,9.68,9.68s9.68-4.34,9.68-9.68
				C73.31,32.53,71.48,29.5,68.73,27.78z"/>
			<path class="st13" d="M67.24,31.17v-4.15c-0.87-0.35-1.8-0.58-2.77-0.66c-0.28-0.03-0.55-0.05-0.84-0.05s-0.56,0.02-0.84,0.05
				c-0.97,0.08-1.9,0.31-2.77,0.66v4.15c-1.47,1.1-2.43,2.85-2.43,4.82c0,3.33,2.71,6.03,6.03,6.03c3.33,0,6.03-2.71,6.03-6.03
				C69.66,34.02,68.7,32.27,67.24,31.17z M64.43,28.77c0,0.44-0.36,0.8-0.8,0.8c-0.44,0-0.8-0.36-0.8-0.8c0-0.2,0.08-0.38,0.2-0.51
				c0.15-0.17,0.35-0.28,0.6-0.28c0.24,0,0.45,0.12,0.6,0.28C64.35,28.4,64.43,28.57,64.43,28.77z M63.63,40.11
				c-2.27,0-4.12-1.85-4.12-4.12c0-2.27,1.85-4.12,4.12-4.12c2.27,0,4.12,1.85,4.12,4.12C67.74,38.26,65.9,40.11,63.63,40.11z"/>
			<path class="st14" d="M63.63,33.65c-1.29,0-2.34,1.05-2.34,2.34s1.05,2.34,2.34,2.34c1.29,0,2.34-1.05,2.34-2.34
				S64.92,33.65,63.63,33.65z"/>
		</g>
	</g>
	<g>
		<circle class="st12" cx="45.92" cy="33.83" r="8.64"/>
		<g>
			<path class="st13" d="M49.85,27.52v1.83c1.25,1.09,2.04,2.7,2.04,4.48c0,3.29-2.68,5.97-5.97,5.97c-3.29,0-5.97-2.68-5.97-5.97
				c0-1.79,0.79-3.39,2.04-4.48v-1.83c-2.11,1.32-3.52,3.65-3.52,6.31c0,4.1,3.34,7.44,7.44,7.44s7.44-3.34,7.44-7.44
				C53.36,31.17,51.95,28.83,49.85,27.52z"/>
			<path class="st13" d="M48.7,30.12v-3.19c-0.67-0.27-1.38-0.45-2.13-0.51c-0.21-0.02-0.42-0.04-0.64-0.04s-0.43,0.01-0.64,0.04
				c-0.75,0.06-1.46,0.24-2.13,0.51v3.19c-1.13,0.85-1.87,2.19-1.87,3.71c0,2.56,2.08,4.64,4.64,4.64c2.56,0,4.64-2.08,4.64-4.64
				C50.56,32.31,49.82,30.97,48.7,30.12z M46.54,28.28c0,0.34-0.28,0.61-0.61,0.61s-0.61-0.28-0.61-0.61c0-0.16,0.06-0.29,0.16-0.4
				c0.11-0.13,0.27-0.22,0.46-0.22c0.18,0,0.35,0.09,0.46,0.22C46.47,27.99,46.54,28.12,46.54,28.28z M45.92,36.99
				c-1.74,0-3.16-1.42-3.16-3.16c0-1.74,1.42-3.16,3.16-3.16s3.16,1.42,3.16,3.16C49.09,35.57,47.67,36.99,45.92,36.99z"/>
			<path class="st14" d="M45.92,32.03c-0.99,0-1.8,0.8-1.8,1.8c0,0.99,0.8,1.8,1.8,1.8s1.8-0.8,1.8-1.8
				C47.72,32.84,46.91,32.03,45.92,32.03z"/>
		</g>
	</g>
	<g>
		<circle class="st12" cx="32.36" cy="50.67" r="18.21"/>
		<g>
			<path class="st13" d="M40.64,37.37v3.85c2.63,2.31,4.3,5.68,4.3,9.45c0,6.94-5.64,12.58-12.58,12.58s-12.58-5.64-12.58-12.58
				c0-3.77,1.67-7.14,4.3-9.45v-3.85c-4.44,2.77-7.41,7.69-7.41,13.3c0,8.65,7.04,15.69,15.69,15.69s15.69-7.04,15.69-15.69
				C48.05,45.06,45.08,40.14,40.64,37.37z"/>
			<path class="st13" d="M38.21,42.86v-6.73c-1.41-0.57-2.92-0.94-4.5-1.07c-0.45-0.04-0.89-0.07-1.35-0.07
				c-0.46,0-0.91,0.03-1.35,0.07c-1.58,0.13-3.08,0.51-4.5,1.07v6.73c-2.38,1.79-3.93,4.62-3.93,7.82c0,5.39,4.39,9.78,9.78,9.78
				s9.78-4.39,9.78-9.78C42.15,47.47,40.58,44.64,38.21,42.86z M33.66,38.97c0,0.71-0.58,1.3-1.3,1.3c-0.71,0-1.3-0.58-1.3-1.3
				c0-0.33,0.13-0.61,0.33-0.83c0.24-0.27,0.57-0.46,0.97-0.46c0.39,0,0.73,0.19,0.97,0.46C33.52,38.36,33.66,38.64,33.66,38.97z
				 M32.36,57.34c-3.68,0-6.67-2.99-6.67-6.67c0-3.68,2.99-6.67,6.67-6.67c3.68,0,6.67,2.99,6.67,6.67
				C39.03,54.35,36.04,57.34,32.36,57.34z"/>
			<path class="st14" d="M32.36,46.88c-2.09,0-3.79,1.7-3.79,3.79s1.7,3.79,3.79,3.79s3.79-1.7,3.79-3.79S34.45,46.88,32.36,46.88z"
				/>
		</g>
	</g>
	<g>
		<circle class="st12" cx="52.74" cy="52.42" r="15.07"/>
		<g>
			<path class="st13" d="M59.6,41.41v3.19c2.18,1.91,3.56,4.71,3.56,7.82c0,5.74-4.67,10.42-10.42,10.42s-10.42-4.67-10.42-10.42
				c0-3.12,1.38-5.91,3.56-7.82v-3.19c-3.68,2.3-6.14,6.37-6.14,11.01c0,7.16,5.83,12.99,12.99,12.99s12.99-5.83,12.99-12.99
				C65.73,47.78,63.27,43.7,59.6,41.41z"/>
			<path class="st13" d="M57.59,45.95v-5.57c-1.17-0.47-2.42-0.78-3.72-0.89c-0.37-0.04-0.74-0.06-1.12-0.06s-0.75,0.02-1.12,0.06
				c-1.31,0.11-2.55,0.42-3.72,0.89v5.57c-1.97,1.48-3.25,3.82-3.25,6.47c0,4.46,3.64,8.1,8.1,8.1s8.1-3.64,8.1-8.1
				C60.84,49.77,59.55,47.43,57.59,45.95z M53.82,42.73c0,0.59-0.48,1.07-1.07,1.07s-1.07-0.48-1.07-1.07
				c0-0.27,0.11-0.51,0.27-0.69c0.2-0.22,0.47-0.38,0.8-0.38c0.32,0,0.6,0.16,0.8,0.38C53.71,42.23,53.82,42.46,53.82,42.73z
				 M52.74,57.95c-3.04,0-5.52-2.48-5.52-5.52c0-3.04,2.48-5.52,5.52-5.52s5.52,2.48,5.52,5.52C58.27,55.47,55.79,57.95,52.74,57.95
				z"/>
			<path class="st14" d="M52.74,49.29c-1.73,0-3.14,1.4-3.14,3.14c0,1.73,1.4,3.14,3.14,3.14s3.14-1.4,3.14-3.14
				C55.88,50.69,54.48,49.29,52.74,49.29z"/>
		</g>
	</g>
	<g>
		<circle class="st12" cx="72.67" cy="52.97" r="12.7"/>
		<g>
			<path class="st13" d="M78.44,43.69v2.69c1.84,1.61,3,3.96,3,6.59c0,4.84-3.94,8.78-8.78,8.78c-4.84,0-8.78-3.94-8.78-8.78
				c0-2.63,1.17-4.98,3-6.59v-2.69c-3.1,1.93-5.17,5.37-5.17,9.28c0,6.04,4.91,10.95,10.95,10.95s10.95-4.91,10.95-10.95
				C83.61,49.06,81.54,45.62,78.44,43.69z"/>
			<path class="st13" d="M76.75,47.52v-4.69c-0.99-0.39-2.04-0.65-3.14-0.75c-0.31-0.03-0.62-0.05-0.95-0.05
				c-0.32,0-0.63,0.02-0.95,0.05c-1.1,0.09-2.15,0.35-3.14,0.75v4.69c-1.66,1.25-2.74,3.22-2.74,5.45c0,3.76,3.06,6.82,6.82,6.82
				c3.76,0,6.82-3.06,6.82-6.82C79.49,50.74,78.4,48.76,76.75,47.52z M73.57,44.81c0,0.5-0.41,0.9-0.9,0.9c-0.5,0-0.9-0.4-0.9-0.9
				c0-0.23,0.09-0.43,0.23-0.58c0.17-0.19,0.39-0.32,0.68-0.32c0.27,0,0.51,0.13,0.68,0.32C73.48,44.38,73.57,44.58,73.57,44.81z
				 M72.67,57.62c-2.57,0-4.65-2.09-4.65-4.65c0-2.57,2.09-4.65,4.65-4.65c2.57,0,4.65,2.09,4.65,4.65
				C77.32,55.54,75.23,57.62,72.67,57.62z"/>
			<path class="st14" d="M72.67,50.33c-1.46,0-2.64,1.18-2.64,2.64s1.18,2.64,2.64,2.64c1.46,0,2.64-1.18,2.64-2.64
				S74.13,50.33,72.67,50.33z"/>
		</g>
	</g>
</g>
<g>
	<rect x="14.15" y="61.45" class="st4" width="69.87" height="29.47"/>
	<path class="st15" d="M8.76,64.76"/>
	<path class="st7" d="M17.11,64.76l4.62,29.47h-5.6c-1.15,0-2.13-0.82-2.34-1.95L8.76,64.76H17.11z"/>
	<path class="st7" d="M83.41,64.76L78.8,94.24h5.6c1.15,0,2.13-0.82,2.34-1.95l5.02-27.53H83.41z"/>
	<rect x="16.49" y="88.39" class="st7" width="66.51" height="5.85"/>
	<path class="st7" d="M91.76,64.76H8.76v-4.03c0-1.01,0.82-1.82,1.82-1.82h79.24c1.07,0,1.94,0.87,1.94,1.94V64.76z"/>
	<g>
		<g>
			<circle class="st9" cx="82.59" cy="90.71" r="1.44"/>
			<circle class="st9" cx="84.73" cy="80.94" r="1.44"/>
			<circle class="st9" cx="86.19" cy="71.16" r="1.44"/>
			<circle class="st9" cx="87.31" cy="62.04" r="1.44"/>
		</g>
		<g>
			<circle class="st9" cx="17.49" cy="90.71" r="1.44"/>
			<circle class="st9" cx="30.31" cy="90.71" r="1.44"/>
			<circle class="st9" cx="43.12" cy="90.71" r="1.44"/>
			<circle class="st9" cx="55.94" cy="90.71" r="1.44"/>
			<circle class="st9" cx="68.76" cy="90.71" r="1.44"/>
			<circle class="st9" cx="24.26" cy="61.84" r="1.44"/>
			<path class="st9" d="M35.64,61.84c0,0.79,0.64,1.44,1.44,1.44c0.79,0,1.44-0.64,1.44-1.44c0-0.79-0.64-1.44-1.44-1.44
				C36.28,60.4,35.64,61.04,35.64,61.84z"/>
			<path class="st9" d="M48.15,61.84c0,0.79,0.64,1.44,1.44,1.44c0.79,0,1.44-0.64,1.44-1.44c0-0.79-0.64-1.44-1.44-1.44
				C48.8,60.4,48.15,61.04,48.15,61.84z"/>
			<circle class="st9" cx="62.71" cy="61.84" r="1.44"/>
			<path class="st9" d="M74.24,61.84c0,0.79,0.64,1.44,1.44,1.44c0.79,0,1.44-0.64,1.44-1.44c0-0.79-0.64-1.44-1.44-1.44
				C74.88,60.4,74.24,61.04,74.24,61.84z"/>
			<circle class="st9" cx="15.35" cy="80.94" r="1.44"/>
			<circle class="st9" cx="13.89" cy="71.16" r="1.44"/>
			<circle class="st9" cx="12.77" cy="62.04" r="1.44"/>
		</g>
	</g>
	<rect x="19.46" y="76.76" class="st8" width="61.95" height="1.24"/>
</g>
<polygon class="st16" points="34.32,23.27 35.07,25.23 37.03,25.97 35.07,26.72 34.32,28.68 33.58,26.72 31.62,25.97 33.58,25.23 
	"/>
<polygon class="st16" points="81.23,37.49 81.78,38.96 83.25,39.51 81.78,40.07 81.23,41.53 80.67,40.07 79.2,39.51 80.67,38.96 "/>
<polygon class="st16" points="22.24,28.64 22.79,30.11 24.26,30.67 22.79,31.22 22.24,32.69 21.69,31.22 20.22,30.67 21.69,30.11 
	"/>
<polygon class="st16" points="77.99,28.66 78.54,30.12 80.01,30.68 78.54,31.23 77.99,32.7 77.43,31.23 75.97,30.68 77.43,30.12 "/>
</svg>
