<?xml version="1.0" encoding="utf-8"?>
<!-- Generator: Adobe Illustrator 24.2.0, SVG Export Plug-In . SVG Version: 6.00 Build 0)  -->
<svg version="1.1" id="Layer_1" xmlns="http://www.w3.org/2000/svg" xmlns:xlink="http://www.w3.org/1999/xlink" x="0px" y="0px"
	 viewBox="0 0 100 100" style="enable-background:new 0 0 100 100;" xml:space="preserve">
<style type="text/css">
	.st0{fill:#0068C9;}
	.st1{fill:#FF0000;}
</style>
<g>
	<path class="st0" d="M74,11.43V22.6c7.63,6.69,12.48,16.48,12.48,27.4c0,20.11-16.36,36.48-36.47,36.48S13.53,70.11,13.53,50
		c0-10.92,4.85-20.71,12.48-27.4V11.43C13.13,19.47,4.51,33.73,4.51,50c0,25.08,20.4,45.49,45.49,45.49S95.49,75.08,95.49,50
		C95.49,33.73,86.87,19.47,74,11.43z"/>
	<path class="st0" d="M66.97,27.34V7.83c-4.1-1.64-8.46-2.72-13.04-3.11C52.64,4.6,51.34,4.51,50,4.51s-2.63,0.09-3.93,0.21
		c-4.58,0.39-8.93,1.47-13.04,3.11v19.51c-6.91,5.18-11.4,13.38-11.4,22.66c0,15.63,12.73,28.36,28.36,28.36
		s28.36-12.73,28.36-28.36C78.36,40.73,73.83,32.52,66.97,27.34z M53.76,16.08c0,2.07-1.68,3.75-3.76,3.75
		c-2.07,0-3.76-1.68-3.76-3.75c0-0.95,0.39-1.77,0.95-2.42c0.69-0.78,1.64-1.34,2.81-1.34c1.12,0,2.12,0.56,2.81,1.34
		C53.37,14.31,53.76,15.13,53.76,16.08z M50,69.34c-10.66,0-19.34-8.68-19.34-19.34c0-10.66,8.68-19.34,19.34-19.34
		s19.34,8.68,19.34,19.34C69.34,60.67,60.66,69.34,50,69.34z"/>
	<path class="st1" d="M50,39.02c-6.07,0-10.98,4.92-10.98,10.98S43.94,60.98,50,60.98S60.98,56.07,60.98,50S56.07,39.02,50,39.02z"
		/>
</g>
</svg>
