<?xml version="1.0" encoding="utf-8"?>
<!-- Generator: Adobe Illustrator 24.2.0, SVG Export Plug-In . SVG Version: 6.00 Build 0)  -->
<svg version="1.1" id="Layer_1" xmlns="http://www.w3.org/2000/svg" xmlns:xlink="http://www.w3.org/1999/xlink" x="0px" y="0px"
	 viewBox="0 0 100 100" style="enable-background:new 0 0 100 100;" xml:space="preserve">
<style type="text/css">
	.st0{fill:url(#SVGID_1_);}
	.st1{fill:#EFBA50;}
	.st2{fill:url(#SVGID_2_);}
	.st3{fill:#FAFBFC;}
	.st4{fill:#0068C9;}
	.st5{fill:#FF0000;}
	.st6{fill:url(#SVGID_3_);}
	.st7{fill:url(#SVGID_4_);}
	.st8{fill:url(#SVGID_5_);}
	.st9{fill:url(#SVGID_6_);}
	.st10{fill:url(#SVGID_7_);}
	.st11{fill:url(#SVGID_8_);}
	.st12{fill:url(#SVGID_9_);}
	.st13{fill:url(#SVGID_10_);}
	.st14{fill:url(#SVGID_11_);}
	.st15{fill:url(#SVGID_12_);}
	.st16{fill:#895004;}
	.st17{fill:url(#SVGID_13_);}
	.st18{fill:url(#SVGID_14_);}
	.st19{fill:url(#SVGID_15_);}
	.st20{fill:url(#SVGID_16_);}
</style>
<g>
	<linearGradient id="SVGID_1_" gradientUnits="userSpaceOnUse" x1="54.6737" y1="53.4876" x2="91.6248" y2="53.4876">
		<stop  offset="0" style="stop-color:#C9C9C9"/>
		<stop  offset="0.4562" style="stop-color:#D4D4D4"/>
		<stop  offset="1" style="stop-color:#DDDDDD"/>
	</linearGradient>
	<polygon class="st0" points="54.67,37.85 91.62,43.9 89.57,69.13 54.67,67.13 	"/>
	<polygon class="st1" points="38.46,43.68 37.6,43.55 44.21,41.3 44.9,41.44 	"/>
	<polygon class="st1" points="74.27,41.36 75.02,41.09 67.37,39.81 66.57,40.06 	"/>
	<radialGradient id="SVGID_2_" cx="38.6081" cy="58.7629" r="18.649" gradientUnits="userSpaceOnUse">
		<stop  offset="0" style="stop-color:#FFFFFF"/>
		<stop  offset="0.0367" style="stop-color:#FDFDFD"/>
		<stop  offset="0.6305" style="stop-color:#E6E6E6"/>
		<stop  offset="1" style="stop-color:#DDDDDD"/>
	</radialGradient>
	<polygon class="st2" points="22.54,48.81 54.67,37.85 54.67,79.68 	"/>
	<polygon class="st1" points="73.88,50.03 74.36,50.21 81.52,47.6 80.96,47.45 	"/>
	<polygon class="st1" points="44.73,52.21 45.39,51.95 38.25,50.84 37.47,51.1 	"/>
	<g>
		<circle class="st3" cx="76.72" cy="39.78" r="13.76"/>
		<g>
			<path class="st4" d="M82.98,29.72v2.91c1.99,1.74,3.25,4.29,3.25,7.14c0,5.24-4.26,9.51-9.51,9.51c-5.24,0-9.51-4.27-9.51-9.51
				c0-2.85,1.26-5.4,3.25-7.14v-2.91c-3.36,2.1-5.6,5.81-5.6,10.05c0,6.54,5.32,11.86,11.86,11.86s11.86-5.32,11.86-11.86
				C88.58,35.54,86.33,31.82,82.98,29.72z"/>
			<path class="st4" d="M81.15,33.87v-5.09c-1.07-0.43-2.21-0.71-3.4-0.81c-0.34-0.03-0.67-0.06-1.02-0.06s-0.69,0.02-1.02,0.06
				c-1.19,0.1-2.33,0.38-3.4,0.81v5.09c-1.8,1.35-2.97,3.49-2.97,5.91c0,4.07,3.32,7.39,7.39,7.39s7.39-3.32,7.39-7.39
				C84.12,37.36,82.93,35.22,81.15,33.87z M77.7,30.93c0,0.54-0.44,0.98-0.98,0.98s-0.98-0.44-0.98-0.98c0-0.25,0.1-0.46,0.25-0.63
				c0.18-0.2,0.43-0.35,0.73-0.35c0.29,0,0.55,0.15,0.73,0.35C77.6,30.47,77.7,30.69,77.7,30.93z M76.72,44.82
				c-2.78,0-5.04-2.26-5.04-5.04c0-2.78,2.26-5.04,5.04-5.04c2.78,0,5.04,2.26,5.04,5.04C81.76,42.56,79.5,44.82,76.72,44.82z"/>
			<path class="st5" d="M76.72,36.91c-1.58,0-2.86,1.28-2.86,2.86c0,1.58,1.28,2.86,2.86,2.86s2.86-1.28,2.86-2.86
				C79.59,38.2,78.3,36.91,76.72,36.91z"/>
		</g>
	</g>
	<g>
		<circle class="st3" cx="64.38" cy="28.6" r="9.28"/>
		<g>
			<path class="st4" d="M68.6,21.82v1.96c1.34,1.18,2.19,2.9,2.19,4.82c0,3.54-2.88,6.41-6.41,6.41c-3.54,0-6.41-2.88-6.41-6.41
				c0-1.92,0.85-3.64,2.19-4.82v-1.96c-2.26,1.41-3.78,3.92-3.78,6.78c0,4.41,3.59,8,8,8s8-3.59,8-8
				C72.38,25.74,70.87,23.24,68.6,21.82z"/>
			<path class="st4" d="M67.37,24.62v-3.43c-0.72-0.29-1.49-0.48-2.29-0.55c-0.23-0.02-0.46-0.04-0.69-0.04s-0.46,0.02-0.69,0.04
				c-0.8,0.07-1.57,0.26-2.29,0.55v3.43c-1.21,0.91-2,2.35-2,3.98c0,2.75,2.24,4.99,4.99,4.99s4.99-2.24,4.99-4.99
				C69.37,26.97,68.57,25.53,67.37,24.62z M65.04,22.64c0,0.36-0.3,0.66-0.66,0.66s-0.66-0.3-0.66-0.66c0-0.17,0.07-0.31,0.17-0.42
				c0.12-0.14,0.29-0.24,0.49-0.24c0.2,0,0.37,0.1,0.49,0.24C64.98,22.33,65.04,22.47,65.04,22.64z M64.38,32
				c-1.87,0-3.4-1.53-3.4-3.4c0-1.87,1.53-3.4,3.4-3.4s3.4,1.53,3.4,3.4C67.78,30.48,66.26,32,64.38,32z"/>
			<path class="st5" d="M64.38,26.67c-1.07,0-1.93,0.86-1.93,1.93c0,1.07,0.86,1.93,1.93,1.93c1.07,0,1.93-0.86,1.93-1.93
				C66.31,27.54,65.45,26.67,64.38,26.67z"/>
		</g>
	</g>
	<g>
		<circle class="st3" cx="26.27" cy="35.68" r="10.59"/>
		<g>
			<path class="st4" d="M31.09,27.94v2.24c1.53,1.34,2.5,3.31,2.5,5.5c0,4.04-3.28,7.32-7.32,7.32s-7.32-3.28-7.32-7.32
				c0-2.19,0.97-4.16,2.5-5.5v-2.24c-2.58,1.61-4.31,4.48-4.31,7.74c0,5.03,4.1,9.13,9.13,9.13s9.13-4.1,9.13-9.13
				C35.4,32.41,33.67,29.55,31.09,27.94z"/>
			<path class="st4" d="M29.68,31.13v-3.92c-0.82-0.33-1.7-0.55-2.62-0.62c-0.26-0.03-0.52-0.04-0.79-0.04s-0.53,0.02-0.79,0.04
				c-0.92,0.08-1.79,0.29-2.62,0.62v3.92c-1.39,1.04-2.29,2.69-2.29,4.55c0,3.14,2.56,5.69,5.69,5.69s5.69-2.56,5.69-5.69
				C31.96,33.82,31.05,32.17,29.68,31.13z M27.02,28.87c0,0.42-0.34,0.75-0.75,0.75s-0.75-0.34-0.75-0.75
				c0-0.19,0.08-0.36,0.19-0.49c0.14-0.16,0.33-0.27,0.56-0.27c0.23,0,0.42,0.11,0.56,0.27C26.95,28.52,27.02,28.68,27.02,28.87z
				 M26.27,39.56c-2.14,0-3.88-1.74-3.88-3.88c0-2.14,1.74-3.88,3.88-3.88s3.88,1.74,3.88,3.88C30.15,37.82,28.41,39.56,26.27,39.56
				z"/>
			<path class="st5" d="M26.27,33.48c-1.22,0-2.2,0.99-2.2,2.2c0,1.22,0.99,2.2,2.2,2.2s2.2-0.99,2.2-2.2
				C28.47,34.46,27.49,33.48,26.27,33.48z"/>
		</g>
	</g>
	<g>
		<circle class="st3" cx="47.72" cy="47.78" r="20.27"/>
		<g>
			<path class="st4" d="M56.94,32.97v4.29c2.93,2.57,4.79,6.33,4.79,10.52c0,7.72-6.28,14.01-14.01,14.01S33.72,55.5,33.72,47.78
				c0-4.19,1.86-7.95,4.79-10.52v-4.29c-4.95,3.09-8.25,8.56-8.25,14.81c0,9.63,7.84,17.47,17.47,17.47s17.47-7.84,17.47-17.47
				C65.19,41.53,61.88,36.06,56.94,32.97z"/>
			<path class="st4" d="M54.24,39.08v-7.49c-1.57-0.63-3.25-1.04-5.01-1.19c-0.5-0.05-0.99-0.08-1.51-0.08
				c-0.51,0-1.01,0.03-1.51,0.08c-1.76,0.15-3.43,0.56-5.01,1.19v7.49c-2.65,1.99-4.38,5.14-4.38,8.7c0,6,4.89,10.89,10.89,10.89
				s10.89-4.89,10.89-10.89C58.61,44.22,56.87,41.07,54.24,39.08z M49.17,34.76c0,0.8-0.65,1.44-1.44,1.44s-1.44-0.65-1.44-1.44
				c0-0.36,0.15-0.68,0.36-0.93c0.27-0.3,0.63-0.51,1.08-0.51c0.43,0,0.81,0.22,1.08,0.51C49.02,34.08,49.17,34.39,49.17,34.76z
				 M47.72,55.21c-4.09,0-7.43-3.33-7.43-7.43c0-4.09,3.33-7.43,7.43-7.43s7.43,3.33,7.43,7.43C55.15,51.88,51.82,55.21,47.72,55.21
				z"/>
			<path class="st5" d="M47.72,43.57c-2.33,0-4.22,1.89-4.22,4.22S45.39,52,47.72,52c2.33,0,4.22-1.89,4.22-4.22
				S50.05,43.57,47.72,43.57z"/>
		</g>
	</g>
	<g>
		
			<linearGradient id="SVGID_3_" gradientUnits="userSpaceOnUse" x1="6696.2144" y1="71.1537" x2="6758.8696" y2="71.1537" gradientTransform="matrix(-0.5346 0 0 1 3671.4211 0)">
			<stop  offset="0" style="stop-color:#C40000"/>
			<stop  offset="0.5444" style="stop-color:#E6000B"/>
			<stop  offset="1" style="stop-color:#FF0013"/>
		</linearGradient>
		<polygon class="st6" points="61.71,98.41 89.35,83.13 91.62,43.9 61.71,54.64 58.13,75.31 		"/>
		<linearGradient id="SVGID_4_" gradientUnits="userSpaceOnUse" x1="22.5424" y1="73.6091" x2="61.7063" y2="73.6091">
			<stop  offset="0" style="stop-color:#E70013"/>
			<stop  offset="0.7248" style="stop-color:#CF0006"/>
			<stop  offset="1" style="stop-color:#C40000"/>
		</linearGradient>
		<polygon class="st7" points="61.71,98.41 25.69,88.04 22.54,48.81 61.71,54.64 		"/>
	</g>
	<linearGradient id="SVGID_5_" gradientUnits="userSpaceOnUse" x1="77.5874" y1="89.4231" x2="77.9599" y2="46.7721">
		<stop  offset="0" style="stop-color:#A66000"/>
		<stop  offset="0.2551" style="stop-color:#B47616"/>
		<stop  offset="0.7844" style="stop-color:#D7AE4F"/>
		<stop  offset="1" style="stop-color:#E6C768"/>
	</linearGradient>
	<polygon class="st8" points="74.36,50.21 74.12,91.54 80.8,87.85 81.52,47.6 	"/>
	
		<linearGradient id="SVGID_6_" gradientUnits="userSpaceOnUse" x1="4607.5898" y1="91.9261" x2="4607.9531" y2="50.2859" gradientTransform="matrix(-1 0 0 1 4649.6616 0)">
		<stop  offset="0" style="stop-color:#A66000"/>
		<stop  offset="0.2551" style="stop-color:#B47616"/>
		<stop  offset="0.7844" style="stop-color:#D7AE4F"/>
		<stop  offset="1" style="stop-color:#E6C768"/>
	</linearGradient>
	<polygon class="st9" points="44.73,52.21 46.34,93.99 39.52,92.04 37.47,51.1 	"/>
	<g>
		<g>
			<g>
				<linearGradient id="SVGID_7_" gradientUnits="userSpaceOnUse" x1="8.3752" y1="14.7977" x2="71.4754" y2="14.7977">
					<stop  offset="0" style="stop-color:#FF0013"/>
					<stop  offset="0.808" style="stop-color:#E70004"/>
					<stop  offset="1" style="stop-color:#E00000"/>
				</linearGradient>
				<path class="st10" d="M44.16,22.64l-35.79-5.5L37.7,6.96l0.04,0l33.73,5.92L44.16,22.64z"/>
			</g>
			<linearGradient id="SVGID_8_" gradientUnits="userSpaceOnUse" x1="8.3752" y1="24.4781" x2="44.1648" y2="24.4781">
				<stop  offset="0" style="stop-color:#E70013"/>
				<stop  offset="0.7248" style="stop-color:#CF0006"/>
				<stop  offset="1" style="stop-color:#C40000"/>
			</linearGradient>
			<polygon class="st11" points="8.38,17.13 8.38,24.96 44.14,31.82 44.16,22.64 			"/>
			<linearGradient id="SVGID_9_" gradientUnits="userSpaceOnUse" x1="44.1439" y1="22.3551" x2="71.4754" y2="22.3551">
				<stop  offset="0" style="stop-color:#FF0013"/>
				<stop  offset="0.4556" style="stop-color:#E6000B"/>
				<stop  offset="1" style="stop-color:#C40000"/>
			</linearGradient>
			<polygon class="st12" points="71.48,12.89 71.48,20.2 44.14,31.82 44.14,22.64 			"/>
		</g>
		<g>
			<linearGradient id="SVGID_10_" gradientUnits="userSpaceOnUse" x1="37.2425" y1="28.5859" x2="38.654" y2="18.7852">
				<stop  offset="0" style="stop-color:#A66000"/>
				<stop  offset="0.1142" style="stop-color:#AA6707"/>
				<stop  offset="0.2802" style="stop-color:#B67A1A"/>
				<stop  offset="0.4777" style="stop-color:#CA9A3A"/>
				<stop  offset="0.6979" style="stop-color:#E5C566"/>
				<stop  offset="0.7076" style="stop-color:#E6C768"/>
				<stop  offset="0.7198" style="stop-color:#DEB95B"/>
				<stop  offset="0.7444" style="stop-color:#D2A348"/>
				<stop  offset="0.7735" style="stop-color:#C99239"/>
				<stop  offset="0.8095" style="stop-color:#C2872E"/>
				<stop  offset="0.8599" style="stop-color:#BE8028"/>
				<stop  offset="1" style="stop-color:#BD7E26"/>
			</linearGradient>
			<polygon class="st13" points="56.8,10.31 28.63,20.25 28.63,28.85 21.67,27.51 21.67,19.18 49.11,9.03 			"/>
		</g>
		<g>
			
				<linearGradient id="SVGID_11_" gradientUnits="userSpaceOnUse" x1="4676.2378" y1="26.8613" x2="4678.9854" y2="18.3208" gradientTransform="matrix(-1 0 0 1 4721.2222 0)">
				<stop  offset="0" style="stop-color:#A66000"/>
				<stop  offset="0.088" style="stop-color:#AA6707"/>
				<stop  offset="0.2159" style="stop-color:#B67A1A"/>
				<stop  offset="0.3682" style="stop-color:#CA9A3A"/>
				<stop  offset="0.538" style="stop-color:#E5C566"/>
				<stop  offset="0.5454" style="stop-color:#E6C768"/>
				<stop  offset="0.5644" style="stop-color:#DEB95B"/>
				<stop  offset="0.6027" style="stop-color:#D2A348"/>
				<stop  offset="0.6479" style="stop-color:#C99239"/>
				<stop  offset="0.7038" style="stop-color:#C2872E"/>
				<stop  offset="0.7822" style="stop-color:#BE8028"/>
				<stop  offset="1" style="stop-color:#BD7E26"/>
			</linearGradient>
			<polygon class="st14" points="19.94,13.12 55.22,18.69 55.22,27.12 62.18,24.16 62.18,16.21 27.6,10.46 			"/>
		</g>
		<g>
			<g>
				
					<linearGradient id="SVGID_12_" gradientUnits="userSpaceOnUse" x1="-1174.2383" y1="-189.4164" x2="-1158.265" y2="-191.2728" gradientTransform="matrix(0.9438 -0.3307 0.3307 0.9438 1196.7847 -188.7027)">
					<stop  offset="0" style="stop-color:#BD7E26"/>
					<stop  offset="0.1908" style="stop-color:#CD9A3F"/>
					<stop  offset="0.5194" style="stop-color:#E6C768"/>
					<stop  offset="0.656" style="stop-color:#D5A543"/>
					<stop  offset="0.7978" style="stop-color:#C68823"/>
					<stop  offset="0.9176" style="stop-color:#BD7610"/>
					<stop  offset="1" style="stop-color:#BA7009"/>
				</linearGradient>
				<path class="st15" d="M38.17,12.13c0,0-11.18,2.18-14.54,6.51c2.62,0.7,3.47,1.07,3.47,1.07l0.09,4.88c0,0,3.49-5.88,12.08-9.3
					C40.08,13.34,38.17,12.13,38.17,12.13z"/>
			</g>
			<g>
				<g>
					<path class="st16" d="M37.81,10.83c0,0-1.78-1.64-4.42-3.31c-2.64-1.68-8.8-6.09-8.79-5.93c0.21,6.98,13.43,9.94,13.43,9.94
						L37.81,10.83z"/>
					
						<linearGradient id="SVGID_13_" gradientUnits="userSpaceOnUse" x1="165.4683" y1="327.6607" x2="150.8082" y2="316.4327" gradientTransform="matrix(0.9547 -0.2978 0.2978 0.9547 -215.9862 -252.0868)">
						<stop  offset="0" style="stop-color:#A66000"/>
						<stop  offset="0.1142" style="stop-color:#AA6707"/>
						<stop  offset="0.2802" style="stop-color:#B67A1A"/>
						<stop  offset="0.4777" style="stop-color:#CA9A3A"/>
						<stop  offset="0.6979" style="stop-color:#E5C566"/>
						<stop  offset="0.7076" style="stop-color:#E6C768"/>
						<stop  offset="0.8926" style="stop-color:#CD9A3F"/>
						<stop  offset="1" style="stop-color:#BD7E26"/>
					</linearGradient>
					<path class="st17" d="M38.3,11.45c0.32,0.92-10.6-3.62-13.71-9.86c-0.53-0.01-1.26,1.14-1.42,1.85
						c-0.16,0.71-2.06,2.9-1.81,3.95c0.25,1.05,2.57,2.23,5.34,3.54c4.81,2.28,11.7,4.04,11.7,4.04L38.3,11.45z"/>
				</g>
				
					<linearGradient id="SVGID_14_" gradientUnits="userSpaceOnUse" x1="4558.4189" y1="1707.1429" x2="4574.3979" y2="1705.2859" gradientTransform="matrix(-0.9547 -0.2978 -0.2978 0.9547 4914.9199 -252.0868)">
					<stop  offset="0" style="stop-color:#BD7E26"/>
					<stop  offset="0.1769" style="stop-color:#CD9A3F"/>
					<stop  offset="0.4816" style="stop-color:#E6C768"/>
					<stop  offset="0.6289" style="stop-color:#D5A543"/>
					<stop  offset="0.7819" style="stop-color:#C68823"/>
					<stop  offset="0.9111" style="stop-color:#BD7610"/>
					<stop  offset="1" style="stop-color:#BA7009"/>
				</linearGradient>
				<path class="st18" d="M42.04,11.93c0,0,11.25,1.8,14.76,6.02c-2.59,0.78-3.43,1.19-3.43,1.19l0.08,4.88c0,0-3.7-5.76-12.4-8.88
					C40.17,13.2,42.04,11.93,42.04,11.93z"/>
				<g>
					<path class="st16" d="M42.08,10.83c0,0,1.78-1.64,4.42-3.31c2.64-1.68,8.8-6.09,8.79-5.93c-0.21,6.98-13.43,9.94-13.43,9.94
						L42.08,10.83z"/>
					
						<linearGradient id="SVGID_15_" gradientUnits="userSpaceOnUse" x1="4574.6738" y1="1703.0261" x2="4560.0137" y2="1691.7981" gradientTransform="matrix(-0.9547 -0.2978 -0.2978 0.9547 4914.9199 -252.0868)">
						<stop  offset="0" style="stop-color:#A66000"/>
						<stop  offset="0.1142" style="stop-color:#AA6707"/>
						<stop  offset="0.2802" style="stop-color:#B67A1A"/>
						<stop  offset="0.4777" style="stop-color:#CA9A3A"/>
						<stop  offset="0.6979" style="stop-color:#E5C566"/>
						<stop  offset="0.7076" style="stop-color:#E6C768"/>
						<stop  offset="0.8926" style="stop-color:#CD9A3F"/>
						<stop  offset="1" style="stop-color:#BD7E26"/>
					</linearGradient>
					<path class="st19" d="M41.58,11.45c-0.32,0.92,10.6-3.62,13.71-9.86c0.53-0.01,1.26,1.14,1.42,1.85
						c0.16,0.71,2.06,2.9,1.81,3.95c-0.25,1.05-2.57,2.23-5.34,3.54c-4.81,2.28-11.7,4.04-11.7,4.04L41.58,11.45z"/>
				</g>
			</g>
			
				<linearGradient id="SVGID_16_" gradientUnits="userSpaceOnUse" x1="-1159.7251" y1="-188.6109" x2="-1157.2704" y2="-194.806" gradientTransform="matrix(0.9438 -0.3307 0.3307 0.9438 1196.7847 -188.7027)">
				<stop  offset="0" style="stop-color:#BA7009"/>
				<stop  offset="0.1638" style="stop-color:#C58722"/>
				<stop  offset="0.5096" style="stop-color:#E3C061"/>
				<stop  offset="0.5478" style="stop-color:#E6C768"/>
				<stop  offset="0.8339" style="stop-color:#CD9A3F"/>
				<stop  offset="1" style="stop-color:#BD7E26"/>
			</linearGradient>
			<path class="st20" d="M37.25,10.35c0,0,1.27-0.21,2.72-0.3c0.98-0.06,2.91,0.09,2.91,0.09s-0.95,2.76-0.1,5.68
				c-1.5,0.89-4.83,0.55-5.41,0.31C38.31,15.12,38.07,11.47,37.25,10.35z"/>
		</g>
	</g>
</g>
</svg>
