<?xml version="1.0" encoding="utf-8"?>
<!-- Generator: Adobe Illustrator 24.2.0, SVG Export Plug-In . SVG Version: 6.00 Build 0)  -->
<svg version="1.1" id="Layer_1" xmlns="http://www.w3.org/2000/svg" xmlns:xlink="http://www.w3.org/1999/xlink" x="0px" y="0px"
	 viewBox="0 0 100 100" style="enable-background:new 0 0 100 100;" xml:space="preserve">
<style type="text/css">
	.st0{fill:#393130;}
	.st1{opacity:0.5;}
	.st2{fill:#363130;}
	.st3{fill:#AA0009;}
	.st4{fill:#5E5655;}
	.st5{fill:#595150;}
	.st6{opacity:0.5;fill:#393130;}
	.st7{opacity:0.8;fill:#595150;}
	.st8{fill:#0068C9;}
	.st9{fill:#FF0000;}
	.st10{fill:#FAFBFC;}
</style>
<g>
	<g>
		<path class="st0" d="M27.93,55.39l-7.65,33.88c0,0,8.52,7.01,27.33,7.92c18.81,0.91,31.22-4.83,31.22-4.83l-6.01-36.84
			L27.93,55.39z"/>
		<path class="st0" d="M27.93,55.39l-7.65,33.88c0,0,8.52,7.01,27.33,7.92c18.81,0.91,31.22-4.83,31.22-4.83l-6.01-36.84
			L27.93,55.39z"/>
		<g class="st1">
			<path class="st2" d="M29.09,83.8c2.09-10.39,4.29-21.67,5.59-28.38l-6.75-0.02l-7.65,33.88c0,0,4.73,3.88,14.91,6.24
				c-0.07-0.03-0.14-0.05-0.22-0.08C27.71,92.81,27.33,91.56,29.09,83.8z"/>
			<path class="st2" d="M72.82,55.52l-6.95-0.02c0.57,5.65,2.03,20.24,3.02,30.92c0.63,8.01-4.88,10.01-12.39,10.64
				c-0.44,0.04-0.82,0.09-1.17,0.15c14.41-0.64,23.5-4.85,23.5-4.85L72.82,55.52z"/>
		</g>
		<g class="st1">
			<path class="st0" d="M54.84,55.47l-10.87-0.03c-0.38,5.9-1.12,17.65-1.76,29.4c-0.35,6.01-1.28,9.36-2.45,11.57
				c2.39,0.37,5,0.65,7.85,0.79c3.71,0.18,7.18,0.1,10.35-0.14c-0.96-2.53-1.65-6.77-1.75-10.76C56.08,75.38,55.27,62.6,54.84,55.47
				z"/>
		</g>
		<g>
			<path class="st0" d="M49.99,87.81c0-6.77,0.45-24.58,0.65-32.35l-2.69-0.01c-0.09,5.02-0.3,16.75-0.59,25.84
				c-0.28,8.88-0.21,13.08-2.29,15.74c0.83,0.07,1.67,0.12,2.54,0.17c1.01,0.05,1.99,0.08,2.96,0.09
				C49.83,95.02,49.99,91.88,49.99,87.81z"/>
		</g>
		<g>
			<path class="st3" d="M73.47,59.49l-0.65-3.97l-44.89-0.13l-0.78,3.46C32.61,60.52,50.33,64.87,73.47,59.49z"/>
		</g>
		<g>
			<path class="st3" d="M37.58,55.42l-9.65-0.03l-0.78,3.46c1.91,0.58,5.32,1.5,9.95,2.21C37.2,59.17,37.34,57.29,37.58,55.42z"/>
			<path class="st3" d="M63.96,61.23c3.05-0.4,6.22-0.97,9.51-1.73l-0.65-3.97l-9.18-0.03C63.82,57.4,63.91,59.32,63.96,61.23z"/>
			<path class="st3" d="M47.77,55.45l-1.57,0c-0.18,2.17-0.29,4.33-0.36,6.51c0.56,0.03,1.13,0.05,1.71,0.08
				C47.54,59.84,47.58,57.64,47.77,55.45z"/>
			<path class="st3" d="M57.54,55.48l-5.31-0.01c-0.2,2.2-0.23,4.41-0.26,6.62c1.94-0.02,3.97-0.1,6.07-0.25
				C57.92,59.71,57.78,57.59,57.54,55.48z"/>
		</g>
		<path class="st4" d="M27.3,91.62c0,0,19.24,8.36,44.97,1.6C61.29,97.72,42.04,99.41,27.3,91.62z"/>
	</g>
	<path class="st0" d="M91.99,46.59c0,6.28-18.8,11.36-41.99,11.36c-23.19,0-41.99-5.09-41.99-11.36c0-6.28,18.8-11.36,41.99-11.36
		C73.19,35.23,91.99,40.32,91.99,46.59z"/>
	<path class="st5" d="M91.99,44.96c0,6.28-18.8,11.36-41.99,11.36c-23.19,0-41.99-5.09-41.99-11.36c0-6.28,18.8-11.36,41.99-11.36
		C73.19,33.6,91.99,38.68,91.99,44.96z"/>
	<path class="st0" d="M71.72,44.48c0,1.75-9.97,3.16-22.27,3.16c-12.3,0-22.27-1.41-22.27-3.16c0-1.75,9.97-3.16,22.27-3.16
		C61.75,41.33,71.72,42.74,71.72,44.48z"/>
	<g>
		<path class="st6" d="M68.74,46.06c-3.85-0.94-11.05-1.58-19.29-1.58c-8.24,0-15.44,0.64-19.29,1.58
			c3.85,0.94,11.05,1.58,19.29,1.58C57.69,47.64,64.89,47.01,68.74,46.06z"/>
	</g>
	<g>
		<path class="st7" d="M71.66,44.06c4.74-2.34,8.96-4.3,12.27-5.79c-2.89-1.07-6.45-2-10.51-2.74l-7.47,6.75
			C65.95,42.28,70.26,42.66,71.66,44.06z"/>
		<path class="st7" d="M62.65,41.9l3.7-7.41c-1.09-0.12-2.2-0.24-3.34-0.34l-3.41,7.49L62.65,41.9z"/>
		<path class="st7" d="M29.24,45.82l-15.37,4.93c2.05,0.94,4.58,1.78,7.5,2.52l14.29-6.3C33.28,46.7,29.24,45.82,29.24,45.82z"/>
		<path class="st7" d="M37.24,47.14l-11.06,7.18c1.72,0.32,3.53,0.61,5.42,0.86l7.92-7.86L37.24,47.14z"/>
	</g>
	<path class="st8" d="M65.08,4.47v2.84c1.94,1.7,3.17,4.19,3.17,6.97c0,5.12-4.16,9.28-9.28,9.28s-9.28-4.16-9.28-9.28
		c0-2.78,1.23-5.27,3.17-6.97V4.47c-3.28,2.05-5.47,5.67-5.47,9.81c0,6.38,5.19,11.57,11.57,11.57s11.57-5.19,11.57-11.57
		C70.55,10.14,68.36,6.51,65.08,4.47z"/>
	<path class="st8" d="M63.29,8.52V3.55c-1.04-0.42-2.15-0.69-3.32-0.79c-0.33-0.03-0.66-0.05-1-0.05s-0.67,0.02-1,0.05
		c-1.16,0.1-2.27,0.37-3.32,0.79v4.96c-1.76,1.32-2.9,3.4-2.9,5.77c0,3.98,3.24,7.21,7.22,7.21s7.22-3.24,7.22-7.21
		C66.19,11.92,65.04,9.83,63.29,8.52z M59.93,5.65c0,0.53-0.43,0.96-0.96,0.96s-0.96-0.43-0.96-0.96c0-0.24,0.1-0.45,0.24-0.62
		c0.18-0.2,0.42-0.34,0.71-0.34c0.29,0,0.54,0.14,0.71,0.34C59.83,5.2,59.93,5.41,59.93,5.65z M58.98,19.2
		c-2.71,0-4.92-2.21-4.92-4.92c0-2.71,2.21-4.92,4.92-4.92s4.92,2.21,4.92,4.92C63.9,16.99,61.69,19.2,58.98,19.2z"/>
	<path class="st9" d="M58.98,11.49c-1.54,0-2.79,1.25-2.79,2.79s1.25,2.79,2.79,2.79c1.54,0,2.79-1.25,2.79-2.79
		S60.52,11.49,58.98,11.49z"/>
	<circle class="st10" cx="44.68" cy="38.56" r="14.56"/>
	<path class="st8" d="M51.3,27.92V31c2.1,1.84,3.44,4.54,3.44,7.56c0,5.55-4.51,10.06-10.06,10.06S34.62,44.1,34.62,38.56
		c0-3.01,1.34-5.71,3.44-7.56v-3.08c-3.55,2.22-5.93,6.15-5.93,10.64c0,6.92,5.63,12.54,12.54,12.54s12.54-5.63,12.54-12.54
		C57.22,34.07,54.85,30.14,51.3,27.92z"/>
	<path class="st8" d="M49.36,32.31v-5.38c-1.13-0.45-2.33-0.75-3.59-0.86c-0.36-0.04-0.71-0.06-1.08-0.06s-0.73,0.02-1.08,0.06
		c-1.26,0.11-2.46,0.4-3.59,0.86v5.38c-1.9,1.43-3.14,3.69-3.14,6.25c0,4.31,3.51,7.82,7.82,7.82s7.82-3.51,7.82-7.82
		C52.5,36,51.25,33.74,49.36,32.31z M45.71,29.2c0,0.57-0.46,1.04-1.04,1.04c-0.57,0-1.04-0.46-1.04-1.04
		c0-0.26,0.11-0.49,0.26-0.67c0.19-0.21,0.45-0.37,0.77-0.37c0.31,0,0.58,0.15,0.77,0.37C45.61,28.71,45.71,28.94,45.71,29.2z
		 M44.68,43.89c-2.94,0-5.33-2.39-5.33-5.33c0-2.94,2.39-5.33,5.33-5.33s5.33,2.39,5.33,5.33C50.01,41.5,47.62,43.89,44.68,43.89z"
		/>
	<path class="st9" d="M44.68,35.53c-1.67,0-3.03,1.36-3.03,3.03s1.36,3.03,3.03,3.03s3.03-1.36,3.03-3.03S46.35,35.53,44.68,35.53z"
		/>
	<path class="st5" d="M72.15,47.49c-2.27-0.12-4.36-0.47-6.4-0.87c0,0,0.01,0,0.01,0c-4.07,0.62-9.86,1.02-16.31,1.02
		c-8.24,0-15.44-0.64-19.29-1.58c0.89-0.22,1.98-0.42,3.2-0.6c-8.02,0.6-16.03,1.42-24.04,2.26c4.57,4.94,21.03,8.59,40.68,8.59
		c19.36,0,35.62-3.55,40.47-8.37C84.35,47.88,78.22,47.82,72.15,47.49z"/>
</g>
</svg>
