<?xml version="1.0" encoding="utf-8"?>
<!-- Generator: Adobe Illustrator 24.2.0, SVG Export Plug-In . SVG Version: 6.00 Build 0)  -->
<svg version="1.1" id="Layer_1" xmlns="http://www.w3.org/2000/svg" xmlns:xlink="http://www.w3.org/1999/xlink" x="0px" y="0px"
	 viewBox="0 0 100 100" style="enable-background:new 0 0 100 100;" xml:space="preserve">
<style type="text/css">
	.st0{fill:#E5D9AB;}
	.st1{fill:#CEC199;}
	.st2{fill:none;stroke:#6E6045;stroke-width:0.701;stroke-linecap:round;stroke-linejoin:round;stroke-miterlimit:10;}
	.st3{fill:#6E6045;}
	.st4{fill:#F2E8C7;}
	.st5{fill:#FAFBFC;}
	.st6{fill:#0068C9;}
	.st7{fill:#FF0000;}
</style>
<g>
	<g>
		<path class="st0" d="M64,15.15c0.67-0.74,1.41-1.56,1.43-2.56c0.02-0.77-0.39-1.48-0.82-2.11c-1.71-2.53-3.98-4.68-6.61-6.24
			c-1.78-1.06-4.27-1.76-5.75-0.32c-0.74,0.72-1.28,1.97-2.31,1.88c-0.61-0.05-1.05-0.59-1.49-1.01c-2.29-2.16-5.89-1.83-9-1.35
			c-0.58,0.09-1.19,0.19-1.67,0.52c-1.33,0.91-1.08,2.89-1.16,4.5c-0.01,0.3-0.06,0.63-0.26,0.85c-0.2,0.22-0.51,0.29-0.79,0.35
			c-2,0.43-4,0.86-6,1.28c-0.71,0.15-1.47,0.32-2,0.82c-1.12,1.04-0.75,2.88-0.14,4.28c3.12,7.18,10.08,12.09,13.42,19.17
			c0.45,0.94,0.84,1.94,1.58,2.68c1.36,1.37,4.6,2.35,6.48,1.77c1.84-0.57,2.05-2.77,2.67-4.38c1.84-4.78,4.26-9.34,7.18-13.54
			C60.36,19.44,62.11,17.23,64,15.15z"/>
		<path class="st1" d="M38.4,6.32c-0.03,1.13,0.19,2.25,0.34,3.36c0.15,1.12,0.22,2.28-0.11,3.36c-0.66-1.24-1.31-2.47-1.97-3.71
			c-0.07-0.12-0.13-0.25-0.16-0.38c-0.03-0.15-0.02-0.31,0-0.47c0.09-0.88,0.18-1.77,0.26-2.65c0.03-0.28,0.06-0.56,0.15-0.82
			c0.13-0.35,0.36-0.66,0.64-0.9c0.34-0.3,1.58-1.19,1.49-0.28C39,4.19,38.69,4.6,38.59,4.96C38.47,5.4,38.41,5.86,38.4,6.32z"/>
		<path class="st1" d="M54.28,6.29c0.15,1.09,0.49,2.14,0.68,3.22c0.6,3.34-0.34,6.91-2.49,9.53c0.3-4.56-0.41-9.17-1.88-13.5
			c0.43-0.05,0.77-0.38,1.01-0.73c0.24-0.35,0.44-0.75,0.75-1.04c0.36-0.34,1.87-1.04,2.17-0.34c0.11,0.26-0.24,1.02-0.28,1.33
			C54.19,5.26,54.22,5.78,54.28,6.29z"/>
		<path class="st1" d="M52,22.69c0.32-1.01,0.7-2.02,0.78-3.07c-0.87,0.16-1.46,0.97-1.87,1.75c-1.13,2.16-1.58,4.61-1.87,7.03
			c-0.07,0.56-0.13,1.13-0.39,1.63c-0.56,1.06-1.86,1.47-3.04,1.72c-0.17,0.04-0.37,0.07-0.52-0.02c-0.14-0.09-0.21-0.25-0.26-0.41
			c-1.19-3.39-1.87-6.93-2.91-10.36c-0.66-2.17-1.46-4.3-2.39-6.37c-0.11-0.25-0.25-0.53-0.51-0.63c-0.34,0.81-0.12,1.73,0.1,2.58
			c0.9,3.45,1.8,6.89,2.7,10.34c0.24,0.9,0.47,1.82,0.47,2.76s-0.27,1.91-0.92,2.58c-0.26,0.26-0.56,0.47-0.79,0.76
			c-0.23,0.29-0.37,0.69-0.22,1.02c0.1,0.23,0.31,0.38,0.52,0.51c1.26,0.78,2.76,1.07,4.23,1.23c1.43,0.15,2.92,0.19,4.25-0.34
			c1.08-0.43,1.32-1.05,1.08-2.07c-0.25-1.08-0.08-2.25,0.04-3.36C50.73,27.48,51.25,25.04,52,22.69z"/>
		<path class="st2" d="M64,15.15c0.67-0.74,1.41-1.56,1.43-2.56c0.02-0.77-0.39-1.48-0.82-2.11c-1.71-2.53-3.98-4.68-6.61-6.24
			c-1.78-1.06-4.27-1.76-5.75-0.32c-0.74,0.72-1.28,1.97-2.31,1.88c-0.61-0.05-1.05-0.59-1.49-1.01c-2.29-2.16-5.89-1.83-9-1.35
			c-0.58,0.09-1.19,0.19-1.67,0.52c-1.33,0.91-1.08,2.89-1.16,4.5c-0.01,0.3-0.06,0.63-0.26,0.85c-0.2,0.22-0.51,0.29-0.79,0.35
			c-2,0.43-4,0.86-6,1.28c-0.71,0.15-1.47,0.32-2,0.82c-1.12,1.04-0.75,2.88-0.14,4.28c3.12,7.18,10.08,12.09,13.42,19.17
			c0.45,0.94,0.84,1.94,1.58,2.68c1.36,1.37,4.6,2.35,6.48,1.77c1.84-0.57,2.05-2.77,2.67-4.38c1.84-4.78,4.26-9.34,7.18-13.54
			C60.36,19.44,62.11,17.23,64,15.15z"/>
		<path class="st0" d="M43.3,34.25c-8.67,0.53-15.16,7.23-16.72,15.57c-0.82,4.36-0.99,8.93-2.87,12.95
			c-1.08,2.31-2.69,4.34-3.87,6.61c-1.18,2.27-1.91,4.95-1.09,7.37c0.5,1.45,1.54,2.87,1.14,4.35c-0.21,0.75-0.74,1.65-0.19,2.2
			c0.29,0.28,0.74,0.29,1.15,0.31c1.3,0.08,2.54,0.58,3.76,1.05c7.32,2.83,15.04,4.81,22.88,5.09c7.85,0.28,15.85-1.21,22.73-4.98
			c1.49-0.82,3.11-1.77,4.77-1.39c0.24,0.06,0.54,0.13,0.71-0.05c0.15-0.16,0.11-0.41,0.06-0.63c-1.13-4.81-2.26-9.62-3.38-14.43
			c-0.61-2.59-1.22-5.19-2.22-7.65c-1.69-4.16-4.48-7.87-5.75-12.18c-0.82-2.77-1.02-5.82-2.68-8.2c-1.56-2.24-4.16-3.5-6.75-4.36
			C51.24,34.62,47.25,34.02,43.3,34.25z"/>
		<g>
			<path class="st1" d="M27.47,82.23c0.05-0.52,0.2-1.06-0.02-1.53c-0.12-0.26-0.34-0.47-0.46-0.73c-0.24-0.52-0.07-1.12,0.07-1.68
				c0.24-0.99,0.32-2.01,0.25-3.03c-0.01-0.17-0.03-0.34-0.13-0.48c-0.13-0.19-0.38-0.26-0.59-0.37c-0.21-0.1-0.42-0.31-0.37-0.54
				c0.07-0.29,0.46-0.33,0.71-0.49c0.36-0.24,0.39-0.74,0.38-1.17c-0.02-1.16-0.03-2.32-0.05-3.48c-0.01-0.39-0.02-0.79-0.21-1.13
				c-0.14-0.24-0.37-0.42-0.5-0.66c-0.19-0.34-0.17-0.75-0.14-1.14c0.08-1.18-0.42-2.03-1.66-1.74c-0.68,0.16-1.34,0.34-2,0.49
				c-0.95,1.62-2.05,3.16-2.92,4.83c-1.18,2.27-1.91,4.95-1.09,7.37c0.5,1.45,1.54,2.87,1.14,4.35c-0.21,0.75-0.74,1.65-0.19,2.2
				c0.29,0.28,0.74,0.29,1.15,0.31c1.3,0.08,2.54,0.58,3.76,1.05c1.52,0.59,3.07,1.14,4.62,1.65c-0.21-0.48-0.64-0.87-0.96-1.29
				C27.67,84.23,27.38,83.21,27.47,82.23z"/>
		</g>
		<g>
			<path class="st1" d="M70.22,84.77c1.49-0.82,3.11-1.77,4.77-1.39c0.24,0.06,0.54,0.13,0.71-0.05c0.15-0.16,0.11-0.41,0.06-0.63
				c-1.13-4.81-2.26-9.62-3.38-14.43c-0.61-2.59-1.22-5.19-2.22-7.65c-1.69-4.16-4.48-7.87-5.75-12.18
				c-0.82-2.77-1.02-5.82-2.68-8.2c-1.56-2.24-4.16-3.5-6.75-4.36c-1.72-0.57-3.49-1.01-5.28-1.29c-0.28,0.66,0.55,1.42,1.26,1.94
				c0.95,0.69,1.86,1.6,2.98,2.09c0.49,0.22,0.92,0.23,1.32,0.2c0.82-0.07,1.53-0.34,2.36,0.41c2.41,2.17,4.13,5.1,4.84,8.26
				c0.48,2.13,0.53,4.37,1.35,6.39c0.74,1.81,2.06,3.31,3.13,4.95c1.07,1.64,1.93,3.59,1.56,5.51c-0.37,1.94-1.9,3.46-2.61,5.31
				c-1.29,3.4,0.38,7.42-1.06,10.76c-1.08,2.5-3.69,4-6.3,4.8c-8.73,2.69-18.29-0.66-27.26,1.06c-0.34,0.07-0.71,0.19-1.05,0.36
				c5.61,1.75,11.4,2.92,17.26,3.13C55.34,90.03,63.34,88.54,70.22,84.77z"/>
		</g>
		<path class="st1" d="M37.61,37.49c-0.14,0.13-0.83,0.77-0.61,0.97c0.47,0.45,2.2-0.98,2.58-1.26c0.85-0.61,1.7-1.26,2.71-1.59
			c-0.05,0-0.89,1.66-0.86,1.77c0.26,0.09,0.39,0.05,0.57-0.14c0.16-0.17,0.32-0.37,0.55-0.38c0.03,0.4-0.17,0.77-0.33,1.14
			c-0.14,0.32-1,3.26-0.1,2.89c0.39-0.16,0.58-1.66,0.71-2.05c0.12-0.35,0.26-0.7,0.43-1.02c0.06-0.12,0.61-0.76,0.6-0.83
			c0.08,0.37,0.16,0.74,0.25,1.11c0.02,0.1,0.05,0.21,0.13,0.27c0.2,0.15,0.46-0.14,0.49-0.38c0.04-0.25,0.03-0.56,0.25-0.68
			c0.16-0.09,0.36-0.03,0.5,0.09c0.13,0.12,0.2,0.3,0.27,0.46c0.54,1.39,0.95,2.91,2.01,3.96c0.4-1.27-0.42-2.62-0.36-3.95
			c0.03-0.74,0.55,0,0.74,0.18c0.11,0.1,0.26,0.17,0.39,0.13c0.29-0.11,0.29-0.75,0.69-0.6c0.06,0.02,0.12,0.07,0.17,0.11
			c1.14,0.92,2.34,1.76,3.59,2.51c0.3,0.18,0.61,0.35,0.95,0.38c0.07,0.01,0.15,0,0.19-0.05c0.05-0.05,0.04-0.13,0.03-0.2
			c-0.09-0.64-0.5-1.2-0.98-1.62c-0.48-0.42-1.05-0.74-1.61-1.07c-0.29-0.18-0.59-0.37-0.76-0.66c-0.11-0.19-0.16-0.41-0.27-0.61
			c-0.38-0.68-1.3-0.8-2.09-0.84c-1.65-0.09-3.3-0.17-4.95-0.26c-0.53-0.03-1.06-0.06-1.57-0.21c-0.84-0.26-1.57-0.59-2.13,0.26
			C39.26,36.18,38.35,36.8,37.61,37.49z"/>
		<path class="st3" d="M39.86,33.08c0.22-0.11,0.46-0.14,0.7-0.15c0.76-0.04,1.52,0.12,2.27,0.23c3.12,0.42,6.27-0.27,9.4-0.68
			c0.2-0.03,0.41-0.05,0.61,0c0.61,0.14,0.88,0.87,0.93,1.5c0.05,0.53,0.02,1.1-0.26,1.56c-0.31,0.51-0.88,0.8-1.45,0.98
			c-1.93,0.61-4.02,0.22-6.04,0.15c-1.14-0.04-2.29,0.02-3.43-0.13c-0.68-0.09-1.34-0.26-2-0.44c-0.43-0.12-1.22-0.22-1.49-0.63
			C38.68,34.79,39.21,33.39,39.86,33.08z"/>
		<path class="st4" d="M31.63,42.24c-2.66,3.9-2.46,9.03-4.1,13.45c-0.57,1.55-1.38,3.02-1.75,4.63c-0.12,0.52-0.11,1.21,0.38,1.42
			c0.3,0.13,0.67-0.01,0.91-0.24c0.23-0.24,0.36-0.55,0.49-0.86c1.19-2.89,2.64-5.66,4.1-8.43c1.24-2.37,2.57-4.83,4.78-6.33
			c0.67-0.45,1.41-0.81,2-1.37c0.73-0.69,1.17-1.68,1.21-2.69c0-0.13,0-0.27-0.06-0.39c-0.07-0.14-0.19-0.23-0.33-0.3
			c-0.57-0.27-1.24-0.08-1.86,0.03c-0.59,0.1-1.37,0.05-1.69-0.54c-0.33-0.6,0.29-1.36-0.61-1.53C33.86,38.87,32.2,41.4,31.63,42.24
			z"/>
		<path class="st4" d="M46.5,40.59c0.32,0.58,0.76,1.1,1.27,1.52c0.08,0.07,0.18,0.16,0.16,0.26c-0.02,0.12-0.16,0.17-0.28,0.16
			c-0.16-0.02-0.3-0.11-0.43-0.21c-0.25-0.2-0.45-0.45-0.66-0.7c-0.44-0.54-0.9-1.1-1.09-1.76c-0.07-0.25-0.11-0.5-0.1-0.76
			c0-0.12,0.02-0.24,0.11-0.32c0.3-0.24,0.45,0.5,0.5,0.63C46.13,39.82,46.29,40.22,46.5,40.59z"/>
		<path class="st4" d="M52.15,40.13c0.51,0.22,1.05,0.39,1.48,0.75c0.06,0.05,0.12,0.11,0.12,0.19c0.01,0.08-0.06,0.16-0.14,0.19
			c-0.08,0.03-0.17,0.03-0.25,0.02c-0.85-0.07-1.62-0.51-2.34-0.97c-0.3-0.2-0.61-0.4-0.86-0.66c-0.2-0.21-0.37-0.45-0.47-0.73
			c-0.06-0.19-0.1-0.56,0.21-0.37c0.24,0.14,0.44,0.41,0.66,0.59c0.23,0.19,0.47,0.36,0.72,0.52
			C51.55,39.83,51.84,39.99,52.15,40.13z"/>
		<path class="st4" d="M40.99,37.62c0.02,0.15,0.14,0.3,0.3,0.3c0.13,0,0.26-0.11,0.39-0.07c0.09,0.02,0.15,0.11,0.17,0.2
			c0.02,0.09,0.01,0.18-0.01,0.27c-0.09,0.62-0.19,1.24-0.28,1.87c-0.03,0.17-0.06,0.36-0.19,0.47c-0.04,0.03-0.09,0.06-0.14,0.05
			c-0.08-0.02-0.11-0.12-0.12-0.21c-0.04-0.59,0.19-1.16,0.2-1.75c0-0.08,0-0.16-0.04-0.24c-0.07-0.14-0.24-0.19-0.37-0.28
			c-0.2-0.12-0.35-0.35-0.34-0.59c0.01-0.19,0.13-0.38,0.31-0.45C41.16,37.06,40.96,37.45,40.99,37.62z"/>
		<path class="st2" d="M43.3,34.25c-8.67,0.53-15.16,7.23-16.72,15.57c-0.82,4.36-0.99,8.93-2.87,12.95
			c-1.08,2.31-2.69,4.34-3.87,6.61c-1.18,2.27-1.91,4.95-1.09,7.37c0.5,1.45,1.54,2.87,1.14,4.35c-0.21,0.75-0.74,1.65-0.19,2.2
			c0.29,0.28,0.74,0.29,1.15,0.31c1.3,0.08,2.54,0.58,3.76,1.05c7.32,2.83,15.04,4.81,22.88,5.09c7.85,0.28,15.85-1.21,22.73-4.98
			c1.49-0.82,3.11-1.77,4.77-1.39c0.24,0.06,0.54,0.13,0.71-0.05c0.15-0.16,0.11-0.41,0.06-0.63c-1.13-4.81-2.26-9.62-3.38-14.43
			c-0.61-2.59-1.22-5.19-2.22-7.65c-1.69-4.16-4.48-7.87-5.75-12.18c-0.82-2.77-1.02-5.82-2.68-8.2c-1.56-2.24-4.16-3.5-6.75-4.36
			C51.24,34.62,47.25,34.02,43.3,34.25z"/>
		<path class="st2" d="M36.37,9.32c0,0,2.88,3.55,3.28,7.13c0.39,3.58,4,10.51,3.43,17.83"/>
		<path class="st2" d="M50.57,5.69c0,0,3.65,10.49,1.13,16.11c0,0-2.35,7.5-2.35,12.41"/>
		<g>
			<path class="st3" d="M41.32,36.15c-1.5,0.71-2.88,1.81-3.96,3.19c-0.09,0.11-0.25,0.14-0.37,0.05c-0.1-0.08-0.13-0.21-0.08-0.32
				c0.79-1.66,1.98-3.16,3.5-4.35l0.01-0.01c0.37-0.29,0.91-0.23,1.2,0.15c0.29,0.37,0.23,0.91-0.15,1.2
				C41.43,36.09,41.38,36.12,41.32,36.15z"/>
		</g>
		<g>
			<path class="st3" d="M44.56,36.06c-1.41,1.86-2.43,4.09-2.91,6.49c-0.01,0.05-0.06,0.09-0.12,0.08c-0.05-0.01-0.08-0.05-0.08-0.1
				c-0.02-2.48,0.53-5.01,1.65-7.35l0-0.01c0.2-0.43,0.71-0.61,1.14-0.4s0.61,0.71,0.4,1.14C44.63,35.96,44.59,36.02,44.56,36.06z"
				/>
		</g>
		<g>
			<path class="st3" d="M46.61,35.59c0.82,2.67,1.37,5.41,1.66,8.16c0.02,0.17-0.11,0.32-0.27,0.34c-0.16,0.02-0.3-0.09-0.33-0.23
				c-0.64-2.65-1.53-5.22-2.65-7.66c-0.2-0.43-0.01-0.93,0.42-1.13s0.93-0.01,1.13,0.42C46.59,35.52,46.6,35.56,46.61,35.59z"/>
		</g>
		<g>
			<path class="st3" d="M49.63,35.26c0.86,1.2,1.71,2.38,2.65,3.48c0.47,0.55,0.96,1.08,1.48,1.58c0.53,0.49,1.06,1,1.67,1.27
				l0.01,0c0.12,0.05,0.18,0.2,0.12,0.32c-0.05,0.11-0.17,0.17-0.29,0.14c-0.79-0.23-1.4-0.7-2.02-1.12
				c-0.62-0.44-1.2-0.92-1.76-1.42c-1.13-1-2.16-2.09-3.18-3.16c-0.32-0.34-0.31-0.88,0.03-1.21c0.34-0.32,0.88-0.31,1.21,0.03
				C49.59,35.2,49.61,35.23,49.63,35.26z"/>
		</g>
		<g>
			<path class="st3" d="M52.03,34.93c2.24,1.47,4.31,3.17,6.17,5.06c0.11,0.11,0.11,0.29,0,0.41c-0.1,0.1-0.26,0.11-0.38,0.02
				c-2.07-1.58-4.3-2.92-6.62-4c-0.43-0.2-0.61-0.71-0.41-1.13s0.71-0.61,1.13-0.41C51.96,34.89,52,34.91,52.03,34.93z"/>
		</g>
		<g>
			<path class="st3" d="M49.51,34.21c0.56-2.24,1.39-4.38,2.45-6.38c0.05-0.1,0.18-0.14,0.28-0.09c0.09,0.05,0.13,0.15,0.1,0.24
				c-0.65,2.13-1.03,4.31-1.15,6.48c-0.03,0.47-0.43,0.83-0.9,0.81c-0.47-0.03-0.83-0.43-0.81-0.9
				C49.49,34.33,49.5,34.27,49.51,34.21L49.51,34.21z"/>
		</g>
		<g>
			<path class="st3" d="M40.97,33.67c0.3-1.76,0.4-3.59,0.27-5.41c-0.01-0.17,0.12-0.32,0.29-0.34c0.15-0.01,0.29,0.09,0.33,0.23
				c0.49,1.82,0.77,3.71,0.81,5.64l0,0.01c0.01,0.47-0.36,0.86-0.83,0.87c-0.47,0.01-0.86-0.36-0.87-0.83
				C40.96,33.78,40.96,33.73,40.97,33.67z"/>
		</g>
		<g>
			<path class="st3" d="M47.13,34.6c0.28-2.64,0.86-5.22,1.72-7.68c0.05-0.15,0.22-0.23,0.37-0.18c0.14,0.05,0.22,0.19,0.19,0.33
				c-0.49,2.52-0.68,5.07-0.58,7.59c0.02,0.47-0.35,0.87-0.82,0.89c-0.47,0.02-0.87-0.35-0.89-0.82
				C47.13,34.68,47.13,34.64,47.13,34.6z"/>
		</g>
		<g>
			<path class="st3" d="M43.42,34.12c0.52-2.52,0.52-5.2-0.03-7.81c-0.02-0.11,0.05-0.22,0.16-0.25c0.1-0.02,0.2,0.04,0.24,0.13
				c0.98,2.54,1.44,5.33,1.32,8.13l0,0.01c-0.02,0.47-0.42,0.84-0.89,0.82s-0.84-0.42-0.82-0.89C43.4,34.21,43.41,34.16,43.42,34.12
				z"/>
		</g>
		<path class="st1" d="M39.12,23.85c-0.11-0.33-0.34-0.72-0.67-0.66c-0.02,0.99,0.42,1.92,0.67,2.88c0.33,1.26,0.32,2.56,0.41,3.85
			c0.03,0.4-0.05,1.15,0.36,1.39c0.26,0.15,0.57,0.07,0.72-0.17c0.22-0.33-0.01-1.32-0.05-1.71c-0.07-0.66-0.2-1.32-0.35-1.97
			C39.92,26.24,39.52,25.04,39.12,23.85z"/>
		<path class="st1" d="M53.94,24.76c0.31-0.67,0.82-1.42,1.55-1.38c0.05,0.53-0.32,0.99-0.61,1.43c-1.22,1.84-1.4,4.15-1.92,6.3
			c-0.11,0.45-0.64,1.29-1.04,0.55c-0.27-0.5,0.24-1.77,0.37-2.3C52.69,27.77,53.25,26.23,53.94,24.76z"/>
		<path class="st4" d="M51.34,12.13c0.35,1.75,0.42,3.58-0.05,5.29c-0.2,0.74-0.69,1.59-1.46,1.55c-0.2-1.83,0-3.68-0.11-5.52
			s-0.59-3.75-1.89-5.05c-0.35-0.35-0.75-0.65-1.05-1.03c-0.31-0.38-0.52-0.89-0.4-1.37c0.06-0.25,0.23-0.49,0.48-0.54
			c0.32-0.07,0.61,0.19,0.8,0.45c0.19,0.26,0.36,0.57,0.66,0.7c0.49,0.22,1.05-0.05,1.45,0.41c0.29,0.33,0.39,1.06,0.54,1.46
			C50.71,9.68,51.09,10.89,51.34,12.13z"/>
		<path class="st4" d="M29.56,11.7c-0.31,0.12-0.6,0.29-0.82,0.54c-0.35,0.39-0.5,0.93-0.48,1.45c0.02,0.52,0.18,1.03,0.37,1.51
			c0.24,0.6,0.53,1.17,0.87,1.71c0.16,0.25,0.39,0.52,0.68,0.46c0.11-0.53,0.03-1.07-0.07-1.6c-0.1-0.53-0.21-1.07-0.15-1.6
			c0.07-0.53,0.34-1.07,0.83-1.3c0.3-0.14,0.65-0.15,0.96-0.26c0.31-0.12,0.61-0.42,0.53-0.74c-0.05-0.23-0.28-0.38-0.51-0.42
			C31.1,11.33,30.19,11.45,29.56,11.7z"/>
	</g>
	<g>
		<circle class="st5" cx="25.61" cy="79.66" r="15.26"/>
		<g>
			<path class="st6" d="M32.55,68.51v3.23c2.21,1.93,3.61,4.76,3.61,7.92c0,5.81-4.73,10.55-10.55,10.55s-10.55-4.73-10.55-10.55
				c0-3.16,1.4-5.99,3.61-7.92v-3.23c-3.72,2.32-6.21,6.45-6.21,11.15c0,7.25,5.9,13.15,13.15,13.15s13.15-5.9,13.15-13.15
				C38.76,74.96,36.27,70.84,32.55,68.51z"/>
			<path class="st6" d="M30.52,73.11v-5.64c-1.19-0.47-2.45-0.79-3.77-0.9c-0.37-0.04-0.75-0.06-1.14-0.06
				c-0.39,0-0.76,0.02-1.14,0.06c-1.32,0.11-2.58,0.42-3.77,0.9v5.64c-2,1.5-3.29,3.87-3.29,6.55c0,4.52,3.68,8.2,8.2,8.2
				s8.2-3.68,8.2-8.2C33.81,76.98,32.5,74.61,30.52,73.11z M26.7,69.85c0,0.6-0.49,1.09-1.09,1.09c-0.6,0-1.09-0.49-1.09-1.09
				c0-0.27,0.11-0.51,0.27-0.7c0.2-0.22,0.47-0.39,0.81-0.39c0.32,0,0.61,0.16,0.81,0.39C26.59,69.34,26.7,69.58,26.7,69.85z
				 M25.61,85.25c-3.08,0-5.59-2.51-5.59-5.59c0-3.08,2.51-5.59,5.59-5.59s5.59,2.51,5.59,5.59C31.21,82.75,28.7,85.25,25.61,85.25z
				"/>
			<path class="st7" d="M25.61,76.49c-1.75,0-3.17,1.42-3.17,3.18s1.42,3.17,3.17,3.17c1.75,0,3.17-1.42,3.17-3.17
				S27.37,76.49,25.61,76.49z"/>
		</g>
	</g>
	<g>
		<circle class="st5" cx="75.91" cy="74.24" r="13.74"/>
		<g>
			<path class="st6" d="M82.16,64.2v2.91c1.99,1.74,3.25,4.29,3.25,7.13c0,5.23-4.26,9.49-9.49,9.49s-9.49-4.26-9.49-9.49
				c0-2.84,1.26-5.39,3.25-7.13V64.2c-3.35,2.09-5.59,5.8-5.59,10.04c0,6.53,5.31,11.84,11.84,11.84c6.53,0,11.84-5.31,11.84-11.84
				C87.75,70.01,85.51,66.3,82.16,64.2z"/>
			<path class="st6" d="M80.33,68.34v-5.08c-1.07-0.43-2.2-0.71-3.39-0.81c-0.34-0.03-0.67-0.06-1.02-0.06
				c-0.35,0-0.69,0.02-1.02,0.06c-1.19,0.1-2.33,0.38-3.39,0.81v5.08c-1.8,1.35-2.97,3.48-2.97,5.9c0,4.07,3.31,7.38,7.38,7.38
				s7.38-3.31,7.38-7.38C83.29,71.83,82.11,69.69,80.33,68.34z M76.89,65.41c0,0.54-0.44,0.98-0.98,0.98
				c-0.54,0-0.98-0.44-0.98-0.98c0-0.25,0.1-0.46,0.25-0.63c0.18-0.2,0.43-0.35,0.73-0.35c0.29,0,0.55,0.15,0.73,0.35
				C76.79,64.95,76.89,65.17,76.89,65.41z M75.91,79.27c-2.77,0-5.03-2.26-5.03-5.03c0-2.77,2.26-5.03,5.03-5.03
				c2.77,0,5.03,2.26,5.03,5.03C80.95,77.02,78.69,79.27,75.91,79.27z"/>
			<path class="st7" d="M75.91,71.38c-1.58,0-2.86,1.28-2.86,2.86c0,1.58,1.28,2.86,2.86,2.86c1.58,0,2.86-1.28,2.86-2.86
				C78.77,72.66,77.49,71.38,75.91,71.38z"/>
		</g>
	</g>
	<g>
		<circle class="st5" cx="48.99" cy="79.86" r="17.05"/>
		<g>
			<path class="st6" d="M56.74,67.4v3.61c2.46,2.16,4.03,5.32,4.03,8.85c0,6.5-5.29,11.78-11.78,11.78s-11.78-5.29-11.78-11.78
				c0-3.53,1.57-6.69,4.03-8.85V67.4c-4.16,2.6-6.94,7.2-6.94,12.46c0,8.1,6.59,14.69,14.69,14.69s14.69-6.59,14.69-14.69
				C63.69,74.6,60.9,70,56.74,67.4z"/>
			<path class="st6" d="M54.47,72.54v-6.3c-1.32-0.53-2.73-0.88-4.21-1c-0.42-0.04-0.84-0.07-1.27-0.07s-0.85,0.03-1.27,0.07
				c-1.48,0.13-2.89,0.47-4.21,1v6.3c-2.23,1.67-3.68,4.32-3.68,7.32c0,5.05,4.11,9.16,9.16,9.16s9.16-4.11,9.16-9.16
				C58.15,76.86,56.69,74.21,54.47,72.54z M50.21,68.9c0,0.67-0.54,1.21-1.21,1.21s-1.21-0.54-1.21-1.21c0-0.31,0.13-0.57,0.31-0.78
				c0.22-0.25,0.53-0.43,0.91-0.43c0.36,0,0.68,0.18,0.91,0.43C50.08,68.33,50.21,68.59,50.21,68.9z M48.99,86.11
				c-3.44,0-6.25-2.8-6.25-6.25c0-3.44,2.8-6.25,6.25-6.25s6.25,2.8,6.25,6.25C55.24,83.3,52.44,86.11,48.99,86.11z"/>
			<path class="st7" d="M48.99,76.31c-1.96,0-3.55,1.59-3.55,3.55s1.59,3.55,3.55,3.55s3.55-1.59,3.55-3.55S50.95,76.31,48.99,76.31
				z"/>
		</g>
	</g>
</g>
</svg>
