<?xml version="1.0" encoding="utf-8"?>
<!-- Generator: Adobe Illustrator 24.2.0, SVG Export Plug-In . SVG Version: 6.00 Build 0)  -->
<svg version="1.1" id="Layer_1" xmlns="http://www.w3.org/2000/svg" xmlns:xlink="http://www.w3.org/1999/xlink" x="0px" y="0px"
	 viewBox="0 0 100 100" style="enable-background:new 0 0 100 100;" xml:space="preserve">
<style type="text/css">
	.st0{fill:#FAFBFC;}
	.st1{fill:#0068C9;}
	.st2{fill:#FF0000;}
	.st3{fill:#5E3925;}
	.st4{fill:#84553B;}
	.st5{fill:#8D5C41;}
	.st6{fill:#8B6A55;}
	.st7{fill:#735745;}
	.st8{fill:#754A33;}
	.st9{fill:#7E5039;}
	.st10{opacity:0.61;fill:#9D9FA1;}
	.st11{fill:url(#SVGID_1_);}
	.st12{fill:#74767A;}
	.st13{fill:#CBCCD1;}
	.st14{fill:#FFFFFF;}
	.st15{fill:url(#SVGID_2_);}
	.st16{fill:url(#SVGID_3_);}
	.st17{fill:#394855;}
	.st18{fill:#28292E;}
	.st19{fill:url(#SVGID_4_);}
	.st20{fill:url(#SVGID_5_);}
	.st21{fill:#535B65;}
	.st22{fill:url(#SVGID_6_);}
	.st23{fill:#D7BC6D;}
</style>
<g>
	<circle class="st0" cx="50.9" cy="11.44" r="8.36"/>
	<g>
		<path class="st1" d="M54.7,5.33V7.1c1.21,1.06,1.98,2.61,1.98,4.34c0,3.19-2.59,5.78-5.78,5.78s-5.78-2.59-5.78-5.78
			c0-1.73,0.77-3.28,1.98-4.34V5.33c-2.04,1.27-3.4,3.53-3.4,6.11c0,3.97,3.23,7.21,7.21,7.21s7.21-3.23,7.21-7.21
			C58.1,8.86,56.74,6.61,54.7,5.33z"/>
		<path class="st1" d="M53.59,7.85V4.76c-0.65-0.26-1.34-0.43-2.06-0.49c-0.21-0.02-0.41-0.03-0.62-0.03
			c-0.21,0-0.42,0.01-0.62,0.03c-0.72,0.06-1.42,0.23-2.06,0.49v3.09c-1.09,0.82-1.81,2.12-1.81,3.59c0,2.48,2.02,4.49,4.49,4.49
			c2.48,0,4.49-2.02,4.49-4.49C55.39,9.97,54.67,8.67,53.59,7.85z M51.49,6.07c0,0.33-0.27,0.59-0.59,0.59S50.3,6.4,50.3,6.07
			c0-0.15,0.06-0.28,0.15-0.38c0.11-0.12,0.26-0.21,0.44-0.21c0.18,0,0.34,0.09,0.44,0.21C51.43,5.79,51.49,5.92,51.49,6.07z
			 M50.9,14.5c-1.69,0-3.06-1.37-3.06-3.06c0-1.69,1.37-3.06,3.06-3.06c1.69,0,3.06,1.37,3.06,3.06
			C53.96,13.13,52.59,14.5,50.9,14.5z"/>
		<path class="st2" d="M50.9,9.7c-0.96,0-1.74,0.78-1.74,1.74s0.78,1.74,1.74,1.74s1.74-0.78,1.74-1.74S51.86,9.7,50.9,9.7z"/>
	</g>
</g>
<g>
	<g>
		<circle class="st0" cx="65.01" cy="18.25" r="10.7"/>
		<g>
			<path class="st1" d="M69.87,10.44v2.26c1.55,1.36,2.53,3.34,2.53,5.55c0,4.08-3.32,7.39-7.39,7.39c-4.08,0-7.39-3.32-7.39-7.39
				c0-2.21,0.98-4.2,2.53-5.55v-2.26c-2.61,1.63-4.36,4.52-4.36,7.82c0,5.08,4.14,9.22,9.22,9.22c5.08,0,9.22-4.14,9.22-9.22
				C74.23,14.96,72.48,12.07,69.87,10.44z"/>
			<path class="st1" d="M68.45,13.66V9.71c-0.83-0.33-1.72-0.55-2.64-0.63c-0.26-0.03-0.52-0.04-0.8-0.04
				c-0.27,0-0.53,0.02-0.8,0.04c-0.93,0.08-1.81,0.3-2.64,0.63v3.96c-1.4,1.05-2.31,2.71-2.31,4.59c0,3.17,2.58,5.75,5.75,5.75
				c3.17,0,5.75-2.58,5.75-5.75C70.76,16.37,69.84,14.71,68.45,13.66z M65.77,11.38c0,0.42-0.34,0.76-0.76,0.76
				s-0.76-0.34-0.76-0.76c0-0.19,0.08-0.36,0.19-0.49c0.14-0.16,0.33-0.27,0.57-0.27c0.23,0,0.43,0.11,0.57,0.27
				C65.69,11.02,65.77,11.18,65.77,11.38z M65.01,22.18c-2.16,0-3.92-1.76-3.92-3.92c0-2.16,1.76-3.92,3.92-3.92
				c2.16,0,3.92,1.76,3.92,3.92C68.93,20.42,67.17,22.18,65.01,22.18z"/>
			<path class="st2" d="M65.01,16.03c-1.23,0-2.23,1-2.23,2.23c0,1.23,1,2.23,2.23,2.23c1.23,0,2.23-1,2.23-2.23
				C67.23,17.03,66.24,16.03,65.01,16.03z"/>
		</g>
	</g>
	<g>
		<circle class="st0" cx="38.8" cy="18.25" r="10.7"/>
		<g>
			<path class="st1" d="M43.66,10.44v2.26c1.55,1.36,2.53,3.34,2.53,5.55c0,4.08-3.32,7.39-7.39,7.39s-7.39-3.32-7.39-7.39
				c0-2.21,0.98-4.2,2.53-5.55v-2.26c-2.61,1.63-4.36,4.52-4.36,7.82c0,5.08,4.14,9.22,9.22,9.22s9.22-4.14,9.22-9.22
				C48.02,14.96,46.27,12.07,43.66,10.44z"/>
			<path class="st1" d="M42.24,13.66V9.71c-0.83-0.33-1.72-0.55-2.64-0.63c-0.26-0.03-0.52-0.04-0.8-0.04S38.27,9.05,38,9.08
				c-0.93,0.08-1.81,0.3-2.64,0.63v3.96c-1.4,1.05-2.31,2.71-2.31,4.59c0,3.17,2.58,5.75,5.75,5.75s5.75-2.58,5.75-5.75
				C44.55,16.37,43.63,14.71,42.24,13.66z M39.56,11.38c0,0.42-0.34,0.76-0.76,0.76s-0.76-0.34-0.76-0.76
				c0-0.19,0.08-0.36,0.19-0.49c0.14-0.16,0.33-0.27,0.57-0.27c0.23,0,0.43,0.11,0.57,0.27C39.48,11.02,39.56,11.18,39.56,11.38z
				 M38.8,22.18c-2.16,0-3.92-1.76-3.92-3.92c0-2.16,1.76-3.92,3.92-3.92c2.16,0,3.92,1.76,3.92,3.92
				C42.72,20.42,40.96,22.18,38.8,22.18z"/>
			<path class="st2" d="M38.8,16.03c-1.23,0-2.23,1-2.23,2.23c0,1.23,1,2.23,2.23,2.23s2.23-1,2.23-2.23
				C41.02,17.03,40.03,16.03,38.8,16.03z"/>
		</g>
	</g>
</g>
<g>
	<circle class="st0" cx="29.39" cy="33.61" r="12.84"/>
	<g>
		<path class="st1" d="M35.23,24.23v2.72c1.86,1.63,3.03,4.01,3.03,6.66c0,4.89-3.98,8.87-8.87,8.87s-8.87-3.98-8.87-8.87
			c0-2.66,1.18-5.04,3.03-6.66v-2.72c-3.13,1.96-5.23,5.42-5.23,9.38c0,6.1,4.96,11.06,11.06,11.06s11.06-4.96,11.06-11.06
			C40.46,29.65,38.36,26.19,35.23,24.23z"/>
		<path class="st1" d="M33.52,28.1v-4.75c-1-0.4-2.06-0.66-3.17-0.76c-0.31-0.03-0.63-0.05-0.96-0.05s-0.64,0.02-0.96,0.05
			c-1.11,0.09-2.17,0.36-3.17,0.76v4.75c-1.68,1.26-2.77,3.25-2.77,5.51c0,3.8,3.1,6.9,6.9,6.9s6.9-3.1,6.9-6.9
			C36.29,31.35,35.19,29.36,33.52,28.1z M30.31,25.36c0,0.5-0.41,0.91-0.91,0.91c-0.5,0-0.91-0.41-0.91-0.91
			c0-0.23,0.09-0.43,0.23-0.59c0.17-0.19,0.4-0.33,0.68-0.33c0.27,0,0.51,0.14,0.68,0.33C30.21,24.93,30.31,25.13,30.31,25.36z
			 M29.39,38.31c-2.59,0-4.7-2.11-4.7-4.7c0-2.59,2.11-4.7,4.7-4.7s4.7,2.11,4.7,4.7C34.1,36.2,31.99,38.31,29.39,38.31z"/>
		<path class="st2" d="M29.39,30.94c-1.48,0-2.67,1.2-2.67,2.67s1.2,2.67,2.67,2.67c1.48,0,2.67-1.2,2.67-2.67
			S30.87,30.94,29.39,30.94z"/>
	</g>
</g>
<g>
	<circle class="st0" cx="49.94" cy="33.96" r="13.02"/>
	<g>
		<path class="st1" d="M55.86,24.45v2.76c1.88,1.65,3.08,4.07,3.08,6.76c0,4.96-4.04,9-9,9s-9-4.04-9-9c0-2.69,1.2-5.11,3.08-6.76
			v-2.76c-3.18,1.98-5.3,5.5-5.3,9.52c0,6.19,5.03,11.22,11.22,11.22s11.22-5.03,11.22-11.22C61.17,29.95,59.04,26.43,55.86,24.45z"
			/>
		<path class="st1" d="M54.13,28.38v-4.81c-1.01-0.4-2.09-0.67-3.22-0.77c-0.32-0.03-0.64-0.05-0.97-0.05s-0.65,0.02-0.97,0.05
			c-1.13,0.1-2.2,0.36-3.22,0.77v4.81c-1.7,1.28-2.81,3.3-2.81,5.59c0,3.85,3.14,7,7,7s7-3.14,7-7
			C56.94,31.68,55.82,29.65,54.13,28.38z M50.87,25.6c0,0.51-0.42,0.93-0.93,0.93s-0.93-0.42-0.93-0.93c0-0.23,0.1-0.44,0.23-0.6
			c0.17-0.19,0.4-0.33,0.69-0.33c0.28,0,0.52,0.14,0.69,0.33C50.77,25.16,50.87,25.36,50.87,25.6z M49.94,38.74
			c-2.63,0-4.77-2.14-4.77-4.77c0-2.63,2.14-4.77,4.77-4.77s4.77,2.14,4.77,4.77C54.72,36.6,52.57,38.74,49.94,38.74z"/>
		<path class="st2" d="M49.94,31.26c-1.5,0-2.71,1.21-2.71,2.71s1.21,2.71,2.71,2.71s2.71-1.21,2.71-2.71S51.44,31.26,49.94,31.26z"
			/>
	</g>
</g>
<g>
	<circle class="st0" cx="73.11" cy="33.79" r="12.51"/>
	<g>
		<path class="st1" d="M78.79,24.65v2.65c1.81,1.58,2.96,3.9,2.96,6.49c0,4.76-3.88,8.64-8.64,8.64c-4.76,0-8.64-3.88-8.64-8.64
			c0-2.59,1.15-4.91,2.96-6.49v-2.65c-3.05,1.9-5.09,5.28-5.09,9.14c0,5.94,4.83,10.78,10.78,10.78c5.94,0,10.78-4.83,10.78-10.78
			C83.88,29.93,81.84,26.56,78.79,24.65z"/>
		<path class="st1" d="M77.13,28.42V23.8c-0.97-0.39-2-0.64-3.09-0.74c-0.31-0.03-0.61-0.05-0.93-0.05c-0.32,0-0.62,0.02-0.93,0.05
			c-1.08,0.09-2.12,0.35-3.09,0.74v4.62c-1.64,1.23-2.7,3.17-2.7,5.37c0,3.7,3.02,6.72,6.72,6.72c3.7,0,6.72-3.02,6.72-6.72
			C79.83,31.59,78.75,29.65,77.13,28.42z M74,25.75c0,0.49-0.4,0.89-0.89,0.89c-0.49,0-0.89-0.4-0.89-0.89
			c0-0.22,0.09-0.42,0.22-0.57c0.16-0.18,0.39-0.32,0.66-0.32c0.27,0,0.5,0.13,0.66,0.32C73.91,25.33,74,25.53,74,25.75z
			 M73.11,38.37c-2.53,0-4.58-2.06-4.58-4.58c0-2.53,2.06-4.58,4.58-4.58c2.53,0,4.58,2.06,4.58,4.58
			C77.69,36.31,75.63,38.37,73.11,38.37z"/>
		<path class="st2" d="M73.11,31.19c-1.44,0-2.6,1.16-2.6,2.6s1.16,2.6,2.6,2.6s2.6-1.16,2.6-2.6S74.54,31.19,73.11,31.19z"/>
	</g>
</g>
<polygon class="st3" points="50.05,40.66 18.01,40.66 21.55,77.23 50.05,77.23 78.56,77.23 82.09,40.66 "/>
<polygon class="st4" points="81.45,47.33 82.09,40.66 50.05,40.66 18.01,40.66 18.66,47.33 "/>
<polygon class="st5" points="19.38,54.8 80.73,54.8 81.37,48.13 18.74,48.13 "/>
<polygon class="st6" points="20.11,62.28 80,62.28 80.65,55.61 19.46,55.61 "/>
<polygon class="st4" points="20.83,69.75 79.28,69.75 79.92,63.08 20.18,63.08 "/>
<polygon class="st6" points="20.91,70.56 21.55,77.23 50.05,77.23 78.56,77.23 79.2,70.56 "/>
<path class="st7" d="M30.46,73.89c-3.79,0.3-6.88,1.8-8.93,3.12l0.02,0.21h28.5h28.5l0.65-6.67h-9.29c0,0-14.56,4.03-19.54,4.27
	C45.39,75.07,37.54,73.33,30.46,73.89z"/>
<path class="st8" d="M79.28,69.75l0.21-2.18c-1.75-0.8-4.54-1.83-7.72-2.05c-5.31-0.37-16.61,3.02-20.84,3.02
	c-13.53,0-30.75-5.46-30.75-5.46l0.65,6.67H79.28z"/>
<path class="st7" d="M27.25,60.41c-3.51-0.5-6.21-1.69-7.56-2.39l0.41,4.26h54.51c-3.18-1.13-9.19-3.08-13.55-3.33
	C54.87,58.58,32.36,61.14,27.25,60.41z"/>
<path class="st9" d="M81.16,50.36c-1.48,0.85-4.89,2.3-11.54,2.74c-9.63,0.64-18.77-3.06-26.54-3.38
	c-11.64-0.48-23.69,5.09-23.69,5.09h61.34L81.16,50.36z"/>
<path class="st8" d="M18.66,47.33h60.41c-2.1-0.99-4.06-1.74-5.03-1.64c-2.65,0.27-14.15,1.01-20.44,0.73
	c-6.29-0.27-20.84-4.66-26.44-4.21c-4.03,0.33-7.29,1.36-8.8,1.92L18.66,47.33z"/>
<path class="st8" d="M63.91,44.51c0,0.45-2.99,0.81-6.68,0.81c-3.69,0-6.68-0.36-6.68-0.81c0-0.45,2.99-0.81,6.68-0.81
	C60.92,43.71,63.91,44.07,63.91,44.51z M57.23,43.95c-2.01,0-3.64,0.25-3.64,0.57c0,0.31,1.63,0.57,3.64,0.57
	c2.01,0,3.64-0.25,3.64-0.57C60.87,44.2,59.24,43.95,57.23,43.95z"/>
<path class="st8" d="M54.27,66.09c0,0.78-2.99,1.42-6.68,1.42c-3.69,0-6.68-0.63-6.68-1.42c0-0.78,2.99-1.42,6.68-1.42
	C51.28,64.67,54.27,65.31,54.27,66.09z M47.59,64.99c-2.64,0-4.78,0.49-4.78,1.1c0,0.61,2.14,1.1,4.78,1.1
	c2.64,0,4.78-0.49,4.78-1.1C52.37,65.48,50.23,64.99,47.59,64.99z"/>
<path class="st8" d="M51.26,66.09c0,0.43-1.64,0.78-3.67,0.78c-2.03,0-3.67-0.35-3.67-0.78c0-0.43,1.64-0.78,3.67-0.78
	C49.61,65.31,51.26,65.66,51.26,66.09z M47.59,65.49c-1.45,0-2.62,0.27-2.62,0.6c0,0.33,1.18,0.6,2.62,0.6
	c1.45,0,2.62-0.27,2.62-0.6C50.21,65.76,49.04,65.49,47.59,65.49z"/>
<path class="st8" d="M72.41,51.87c0,0.24-1.31,0.44-2.93,0.44c-1.62,0-2.93-0.2-2.93-0.44c0-0.24,1.31-0.44,2.93-0.44
	C71.1,51.43,72.41,51.63,72.41,51.87z M69.48,51.56c-0.88,0-1.59,0.14-1.59,0.31c0,0.17,0.71,0.31,1.59,0.31
	c0.88,0,1.59-0.14,1.59-0.31C71.07,51.7,70.36,51.56,69.48,51.56z"/>
<g>
	<polygon class="st10" points="24,40.66 27.53,77.23 31.59,77.23 28.06,40.66 	"/>
</g>
<linearGradient id="SVGID_1_" gradientUnits="userSpaceOnUse" x1="24.5459" y1="58.9439" x2="30.9783" y2="58.9439">
	<stop  offset="0" style="stop-color:#B7A37B"/>
	<stop  offset="0.0575" style="stop-color:#FFEFB7"/>
	<stop  offset="0.0958" style="stop-color:#B39F78"/>
	<stop  offset="0.7203" style="stop-color:#D0BE90"/>
	<stop  offset="0.7871" style="stop-color:#D3C192"/>
	<stop  offset="0.8457" style="stop-color:#DCCC9A"/>
	<stop  offset="0.901" style="stop-color:#EADEA6"/>
	<stop  offset="0.954" style="stop-color:#FFF7B7"/>
	<stop  offset="0.9674" style="stop-color:#F2E6AC"/>
	<stop  offset="0.9867" style="stop-color:#E2D29F"/>
	<stop  offset="1" style="stop-color:#DDCB9B"/>
</linearGradient>
<polygon class="st11" points="24.55,40.66 28.08,77.23 30.98,77.23 27.44,40.66 "/>
<g>
	<path class="st12" d="M30.46,74.95c0,0.53-0.46,0.96-1.03,0.96c-0.57,0-1.03-0.43-1.03-0.96c0-0.53,0.46-0.96,1.03-0.96
		C30,73.99,30.46,74.42,30.46,74.95z"/>
	<path class="st13" d="M30.28,74.86c0,0.44-0.38,0.79-0.85,0.79s-0.85-0.35-0.85-0.79c0-0.44,0.38-0.79,0.85-0.79
		S30.28,74.42,30.28,74.86z"/>
	<ellipse class="st14" cx="29.43" cy="74.53" rx="0.44" ry="0.24"/>
</g>
<g>
	<path class="st12" d="M29.82,68.71c0,0.53-0.46,0.96-1.03,0.96c-0.57,0-1.03-0.43-1.03-0.96c0-0.53,0.46-0.96,1.03-0.96
		C29.36,67.75,29.82,68.18,29.82,68.71z"/>
	<path class="st13" d="M29.64,68.62c0,0.44-0.38,0.79-0.85,0.79s-0.85-0.35-0.85-0.79c0-0.44,0.38-0.79,0.85-0.79
		S29.64,68.19,29.64,68.62z"/>
	<path class="st14" d="M29.24,68.29c0,0.13-0.2,0.24-0.44,0.24c-0.24,0-0.44-0.11-0.44-0.24s0.2-0.24,0.44-0.24
		C29.04,68.05,29.24,68.16,29.24,68.29z"/>
</g>
<g>
	<ellipse class="st12" cx="29.2" cy="71.52" rx="1.03" ry="0.96"/>
	<path class="st13" d="M30.05,71.43c0,0.44-0.38,0.79-0.85,0.79s-0.85-0.35-0.85-0.79c0-0.44,0.38-0.79,0.85-0.79
		S30.05,71,30.05,71.43z"/>
	<path class="st14" d="M29.64,71.1c0,0.13-0.2,0.24-0.44,0.24c-0.24,0-0.44-0.11-0.44-0.24c0-0.13,0.2-0.24,0.44-0.24
		C29.45,70.86,29.64,70.96,29.64,71.1z"/>
</g>
<g>
	<path class="st12" d="M29.38,64.35c0,0.53-0.46,0.96-1.03,0.96c-0.57,0-1.03-0.43-1.03-0.96c0-0.53,0.46-0.96,1.03-0.96
		C28.92,63.39,29.38,63.82,29.38,64.35z"/>
	<path class="st13" d="M29.2,64.27c0,0.44-0.38,0.79-0.85,0.79c-0.47,0-0.85-0.35-0.85-0.79c0-0.44,0.38-0.79,0.85-0.79
		C28.82,63.48,29.2,63.83,29.2,64.27z"/>
	<path class="st14" d="M28.79,63.93c0,0.13-0.2,0.24-0.44,0.24c-0.24,0-0.44-0.11-0.44-0.24c0-0.13,0.2-0.24,0.44-0.24
		C28.6,63.69,28.79,63.8,28.79,63.93z"/>
</g>
<g>
	<ellipse class="st12" cx="27.91" cy="60.93" rx="1.03" ry="0.96"/>
	<path class="st13" d="M28.76,60.84c0,0.44-0.38,0.79-0.85,0.79c-0.47,0-0.85-0.35-0.85-0.79s0.38-0.79,0.85-0.79
		C28.38,60.05,28.76,60.4,28.76,60.84z"/>
	<path class="st14" d="M28.35,60.51c0,0.13-0.2,0.24-0.44,0.24c-0.24,0-0.44-0.11-0.44-0.24c0-0.13,0.2-0.24,0.44-0.24
		C28.15,60.26,28.35,60.37,28.35,60.51z"/>
</g>
<g>
	<path class="st12" d="M28.79,56.93c0,0.53-0.46,0.96-1.03,0.96s-1.03-0.43-1.03-0.96c0-0.53,0.46-0.96,1.03-0.96
		S28.79,56.4,28.79,56.93z"/>
	<path class="st13" d="M28.61,56.84c0,0.44-0.38,0.79-0.85,0.79c-0.47,0-0.85-0.35-0.85-0.79c0-0.44,0.38-0.79,0.85-0.79
		C28.23,56.05,28.61,56.4,28.61,56.84z"/>
	<path class="st14" d="M28.2,56.51c0,0.13-0.2,0.24-0.44,0.24s-0.44-0.11-0.44-0.24s0.2-0.24,0.44-0.24S28.2,56.37,28.2,56.51z"/>
</g>
<g>
	<path class="st12" d="M28.09,53.65c0,0.53-0.46,0.96-1.03,0.96c-0.57,0-1.03-0.43-1.03-0.96s0.46-0.96,1.03-0.96
		C27.63,52.69,28.09,53.12,28.09,53.65z"/>
	<path class="st13" d="M27.91,53.56c0,0.44-0.38,0.79-0.85,0.79c-0.47,0-0.85-0.35-0.85-0.79c0-0.44,0.38-0.79,0.85-0.79
		C27.53,52.77,27.91,53.13,27.91,53.56z"/>
	<path class="st14" d="M27.5,53.23c0,0.13-0.2,0.24-0.44,0.24c-0.24,0-0.44-0.11-0.44-0.24c0-0.13,0.2-0.24,0.44-0.24
		C27.3,52.99,27.5,53.09,27.5,53.23z"/>
</g>
<g>
	<ellipse class="st12" cx="26.88" cy="49.25" rx="1.03" ry="0.96"/>
	<path class="st13" d="M27.73,49.16c0,0.44-0.38,0.79-0.85,0.79s-0.85-0.35-0.85-0.79c0-0.44,0.38-0.79,0.85-0.79
		S27.73,48.73,27.73,49.16z"/>
	<path class="st14" d="M27.32,48.83c0,0.13-0.2,0.24-0.44,0.24c-0.24,0-0.44-0.11-0.44-0.24c0-0.13,0.2-0.24,0.44-0.24
		C27.12,48.59,27.32,48.69,27.32,48.83z"/>
</g>
<g>
	<ellipse class="st12" cx="26.62" cy="46.28" rx="1.03" ry="0.96"/>
	<path class="st13" d="M27.47,46.2c0,0.44-0.38,0.79-0.85,0.79c-0.47,0-0.85-0.35-0.85-0.79c0-0.44,0.38-0.79,0.85-0.79
		C27.09,45.4,27.47,45.76,27.47,46.2z"/>
	<ellipse class="st14" cx="26.62" cy="45.86" rx="0.44" ry="0.24"/>
</g>
<g>
	<path class="st12" d="M27.21,42.29c0,0.53-0.46,0.96-1.03,0.96c-0.57,0-1.03-0.43-1.03-0.96s0.46-0.96,1.03-0.96
		C26.74,41.34,27.21,41.77,27.21,42.29z"/>
	<path class="st13" d="M27.03,42.21c0,0.44-0.38,0.79-0.85,0.79c-0.47,0-0.85-0.35-0.85-0.79c0-0.44,0.38-0.79,0.85-0.79
		C26.64,41.42,27.03,41.77,27.03,42.21z"/>
	<path class="st14" d="M26.62,41.87c0,0.13-0.2,0.24-0.44,0.24c-0.24,0-0.44-0.11-0.44-0.24s0.2-0.24,0.44-0.24
		C26.42,41.63,26.62,41.74,26.62,41.87z"/>
</g>
<g>
	<polygon class="st10" points="76.21,40.66 72.67,77.23 68.61,77.23 72.15,40.66 	"/>
</g>
<linearGradient id="SVGID_2_" gradientUnits="userSpaceOnUse" x1="69.2248" y1="58.9439" x2="75.6573" y2="58.9439">
	<stop  offset="0" style="stop-color:#B7A37B"/>
	<stop  offset="0.0575" style="stop-color:#FFEFB7"/>
	<stop  offset="0.0958" style="stop-color:#B39F78"/>
	<stop  offset="0.7203" style="stop-color:#D0BE90"/>
	<stop  offset="0.7871" style="stop-color:#D3C192"/>
	<stop  offset="0.8457" style="stop-color:#DCCC9A"/>
	<stop  offset="0.901" style="stop-color:#EADEA6"/>
	<stop  offset="0.954" style="stop-color:#FFF7B7"/>
	<stop  offset="0.9674" style="stop-color:#F2E6AC"/>
	<stop  offset="0.9867" style="stop-color:#E2D29F"/>
	<stop  offset="1" style="stop-color:#DDCB9B"/>
</linearGradient>
<polygon class="st15" points="75.66,40.66 72.12,77.23 69.22,77.23 72.76,40.66 "/>
<g>
	<path class="st12" d="M69.74,74.95c0,0.53,0.46,0.96,1.03,0.96c0.57,0,1.03-0.43,1.03-0.96c0-0.53-0.46-0.96-1.03-0.96
		C70.2,73.99,69.74,74.42,69.74,74.95z"/>
	<path class="st13" d="M69.92,74.86c0,0.44,0.38,0.79,0.85,0.79c0.47,0,0.85-0.35,0.85-0.79c0-0.44-0.38-0.79-0.85-0.79
		C70.3,74.07,69.92,74.42,69.92,74.86z"/>
	<ellipse class="st14" cx="70.77" cy="74.53" rx="0.44" ry="0.24"/>
</g>
<g>
	<path class="st12" d="M70.38,68.71c0,0.53,0.46,0.96,1.03,0.96c0.57,0,1.03-0.43,1.03-0.96c0-0.53-0.46-0.96-1.03-0.96
		C70.84,67.75,70.38,68.18,70.38,68.71z"/>
	<path class="st13" d="M70.56,68.62c0,0.44,0.38,0.79,0.85,0.79c0.47,0,0.85-0.35,0.85-0.79c0-0.44-0.38-0.79-0.85-0.79
		C70.94,67.83,70.56,68.19,70.56,68.62z"/>
	<path class="st14" d="M70.97,68.29c0,0.13,0.2,0.24,0.44,0.24c0.24,0,0.44-0.11,0.44-0.24s-0.2-0.24-0.44-0.24
		C71.17,68.05,70.97,68.16,70.97,68.29z"/>
</g>
<g>
	<path class="st12" d="M69.97,71.52c0,0.53,0.46,0.96,1.03,0.96c0.57,0,1.03-0.43,1.03-0.96c0-0.53-0.46-0.96-1.03-0.96
		C70.43,70.56,69.97,70.99,69.97,71.52z"/>
	<path class="st13" d="M70.15,71.43c0,0.44,0.38,0.79,0.85,0.79c0.47,0,0.85-0.35,0.85-0.79c0-0.44-0.38-0.79-0.85-0.79
		C70.53,70.64,70.15,71,70.15,71.43z"/>
	<path class="st14" d="M70.56,71.1c0,0.13,0.2,0.24,0.44,0.24c0.24,0,0.44-0.11,0.44-0.24c0-0.13-0.2-0.24-0.44-0.24
		C70.76,70.86,70.56,70.96,70.56,71.1z"/>
</g>
<g>
	<ellipse class="st12" cx="71.85" cy="64.35" rx="1.03" ry="0.96"/>
	<path class="st13" d="M71,64.27c0,0.44,0.38,0.79,0.85,0.79c0.47,0,0.85-0.35,0.85-0.79c0-0.44-0.38-0.79-0.85-0.79
		C71.38,63.48,71,63.83,71,64.27z"/>
	<path class="st14" d="M71.41,63.93c0,0.13,0.2,0.24,0.44,0.24c0.24,0,0.44-0.11,0.44-0.24c0-0.13-0.2-0.24-0.44-0.24
		C71.61,63.69,71.41,63.8,71.41,63.93z"/>
</g>
<g>
	<ellipse class="st12" cx="72.29" cy="60.93" rx="1.03" ry="0.96"/>
	<path class="st13" d="M71.44,60.84c0,0.44,0.38,0.79,0.85,0.79c0.47,0,0.85-0.35,0.85-0.79s-0.38-0.79-0.85-0.79
		C71.82,60.05,71.44,60.4,71.44,60.84z"/>
	<path class="st14" d="M71.85,60.51c0,0.13,0.2,0.24,0.44,0.24c0.24,0,0.44-0.11,0.44-0.24c0-0.13-0.2-0.24-0.44-0.24
		C72.05,60.26,71.85,60.37,71.85,60.51z"/>
</g>
<g>
	<path class="st12" d="M71.41,56.93c0,0.53,0.46,0.96,1.03,0.96c0.57,0,1.03-0.43,1.03-0.96c0-0.53-0.46-0.96-1.03-0.96
		C71.87,55.97,71.41,56.4,71.41,56.93z"/>
	<path class="st13" d="M71.59,56.84c0,0.44,0.38,0.79,0.85,0.79s0.85-0.35,0.85-0.79c0-0.44-0.38-0.79-0.85-0.79
		S71.59,56.4,71.59,56.84z"/>
	<path class="st14" d="M72,56.51c0,0.13,0.2,0.24,0.44,0.24c0.24,0,0.44-0.11,0.44-0.24s-0.2-0.24-0.44-0.24
		C72.2,56.26,72,56.37,72,56.51z"/>
</g>
<g>
	<path class="st12" d="M72.11,53.65c0,0.53,0.46,0.96,1.03,0.96c0.57,0,1.03-0.43,1.03-0.96s-0.46-0.96-1.03-0.96
		C72.58,52.69,72.11,53.12,72.11,53.65z"/>
	<path class="st13" d="M72.29,53.56c0,0.44,0.38,0.79,0.85,0.79c0.47,0,0.85-0.35,0.85-0.79c0-0.44-0.38-0.79-0.85-0.79
		C72.67,52.77,72.29,53.13,72.29,53.56z"/>
	<path class="st14" d="M72.7,53.23c0,0.13,0.2,0.24,0.44,0.24c0.24,0,0.44-0.11,0.44-0.24c0-0.13-0.2-0.24-0.44-0.24
		C72.9,52.99,72.7,53.09,72.7,53.23z"/>
</g>
<g>
	<path class="st12" d="M72.29,49.25c0,0.53,0.46,0.96,1.03,0.96c0.57,0,1.03-0.43,1.03-0.96s-0.46-0.96-1.03-0.96
		C72.76,48.29,72.29,48.72,72.29,49.25z"/>
	<path class="st13" d="M72.47,49.16c0,0.44,0.38,0.79,0.85,0.79s0.85-0.35,0.85-0.79c0-0.44-0.38-0.79-0.85-0.79
		S72.47,48.73,72.47,49.16z"/>
	<path class="st14" d="M72.88,48.83c0,0.13,0.2,0.24,0.44,0.24c0.24,0,0.44-0.11,0.44-0.24c0-0.13-0.2-0.24-0.44-0.24
		C73.08,48.59,72.88,48.69,72.88,48.83z"/>
</g>
<g>
	<path class="st12" d="M72.56,46.28c0,0.53,0.46,0.96,1.03,0.96c0.57,0,1.03-0.43,1.03-0.96c0-0.53-0.46-0.96-1.03-0.96
		C73.02,45.32,72.56,45.75,72.56,46.28z"/>
	<path class="st13" d="M72.74,46.2c0,0.44,0.38,0.79,0.85,0.79s0.85-0.35,0.85-0.79c0-0.44-0.38-0.79-0.85-0.79
		S72.74,45.76,72.74,46.2z"/>
	<ellipse class="st14" cx="73.59" cy="45.86" rx="0.44" ry="0.24"/>
</g>
<g>
	<path class="st12" d="M73,42.29c0,0.53,0.46,0.96,1.03,0.96c0.57,0,1.03-0.43,1.03-0.96s-0.46-0.96-1.03-0.96
		C73.46,41.34,73,41.77,73,42.29z"/>
	<path class="st13" d="M73.18,42.21c0,0.44,0.38,0.79,0.85,0.79c0.47,0,0.85-0.35,0.85-0.79c0-0.44-0.38-0.79-0.85-0.79
		C73.56,41.42,73.18,41.77,73.18,42.21z"/>
	<path class="st14" d="M73.59,41.87c0,0.13,0.2,0.24,0.44,0.24c0.24,0,0.44-0.11,0.44-0.24s-0.2-0.24-0.44-0.24
		C73.78,41.63,73.59,41.74,73.59,41.87z"/>
</g>
<linearGradient id="SVGID_3_" gradientUnits="userSpaceOnUse" x1="50.0543" y1="86.9947" x2="50.0543" y2="77.2281">
	<stop  offset="0" style="stop-color:#5A555B"/>
	<stop  offset="1" style="stop-color:#242623"/>
</linearGradient>
<rect x="27.99" y="77.23" class="st16" width="44.14" height="9.77"/>
<polygon class="st17" points="82.02,41.46 18.09,41.46 18.01,40.66 82.09,40.66 "/>
<path class="st18" d="M38.22,96.92c-5.15,0-9.34-4.19-9.34-9.34c0-5.15,4.19-9.35,9.34-9.35c5.15,0,9.35,4.19,9.35,9.35
	C47.56,92.73,43.37,96.92,38.22,96.92z"/>
<linearGradient id="SVGID_4_" gradientUnits="userSpaceOnUse" x1="31.8868" y1="93.9019" x2="44.5433" y2="81.2455">
	<stop  offset="0" style="stop-color:#B7A37B"/>
	<stop  offset="0.0958" style="stop-color:#B39F78"/>
	<stop  offset="0.7203" style="stop-color:#D0BE90"/>
</linearGradient>
<path class="st19" d="M29.27,87.57c0,4.94,4.01,8.95,8.95,8.95c4.94,0,8.95-4.01,8.95-8.95c0-4.94-4.01-8.95-8.95-8.95
	C33.27,78.62,29.27,82.63,29.27,87.57z"/>
<path class="st18" d="M38.21,79.97c4.2,0,7.6,3.4,7.6,7.6c0,4.2-3.4,7.61-7.6,7.61c-4.2,0-7.61-3.41-7.61-7.61
	C30.61,83.37,34.01,79.97,38.21,79.97z M34.8,87.57c0,1.89,1.53,3.42,3.42,3.42c1.89,0,3.42-1.53,3.42-3.42
	c0-1.89-1.53-3.42-3.42-3.42C36.33,84.16,34.8,85.69,34.8,87.57z M33.31,83.35c0,0.82,0.67,1.49,1.49,1.49
	c0.82,0,1.49-0.67,1.49-1.49c0-0.82-0.67-1.49-1.49-1.49C33.98,81.86,33.31,82.52,33.31,83.35z M32.68,90.93
	c0.78,0.25,1.62-0.17,1.87-0.95c0.25-0.78-0.17-1.62-0.95-1.87c-0.78-0.25-1.62,0.17-1.87,0.95C31.47,89.84,31.9,90.68,32.68,90.93z
	 M39.69,93.88c0.48-0.66,0.33-1.59-0.33-2.08c-0.66-0.48-1.59-0.33-2.08,0.33c-0.48,0.66-0.33,1.59,0.33,2.08
	C38.28,94.69,39.21,94.54,39.69,93.88z M44.67,88.11c-0.48-0.66-1.41-0.81-2.08-0.33c-0.66,0.48-0.81,1.41-0.33,2.08
	c0.48,0.66,1.41,0.81,2.08,0.33C45,89.71,45.15,88.78,44.67,88.11z M40.72,81.61c-0.78,0.25-1.21,1.09-0.95,1.87
	c0.25,0.78,1.09,1.21,1.87,0.95c0.78-0.25,1.21-1.09,0.95-1.87C42.34,81.78,41.5,81.35,40.72,81.61z"/>
<path class="st18" d="M61.89,96.92c-1.49,0-2.97-0.36-4.3-1.05c-4.58-2.37-6.36-8.03-3.99-12.6c1.61-3.11,4.8-5.04,8.3-5.04
	c1.49,0,2.97,0.36,4.3,1.05c4.57,2.37,6.36,8.03,3.99,12.6C68.57,94.99,65.39,96.92,61.89,96.92z"/>
<linearGradient id="SVGID_5_" gradientUnits="userSpaceOnUse" x1="55.5633" y1="93.9037" x2="68.2232" y2="81.2438">
	<stop  offset="0" style="stop-color:#B7A37B"/>
	<stop  offset="0.0958" style="stop-color:#B39F78"/>
	<stop  offset="0.7203" style="stop-color:#D0BE90"/>
</linearGradient>
<path class="st20" d="M69.84,91.7c-2.28,4.39-7.68,6.1-12.07,3.82c-4.39-2.28-6.1-7.68-3.82-12.07c2.28-4.39,7.68-6.1,12.07-3.82
	C70.4,81.91,72.11,87.31,69.84,91.7z"/>
<path class="st18" d="M68.64,91.08c-1.93,3.73-6.52,5.18-10.25,3.25c-3.73-1.93-5.18-6.53-3.25-10.25
	c1.93-3.73,6.52-5.18,10.25-3.25C69.13,82.76,70.58,87.35,68.64,91.08z M63.47,84.54c-1.67-0.87-3.74-0.22-4.61,1.46
	c-0.87,1.67-0.22,3.74,1.46,4.6c1.67,0.87,3.74,0.22,4.61-1.46C65.79,87.47,65.14,85.41,63.47,84.54z M67.56,84.08
	c-0.73-0.38-1.63-0.09-2,0.63c-0.38,0.73-0.09,1.63,0.63,2c0.73,0.38,1.63,0.09,2-0.63C68.57,85.35,68.29,84.45,67.56,84.08z
	 M66.97,91.88c0.13-0.81-0.41-1.57-1.22-1.71c-0.81-0.13-1.57,0.41-1.71,1.22c-0.13,0.81,0.41,1.57,1.22,1.71
	C66.07,93.24,66.84,92.69,66.97,91.88z M59.37,93.73c0.81-0.12,1.37-0.88,1.25-1.69c-0.12-0.81-0.88-1.37-1.69-1.25
	c-0.81,0.12-1.37,0.88-1.25,1.69C57.8,93.3,58.56,93.86,59.37,93.73z M55.26,87.08c0.37,0.73,1.26,1.03,1.99,0.66
	c0.73-0.37,1.03-1.26,0.66-1.99c-0.37-0.73-1.26-1.03-1.99-0.66C55.19,85.45,54.89,86.34,55.26,87.08z M60.32,81.11
	c-0.58,0.58-0.59,1.52-0.02,2.1c0.58,0.58,1.52,0.59,2.1,0.02c0.58-0.58,0.59-1.52,0.02-2.1C61.84,80.54,60.9,80.53,60.32,81.11z"/>
<rect x="21.53" y="83.02" class="st18" width="6.45" height="3.07"/>
<path class="st21" d="M19.78,80.24H13.8v3.63h2.29v-1.76h3.27v5.14H13.8v1.61h5.99c0.97,0,1.75-0.78,1.75-1.75v-5.12
	C21.53,81.03,20.75,80.24,19.78,80.24z"/>
<linearGradient id="SVGID_6_" gradientUnits="userSpaceOnUse" x1="1242.137" y1="1430.7474" x2="1245.9154" y2="1430.7474" gradientTransform="matrix(0 -1 -1 0 1480.65 1283.464)">
	<stop  offset="0" style="stop-color:#DFD8CB"/>
	<stop  offset="0.069" style="stop-color:#A58A5B"/>
	<stop  offset="0.1418" style="stop-color:#CFB685"/>
	<stop  offset="0.1877" style="stop-color:#CFB685"/>
	<stop  offset="0.2529" style="stop-color:#CFB685"/>
	<stop  offset="0.7854" style="stop-color:#AB9062"/>
	<stop  offset="0.86" style="stop-color:#FFFEFC"/>
	<stop  offset="0.8898" style="stop-color:#ECE1CC"/>
	<stop  offset="0.9251" style="stop-color:#D7C299"/>
	<stop  offset="0.9425" style="stop-color:#CFB685"/>
</linearGradient>
<rect x="14.89" y="37.55" class="st22" width="70.02" height="3.78"/>
<rect x="14.55" y="37.5" class="st23" width="70.37" height="3.83"/>
</svg>
