<?xml version="1.0" encoding="utf-8"?>
<!-- Generator: Adobe Illustrator 24.2.0, SVG Export Plug-In . SVG Version: 6.00 Build 0)  -->
<svg version="1.1" id="Layer_1" xmlns="http://www.w3.org/2000/svg" xmlns:xlink="http://www.w3.org/1999/xlink" x="0px" y="0px"
	 viewBox="0 0 100 100" style="enable-background:new 0 0 100 100;" xml:space="preserve">
<style type="text/css">
	.st0{fill:url(#SVGID_1_);}
	.st1{fill:url(#SVGID_2_);}
	.st2{fill:url(#SVGID_3_);}
	.st3{fill:url(#SVGID_4_);}
	.st4{fill:url(#SVGID_5_);}
	.st5{fill:url(#SVGID_6_);}
	.st6{fill:url(#SVGID_7_);}
	.st7{fill:url(#SVGID_8_);}
	.st8{fill:url(#SVGID_9_);}
	.st9{fill:#EB984E;}
	.st10{fill:#6D4C41;}
	.st11{opacity:0.1;}
	.st12{fill:#FFFFFF;}
	.st13{opacity:0.2;}
	.st14{opacity:0.5;}
	.st15{fill:#DC7633;}
	.st16{opacity:0.3;}
	.st17{fill:#FDD835;}
	.st18{opacity:0.2;clip-path:url(#SVGID_11_);}
	.st19{clip-path:url(#SVGID_11_);}
</style>
<linearGradient id="SVGID_1_" gradientUnits="userSpaceOnUse" x1="15.7082" y1="23.8485" x2="44.0681" y2="52.2084">
	<stop  offset="0" style="stop-color:#FFA900"/>
	<stop  offset="1" style="stop-color:#B44005"/>
</linearGradient>
<path class="st0" d="M49.08,29.5L49.08,29.5c0.02-0.68-0.45-1.35-1.23-1.46l-10.77-1.57c-0.47-0.07-0.87-0.36-1.08-0.79l-4.82-9.76
	c-0.53-1.07-2.05-1.07-2.58,0l-4.82,9.76c-0.21,0.42-0.61,0.72-1.08,0.79l-10.77,1.57c-0.78,0.11-1.25,0.78-1.23,1.46h0v2.94h0
	c-0.02,0.39,0.11,0.79,0.43,1.11l7.79,7.6c0.03,0.03,0.06,0.06,0.09,0.1l-1.52,8.84c-0.08,0.46-0.02,3.45-0.01,3.49
	c0.02,0.14,0.05,0.26,0.1,0.38c0.01,0.03,0.03,0.06,0.04,0.09c0.07,0.14,0.17,0.27,0.29,0.38c0.07,0.07,0.15,0.13,0.23,0.18
	c0.22,0.14,0.47,0.22,0.73,0.22c0.07,0,0.14,0,0.22-0.01c0.09-0.01,0.17-0.03,0.26-0.06c0.02-0.01,0.04-0.01,0.06-0.02
	c0.04-0.01,0.07-0.03,0.11-0.05c0.02-0.01,0.03-0.01,0.05-0.02l9.63-5.06c0.42-0.22,0.92-0.22,1.34,0l9.63,5.06
	c0.02,0.01,0.03,0.02,0.05,0.02c0.15,0.07,0.3,0.12,0.45,0.14c0.07,0.01,0.13,0.01,0.2,0.01c0.07,0,0.13-0.01,0.2-0.02
	c0.58-0.09,1.07-0.54,1.18-1.14c0.01-0.07,0.02-0.13,0.02-0.2c0-0.07,0.06-2.93-0.02-3.38l-1.52-8.84c0.03-0.03,0.06-0.06,0.09-0.1
	l7.79-7.6h0c0.32-0.31,0.46-0.72,0.43-1.11h0V29.5z"/>
<linearGradient id="SVGID_2_" gradientUnits="userSpaceOnUse" x1="29.8881" y1="51.762" x2="29.8881" y2="15.1215">
	<stop  offset="0" style="stop-color:#FFD700"/>
	<stop  offset="1" style="stop-color:#FFA900"/>
</linearGradient>
<path class="st1" d="M31.18,15.92l4.82,9.76c0.21,0.42,0.61,0.72,1.08,0.79l10.77,1.57c1.18,0.17,1.65,1.62,0.8,2.45l-7.79,7.6
	c-0.34,0.33-0.49,0.81-0.41,1.27l1.84,10.73c0.2,1.17-1.03,2.07-2.08,1.51l-9.63-5.06c-0.42-0.22-0.92-0.22-1.34,0l-9.63,5.06
	c-1.05,0.55-2.29-0.34-2.08-1.51l1.84-10.73c0.08-0.47-0.07-0.94-0.41-1.27l-7.79-7.6c-0.85-0.83-0.38-2.28,0.8-2.45l10.77-1.57
	c0.47-0.07,0.87-0.36,1.08-0.79l4.82-9.76C29.13,14.85,30.65,14.85,31.18,15.92z"/>
<linearGradient id="SVGID_3_" gradientUnits="userSpaceOnUse" x1="29.8881" y1="50.3611" x2="29.8881" y2="15.4448">
	<stop  offset="0" style="stop-color:#FFA900"/>
	<stop  offset="1" style="stop-color:#FFD700"/>
</linearGradient>
<path class="st2" d="M40.86,50.36c-0.09,0-0.18-0.02-0.27-0.07l-9.63-5.06c-0.33-0.17-0.7-0.26-1.07-0.26
	c-0.37,0-0.74,0.09-1.07,0.26l-9.63,5.06c-0.09,0.05-0.18,0.07-0.27,0.07c-0.17,0-0.33-0.08-0.44-0.21
	c-0.08-0.09-0.16-0.24-0.12-0.46l1.84-10.73c0.13-0.75-0.12-1.51-0.66-2.03l-7.79-7.6c-0.23-0.23-0.18-0.49-0.15-0.59
	c0.03-0.1,0.14-0.34,0.46-0.39l10.77-1.57c0.75-0.11,1.4-0.58,1.73-1.26l4.82-9.76c0.14-0.29,0.41-0.32,0.52-0.32
	s0.37,0.03,0.52,0.32l4.82,9.76c0.33,0.68,0.98,1.15,1.73,1.26l10.77,1.57c0.32,0.05,0.43,0.29,0.46,0.39
	c0.03,0.1,0.09,0.36-0.15,0.59l-7.79,7.6c-0.54,0.53-0.79,1.29-0.66,2.03l1.84,10.73c0.04,0.22-0.05,0.37-0.12,0.46
	C41.19,50.28,41.03,50.36,40.86,50.36z"/>
<linearGradient id="SVGID_4_" gradientUnits="userSpaceOnUse" x1="51.0733" y1="28.1746" x2="79.4332" y2="56.5345">
	<stop  offset="0" style="stop-color:#FFA900"/>
	<stop  offset="1" style="stop-color:#B44005"/>
</linearGradient>
<path class="st3" d="M84.44,33.82L84.44,33.82c0.02-0.68-0.45-1.35-1.23-1.46l-10.77-1.57c-0.47-0.07-0.87-0.36-1.08-0.79
	l-4.82-9.76c-0.53-1.07-2.05-1.07-2.58,0l-4.82,9.76c-0.21,0.42-0.61,0.72-1.08,0.79L47.3,32.36c-0.78,0.11-1.25,0.78-1.23,1.46h0
	v2.94h0c-0.02,0.39,0.11,0.79,0.43,1.11l7.79,7.6c0.03,0.03,0.06,0.06,0.09,0.1l-1.52,8.84c-0.08,0.46-0.02,3.45-0.01,3.49
	c0.02,0.14,0.05,0.26,0.1,0.38c0.01,0.03,0.03,0.06,0.04,0.09c0.07,0.14,0.17,0.27,0.29,0.38c0.07,0.07,0.15,0.13,0.23,0.18
	c0.22,0.14,0.47,0.22,0.73,0.22c0.07,0,0.14,0,0.22-0.01c0.09-0.01,0.17-0.03,0.26-0.06c0.02-0.01,0.04-0.01,0.06-0.02
	c0.04-0.01,0.07-0.03,0.11-0.05c0.02-0.01,0.03-0.01,0.05-0.02l9.63-5.06c0.42-0.22,0.92-0.22,1.34,0l9.63,5.06
	c0.02,0.01,0.03,0.02,0.05,0.02c0.15,0.07,0.3,0.12,0.45,0.14c0.07,0.01,0.13,0.01,0.2,0.01c0.07,0,0.13-0.01,0.2-0.02
	c0.58-0.09,1.07-0.54,1.18-1.14c0.01-0.07,0.02-0.13,0.02-0.2c0-0.07,0.06-2.93-0.02-3.38l-1.52-8.84c0.03-0.03,0.06-0.06,0.09-0.1
	l7.79-7.6h0c0.32-0.31,0.46-0.72,0.43-1.11h0V33.82z"/>
<linearGradient id="SVGID_5_" gradientUnits="userSpaceOnUse" x1="65.2532" y1="56.0881" x2="65.2532" y2="19.4475">
	<stop  offset="0" style="stop-color:#FFD700"/>
	<stop  offset="1" style="stop-color:#FFA900"/>
</linearGradient>
<path class="st4" d="M66.54,20.25l4.82,9.76c0.21,0.42,0.61,0.72,1.08,0.79l10.77,1.57c1.18,0.17,1.65,1.62,0.8,2.45l-7.79,7.6
	c-0.34,0.33-0.49,0.81-0.41,1.27l1.84,10.73c0.2,1.17-1.03,2.07-2.08,1.51l-9.63-5.06c-0.42-0.22-0.92-0.22-1.34,0l-9.63,5.06
	c-1.05,0.55-2.29-0.34-2.08-1.51l1.84-10.73c0.08-0.47-0.07-0.94-0.41-1.27l-7.79-7.6c-0.85-0.83-0.38-2.28,0.8-2.45l10.77-1.57
	c0.47-0.07,0.87-0.36,1.08-0.79l4.82-9.76C64.49,19.18,66.01,19.18,66.54,20.25z"/>
<linearGradient id="SVGID_6_" gradientUnits="userSpaceOnUse" x1="65.2532" y1="54.6871" x2="65.2532" y2="19.7708">
	<stop  offset="0" style="stop-color:#FFA900"/>
	<stop  offset="1" style="stop-color:#FFD700"/>
</linearGradient>
<path class="st5" d="M76.22,54.69c-0.09,0-0.18-0.02-0.27-0.07l-9.63-5.06c-0.33-0.17-0.7-0.26-1.07-0.26
	c-0.37,0-0.74,0.09-1.07,0.26l-9.63,5.06c-0.09,0.05-0.18,0.07-0.27,0.07c-0.17,0-0.33-0.08-0.44-0.21
	c-0.08-0.09-0.16-0.24-0.12-0.46l1.84-10.73c0.13-0.75-0.12-1.51-0.66-2.03l-7.79-7.6c-0.23-0.23-0.18-0.49-0.15-0.59
	c0.03-0.1,0.14-0.34,0.46-0.39l10.77-1.57c0.75-0.11,1.4-0.58,1.73-1.26l4.82-9.76c0.14-0.29,0.41-0.32,0.52-0.32
	c0.11,0,0.37,0.03,0.52,0.32l4.82,9.76c0.33,0.68,0.98,1.15,1.73,1.26l10.77,1.57c0.32,0.05,0.43,0.29,0.46,0.39
	c0.03,0.1,0.09,0.36-0.15,0.59l-7.79,7.6c-0.54,0.53-0.79,1.29-0.66,2.03l1.84,10.73c0.04,0.22-0.05,0.37-0.12,0.46
	C76.56,54.61,76.39,54.69,76.22,54.69z"/>
<linearGradient id="SVGID_7_" gradientUnits="userSpaceOnUse" x1="39.8542" y1="9.7059" x2="58.6422" y2="28.4938">
	<stop  offset="0" style="stop-color:#FFA900"/>
	<stop  offset="1" style="stop-color:#B44005"/>
</linearGradient>
<path class="st6" d="M61.96,13.45L61.96,13.45c0.01-0.45-0.3-0.89-0.82-0.97l-7.14-1.04c-0.31-0.05-0.58-0.24-0.72-0.52L50.1,4.45
	c-0.35-0.71-1.36-0.71-1.71,0l-3.19,6.47c-0.14,0.28-0.41,0.48-0.72,0.52l-7.14,1.04c-0.52,0.07-0.83,0.52-0.82,0.97h0v1.95h0
	c-0.02,0.26,0.07,0.53,0.29,0.73l5.16,5.03c0.02,0.02,0.04,0.04,0.06,0.06l-1,5.85c-0.05,0.3-0.01,2.29-0.01,2.31
	c0.01,0.09,0.03,0.18,0.07,0.25c0.01,0.02,0.02,0.04,0.03,0.06c0.05,0.1,0.11,0.18,0.19,0.25c0.05,0.04,0.1,0.08,0.15,0.12
	c0.14,0.09,0.31,0.14,0.49,0.15c0.05,0,0.09,0,0.14-0.01c0.06-0.01,0.12-0.02,0.17-0.04c0.01,0,0.03-0.01,0.04-0.02
	c0.02-0.01,0.05-0.02,0.07-0.03c0.01-0.01,0.02-0.01,0.03-0.02l6.38-3.36c0.28-0.15,0.61-0.15,0.89,0l6.38,3.36
	c0.01,0.01,0.02,0.01,0.03,0.02c0.1,0.05,0.2,0.08,0.3,0.09c0.04,0.01,0.09,0.01,0.13,0.01c0.04,0,0.09-0.01,0.13-0.01
	c0.38-0.06,0.71-0.36,0.78-0.75c0.01-0.04,0.01-0.09,0.02-0.13c0-0.05,0.04-1.94-0.01-2.24l-1-5.86c0.02-0.02,0.04-0.04,0.06-0.06
	l5.16-5.03h0c0.21-0.21,0.3-0.48,0.29-0.73h0V13.45z"/>
<linearGradient id="SVGID_8_" gradientUnits="userSpaceOnUse" x1="49.2482" y1="28.1981" x2="49.2482" y2="3.9244">
	<stop  offset="0" style="stop-color:#FFD700"/>
	<stop  offset="1" style="stop-color:#FFA900"/>
</linearGradient>
<path class="st7" d="M50.1,4.45l3.19,6.47c0.14,0.28,0.41,0.48,0.72,0.52l7.14,1.04c0.78,0.11,1.09,1.07,0.53,1.62l-5.16,5.03
	c-0.22,0.22-0.33,0.53-0.27,0.84l1.22,7.11c0.13,0.78-0.68,1.37-1.38,1l-6.38-3.36c-0.28-0.15-0.61-0.15-0.89,0l-6.38,3.36
	c-0.7,0.37-1.51-0.23-1.38-1l1.22-7.11c0.05-0.31-0.05-0.62-0.27-0.84l-5.16-5.03c-0.56-0.55-0.25-1.51,0.53-1.62l7.14-1.04
	c0.31-0.05,0.58-0.24,0.72-0.52l3.19-6.47C48.74,3.75,49.75,3.75,50.1,4.45z"/>
<linearGradient id="SVGID_9_" gradientUnits="userSpaceOnUse" x1="49.2482" y1="27.27" x2="49.2482" y2="4.1386">
	<stop  offset="0" style="stop-color:#FFA900"/>
	<stop  offset="1" style="stop-color:#FFD700"/>
</linearGradient>
<path class="st8" d="M56.52,27.27c-0.06,0-0.12-0.02-0.18-0.05l-6.38-3.36c-0.22-0.11-0.46-0.17-0.71-0.17
	c-0.25,0-0.49,0.06-0.71,0.17l-6.38,3.36c-0.06,0.03-0.12,0.05-0.18,0.05c-0.11,0-0.22-0.05-0.29-0.14
	c-0.05-0.06-0.11-0.16-0.08-0.31l1.22-7.11c0.08-0.49-0.08-1-0.44-1.35l-5.16-5.03c-0.15-0.15-0.12-0.32-0.1-0.39
	c0.02-0.07,0.1-0.23,0.31-0.26l7.14-1.04c0.5-0.07,0.92-0.38,1.15-0.83l3.19-6.47c0.09-0.19,0.27-0.21,0.34-0.21
	s0.25,0.02,0.34,0.21l3.19,6.47c0.22,0.45,0.65,0.76,1.15,0.83l7.14,1.04c0.21,0.03,0.29,0.19,0.31,0.26
	c0.02,0.07,0.06,0.24-0.1,0.39l-5.16,5.03c-0.36,0.35-0.52,0.85-0.44,1.35l1.22,7.11c0.02,0.14-0.03,0.25-0.08,0.31
	C56.74,27.22,56.63,27.27,56.52,27.27z"/>
<g>
	<g>
		<path class="st9" d="M11.36,95.32c-1.94,0-3.53-1.73-3.55-3.85L7.5,44.96c-0.01-1.02,0.34-1.99,0.99-2.72
			c0.67-0.76,1.56-1.18,2.53-1.18l3.68-0.02c0.02,0,0.04,0,0.05,0l11.78-0.08c0.01,0,0.02,0,0.02,0c0.04,0,0.1-0.01,0.16-0.01
			l62.81-0.41c1.45,0,2.64,1.18,2.65,2.63l0.33,48.97c0,0.71-0.27,1.37-0.76,1.88c-0.5,0.5-1.16,0.78-1.87,0.79l-7.65,0.05l0,0.01
			l-7.22,0.05c-0.02,0-0.04,0-0.05,0L11.36,95.32z"/>
	</g>
	<g>
		<path class="st10" d="M89.52,41.29c1.04,0,1.89,0.84,1.89,1.88l0.33,48.97c0.01,1.05-0.84,1.9-1.88,1.91l-8.4,0.05l0,0.01
			l-6.49,0.04c-0.01,0-0.02,0-0.03,0l-63.56,0.42c-0.01,0-0.01,0-0.02,0c-1.53,0-2.78-1.39-2.79-3.11l-0.31-46.5
			c-0.01-1.73,1.23-3.13,2.77-3.14l3.7-0.02c0.01,0,0.02,0,0.03,0l11.8-0.08c0.05,0,0.11-0.01,0.16-0.01l62.79-0.41
			C89.51,41.29,89.52,41.29,89.52,41.29 M89.52,39.79l-0.02,0L26.71,40.2c-0.09,0-0.16,0.01-0.21,0.01l-11.75,0.08
			c-0.03,0-0.05,0-0.07,0l-3.66,0.02c-1.18,0.01-2.28,0.52-3.09,1.44c-0.77,0.87-1.19,2.02-1.18,3.22l0.31,46.5
			c0.01,1.2,0.44,2.33,1.21,3.2c0.82,0.91,1.91,1.41,3.09,1.41l0.03,0l63.56-0.42c0.03,0,0.05,0,0.07,0l6.45-0.04l1.5-0.01l0-0.01
			l6.9-0.05c0.91-0.01,1.76-0.37,2.4-1.01c0.64-0.65,0.99-1.5,0.98-2.41l-0.33-48.97c-0.01-0.9-0.36-1.75-1-2.39
			C91.28,40.14,90.43,39.79,89.52,39.79L89.52,39.79z"/>
	</g>
</g>
<g class="st11">
	<path class="st12" d="M44,63.32v-7.23c0-0.92,0.74-1.66,1.66-1.66h20.35c0.92,0,1.66,0.74,1.66,1.66v7.23
		c0,0.92-0.74,1.66-1.66,1.66H45.66C44.75,64.98,44,64.23,44,63.32z"/>
</g>
<g class="st13">
	<path class="st10" d="M91.41,43.17c-0.01-1.05-0.86-1.89-1.91-1.88l-9.62,0.06c0.81,0.21,1.41,0.94,1.42,1.82l0.21,32.39
		c0.04,5.87-3.85,11.05-9.5,12.62c-10.25,2.86-29.41,5.72-63.4,4.43l-0.54,2.8h75.2l0.18-1.33l6.42-0.04
		c1.05-0.01,1.89-0.86,1.88-1.91L91.41,43.17z"/>
</g>
<g class="st13">
	<path class="st10" d="M87.16,74.84l-0.18,0.29c-0.39,0.61-0.52,1.34-0.36,2.04c0.16,0.71,0.58,1.31,1.19,1.7l3.86,2.46l-0.05-6.86
		l-0.72-0.46C89.64,73.21,87.96,73.58,87.16,74.84z"/>
</g>
<g class="st13">
	<path class="st10" d="M91.74,92.14l-0.04-6.57l-2.89,0c-1.49,0-2.71,1.22-2.71,2.71l0,0.34c0,0.72,0.28,1.4,0.79,1.92
		c0.05,0.05,0.11,0.1,0.16,0.15c-0.58,0.5-0.96,1.24-0.96,2.06l0,0.34c0,0.34,0.06,0.66,0.18,0.97l3.58-0.02
		C90.91,94.04,91.75,93.19,91.74,92.14z"/>
</g>
<g class="st14">
	<path class="st12" d="M10.5,92.11l-0.31-46.5c-0.01-1.73,1.23-3.13,2.77-3.14l3.7-0.02c0.01,0,0.02,0,0.03,0l11.8-0.08
		c0.05,0,0.11-0.01,0.16-0.01l62.29-0.41c-0.35-0.4-0.86-0.65-1.44-0.65L26.72,41.7c-0.06,0-0.11,0.01-0.16,0.01l-11.8,0.08
		c-0.01,0-0.02,0-0.03,0l-3.7,0.02c-1.54,0.01-2.78,1.42-2.77,3.14l0.31,46.5c0.01,1.73,1.27,3.12,2.81,3.11l0.22,0
		C10.94,94,10.51,93.11,10.5,92.11z"/>
</g>
<g>
	<g>
		<path class="st15" d="M10.74,60.47l12.97-0.09c1.59,0,3.09,0.62,4.23,1.74c1.13,1.12,1.76,2.62,1.77,4.22l0.01,0.91
			c0.01,1.6-0.6,3.11-1.73,4.25c-1.13,1.14-2.63,1.78-4.23,1.79l-12.93,0.09L10.74,60.47z"/>
	</g>
	<g>
		<path class="st10" d="M23.71,60.92c3,0,5.44,2.42,5.46,5.42l0.01,0.91c0.02,3.02-2.41,5.48-5.42,5.5l-12.39,0.09l-0.08-11.83
			l12.39-0.09C23.68,60.92,23.7,60.92,23.71,60.92 M23.71,59.84v1.08V59.84c-0.02,0-0.03,0-0.05,0l-12.39,0.09l-1.08,0.01l0.01,1.08
			l0.08,11.83l0.01,1.08l1.08-0.01l12.39-0.09c1.75-0.01,3.38-0.7,4.61-1.95c1.23-1.24,1.89-2.89,1.88-4.64l-0.01-0.91
			c-0.01-1.74-0.7-3.37-1.93-4.59C27.08,60.52,25.45,59.84,23.71,59.84L23.71,59.84z"/>
	</g>
</g>
<g class="st16">
	<g>
		<path class="st10" d="M11.28,61.01l12.39-0.09c3.02-0.02,5.48,2.41,5.5,5.42l0.01,0.91c0.02,3.02-2.41,5.48-5.42,5.5l-12.39,0.09
			L11.28,61.01z"/>
	</g>
</g>
<g>
	<g>
		<path class="st15" d="M7.83,60.49L20.8,60.4c1.59,0,3.09,0.62,4.23,1.74c1.13,1.12,1.76,2.62,1.77,4.22l0.01,0.91
			c0.02,3.31-2.65,6.02-5.96,6.04L7.92,73.4L7.83,60.49z"/>
	</g>
	<g>
		<path class="st10" d="M20.8,60.93c3,0,5.44,2.42,5.46,5.42l0.01,0.91c0.02,3.02-2.41,5.48-5.42,5.5L8.45,72.86L8.37,61.02
			l12.39-0.09C20.78,60.93,20.79,60.93,20.8,60.93 M20.8,59.86v1.08V59.86c-0.02,0-0.03,0-0.05,0L8.36,59.95l-1.08,0.01l0.01,1.08
			l0.08,11.83l0.01,1.08l1.08-0.01l12.39-0.09c1.75-0.01,3.38-0.7,4.61-1.95c1.23-1.24,1.89-2.89,1.88-4.64l-0.01-0.91
			c-0.01-1.74-0.7-3.37-1.93-4.59C24.17,60.53,22.54,59.86,20.8,59.86L20.8,59.86z"/>
	</g>
</g>
<g class="st14">
	<path class="st12" d="M20.52,64.33L20.52,64.33l-0.02,0c-0.72,0.01-1.4,0.36-1.88,0.98c-0.42,0.55-0.65,1.25-0.64,1.99
		c0.01,1.64,1.13,2.93,2.55,2.93h0l0.01,0c0.72-0.01,1.4-0.36,1.88-0.98c0.42-0.55,0.65-1.25,0.64-1.99
		C23.05,65.62,21.93,64.33,20.52,64.33z"/>
</g>
<g class="st14">
	<path class="st12" d="M26.26,66.36c-0.02-3.02-2.48-5.44-5.5-5.42L8.37,61.02l0,0.65l0,0l0.08,11.19l1.72-0.01L10.1,62.56
		c0-0.5,0.4-0.91,0.9-0.91l9.76-0.07c3.02-0.02,5.48,2.41,5.5,5.42l0,0.44c0-0.06,0-0.12,0-0.18L26.26,66.36z"/>
</g>
<g>
	<g>
		<path class="st17" d="M19.88,69.26c-1.1,0-2-1.08-2.01-2.4c0-0.62,0.18-1.21,0.53-1.66c0.37-0.48,0.9-0.76,1.46-0.77l0.01,0
			c1.1,0,2,1.08,2.01,2.4c0.01,1.33-0.88,2.42-1.99,2.43L19.88,69.26z"/>
	</g>
	<g>
		<path class="st10" d="M19.87,64.97c0.81,0,1.46,0.83,1.47,1.86c0.01,1.04-0.64,1.88-1.45,1.89c0,0-0.01,0-0.01,0
			c-0.81,0-1.46-0.83-1.47-1.86C18.4,65.82,19.05,64.98,19.87,64.97C19.87,64.97,19.87,64.97,19.87,64.97 M19.87,63.9L19.87,63.9
			l-0.02,0c-0.72,0.01-1.4,0.36-1.88,0.98c-0.42,0.55-0.65,1.25-0.64,1.99c0.01,0.74,0.24,1.44,0.67,1.98
			c0.48,0.61,1.16,0.95,1.88,0.95l0.02,0c0.72-0.01,1.4-0.36,1.88-0.98c0.42-0.55,0.65-1.25,0.64-1.99
			c-0.01-0.74-0.24-1.44-0.67-1.98C21.27,64.24,20.59,63.9,19.87,63.9L19.87,63.9z"/>
	</g>
</g>
<g class="st13">
	<g>
		<path class="st10" d="M20.75,65.35c0.1,0.25,0.16,0.54,0.17,0.85c0.01,1.04-0.64,1.88-1.45,1.89c-0.33,0-0.64-0.14-0.88-0.37
			c0.25,0.61,0.74,1.02,1.31,1.02c0.81-0.01,1.46-0.85,1.45-1.89C21.34,66.23,21.11,65.69,20.75,65.35z"/>
	</g>
</g>
<g class="st14">
	<path class="st12" d="M18.84,67.29c-0.01-1.04,0.64-1.88,1.45-1.89c0.25,0,0.48,0.07,0.68,0.21c-0.27-0.39-0.67-0.64-1.11-0.64
		c-0.81,0.01-1.46,0.85-1.45,1.89c0.01,0.72,0.33,1.34,0.8,1.65C18.98,68.19,18.84,67.76,18.84,67.29z"/>
</g>
<g>
	<defs>
		<path id="SVGID_10_" d="M91.41,43.17c-0.01-1.05-0.86-1.89-1.91-1.88L26.72,41.7c-0.06,0-0.11,0.01-0.16,0.01l-11.8,0.08
			c-0.01,0-0.02,0-0.03,0l-3.7,0.02c-1.54,0.01-2.78,1.42-2.77,3.14l0.31,46.5c0.01,1.73,1.27,3.12,2.81,3.11l63.56-0.42
			c0.01,0,0.02,0,0.03,0l6.49-0.04l0-0.01l8.4-0.05c1.05-0.01,1.89-0.86,1.88-1.91L91.41,43.17z"/>
	</defs>
	<clipPath id="SVGID_11_">
		<use xlink:href="#SVGID_10_"  style="overflow:visible;"/>
	</clipPath>
	<g class="st18">
		<g>
			<path class="st10" d="M8.12,46.87l3.91-0.03c0.23,0,0.41,0.23,0.41,0.52c0,0.29-0.18,0.52-0.4,0.52l-3.91,0.03
				c-0.23,0-0.41-0.23-0.41-0.52C7.72,47.11,7.9,46.87,8.12,46.87z"/>
		</g>
		<g>
			<path class="st10" d="M15.3,46.82l3.91-0.03c0.23,0,0.41,0.23,0.41,0.52c0,0.29-0.18,0.52-0.4,0.52l-3.91,0.03
				c-0.23,0-0.41-0.23-0.41-0.52C14.89,47.06,15.07,46.82,15.3,46.82z"/>
		</g>
		<g>
			<path class="st10" d="M22.47,46.77l3.91-0.03c0.23,0,0.41,0.23,0.41,0.52c0,0.29-0.18,0.52-0.4,0.52l-3.91,0.03
				c-0.23,0-0.41-0.23-0.41-0.52C22.06,47.01,22.24,46.77,22.47,46.77z"/>
		</g>
		<g>
			<path class="st10" d="M29.64,46.72l3.91-0.03c0.23,0,0.41,0.23,0.41,0.52c0,0.29-0.18,0.52-0.4,0.52l-3.91,0.03
				c-0.23,0-0.41-0.23-0.41-0.52C29.23,46.96,29.41,46.72,29.64,46.72z"/>
		</g>
		<g>
			<path class="st10" d="M36.81,46.67l3.91-0.03c0.23,0,0.41,0.23,0.41,0.52c0,0.29-0.18,0.52-0.4,0.52l-3.91,0.03
				c-0.23,0-0.41-0.23-0.41-0.52C36.4,46.91,36.58,46.67,36.81,46.67z"/>
		</g>
		<g>
			<path class="st10" d="M43.98,46.62l3.91-0.03c0.23,0,0.41,0.23,0.41,0.52c0,0.29-0.18,0.52-0.4,0.52l-3.91,0.03
				c-0.23,0-0.41-0.23-0.41-0.52C43.57,46.85,43.76,46.62,43.98,46.62z"/>
		</g>
		<g>
			<path class="st10" d="M51.15,46.57l3.91-0.03c0.23,0,0.41,0.23,0.41,0.52c0,0.29-0.18,0.52-0.4,0.52l-3.91,0.03
				c-0.23,0-0.41-0.23-0.41-0.52C50.75,46.8,50.93,46.57,51.15,46.57z"/>
		</g>
		<g>
			<path class="st10" d="M58.32,46.52l3.91-0.03c0.23,0,0.41,0.23,0.41,0.52c0,0.29-0.18,0.52-0.4,0.52l-3.91,0.03
				c-0.23,0-0.41-0.23-0.41-0.52C57.92,46.75,58.1,46.52,58.32,46.52z"/>
		</g>
		<g>
			<path class="st10" d="M65.49,46.47l3.91-0.03c0.23,0,0.41,0.23,0.41,0.52c0,0.29-0.18,0.52-0.4,0.52l-3.91,0.03
				c-0.23,0-0.41-0.23-0.41-0.52C65.09,46.7,65.27,46.47,65.49,46.47z"/>
		</g>
		<g>
			<path class="st10" d="M73.07,46.42l3.91-0.03c0.23,0,0.41,0.23,0.41,0.52c0,0.29-0.18,0.52-0.4,0.52l-3.91,0.03
				c-0.23,0-0.41-0.23-0.41-0.52C72.67,46.65,72.85,46.42,73.07,46.42z"/>
		</g>
		<g>
			<path class="st10" d="M80.05,46.37l3.91-0.03c0.23,0,0.41,0.23,0.41,0.52c0,0.29-0.18,0.52-0.4,0.52l-3.91,0.03
				c-0.23,0-0.41-0.23-0.41-0.52C79.64,46.6,79.82,46.37,80.05,46.37z"/>
		</g>
		<g>
			<path class="st10" d="M87.07,46.32l3.91-0.03c0.23,0,0.41,0.23,0.41,0.52c0,0.29-0.18,0.52-0.4,0.52l-3.91,0.03
				c-0.23,0-0.41-0.23-0.41-0.52C86.67,46.55,86.85,46.32,87.07,46.32z"/>
		</g>
	</g>
	<g class="st18">
		<g>
			<path class="st10" d="M10.34,89.8l3.91-0.03c0.23,0,0.41,0.23,0.41,0.52c0,0.29-0.18,0.52-0.4,0.52l-3.91,0.03
				c-0.23,0-0.41-0.23-0.41-0.52C9.94,90.04,10.12,89.81,10.34,89.8z"/>
		</g>
		<g>
			<path class="st10" d="M17.51,89.75l3.91-0.03c0.23,0,0.41,0.23,0.41,0.52c0,0.29-0.18,0.52-0.4,0.52l-3.91,0.03
				c-0.23,0-0.41-0.23-0.41-0.52C17.11,89.99,17.29,89.76,17.51,89.75z"/>
		</g>
		<g>
			<path class="st10" d="M24.68,89.7l3.91-0.03c0.23,0,0.41,0.23,0.41,0.52c0,0.29-0.18,0.52-0.4,0.52l-3.91,0.03
				c-0.23,0-0.41-0.23-0.41-0.52C24.28,89.94,24.46,89.71,24.68,89.7z"/>
		</g>
		<g>
			<path class="st10" d="M31.86,89.65l3.91-0.03c0.23,0,0.41,0.23,0.41,0.52s-0.18,0.52-0.4,0.52l-3.91,0.03
				c-0.23,0-0.41-0.23-0.41-0.52C31.45,89.89,31.63,89.66,31.86,89.65z"/>
		</g>
		<g>
			<path class="st10" d="M39.03,89.6l3.91-0.03c0.23,0,0.41,0.23,0.41,0.52c0,0.29-0.18,0.52-0.4,0.52l-3.91,0.03
				c-0.23,0-0.41-0.23-0.41-0.52S38.8,89.6,39.03,89.6z"/>
		</g>
		<g>
			<path class="st10" d="M46.2,89.55l3.91-0.03c0.23,0,0.41,0.23,0.41,0.52s-0.18,0.52-0.4,0.52l-3.91,0.03
				c-0.23,0-0.41-0.23-0.41-0.52C45.79,89.79,45.97,89.55,46.2,89.55z"/>
		</g>
		<g>
			<path class="st10" d="M53.37,89.5l3.91-0.03c0.23,0,0.41,0.23,0.41,0.52c0,0.29-0.18,0.52-0.4,0.52l-3.91,0.03
				c-0.23,0-0.41-0.23-0.41-0.52S53.14,89.5,53.37,89.5z"/>
		</g>
		<g>
			<path class="st10" d="M60.54,89.45l3.91-0.03c0.23,0,0.41,0.23,0.41,0.52c0,0.29-0.18,0.52-0.4,0.52l-3.91,0.03
				c-0.23,0-0.41-0.23-0.41-0.52S60.32,89.45,60.54,89.45z"/>
		</g>
		<g>
			<path class="st10" d="M67.71,89.4l3.91-0.03c0.23,0,0.41,0.23,0.41,0.52c0,0.29-0.18,0.52-0.4,0.52l-3.91,0.03
				c-0.23,0-0.41-0.23-0.41-0.52C67.31,89.64,67.49,89.4,67.71,89.4z"/>
		</g>
		<g>
			<path class="st10" d="M75.29,89.35l3.91-0.03c0.23,0,0.41,0.23,0.41,0.52c0,0.29-0.18,0.52-0.4,0.52l-3.91,0.03
				c-0.23,0-0.41-0.23-0.41-0.52C74.88,89.59,75.06,89.35,75.29,89.35z"/>
		</g>
		<g>
			<path class="st10" d="M82.27,89.3l3.91-0.03c0.23,0,0.41,0.23,0.41,0.52c0,0.29-0.18,0.52-0.4,0.52l-3.91,0.03
				c-0.23,0-0.41-0.23-0.41-0.52C81.86,89.54,82.04,89.3,82.27,89.3z"/>
		</g>
		<g>
			<path class="st10" d="M89.29,89.25l3.91-0.03c0.23,0,0.41,0.23,0.41,0.52c0,0.29-0.18,0.52-0.4,0.52l-3.91,0.03
				c-0.23,0-0.41-0.23-0.41-0.52C88.88,89.49,89.07,89.25,89.29,89.25z"/>
		</g>
	</g>
	<g class="st19">
		<g>
			<path class="st10" d="M7.69,46.22l3.91-0.03c0.23,0,0.41,0.23,0.41,0.52c0,0.29-0.18,0.52-0.4,0.52L7.7,47.27
				c-0.23,0-0.41-0.23-0.41-0.52C7.29,46.46,7.47,46.23,7.69,46.22z"/>
		</g>
		<g>
			<path class="st10" d="M14.87,46.17l3.91-0.03c0.23,0,0.41,0.23,0.41,0.52c0,0.29-0.18,0.52-0.4,0.52l-3.91,0.03
				c-0.23,0-0.41-0.23-0.41-0.52C14.46,46.41,14.64,46.18,14.87,46.17z"/>
		</g>
		<g>
			<path class="st10" d="M22.04,46.12l3.91-0.03c0.23,0,0.41,0.23,0.41,0.52c0,0.29-0.18,0.52-0.4,0.52l-3.91,0.03
				c-0.23,0-0.41-0.23-0.41-0.52C21.63,46.36,21.81,46.13,22.04,46.12z"/>
		</g>
		<g>
			<path class="st10" d="M29.21,46.07l3.91-0.03c0.23,0,0.41,0.23,0.41,0.52c0,0.29-0.18,0.52-0.4,0.52l-3.91,0.03
				c-0.23,0-0.41-0.23-0.41-0.52C28.8,46.31,28.98,46.08,29.21,46.07z"/>
		</g>
		<g>
			<path class="st10" d="M36.38,46.02L40.29,46c0.23,0,0.41,0.23,0.41,0.52c0,0.29-0.18,0.52-0.4,0.52l-3.91,0.03
				c-0.23,0-0.41-0.23-0.41-0.52C35.97,46.26,36.15,46.03,36.38,46.02z"/>
		</g>
		<g>
			<path class="st10" d="M43.55,45.97l3.91-0.03c0.23,0,0.41,0.23,0.41,0.52c0,0.29-0.18,0.52-0.4,0.52l-3.91,0.03
				c-0.23,0-0.41-0.23-0.41-0.52C43.14,46.21,43.33,45.98,43.55,45.97z"/>
		</g>
		<g>
			<path class="st10" d="M50.72,45.92l3.91-0.03c0.23,0,0.41,0.23,0.41,0.52c0,0.29-0.18,0.52-0.4,0.52l-3.91,0.03
				c-0.23,0-0.41-0.23-0.41-0.52C50.32,46.16,50.5,45.92,50.72,45.92z"/>
		</g>
		<g>
			<path class="st10" d="M57.89,45.87l3.91-0.03c0.23,0,0.41,0.23,0.41,0.52c0,0.29-0.18,0.52-0.4,0.52l-3.91,0.03
				c-0.23,0-0.41-0.23-0.41-0.52C57.49,46.11,57.67,45.87,57.89,45.87z"/>
		</g>
		<g>
			<path class="st10" d="M65.06,45.82l3.91-0.03c0.23,0,0.41,0.23,0.41,0.52c0,0.29-0.18,0.52-0.4,0.52l-3.91,0.03
				c-0.23,0-0.41-0.23-0.41-0.52C64.66,46.06,64.84,45.82,65.06,45.82z"/>
		</g>
		<g>
			<path class="st10" d="M72.64,45.77l3.91-0.03c0.23,0,0.41,0.23,0.41,0.52c0,0.29-0.18,0.52-0.4,0.52l-3.91,0.03
				c-0.23,0-0.41-0.23-0.41-0.52C72.23,46.01,72.42,45.77,72.64,45.77z"/>
		</g>
		<g>
			<path class="st10" d="M79.62,45.72l3.91-0.03c0.23,0,0.41,0.23,0.41,0.52c0,0.29-0.18,0.52-0.4,0.52l-3.91,0.03
				c-0.23,0-0.41-0.23-0.41-0.52C79.21,45.96,79.39,45.72,79.62,45.72z"/>
		</g>
		<g>
			<path class="st10" d="M86.64,45.67l3.91-0.03c0.23,0,0.41,0.23,0.41,0.52c0,0.29-0.18,0.52-0.4,0.52l-3.91,0.03
				c-0.23,0-0.41-0.23-0.41-0.52C86.24,45.91,86.42,45.67,86.64,45.67z"/>
		</g>
	</g>
	<g class="st19">
		<g>
			<path class="st10" d="M9.91,89.16l3.91-0.03c0.23,0,0.41,0.23,0.41,0.52c0,0.29-0.18,0.52-0.4,0.52L9.92,90.2
				c-0.23,0-0.41-0.23-0.41-0.52C9.51,89.39,9.69,89.16,9.91,89.16z"/>
		</g>
		<g>
			<path class="st10" d="M17.08,89.11l3.91-0.03c0.23,0,0.41,0.23,0.41,0.52s-0.18,0.52-0.4,0.52l-3.91,0.03
				c-0.23,0-0.41-0.23-0.41-0.52C16.68,89.34,16.86,89.11,17.08,89.11z"/>
		</g>
		<g>
			<path class="st10" d="M24.25,89.06l3.91-0.03c0.23,0,0.41,0.23,0.41,0.52c0,0.29-0.18,0.52-0.4,0.52l-3.91,0.03
				c-0.23,0-0.41-0.23-0.41-0.52S24.03,89.06,24.25,89.06z"/>
		</g>
		<g>
			<path class="st10" d="M31.43,89.01l3.91-0.03c0.23,0,0.41,0.23,0.41,0.52s-0.18,0.52-0.4,0.52l-3.91,0.03
				c-0.23,0-0.41-0.23-0.41-0.52C31.02,89.24,31.2,89.01,31.43,89.01z"/>
		</g>
		<g>
			<path class="st10" d="M38.6,88.96l3.91-0.03c0.23,0,0.41,0.23,0.41,0.52c0,0.29-0.18,0.52-0.4,0.52L38.6,90
				c-0.23,0-0.41-0.23-0.41-0.52S38.37,88.96,38.6,88.96z"/>
		</g>
		<g>
			<path class="st10" d="M45.77,88.91l3.91-0.03c0.23,0,0.41,0.23,0.41,0.52c0,0.29-0.18,0.52-0.4,0.52l-3.91,0.03
				c-0.23,0-0.41-0.23-0.41-0.52C45.36,89.14,45.54,88.91,45.77,88.91z"/>
		</g>
		<g>
			<path class="st10" d="M52.94,88.86l3.91-0.03c0.23,0,0.41,0.23,0.41,0.52c0,0.29-0.18,0.52-0.4,0.52l-3.91,0.03
				c-0.23,0-0.41-0.23-0.41-0.52S52.71,88.86,52.94,88.86z"/>
		</g>
		<g>
			<path class="st10" d="M60.11,88.81l3.91-0.03c0.23,0,0.41,0.23,0.41,0.52c0,0.29-0.18,0.52-0.4,0.52l-3.91,0.03
				c-0.23,0-0.41-0.23-0.41-0.52C59.7,89.04,59.89,88.81,60.11,88.81z"/>
		</g>
		<g>
			<path class="st10" d="M67.28,88.76l3.91-0.03c0.23,0,0.41,0.23,0.41,0.52c0,0.29-0.18,0.52-0.4,0.52l-3.91,0.03
				c-0.23,0-0.41-0.23-0.41-0.52C66.88,88.99,67.06,88.76,67.28,88.76z"/>
		</g>
		<g>
			<path class="st10" d="M74.86,88.7l3.91-0.03c0.23,0,0.41,0.23,0.41,0.52c0,0.29-0.18,0.52-0.4,0.52l-3.91,0.03
				c-0.23,0-0.41-0.23-0.41-0.52C74.45,88.94,74.63,88.71,74.86,88.7z"/>
		</g>
		<g>
			<path class="st10" d="M81.84,88.66l3.91-0.03c0.23,0,0.41,0.23,0.41,0.52c0,0.29-0.18,0.52-0.4,0.52l-3.91,0.03
				c-0.23,0-0.41-0.23-0.41-0.52C81.43,88.89,81.61,88.66,81.84,88.66z"/>
		</g>
		<g>
			<path class="st10" d="M88.86,88.61l3.91-0.03c0.23,0,0.41,0.23,0.41,0.52c0,0.29-0.18,0.52-0.4,0.52l-3.91,0.03
				c-0.23,0-0.41-0.23-0.41-0.52C88.45,88.84,88.63,88.61,88.86,88.61z"/>
		</g>
	</g>
</g>
</svg>
