<?xml version="1.0" encoding="utf-8"?>
<!-- Generator: Adobe Illustrator 24.2.0, SVG Export Plug-In . SVG Version: 6.00 Build 0)  -->
<svg version="1.1" id="Layer_1" xmlns="http://www.w3.org/2000/svg" xmlns:xlink="http://www.w3.org/1999/xlink" x="0px" y="0px"
	 viewBox="0 0 100 100" style="enable-background:new 0 0 100 100;" xml:space="preserve">
<style type="text/css">
	.st0{fill:#4C1F11;}
	.st1{fill:#33120A;}
	.st2{fill:#894919;}
	.st3{fill:#230202;}
	.st4{fill:#823919;}
	.st5{fill:#CE7728;}
	.st6{fill:#B76623;}
	.st7{fill:#EC902F;}
	.st8{fill:#602000;}
	.st9{fill:#BC691E;}
	.st10{fill:#EF9A4D;}
	.st11{fill:#2B0101;}
	.st12{fill:url(#SVGID_1_);}
	.st13{fill:url(#SVGID_2_);}
	.st14{fill:url(#SVGID_3_);}
	.st15{fill:url(#SVGID_6_);}
	.st16{fill:url(#SVGID_7_);}
	.st17{fill:url(#SVGID_8_);}
	.st18{fill:url(#SVGID_11_);}
	.st19{fill:url(#SVGID_12_);}
	.st20{fill:url(#SVGID_13_);}
	.st21{fill:url(#SVGID_16_);}
	.st22{fill:url(#SVGID_17_);}
	.st23{fill:url(#SVGID_18_);}
	.st24{fill:url(#SVGID_21_);}
	.st25{fill:url(#SVGID_22_);}
	.st26{fill:url(#SVGID_23_);}
	.st27{fill:url(#SVGID_24_);}
	.st28{fill:url(#SVGID_25_);}
	.st29{fill:url(#SVGID_26_);}
	.st30{fill:url(#SVGID_29_);}
	.st31{fill:url(#SVGID_30_);}
	.st32{fill:url(#SVGID_31_);}
	.st33{fill:url(#SVGID_34_);}
	.st34{fill:url(#SVGID_35_);}
	.st35{fill:url(#SVGID_36_);}
	.st36{fill:url(#SVGID_39_);}
	.st37{fill:url(#SVGID_40_);}
	.st38{fill:url(#SVGID_41_);}
	.st39{fill:url(#SVGID_44_);}
	.st40{fill:url(#SVGID_45_);}
	.st41{fill:url(#SVGID_46_);}
	.st42{fill:url(#SVGID_49_);}
	.st43{fill:url(#SVGID_50_);}
	.st44{fill:url(#SVGID_51_);}
	.st45{fill:url(#SVGID_54_);}
	.st46{fill:url(#SVGID_55_);}
	.st47{fill:url(#SVGID_56_);}
	.st48{fill:#161616;}
	.st49{fill:#FFFFFA;}
</style>
<g>
	<g>
		<g>
			<polygon class="st0" points="7.16,24.81 20.86,45.24 80.09,45.24 92.2,24.19 			"/>
			<rect x="20.86" y="14.63" class="st1" width="59.23" height="30.61"/>
			<g>
				<g>
					<polygon class="st2" points="20.12,46.44 6.58,26.06 9.33,26.06 23.03,46.44 					"/>
					<polygon class="st2" points="80.97,46.44 93.59,25.32 90.84,25.32 78.05,46.44 					"/>
				</g>
				<rect x="20.12" y="44.05" class="st2" width="59.98" height="2.39"/>
			</g>
			<rect x="16.69" y="50.72" class="st3" width="67.81" height="15.94"/>
			<path class="st4" d="M16.92,3.27c0,0,31.75-1.57,65.14,0l4.42,0.94l2.53,20.78L7.8,24.37l3.76-19.22L16.92,3.27z"/>
			<polygon class="st5" points="6.35,59.79 20.12,46.44 20.12,55.01 15.02,59.56 			"/>
			<polygon class="st5" points="94.27,59.88 80.97,46.44 80.97,55.01 85.53,59.56 			"/>
			<rect x="20.12" y="46.44" class="st6" width="60.85" height="8.57"/>
			<path class="st7" d="M90.41,4.28c-0.63-1.06-1.77-1.71-3.01-1.71h-4.77c-0.55,0-0.87,0.62-0.55,1.06
				c7.23,10.05,4.92,19.31,4.92,19.31h-33.9h-6.22h-33.9c0,0-2.31-9.26,4.92-19.31c0.32-0.44,0-1.06-0.55-1.06h-4.77
				c-1.23,0-2.38,0.65-3.01,1.71C7.44,7.92,3.02,15.69,5.03,24.5c0.31,1.38,1.55,2.36,2.97,2.36h38.89h6.22H92
				c1.42,0,2.66-0.98,2.97-2.36C96.98,15.69,92.56,7.92,90.41,4.28z"/>
			<polygon class="st8" points="86.58,13.12 13.41,13.15 13.79,11.79 86.2,11.79 			"/>
		</g>
		<g>
			<path class="st9" d="M54.69,20.95H44.43c-1.5,0-2.72,1.22-2.72,2.72v5.62c0,1.5,1.22,2.72,2.72,2.72h10.26
				c1.5,0,2.72-1.22,2.72-2.72v-5.62C57.41,22.16,56.19,20.95,54.69,20.95z"/>
			<path class="st10" d="M54.69,20.12H44.43c-1.5,0-2.72,1.22-2.72,2.72v5.62c0,1.5,1.22,2.72,2.72,2.72h10.26
				c1.5,0,2.72-1.22,2.72-2.72v-5.62C57.41,21.33,56.19,20.12,54.69,20.12z"/>
			<g>
				<circle class="st11" cx="49.56" cy="23.77" r="1.7"/>
				<polygon class="st11" points="49.56,23.77 48.08,28.53 51.26,28.53 				"/>
			</g>
		</g>
	</g>
	<g>
		<linearGradient id="SVGID_1_" gradientUnits="userSpaceOnUse" x1="10.6694" y1="48.3007" x2="32.3182" y2="69.9496">
			<stop  offset="0" style="stop-color:#FFA900"/>
			<stop  offset="1" style="stop-color:#B44005"/>
		</linearGradient>
		<path class="st12" d="M36.14,52.61L36.14,52.61c0.01-0.52-0.35-1.03-0.94-1.12l-8.22-1.19c-0.36-0.05-0.67-0.28-0.83-0.6
			l-3.68-7.45c-0.4-0.82-1.56-0.82-1.97,0l-3.68,7.45c-0.16,0.32-0.47,0.55-0.83,0.6L7.79,51.5c-0.59,0.09-0.95,0.6-0.94,1.12h0
			v2.25h0c-0.02,0.3,0.08,0.61,0.33,0.85l5.95,5.8c0.02,0.02,0.05,0.05,0.07,0.07l-1.16,6.75c-0.06,0.35-0.01,2.64-0.01,2.66
			c0.01,0.1,0.04,0.2,0.08,0.29c0.01,0.02,0.02,0.05,0.03,0.07c0.06,0.11,0.13,0.21,0.22,0.29c0.05,0.05,0.11,0.1,0.17,0.13
			c0.17,0.1,0.36,0.17,0.56,0.17c0.05,0,0.11,0,0.16-0.01c0.07-0.01,0.13-0.02,0.2-0.05c0.02-0.01,0.03-0.01,0.05-0.02
			c0.03-0.01,0.06-0.02,0.09-0.04c0.01-0.01,0.02-0.01,0.04-0.02l7.35-3.87c0.32-0.17,0.7-0.17,1.02,0l7.35,3.87
			c0.01,0.01,0.02,0.01,0.04,0.02c0.11,0.06,0.23,0.09,0.35,0.1c0.05,0.01,0.1,0.01,0.15,0.01c0.05,0,0.1-0.01,0.15-0.01
			c0.44-0.07,0.82-0.42,0.9-0.87c0.01-0.05,0.02-0.1,0.02-0.16c0-0.05,0.04-2.23-0.02-2.58l-1.16-6.75
			c0.02-0.03,0.04-0.05,0.07-0.07l5.95-5.8h0c0.25-0.24,0.35-0.55,0.33-0.85h0V52.61z"/>
		<g>
			<linearGradient id="SVGID_2_" gradientUnits="userSpaceOnUse" x1="21.4938" y1="69.6088" x2="21.4938" y2="41.6388">
				<stop  offset="0" style="stop-color:#FFD700"/>
				<stop  offset="1" style="stop-color:#FFA900"/>
			</linearGradient>
			<path class="st13" d="M22.48,42.25l3.68,7.45c0.16,0.32,0.47,0.55,0.83,0.6l8.22,1.19c0.9,0.13,1.26,1.24,0.61,1.87l-5.95,5.8
				c-0.26,0.25-0.38,0.61-0.32,0.97l1.4,8.19c0.15,0.9-0.79,1.58-1.59,1.16L22,65.61c-0.32-0.17-0.7-0.17-1.02,0l-7.35,3.87
				c-0.8,0.42-1.74-0.26-1.59-1.16l1.4-8.19c0.06-0.36-0.06-0.72-0.32-0.97l-5.95-5.8c-0.65-0.63-0.29-1.74,0.61-1.87l8.22-1.19
				c0.36-0.05,0.67-0.28,0.83-0.6l3.68-7.45C20.91,41.44,22.07,41.44,22.48,42.25z"/>
			<linearGradient id="SVGID_3_" gradientUnits="userSpaceOnUse" x1="21.4938" y1="68.5394" x2="21.4938" y2="41.8856">
				<stop  offset="0" style="stop-color:#FFA900"/>
				<stop  offset="1" style="stop-color:#FFD700"/>
			</linearGradient>
			<path class="st14" d="M29.87,68.54c-0.07,0-0.14-0.02-0.2-0.05l-7.35-3.87c-0.25-0.13-0.53-0.2-0.82-0.2
				c-0.28,0-0.57,0.07-0.82,0.2l-7.35,3.87c-0.07,0.04-0.14,0.05-0.2,0.05c-0.13,0-0.25-0.06-0.34-0.16
				c-0.06-0.07-0.12-0.19-0.09-0.35l1.4-8.19c0.1-0.57-0.09-1.15-0.5-1.55l-5.95-5.8c-0.18-0.17-0.14-0.37-0.11-0.45
				c0.03-0.08,0.11-0.26,0.35-0.3l8.22-1.19c0.57-0.08,1.07-0.44,1.32-0.96l3.68-7.45c0.11-0.22,0.31-0.24,0.39-0.24
				s0.28,0.02,0.39,0.24l3.68,7.45c0.26,0.52,0.75,0.88,1.32,0.96l8.22,1.19c0.24,0.04,0.33,0.22,0.35,0.3
				c0.03,0.08,0.07,0.28-0.11,0.45l-5.95,5.8c-0.41,0.4-0.6,0.98-0.5,1.55l1.4,8.19c0.03,0.17-0.03,0.28-0.09,0.35
				C30.12,68.48,30,68.54,29.87,68.54z"/>
		</g>
		<g>
			<defs>
				<path id="SVGID_4_" d="M22.48,42.25l3.68,7.45c0.16,0.32,0.47,0.55,0.83,0.6l8.22,1.19c0.9,0.13,1.26,1.24,0.61,1.87l-5.95,5.8
					c-0.26,0.25-0.38,0.61-0.32,0.97l1.4,8.19c0.15,0.9-0.79,1.58-1.59,1.16L22,65.61c-0.32-0.17-0.7-0.17-1.02,0l-7.35,3.87
					c-0.8,0.42-1.74-0.26-1.59-1.16l1.4-8.19c0.06-0.36-0.06-0.72-0.32-0.97l-5.95-5.8c-0.65-0.63-0.29-1.74,0.61-1.87l8.22-1.19
					c0.36-0.05,0.67-0.28,0.83-0.6l3.68-7.45C20.91,41.44,22.07,41.44,22.48,42.25z"/>
			</defs>
			<clipPath id="SVGID_5_">
				<use xlink:href="#SVGID_4_"  style="overflow:visible;"/>
			</clipPath>
		</g>
		<linearGradient id="SVGID_6_" gradientUnits="userSpaceOnUse" x1="31.5703" y1="49.1355" x2="46.3788" y2="63.944">
			<stop  offset="0" style="stop-color:#FFA900"/>
			<stop  offset="1" style="stop-color:#B44005"/>
		</linearGradient>
		<path class="st15" d="M48.99,52.08L48.99,52.08c0.01-0.36-0.24-0.7-0.64-0.76l-5.62-0.82c-0.24-0.04-0.46-0.19-0.56-0.41L39.65,45
			c-0.28-0.56-1.07-0.56-1.35,0l-2.52,5.1c-0.11,0.22-0.32,0.37-0.56,0.41l-5.62,0.82c-0.41,0.06-0.65,0.41-0.64,0.76h0v1.54h0
			c-0.01,0.2,0.06,0.41,0.23,0.58l4.07,3.97c0.02,0.02,0.03,0.03,0.05,0.05l-0.79,4.61c-0.04,0.24-0.01,1.8-0.01,1.82
			c0.01,0.07,0.03,0.14,0.05,0.2c0.01,0.02,0.01,0.03,0.02,0.05c0.04,0.08,0.09,0.14,0.15,0.2c0.04,0.03,0.08,0.07,0.12,0.09
			c0.11,0.07,0.25,0.11,0.38,0.12c0.04,0,0.07,0,0.11-0.01c0.05-0.01,0.09-0.02,0.14-0.03c0.01,0,0.02-0.01,0.03-0.01
			c0.02-0.01,0.04-0.02,0.06-0.03c0.01,0,0.02-0.01,0.02-0.01l5.03-2.64c0.22-0.11,0.48-0.11,0.7,0l5.03,2.64
			c0.01,0,0.02,0.01,0.02,0.01c0.08,0.04,0.16,0.06,0.24,0.07c0.03,0,0.07,0.01,0.1,0.01c0.03,0,0.07,0,0.1-0.01
			c0.3-0.05,0.56-0.28,0.62-0.59c0.01-0.03,0.01-0.07,0.01-0.11c0-0.04,0.03-1.53-0.01-1.77l-0.79-4.62
			c0.01-0.02,0.03-0.03,0.05-0.05l4.07-3.97h0c0.17-0.16,0.24-0.38,0.23-0.58h0V52.08z"/>
		<g>
			<linearGradient id="SVGID_7_" gradientUnits="userSpaceOnUse" x1="38.9746" y1="63.7109" x2="38.9746" y2="44.5786">
				<stop  offset="0" style="stop-color:#FFD700"/>
				<stop  offset="1" style="stop-color:#FFA900"/>
			</linearGradient>
			<path class="st16" d="M39.65,45l2.52,5.1c0.11,0.22,0.32,0.37,0.56,0.41l5.62,0.82c0.62,0.09,0.86,0.85,0.42,1.28l-4.07,3.97
				c-0.18,0.17-0.26,0.42-0.22,0.66l0.96,5.6c0.11,0.61-0.54,1.08-1.09,0.79l-5.03-2.64c-0.22-0.11-0.48-0.11-0.7,0l-5.03,2.64
				c-0.55,0.29-1.19-0.18-1.09-0.79l0.96-5.6c0.04-0.24-0.04-0.49-0.22-0.66l-4.07-3.97c-0.45-0.43-0.2-1.19,0.42-1.28l5.62-0.82
				c0.24-0.04,0.46-0.19,0.56-0.41L38.3,45C38.58,44.44,39.37,44.44,39.65,45z"/>
			<linearGradient id="SVGID_8_" gradientUnits="userSpaceOnUse" x1="38.9746" y1="62.9794" x2="38.9746" y2="44.7474">
				<stop  offset="0" style="stop-color:#FFA900"/>
				<stop  offset="1" style="stop-color:#FFD700"/>
			</linearGradient>
			<path class="st17" d="M44.7,62.98c-0.05,0-0.09-0.01-0.14-0.04l-5.03-2.64c-0.17-0.09-0.36-0.14-0.56-0.14
				c-0.19,0-0.39,0.05-0.56,0.14l-5.03,2.64c-0.05,0.02-0.09,0.04-0.14,0.04c-0.09,0-0.17-0.04-0.23-0.11
				c-0.04-0.05-0.08-0.13-0.06-0.24l0.96-5.6c0.07-0.39-0.06-0.79-0.35-1.06L29.5,52c-0.12-0.12-0.09-0.25-0.08-0.31
				c0.02-0.05,0.08-0.18,0.24-0.2l5.62-0.82c0.39-0.06,0.73-0.3,0.9-0.66l2.52-5.1c0.07-0.15,0.21-0.17,0.27-0.17
				c0.06,0,0.19,0.02,0.27,0.17l2.52,5.1c0.17,0.35,0.51,0.6,0.9,0.66l5.62,0.82c0.17,0.02,0.22,0.15,0.24,0.2
				c0.02,0.05,0.04,0.19-0.08,0.31l-4.07,3.97c-0.28,0.28-0.41,0.67-0.35,1.06l0.96,5.6c0.02,0.11-0.02,0.19-0.06,0.24
				C44.88,62.94,44.79,62.98,44.7,62.98z"/>
		</g>
		<g>
			<defs>
				<path id="SVGID_9_" d="M39.65,45l2.52,5.1c0.11,0.22,0.32,0.37,0.56,0.41l5.62,0.82c0.62,0.09,0.86,0.85,0.42,1.28l-4.07,3.97
					c-0.18,0.17-0.26,0.42-0.22,0.66l0.96,5.6c0.11,0.61-0.54,1.08-1.09,0.79l-5.03-2.64c-0.22-0.11-0.48-0.11-0.7,0l-5.03,2.64
					c-0.55,0.29-1.19-0.18-1.09-0.79l0.96-5.6c0.04-0.24-0.04-0.49-0.22-0.66l-4.07-3.97c-0.45-0.43-0.2-1.19,0.42-1.28l5.62-0.82
					c0.24-0.04,0.46-0.19,0.56-0.41L38.3,45C38.58,44.44,39.37,44.44,39.65,45z"/>
			</defs>
			<clipPath id="SVGID_10_">
				<use xlink:href="#SVGID_9_"  style="overflow:visible;"/>
			</clipPath>
		</g>
		<linearGradient id="SVGID_11_" gradientUnits="userSpaceOnUse" x1="50.1536" y1="53.4875" x2="63.492" y2="66.826">
			<stop  offset="0" style="stop-color:#FFA900"/>
			<stop  offset="1" style="stop-color:#B44005"/>
		</linearGradient>
		<path class="st18" d="M65.85,56.14L65.85,56.14c0.01-0.32-0.21-0.63-0.58-0.69l-5.07-0.74c-0.22-0.03-0.41-0.17-0.51-0.37
			l-2.27-4.59c-0.25-0.5-0.96-0.5-1.21,0l-2.27,4.59c-0.1,0.2-0.29,0.34-0.51,0.37l-5.07,0.74c-0.37,0.05-0.59,0.37-0.58,0.69h0
			v1.38h0c-0.01,0.18,0.05,0.37,0.2,0.52l3.67,3.57c0.01,0.01,0.03,0.03,0.04,0.05L51,65.82c-0.04,0.22-0.01,1.62-0.01,1.64
			c0.01,0.06,0.02,0.12,0.05,0.18c0.01,0.01,0.01,0.03,0.02,0.04c0.04,0.07,0.08,0.13,0.14,0.18c0.03,0.03,0.07,0.06,0.11,0.08
			c0.1,0.06,0.22,0.1,0.34,0.11c0.03,0,0.07,0,0.1-0.01c0.04-0.01,0.08-0.01,0.12-0.03c0.01,0,0.02-0.01,0.03-0.01
			c0.02-0.01,0.04-0.01,0.05-0.02c0.01,0,0.01-0.01,0.02-0.01l4.53-2.38c0.2-0.1,0.43-0.1,0.63,0l4.53,2.38
			c0.01,0,0.01,0.01,0.02,0.01c0.07,0.03,0.14,0.05,0.21,0.06c0.03,0,0.06,0.01,0.09,0s0.06,0,0.09-0.01
			c0.27-0.04,0.5-0.26,0.56-0.54c0.01-0.03,0.01-0.06,0.01-0.1c0-0.03,0.03-1.38-0.01-1.59l-0.71-4.16
			c0.01-0.02,0.03-0.03,0.04-0.04l3.67-3.57h0c0.15-0.15,0.21-0.34,0.2-0.52h0V56.14z"/>
		<g>
			<linearGradient id="SVGID_12_" gradientUnits="userSpaceOnUse" x1="56.8228" y1="66.616" x2="56.8228" y2="49.383">
				<stop  offset="0" style="stop-color:#FFD700"/>
				<stop  offset="1" style="stop-color:#FFA900"/>
			</linearGradient>
			<path class="st19" d="M57.43,49.76l2.27,4.59c0.1,0.2,0.29,0.34,0.51,0.37l5.07,0.74c0.55,0.08,0.78,0.76,0.37,1.15l-3.67,3.57
				c-0.16,0.16-0.23,0.38-0.19,0.6l0.87,5.05c0.09,0.55-0.48,0.97-0.98,0.71l-4.53-2.38c-0.2-0.1-0.43-0.1-0.63,0l-4.53,2.38
				c-0.5,0.26-1.08-0.16-0.98-0.71l0.87-5.05c0.04-0.22-0.04-0.44-0.19-0.6L48,56.61c-0.4-0.39-0.18-1.07,0.37-1.15l5.07-0.74
				c0.22-0.03,0.41-0.17,0.51-0.37l2.27-4.59C56.46,49.26,57.18,49.26,57.43,49.76z"/>
			<linearGradient id="SVGID_13_" gradientUnits="userSpaceOnUse" x1="56.8228" y1="65.9571" x2="56.8228" y2="49.535">
				<stop  offset="0" style="stop-color:#FFA900"/>
				<stop  offset="1" style="stop-color:#FFD700"/>
			</linearGradient>
			<path class="st20" d="M61.98,65.96c-0.04,0-0.08-0.01-0.13-0.03l-4.53-2.38c-0.15-0.08-0.33-0.12-0.5-0.12
				c-0.17,0-0.35,0.04-0.5,0.12l-4.53,2.38c-0.04,0.02-0.08,0.03-0.13,0.03c-0.08,0-0.16-0.04-0.21-0.1
				c-0.04-0.04-0.07-0.11-0.06-0.22l0.87-5.05c0.06-0.35-0.06-0.71-0.31-0.96l-3.67-3.57c-0.11-0.11-0.08-0.23-0.07-0.28
				c0.02-0.05,0.07-0.16,0.22-0.18l5.07-0.74c0.35-0.05,0.66-0.27,0.81-0.59l2.27-4.59c0.07-0.14,0.19-0.15,0.24-0.15
				s0.18,0.01,0.24,0.15l2.27,4.59c0.16,0.32,0.46,0.54,0.81,0.59l5.07,0.74c0.15,0.02,0.2,0.14,0.22,0.18
				c0.02,0.05,0.04,0.17-0.07,0.28l-3.67,3.57c-0.25,0.25-0.37,0.61-0.31,0.96l0.87,5.05c0.02,0.1-0.02,0.18-0.06,0.22
				C62.14,65.92,62.06,65.96,61.98,65.96z"/>
		</g>
		<g>
			<defs>
				<path id="SVGID_14_" d="M57.43,49.76l2.27,4.59c0.1,0.2,0.29,0.34,0.51,0.37l5.07,0.74c0.55,0.08,0.78,0.76,0.37,1.15
					l-3.67,3.57c-0.16,0.16-0.23,0.38-0.19,0.6l0.87,5.05c0.09,0.55-0.48,0.97-0.98,0.71l-4.53-2.38c-0.2-0.1-0.43-0.1-0.63,0
					l-4.53,2.38c-0.5,0.26-1.08-0.16-0.98-0.71l0.87-5.05c0.04-0.22-0.04-0.44-0.19-0.6L48,56.61c-0.4-0.39-0.18-1.07,0.37-1.15
					l5.07-0.74c0.22-0.03,0.41-0.17,0.51-0.37l2.27-4.59C56.46,49.26,57.18,49.26,57.43,49.76z"/>
			</defs>
			<clipPath id="SVGID_15_">
				<use xlink:href="#SVGID_14_"  style="overflow:visible;"/>
			</clipPath>
		</g>
		<linearGradient id="SVGID_16_" gradientUnits="userSpaceOnUse" x1="41.515" y1="33.4138" x2="58.8844" y2="50.7832">
			<stop  offset="0" style="stop-color:#FFA900"/>
			<stop  offset="1" style="stop-color:#B44005"/>
		</linearGradient>
		<path class="st21" d="M61.95,36.87L61.95,36.87c0.01-0.42-0.28-0.83-0.75-0.9l-6.6-0.96c-0.29-0.04-0.53-0.22-0.66-0.48
			l-2.95-5.98c-0.32-0.65-1.26-0.65-1.58,0l-2.95,5.98c-0.13,0.26-0.38,0.44-0.66,0.48l-6.6,0.96c-0.48,0.07-0.76,0.48-0.75,0.9h0
			v1.8h0c-0.01,0.24,0.07,0.49,0.26,0.68l4.77,4.65c0.02,0.02,0.04,0.04,0.05,0.06l-0.93,5.41c-0.05,0.28-0.01,2.12-0.01,2.14
			c0.01,0.08,0.03,0.16,0.06,0.24c0.01,0.02,0.02,0.04,0.03,0.05c0.05,0.09,0.11,0.17,0.18,0.24c0.04,0.04,0.09,0.08,0.14,0.11
			c0.13,0.08,0.29,0.13,0.45,0.14c0.04,0,0.09,0,0.13-0.01c0.05-0.01,0.11-0.02,0.16-0.04c0.01,0,0.03-0.01,0.04-0.01
			c0.02-0.01,0.05-0.02,0.07-0.03c0.01,0,0.02-0.01,0.03-0.01l5.9-3.1c0.26-0.13,0.56-0.13,0.82,0l5.9,3.1
			c0.01,0.01,0.02,0.01,0.03,0.01c0.09,0.04,0.18,0.07,0.28,0.08c0.04,0,0.08,0.01,0.12,0.01c0.04,0,0.08,0,0.12-0.01
			c0.35-0.06,0.65-0.33,0.73-0.7c0.01-0.04,0.01-0.08,0.02-0.12c0-0.04,0.04-1.79-0.01-2.07l-0.93-5.41
			c0.02-0.02,0.04-0.04,0.05-0.06l4.77-4.65h0c0.2-0.19,0.28-0.44,0.26-0.68h0V36.87z"/>
		<g>
			<linearGradient id="SVGID_17_" gradientUnits="userSpaceOnUse" x1="50.1997" y1="50.5098" x2="50.1997" y2="28.0688">
				<stop  offset="0" style="stop-color:#FFD700"/>
				<stop  offset="1" style="stop-color:#FFA900"/>
			</linearGradient>
			<path class="st22" d="M50.99,28.56l2.95,5.98c0.13,0.26,0.38,0.44,0.66,0.48l6.6,0.96c0.72,0.1,1.01,0.99,0.49,1.5l-4.77,4.65
				c-0.21,0.2-0.3,0.49-0.25,0.78l1.13,6.57c0.12,0.72-0.63,1.27-1.28,0.93l-5.9-3.1c-0.26-0.13-0.56-0.13-0.82,0l-5.9,3.1
				c-0.65,0.34-1.4-0.21-1.28-0.93l1.13-6.57c0.05-0.29-0.05-0.58-0.25-0.78l-4.77-4.65c-0.52-0.51-0.23-1.4,0.49-1.5l6.6-0.96
				c0.29-0.04,0.53-0.22,0.66-0.48l2.95-5.98C49.73,27.91,50.67,27.91,50.99,28.56z"/>
			<linearGradient id="SVGID_18_" gradientUnits="userSpaceOnUse" x1="50.1997" y1="49.6518" x2="50.1997" y2="28.2669">
				<stop  offset="0" style="stop-color:#FFA900"/>
				<stop  offset="1" style="stop-color:#FFD700"/>
			</linearGradient>
			<path class="st23" d="M56.92,49.65c-0.06,0-0.11-0.01-0.16-0.04l-5.9-3.1c-0.2-0.11-0.43-0.16-0.66-0.16
				c-0.23,0-0.45,0.06-0.66,0.16l-5.9,3.1c-0.05,0.03-0.11,0.04-0.16,0.04c-0.1,0-0.2-0.05-0.27-0.13c-0.05-0.06-0.1-0.15-0.07-0.28
				l1.13-6.57c0.08-0.46-0.07-0.92-0.4-1.25l-4.77-4.65c-0.14-0.14-0.11-0.3-0.09-0.36c0.02-0.06,0.09-0.21,0.28-0.24l6.6-0.96
				c0.46-0.07,0.86-0.35,1.06-0.77l2.95-5.98c0.09-0.18,0.25-0.2,0.32-0.2s0.23,0.02,0.32,0.2l2.95,5.98
				c0.21,0.42,0.6,0.7,1.06,0.77l6.6,0.96c0.2,0.03,0.26,0.18,0.28,0.24c0.02,0.06,0.05,0.22-0.09,0.36l-4.77,4.65
				c-0.33,0.32-0.48,0.79-0.4,1.25l1.13,6.57c0.02,0.13-0.03,0.23-0.07,0.28C57.12,49.6,57.02,49.65,56.92,49.65z"/>
		</g>
		<g>
			<defs>
				<path id="SVGID_19_" d="M50.99,28.56l2.95,5.98c0.13,0.26,0.38,0.44,0.66,0.48l6.6,0.96c0.72,0.1,1.01,0.99,0.49,1.5l-4.77,4.65
					c-0.21,0.2-0.3,0.49-0.25,0.78l1.13,6.57c0.12,0.72-0.63,1.27-1.28,0.93l-5.9-3.1c-0.26-0.13-0.56-0.13-0.82,0l-5.9,3.1
					c-0.65,0.34-1.4-0.21-1.28-0.93l1.13-6.57c0.05-0.29-0.05-0.58-0.25-0.78l-4.77-4.65c-0.52-0.51-0.23-1.4,0.49-1.5l6.6-0.96
					c0.29-0.04,0.53-0.22,0.66-0.48l2.95-5.98C49.73,27.91,50.67,27.91,50.99,28.56z"/>
			</defs>
			<clipPath id="SVGID_20_">
				<use xlink:href="#SVGID_19_"  style="overflow:visible;"/>
			</clipPath>
		</g>
		<g>
			<linearGradient id="SVGID_21_" gradientUnits="userSpaceOnUse" x1="56.164" y1="43.5698" x2="67.1097" y2="54.5156">
				<stop  offset="0" style="stop-color:#FFA900"/>
				<stop  offset="1" style="stop-color:#B44005"/>
			</linearGradient>
			<path class="st24" d="M69.04,45.75L69.04,45.75c0.01-0.26-0.18-0.52-0.48-0.56l-4.16-0.6c-0.18-0.03-0.34-0.14-0.42-0.3
				l-1.86-3.77c-0.2-0.41-0.79-0.41-0.99,0l-1.86,3.77c-0.08,0.16-0.24,0.28-0.42,0.3l-4.16,0.6c-0.3,0.04-0.48,0.3-0.48,0.56h0
				v1.14h0c-0.01,0.15,0.04,0.31,0.17,0.43l3.01,2.93c0.01,0.01,0.02,0.02,0.03,0.04l-0.59,3.41c-0.03,0.18-0.01,1.33,0,1.35
				c0.01,0.05,0.02,0.1,0.04,0.15c0.01,0.01,0.01,0.02,0.02,0.03c0.03,0.06,0.07,0.11,0.11,0.15c0.03,0.03,0.06,0.05,0.09,0.07
				c0.08,0.05,0.18,0.08,0.28,0.09c0.03,0,0.06,0,0.08,0c0.03,0,0.07-0.01,0.1-0.02c0.01,0,0.02-0.01,0.02-0.01
				c0.01-0.01,0.03-0.01,0.04-0.02c0.01,0,0.01-0.01,0.02-0.01l3.72-1.95c0.16-0.08,0.35-0.08,0.52,0l3.72,1.95
				c0.01,0,0.01,0.01,0.02,0.01c0.06,0.03,0.12,0.05,0.17,0.05c0.03,0,0.05,0,0.08,0s0.05,0,0.08-0.01
				c0.22-0.04,0.41-0.21,0.46-0.44c0-0.03,0.01-0.05,0.01-0.08c0-0.03,0.02-1.13-0.01-1.31l-0.59-3.41
				c0.01-0.01,0.02-0.03,0.03-0.04l3.01-2.93h0c0.12-0.12,0.18-0.28,0.17-0.43h0V45.75z"/>
			<g>
				<linearGradient id="SVGID_22_" gradientUnits="userSpaceOnUse" x1="61.6369" y1="54.3433" x2="61.6369" y2="40.2015">
					<stop  offset="0" style="stop-color:#FFD700"/>
					<stop  offset="1" style="stop-color:#FFA900"/>
				</linearGradient>
				<path class="st25" d="M62.13,40.51l1.86,3.77c0.08,0.16,0.24,0.28,0.42,0.3l4.16,0.6c0.45,0.07,0.64,0.62,0.31,0.95l-3.01,2.93
					c-0.13,0.13-0.19,0.31-0.16,0.49l0.71,4.14c0.08,0.45-0.4,0.8-0.8,0.58l-3.72-1.95c-0.16-0.08-0.35-0.08-0.52,0l-3.72,1.95
					c-0.41,0.21-0.88-0.13-0.8-0.58l0.71-4.14c0.03-0.18-0.03-0.36-0.16-0.49l-3.01-2.93c-0.33-0.32-0.15-0.88,0.31-0.95l4.16-0.6
					c0.18-0.03,0.34-0.14,0.42-0.3l1.86-3.77C61.34,40.1,61.93,40.1,62.13,40.51z"/>
				<linearGradient id="SVGID_23_" gradientUnits="userSpaceOnUse" x1="61.6369" y1="53.8026" x2="61.6369" y2="40.3263">
					<stop  offset="0" style="stop-color:#FFA900"/>
					<stop  offset="1" style="stop-color:#FFD700"/>
				</linearGradient>
				<path class="st26" d="M65.87,53.8c-0.03,0-0.07-0.01-0.1-0.03l-3.72-1.95c-0.13-0.07-0.27-0.1-0.41-0.1
					c-0.14,0-0.29,0.04-0.41,0.1l-3.72,1.95c-0.03,0.02-0.07,0.03-0.1,0.03c-0.06,0-0.13-0.03-0.17-0.08
					c-0.03-0.03-0.06-0.09-0.05-0.18l0.71-4.14c0.05-0.29-0.05-0.58-0.26-0.79l-3.01-2.93c-0.09-0.09-0.07-0.19-0.06-0.23
					c0.01-0.04,0.06-0.13,0.18-0.15l4.16-0.6c0.29-0.04,0.54-0.22,0.67-0.49l1.86-3.77c0.06-0.11,0.16-0.12,0.2-0.12
					s0.14,0.01,0.2,0.12l1.86,3.77c0.13,0.26,0.38,0.44,0.67,0.49l4.16,0.6c0.12,0.02,0.17,0.11,0.18,0.15
					c0.01,0.04,0.03,0.14-0.06,0.23l-3.01,2.93c-0.21,0.2-0.3,0.5-0.26,0.79l0.71,4.14c0.01,0.08-0.02,0.14-0.05,0.18
					C66,53.77,65.94,53.8,65.87,53.8z"/>
			</g>
		</g>
		<linearGradient id="SVGID_24_" gradientUnits="userSpaceOnUse" x1="78.9617" y1="50.5575" x2="91.52" y2="63.1158">
			<stop  offset="0" style="stop-color:#FFA900"/>
			<stop  offset="1" style="stop-color:#B44005"/>
		</linearGradient>
		<path class="st27" d="M93.74,53.06L93.74,53.06c0.01-0.3-0.2-0.6-0.55-0.65l-4.77-0.69c-0.21-0.03-0.39-0.16-0.48-0.35l-2.13-4.32
			c-0.23-0.47-0.91-0.47-1.14,0l-2.13,4.32c-0.09,0.19-0.27,0.32-0.48,0.35l-4.77,0.69c-0.34,0.05-0.55,0.35-0.55,0.65h0v1.3h0
			c-0.01,0.17,0.05,0.35,0.19,0.49l3.45,3.36c0.01,0.01,0.03,0.03,0.04,0.04l-0.67,3.91c-0.03,0.2-0.01,1.53-0.01,1.54
			c0.01,0.06,0.02,0.12,0.05,0.17c0.01,0.01,0.01,0.03,0.02,0.04c0.03,0.06,0.08,0.12,0.13,0.17c0.03,0.03,0.06,0.06,0.1,0.08
			c0.1,0.06,0.21,0.1,0.32,0.1c0.03,0,0.06,0,0.1-0.01c0.04-0.01,0.08-0.01,0.12-0.03c0.01,0,0.02-0.01,0.03-0.01
			c0.02-0.01,0.03-0.01,0.05-0.02c0.01,0,0.01-0.01,0.02-0.01l4.27-2.24c0.19-0.1,0.41-0.1,0.59,0l4.27,2.24
			c0.01,0,0.01,0.01,0.02,0.01c0.07,0.03,0.13,0.05,0.2,0.06c0.03,0,0.06,0,0.09,0c0.03,0,0.06,0,0.09-0.01
			c0.26-0.04,0.47-0.24,0.52-0.5c0.01-0.03,0.01-0.06,0.01-0.09c0-0.03,0.03-1.3-0.01-1.5l-0.67-3.91c0.01-0.01,0.03-0.03,0.04-0.04
			l3.45-3.36h0c0.14-0.14,0.2-0.32,0.19-0.49h0V53.06z"/>
		<g>
			<linearGradient id="SVGID_25_" gradientUnits="userSpaceOnUse" x1="85.2408" y1="62.9181" x2="85.2408" y2="46.693">
				<stop  offset="0" style="stop-color:#FFD700"/>
				<stop  offset="1" style="stop-color:#FFA900"/>
			</linearGradient>
			<path class="st28" d="M85.81,47.05l2.13,4.32c0.09,0.19,0.27,0.32,0.48,0.35l4.77,0.69c0.52,0.08,0.73,0.72,0.35,1.09l-3.45,3.36
				c-0.15,0.15-0.22,0.36-0.18,0.56l0.81,4.75c0.09,0.52-0.46,0.92-0.92,0.67l-4.27-2.24c-0.19-0.1-0.41-0.1-0.59,0l-4.27,2.24
				c-0.47,0.25-1.01-0.15-0.92-0.67l0.81-4.75c0.04-0.21-0.03-0.42-0.18-0.56l-3.45-3.36c-0.38-0.37-0.17-1.01,0.35-1.09l4.77-0.69
				c0.21-0.03,0.39-0.16,0.48-0.35l2.13-4.32C84.9,46.57,85.58,46.57,85.81,47.05z"/>
			<linearGradient id="SVGID_26_" gradientUnits="userSpaceOnUse" x1="85.2408" y1="62.2977" x2="85.2408" y2="46.8362">
				<stop  offset="0" style="stop-color:#FFA900"/>
				<stop  offset="1" style="stop-color:#FFD700"/>
			</linearGradient>
			<path class="st29" d="M90.1,62.3c-0.04,0-0.08-0.01-0.12-0.03l-4.27-2.24c-0.15-0.08-0.31-0.12-0.47-0.12
				c-0.16,0-0.33,0.04-0.47,0.12l-4.27,2.24c-0.04,0.02-0.08,0.03-0.12,0.03c-0.07,0-0.15-0.04-0.2-0.09
				c-0.03-0.04-0.07-0.11-0.05-0.2l0.81-4.75c0.06-0.33-0.05-0.67-0.29-0.9l-3.45-3.36c-0.1-0.1-0.08-0.22-0.06-0.26
				s0.06-0.15,0.21-0.17l4.77-0.69c0.33-0.05,0.62-0.26,0.77-0.56l2.13-4.32c0.06-0.13,0.18-0.14,0.23-0.14s0.16,0.01,0.23,0.14
				l2.13,4.32c0.15,0.3,0.43,0.51,0.77,0.56l4.77,0.69c0.14,0.02,0.19,0.13,0.21,0.17c0.01,0.05,0.04,0.16-0.06,0.26l-3.45,3.36
				c-0.24,0.23-0.35,0.57-0.29,0.9L90.35,62c0.02,0.1-0.02,0.16-0.05,0.2C90.25,62.26,90.17,62.3,90.1,62.3z"/>
		</g>
		<g>
			<defs>
				<path id="SVGID_27_" d="M85.81,47.05l2.13,4.32c0.09,0.19,0.27,0.32,0.48,0.35l4.77,0.69c0.52,0.08,0.73,0.72,0.35,1.09
					l-3.45,3.36c-0.15,0.15-0.22,0.36-0.18,0.56l0.81,4.75c0.09,0.52-0.46,0.92-0.92,0.67l-4.27-2.24c-0.19-0.1-0.41-0.1-0.59,0
					l-4.27,2.24c-0.47,0.25-1.01-0.15-0.92-0.67l0.81-4.75c0.04-0.21-0.03-0.42-0.18-0.56l-3.45-3.36
					c-0.38-0.37-0.17-1.01,0.35-1.09l4.77-0.69c0.21-0.03,0.39-0.16,0.48-0.35l2.13-4.32C84.9,46.57,85.58,46.57,85.81,47.05z"/>
			</defs>
			<clipPath id="SVGID_28_">
				<use xlink:href="#SVGID_27_"  style="overflow:visible;"/>
			</clipPath>
		</g>
		<linearGradient id="SVGID_29_" gradientUnits="userSpaceOnUse" x1="66.0923" y1="53.7477" x2="74.9905" y2="62.6459">
			<stop  offset="0" style="stop-color:#FFA900"/>
			<stop  offset="1" style="stop-color:#B44005"/>
		</linearGradient>
		<path class="st30" d="M76.56,55.52L76.56,55.52c0-0.21-0.14-0.42-0.39-0.46l-3.38-0.49c-0.15-0.02-0.27-0.11-0.34-0.25l-1.51-3.06
			c-0.17-0.34-0.64-0.34-0.81,0l-1.51,3.06c-0.07,0.13-0.19,0.23-0.34,0.25l-3.38,0.49c-0.24,0.04-0.39,0.25-0.39,0.46h0v0.92h0
			c-0.01,0.12,0.03,0.25,0.14,0.35l2.45,2.38c0.01,0.01,0.02,0.02,0.03,0.03l-0.48,2.77c-0.02,0.14,0,1.08,0,1.09
			c0.01,0.04,0.02,0.08,0.03,0.12c0,0.01,0.01,0.02,0.01,0.03c0.02,0.05,0.05,0.09,0.09,0.12c0.02,0.02,0.05,0.04,0.07,0.06
			c0.07,0.04,0.15,0.07,0.23,0.07c0.02,0,0.04,0,0.07,0c0.03,0,0.05-0.01,0.08-0.02c0.01,0,0.01,0,0.02-0.01
			c0.01,0,0.02-0.01,0.04-0.02c0,0,0.01,0,0.01-0.01l3.02-1.59c0.13-0.07,0.29-0.07,0.42,0l3.02,1.59c0,0,0.01,0,0.01,0.01
			c0.05,0.02,0.09,0.04,0.14,0.04c0.02,0,0.04,0,0.06,0c0.02,0,0.04,0,0.06-0.01c0.18-0.03,0.34-0.17,0.37-0.36
			c0-0.02,0.01-0.04,0.01-0.06c0-0.02,0.02-0.92-0.01-1.06l-0.48-2.77c0.01-0.01,0.02-0.02,0.03-0.03l2.45-2.38h0
			c0.1-0.1,0.14-0.23,0.14-0.35h0V55.52z"/>
		<g>
			<linearGradient id="SVGID_30_" gradientUnits="userSpaceOnUse" x1="70.5414" y1="62.5058" x2="70.5414" y2="51.0095">
				<stop  offset="0" style="stop-color:#FFD700"/>
				<stop  offset="1" style="stop-color:#FFA900"/>
			</linearGradient>
			<path class="st31" d="M70.95,51.26l1.51,3.06c0.07,0.13,0.19,0.23,0.34,0.25l3.38,0.49c0.37,0.05,0.52,0.51,0.25,0.77l-2.45,2.38
				c-0.11,0.1-0.15,0.25-0.13,0.4l0.58,3.37c0.06,0.37-0.32,0.65-0.65,0.48l-3.02-1.59c-0.13-0.07-0.29-0.07-0.42,0l-3.02,1.59
				c-0.33,0.17-0.72-0.11-0.65-0.48l0.58-3.37c0.03-0.15-0.02-0.3-0.13-0.4l-2.45-2.38c-0.27-0.26-0.12-0.72,0.25-0.77l3.38-0.49
				c0.15-0.02,0.27-0.11,0.34-0.25l1.51-3.06C70.3,50.93,70.78,50.93,70.95,51.26z"/>
			<linearGradient id="SVGID_31_" gradientUnits="userSpaceOnUse" x1="70.5414" y1="62.0663" x2="70.5414" y2="51.1109">
				<stop  offset="0" style="stop-color:#FFA900"/>
				<stop  offset="1" style="stop-color:#FFD700"/>
			</linearGradient>
			<path class="st32" d="M73.98,62.07c-0.03,0-0.06-0.01-0.08-0.02l-3.02-1.59c-0.1-0.05-0.22-0.08-0.34-0.08s-0.23,0.03-0.34,0.08
				l-3.02,1.59c-0.03,0.01-0.06,0.02-0.08,0.02c-0.05,0-0.1-0.02-0.14-0.07c-0.02-0.03-0.05-0.08-0.04-0.15l0.58-3.37
				c0.04-0.23-0.04-0.47-0.21-0.64l-2.45-2.38c-0.07-0.07-0.06-0.15-0.05-0.18s0.05-0.11,0.15-0.12l3.38-0.49
				c0.23-0.03,0.44-0.18,0.54-0.39l1.51-3.06c0.04-0.09,0.13-0.1,0.16-0.1c0.03,0,0.12,0.01,0.16,0.1l1.51,3.06
				c0.11,0.21,0.31,0.36,0.54,0.39l3.38,0.49c0.1,0.01,0.14,0.09,0.15,0.12c0.01,0.03,0.03,0.11-0.05,0.18l-2.45,2.38
				c-0.17,0.17-0.25,0.4-0.21,0.64l0.58,3.37c0.01,0.07-0.01,0.12-0.04,0.15C74.09,62.04,74.04,62.07,73.98,62.07z"/>
		</g>
		<g>
			<defs>
				<path id="SVGID_32_" d="M70.95,51.26l1.51,3.06c0.07,0.13,0.19,0.23,0.34,0.25l3.38,0.49c0.37,0.05,0.52,0.51,0.25,0.77
					l-2.45,2.38c-0.11,0.1-0.15,0.25-0.13,0.4l0.58,3.37c0.06,0.37-0.32,0.65-0.65,0.48l-3.02-1.59c-0.13-0.07-0.29-0.07-0.42,0
					l-3.02,1.59c-0.33,0.17-0.72-0.11-0.65-0.48l0.58-3.37c0.03-0.15-0.02-0.3-0.13-0.4l-2.45-2.38c-0.27-0.26-0.12-0.72,0.25-0.77
					l3.38-0.49c0.15-0.02,0.27-0.11,0.34-0.25l1.51-3.06C70.3,50.93,70.78,50.93,70.95,51.26z"/>
			</defs>
			<clipPath id="SVGID_33_">
				<use xlink:href="#SVGID_32_"  style="overflow:visible;"/>
			</clipPath>
		</g>
		<g>
			<linearGradient id="SVGID_34_" gradientUnits="userSpaceOnUse" x1="70.4904" y1="44.1341" x2="79.3886" y2="53.0323">
				<stop  offset="0" style="stop-color:#FFA900"/>
				<stop  offset="1" style="stop-color:#B44005"/>
			</linearGradient>
			<path class="st33" d="M80.96,45.91L80.96,45.91c0-0.21-0.14-0.42-0.39-0.46l-3.38-0.49c-0.15-0.02-0.27-0.11-0.34-0.25
				l-1.51-3.06c-0.17-0.34-0.64-0.34-0.81,0l-1.51,3.06c-0.07,0.13-0.19,0.23-0.34,0.25l-3.38,0.49c-0.24,0.04-0.39,0.25-0.39,0.46
				h0v0.92h0c-0.01,0.12,0.03,0.25,0.14,0.35l2.45,2.38c0.01,0.01,0.02,0.02,0.03,0.03l-0.48,2.77c-0.02,0.14,0,1.08,0,1.09
				c0.01,0.04,0.02,0.08,0.03,0.12c0,0.01,0.01,0.02,0.01,0.03c0.02,0.05,0.05,0.09,0.09,0.12c0.02,0.02,0.05,0.04,0.07,0.06
				c0.07,0.04,0.15,0.07,0.23,0.07c0.02,0,0.04,0,0.07,0c0.03,0,0.05-0.01,0.08-0.02c0.01,0,0.01,0,0.02-0.01
				c0.01,0,0.02-0.01,0.04-0.02c0,0,0.01,0,0.01-0.01l3.02-1.59c0.13-0.07,0.29-0.07,0.42,0l3.02,1.59c0,0,0.01,0,0.01,0.01
				c0.05,0.02,0.09,0.04,0.14,0.04c0.02,0,0.04,0,0.06,0c0.02,0,0.04,0,0.06-0.01c0.18-0.03,0.34-0.17,0.37-0.36
				c0-0.02,0.01-0.04,0.01-0.06c0-0.02,0.02-0.92-0.01-1.06l-0.48-2.77c0.01-0.01,0.02-0.02,0.03-0.03l2.45-2.38h0
				c0.1-0.1,0.14-0.23,0.14-0.35h0V45.91z"/>
			<g>
				<linearGradient id="SVGID_35_" gradientUnits="userSpaceOnUse" x1="74.9395" y1="52.8922" x2="74.9395" y2="41.3959">
					<stop  offset="0" style="stop-color:#FFD700"/>
					<stop  offset="1" style="stop-color:#FFA900"/>
				</linearGradient>
				<path class="st34" d="M75.34,41.65l1.51,3.06c0.07,0.13,0.19,0.23,0.34,0.25l3.38,0.49c0.37,0.05,0.52,0.51,0.25,0.77
					l-2.45,2.38c-0.11,0.1-0.15,0.25-0.13,0.4l0.58,3.37c0.06,0.37-0.32,0.65-0.65,0.48l-3.02-1.59c-0.13-0.07-0.29-0.07-0.42,0
					l-3.02,1.59c-0.33,0.17-0.72-0.11-0.65-0.48L71.63,49c0.03-0.15-0.02-0.3-0.13-0.4l-2.45-2.38c-0.27-0.26-0.12-0.72,0.25-0.77
					l3.38-0.49c0.15-0.02,0.27-0.11,0.34-0.25l1.51-3.06C74.7,41.31,75.18,41.31,75.34,41.65z"/>
				<linearGradient id="SVGID_36_" gradientUnits="userSpaceOnUse" x1="74.9395" y1="52.4527" x2="74.9395" y2="41.4973">
					<stop  offset="0" style="stop-color:#FFA900"/>
					<stop  offset="1" style="stop-color:#FFD700"/>
				</linearGradient>
				<path class="st35" d="M78.38,52.45c-0.03,0-0.06-0.01-0.08-0.02l-3.02-1.59c-0.1-0.05-0.22-0.08-0.34-0.08
					c-0.12,0-0.23,0.03-0.34,0.08l-3.02,1.59c-0.03,0.01-0.06,0.02-0.08,0.02c-0.05,0-0.1-0.02-0.14-0.07
					c-0.02-0.03-0.05-0.08-0.04-0.15l0.58-3.37c0.04-0.23-0.04-0.47-0.21-0.64l-2.45-2.38c-0.07-0.07-0.06-0.15-0.05-0.18
					s0.05-0.11,0.15-0.12l3.38-0.49c0.23-0.03,0.44-0.18,0.54-0.39l1.51-3.06c0.04-0.09,0.13-0.1,0.16-0.1
					c0.03,0,0.12,0.01,0.16,0.1l1.51,3.06c0.11,0.21,0.31,0.36,0.54,0.39l3.38,0.49c0.1,0.01,0.14,0.09,0.15,0.12
					c0.01,0.03,0.03,0.11-0.05,0.18l-2.45,2.38c-0.17,0.17-0.25,0.4-0.21,0.64l0.58,3.37c0.01,0.07-0.01,0.12-0.04,0.15
					C78.49,52.43,78.43,52.45,78.38,52.45z"/>
			</g>
			<g>
				<defs>
					<path id="SVGID_37_" d="M75.34,41.65l1.51,3.06c0.07,0.13,0.19,0.23,0.34,0.25l3.38,0.49c0.37,0.05,0.52,0.51,0.25,0.77
						l-2.45,2.38c-0.11,0.1-0.15,0.25-0.13,0.4l0.58,3.37c0.06,0.37-0.32,0.65-0.65,0.48l-3.02-1.59c-0.13-0.07-0.29-0.07-0.42,0
						l-3.02,1.59c-0.33,0.17-0.72-0.11-0.65-0.48L71.63,49c0.03-0.15-0.02-0.3-0.13-0.4l-2.45-2.38c-0.27-0.26-0.12-0.72,0.25-0.77
						l3.38-0.49c0.15-0.02,0.27-0.11,0.34-0.25l1.51-3.06C74.7,41.31,75.18,41.31,75.34,41.65z"/>
				</defs>
				<clipPath id="SVGID_38_">
					<use xlink:href="#SVGID_37_"  style="overflow:visible;"/>
				</clipPath>
			</g>
		</g>
		<linearGradient id="SVGID_39_" gradientUnits="userSpaceOnUse" x1="62.9988" y1="30.2682" x2="74.7219" y2="41.9913">
			<stop  offset="0" style="stop-color:#FFA900"/>
			<stop  offset="1" style="stop-color:#B44005"/>
		</linearGradient>
		<path class="st36" d="M76.79,32.6L76.79,32.6c0.01-0.28-0.19-0.56-0.51-0.6l-4.45-0.65c-0.19-0.03-0.36-0.15-0.45-0.32l-1.99-4.03
			c-0.22-0.44-0.85-0.44-1.07,0l-1.99,4.03c-0.09,0.18-0.25,0.3-0.45,0.32L61.44,32c-0.32,0.05-0.52,0.32-0.51,0.6h0v1.22h0
			c-0.01,0.16,0.04,0.33,0.18,0.46l3.22,3.14c0.01,0.01,0.02,0.03,0.04,0.04l-0.63,3.65c-0.03,0.19-0.01,1.43,0,1.44
			c0.01,0.06,0.02,0.11,0.04,0.16c0.01,0.01,0.01,0.02,0.02,0.04c0.03,0.06,0.07,0.11,0.12,0.16c0.03,0.03,0.06,0.05,0.09,0.07
			c0.09,0.06,0.19,0.09,0.3,0.09c0.03,0,0.06,0,0.09-0.01c0.04,0,0.07-0.01,0.11-0.03c0.01,0,0.02-0.01,0.03-0.01
			c0.02-0.01,0.03-0.01,0.05-0.02c0.01,0,0.01-0.01,0.02-0.01l3.98-2.09c0.17-0.09,0.38-0.09,0.55,0L73.12,43
			c0.01,0,0.01,0.01,0.02,0.01c0.06,0.03,0.12,0.05,0.19,0.06c0.03,0,0.06,0,0.08,0s0.05,0,0.08-0.01c0.24-0.04,0.44-0.22,0.49-0.47
			c0.01-0.03,0.01-0.06,0.01-0.08c0-0.03,0.02-1.21-0.01-1.4l-0.63-3.65c0.01-0.01,0.02-0.03,0.04-0.04l3.22-3.14h0
			c0.13-0.13,0.19-0.3,0.18-0.46h0V32.6z"/>
		<g>
			<linearGradient id="SVGID_40_" gradientUnits="userSpaceOnUse" x1="68.8603" y1="41.8068" x2="68.8603" y2="26.6606">
				<stop  offset="0" style="stop-color:#FFD700"/>
				<stop  offset="1" style="stop-color:#FFA900"/>
			</linearGradient>
			<path class="st37" d="M69.39,26.99l1.99,4.03c0.09,0.18,0.25,0.3,0.45,0.32L76.28,32c0.49,0.07,0.68,0.67,0.33,1.01l-3.22,3.14
				c-0.14,0.14-0.2,0.33-0.17,0.53l0.76,4.43c0.08,0.49-0.43,0.86-0.86,0.63l-3.98-2.09c-0.17-0.09-0.38-0.09-0.55,0l-3.98,2.09
				c-0.44,0.23-0.94-0.14-0.86-0.63l0.76-4.43c0.03-0.19-0.03-0.39-0.17-0.53l-3.22-3.14c-0.35-0.34-0.16-0.94,0.33-1.01l4.45-0.65
				c0.19-0.03,0.36-0.15,0.45-0.32l1.99-4.03C68.55,26.55,69.18,26.55,69.39,26.99z"/>
			<linearGradient id="SVGID_41_" gradientUnits="userSpaceOnUse" x1="68.8603" y1="41.2277" x2="68.8603" y2="26.7943">
				<stop  offset="0" style="stop-color:#FFA900"/>
				<stop  offset="1" style="stop-color:#FFD700"/>
			</linearGradient>
			<path class="st38" d="M73.4,41.23c-0.04,0-0.07-0.01-0.11-0.03l-3.98-2.09C69.17,39.03,69.01,39,68.86,39
				c-0.15,0-0.31,0.04-0.44,0.11l-3.98,2.09c-0.04,0.02-0.07,0.03-0.11,0.03c-0.07,0-0.14-0.03-0.18-0.09
				c-0.03-0.04-0.07-0.1-0.05-0.19l0.76-4.43c0.05-0.31-0.05-0.62-0.27-0.84l-3.22-3.14c-0.1-0.09-0.07-0.2-0.06-0.24
				c0.01-0.04,0.06-0.14,0.19-0.16l4.45-0.65c0.31-0.04,0.58-0.24,0.72-0.52l1.99-4.03c0.06-0.12,0.17-0.13,0.21-0.13
				c0.04,0,0.15,0.01,0.21,0.13l1.99,4.03c0.14,0.28,0.41,0.47,0.72,0.52l4.45,0.65c0.13,0.02,0.18,0.12,0.19,0.16
				c0.01,0.04,0.04,0.15-0.06,0.24l-3.22,3.14c-0.22,0.22-0.33,0.53-0.27,0.84l0.76,4.43c0.02,0.09-0.02,0.15-0.05,0.19
				C73.53,41.19,73.46,41.23,73.4,41.23z"/>
		</g>
		<g>
			<defs>
				<path id="SVGID_42_" d="M69.39,26.99l1.99,4.03c0.09,0.18,0.25,0.3,0.45,0.32L76.28,32c0.49,0.07,0.68,0.67,0.33,1.01
					l-3.22,3.14c-0.14,0.14-0.2,0.33-0.17,0.53l0.76,4.43c0.08,0.49-0.43,0.86-0.86,0.63l-3.98-2.09c-0.17-0.09-0.38-0.09-0.55,0
					l-3.98,2.09c-0.44,0.23-0.94-0.14-0.86-0.63l0.76-4.43c0.03-0.19-0.03-0.39-0.17-0.53l-3.22-3.14
					c-0.35-0.34-0.16-0.94,0.33-1.01l4.45-0.65c0.19-0.03,0.36-0.15,0.45-0.32l1.99-4.03C68.55,26.55,69.18,26.55,69.39,26.99z"/>
			</defs>
			<clipPath id="SVGID_43_">
				<use xlink:href="#SVGID_42_"  style="overflow:visible;"/>
			</clipPath>
		</g>
		<linearGradient id="SVGID_44_" gradientUnits="userSpaceOnUse" x1="76.5575" y1="35.6936" x2="84.1371" y2="43.2732">
			<stop  offset="0" style="stop-color:#FFA900"/>
			<stop  offset="1" style="stop-color:#B44005"/>
		</linearGradient>
		<path class="st39" d="M85.48,37.2L85.48,37.2c0-0.18-0.12-0.36-0.33-0.39l-2.88-0.42c-0.13-0.02-0.23-0.1-0.29-0.21l-1.29-2.61
			c-0.14-0.29-0.55-0.29-0.69,0l-1.29,2.61c-0.06,0.11-0.16,0.19-0.29,0.21l-2.88,0.42c-0.21,0.03-0.33,0.21-0.33,0.39h0v0.79h0
			c-0.01,0.1,0.03,0.21,0.12,0.3l2.08,2.03c0.01,0.01,0.02,0.02,0.02,0.03l-0.41,2.36c-0.02,0.12,0,0.92,0,0.93
			c0,0.04,0.01,0.07,0.03,0.1c0,0.01,0.01,0.02,0.01,0.02c0.02,0.04,0.05,0.07,0.08,0.1c0.02,0.02,0.04,0.03,0.06,0.05
			c0.06,0.04,0.13,0.06,0.2,0.06c0.02,0,0.04,0,0.06,0c0.02,0,0.05-0.01,0.07-0.02c0.01,0,0.01,0,0.02-0.01
			c0.01,0,0.02-0.01,0.03-0.01c0,0,0.01,0,0.01-0.01l2.57-1.35c0.11-0.06,0.25-0.06,0.36,0l2.57,1.35c0,0,0.01,0,0.01,0.01
			c0.04,0.02,0.08,0.03,0.12,0.04c0.02,0,0.04,0,0.05,0c0.02,0,0.04,0,0.05,0c0.15-0.03,0.29-0.15,0.32-0.3
			c0-0.02,0.01-0.04,0.01-0.05c0-0.02,0.02-0.78-0.01-0.9l-0.41-2.36c0.01-0.01,0.02-0.02,0.02-0.03l2.08-2.03h0
			c0.09-0.08,0.12-0.19,0.12-0.3h0V37.2z"/>
		<g>
			<linearGradient id="SVGID_45_" gradientUnits="userSpaceOnUse" x1="80.3473" y1="43.1539" x2="80.3473" y2="33.3611">
				<stop  offset="0" style="stop-color:#FFD700"/>
				<stop  offset="1" style="stop-color:#FFA900"/>
			</linearGradient>
			<path class="st40" d="M80.69,33.58l1.29,2.61c0.06,0.11,0.16,0.19,0.29,0.21l2.88,0.42c0.31,0.05,0.44,0.43,0.21,0.65l-2.08,2.03
				c-0.09,0.09-0.13,0.22-0.11,0.34l0.49,2.87c0.05,0.31-0.28,0.55-0.56,0.4l-2.57-1.35c-0.11-0.06-0.25-0.06-0.36,0l-2.57,1.35
				c-0.28,0.15-0.61-0.09-0.56-0.4l0.49-2.87c0.02-0.12-0.02-0.25-0.11-0.34l-2.08-2.03c-0.23-0.22-0.1-0.61,0.21-0.65l2.88-0.42
				c0.13-0.02,0.23-0.1,0.29-0.21L80,33.58C80.14,33.29,80.55,33.29,80.69,33.58z"/>
			<linearGradient id="SVGID_46_" gradientUnits="userSpaceOnUse" x1="80.3473" y1="42.7795" x2="80.3473" y2="33.4475">
				<stop  offset="0" style="stop-color:#FFA900"/>
				<stop  offset="1" style="stop-color:#FFD700"/>
			</linearGradient>
			<path class="st41" d="M83.28,42.78c-0.02,0-0.05-0.01-0.07-0.02l-2.57-1.35c-0.09-0.05-0.19-0.07-0.29-0.07
				c-0.1,0-0.2,0.02-0.29,0.07l-2.57,1.35c-0.02,0.01-0.05,0.02-0.07,0.02c-0.04,0-0.09-0.02-0.12-0.06
				c-0.02-0.02-0.04-0.07-0.03-0.12l0.49-2.87c0.03-0.2-0.03-0.4-0.18-0.54l-2.08-2.03c-0.06-0.06-0.05-0.13-0.04-0.16
				c0.01-0.03,0.04-0.09,0.12-0.1l2.88-0.42c0.2-0.03,0.37-0.15,0.46-0.34l1.29-2.61c0.04-0.08,0.11-0.09,0.14-0.09
				s0.1,0.01,0.14,0.09l1.29,2.61c0.09,0.18,0.26,0.31,0.46,0.34l2.88,0.42c0.09,0.01,0.12,0.08,0.12,0.1
				c0.01,0.03,0.02,0.1-0.04,0.16l-2.08,2.03c-0.14,0.14-0.21,0.34-0.18,0.54l0.49,2.87c0.01,0.06-0.01,0.1-0.03,0.12
				C83.37,42.76,83.32,42.78,83.28,42.78z"/>
		</g>
		<g>
			<defs>
				<path id="SVGID_47_" d="M80.69,33.58l1.29,2.61c0.06,0.11,0.16,0.19,0.29,0.21l2.88,0.42c0.31,0.05,0.44,0.43,0.21,0.65
					l-2.08,2.03c-0.09,0.09-0.13,0.22-0.11,0.34l0.49,2.87c0.05,0.31-0.28,0.55-0.56,0.4l-2.57-1.35c-0.11-0.06-0.25-0.06-0.36,0
					l-2.57,1.35c-0.28,0.15-0.61-0.09-0.56-0.4l0.49-2.87c0.02-0.12-0.02-0.25-0.11-0.34l-2.08-2.03c-0.23-0.22-0.1-0.61,0.21-0.65
					l2.88-0.42c0.13-0.02,0.23-0.1,0.29-0.21L80,33.58C80.14,33.29,80.55,33.29,80.69,33.58z"/>
			</defs>
			<clipPath id="SVGID_48_">
				<use xlink:href="#SVGID_47_"  style="overflow:visible;"/>
			</clipPath>
		</g>
		<linearGradient id="SVGID_49_" gradientUnits="userSpaceOnUse" x1="12.3647" y1="30.602" x2="21.2772" y2="39.5145">
			<stop  offset="0" style="stop-color:#FFA900"/>
			<stop  offset="1" style="stop-color:#B44005"/>
		</linearGradient>
		<path class="st42" d="M22.85,32.38L22.85,32.38c0-0.21-0.14-0.42-0.39-0.46l-3.38-0.49c-0.15-0.02-0.27-0.11-0.34-0.25l-1.51-3.07
			c-0.17-0.34-0.64-0.34-0.81,0l-1.51,3.07c-0.07,0.13-0.19,0.23-0.34,0.25l-3.38,0.49c-0.24,0.04-0.39,0.25-0.39,0.46h0v0.92h0
			c-0.01,0.12,0.03,0.25,0.14,0.35l2.45,2.39c0.01,0.01,0.02,0.02,0.03,0.03l-0.48,2.78c-0.02,0.14,0,1.09,0,1.1
			c0.01,0.04,0.02,0.08,0.03,0.12c0,0.01,0.01,0.02,0.01,0.03c0.02,0.05,0.05,0.09,0.09,0.12c0.02,0.02,0.05,0.04,0.07,0.06
			c0.07,0.04,0.15,0.07,0.23,0.07c0.02,0,0.04,0,0.07,0c0.03,0,0.05-0.01,0.08-0.02c0.01,0,0.01,0,0.02-0.01
			c0.01,0,0.02-0.01,0.04-0.02c0.01,0,0.01,0,0.02-0.01l3.03-1.59c0.13-0.07,0.29-0.07,0.42,0l3.03,1.59c0,0,0.01,0,0.01,0.01
			c0.05,0.02,0.09,0.04,0.14,0.04c0.02,0,0.04,0,0.06,0s0.04,0,0.06-0.01c0.18-0.03,0.34-0.17,0.37-0.36c0-0.02,0.01-0.04,0.01-0.06
			c0-0.02,0.02-0.92-0.01-1.06l-0.48-2.78c0.01-0.01,0.02-0.02,0.03-0.03l2.45-2.39h0c0.1-0.1,0.14-0.23,0.14-0.35h0V32.38z"/>
		<g>
			<linearGradient id="SVGID_50_" gradientUnits="userSpaceOnUse" x1="16.821" y1="39.3742" x2="16.821" y2="27.8594">
				<stop  offset="0" style="stop-color:#FFD700"/>
				<stop  offset="1" style="stop-color:#FFA900"/>
			</linearGradient>
			<path class="st43" d="M17.23,28.11l1.51,3.07c0.07,0.13,0.19,0.23,0.34,0.25l3.38,0.49c0.37,0.05,0.52,0.51,0.25,0.77l-2.45,2.39
				c-0.11,0.1-0.15,0.25-0.13,0.4l0.58,3.37c0.06,0.37-0.32,0.65-0.66,0.48l-3.03-1.59c-0.13-0.07-0.29-0.07-0.42,0l-3.03,1.59
				c-0.33,0.17-0.72-0.11-0.66-0.48l0.58-3.37c0.03-0.15-0.02-0.3-0.13-0.4l-2.45-2.39c-0.27-0.26-0.12-0.72,0.25-0.77l3.38-0.49
				c0.15-0.02,0.27-0.11,0.34-0.25l1.51-3.07C16.58,27.78,17.06,27.78,17.23,28.11z"/>
			<linearGradient id="SVGID_51_" gradientUnits="userSpaceOnUse" x1="16.821" y1="38.9339" x2="16.821" y2="27.961">
				<stop  offset="0" style="stop-color:#FFA900"/>
				<stop  offset="1" style="stop-color:#FFD700"/>
			</linearGradient>
			<path class="st44" d="M20.27,38.93c-0.03,0-0.06-0.01-0.08-0.02l-3.03-1.59c-0.1-0.05-0.22-0.08-0.34-0.08
				c-0.12,0-0.23,0.03-0.34,0.08l-3.03,1.59c-0.03,0.01-0.06,0.02-0.08,0.02c-0.05,0-0.1-0.02-0.14-0.07
				c-0.02-0.03-0.05-0.08-0.04-0.15l0.58-3.37c0.04-0.23-0.04-0.47-0.21-0.64l-2.45-2.39c-0.07-0.07-0.06-0.15-0.05-0.19
				s0.05-0.11,0.15-0.12l3.38-0.49c0.24-0.03,0.44-0.18,0.54-0.4l1.51-3.07c0.04-0.09,0.13-0.1,0.16-0.1s0.12,0.01,0.16,0.1
				l1.51,3.07c0.11,0.21,0.31,0.36,0.54,0.4l3.38,0.49c0.1,0.01,0.14,0.09,0.15,0.12c0.01,0.03,0.03,0.11-0.05,0.19l-2.45,2.39
				c-0.17,0.17-0.25,0.4-0.21,0.64l0.58,3.37c0.01,0.07-0.01,0.12-0.04,0.15C20.37,38.91,20.32,38.93,20.27,38.93z"/>
		</g>
		<g>
			<defs>
				<path id="SVGID_52_" d="M17.23,28.11l1.51,3.07c0.07,0.13,0.19,0.23,0.34,0.25l3.38,0.49c0.37,0.05,0.52,0.51,0.25,0.77
					l-2.45,2.39c-0.11,0.1-0.15,0.25-0.13,0.4l0.58,3.37c0.06,0.37-0.32,0.65-0.66,0.48l-3.03-1.59c-0.13-0.07-0.29-0.07-0.42,0
					l-3.03,1.59c-0.33,0.17-0.72-0.11-0.66-0.48l0.58-3.37c0.03-0.15-0.02-0.3-0.13-0.4l-2.45-2.39c-0.27-0.26-0.12-0.72,0.25-0.77
					l3.38-0.49c0.15-0.02,0.27-0.11,0.34-0.25l1.51-3.07C16.58,27.78,17.06,27.78,17.23,28.11z"/>
			</defs>
			<clipPath id="SVGID_53_">
				<use xlink:href="#SVGID_52_"  style="overflow:visible;"/>
			</clipPath>
		</g>
		<linearGradient id="SVGID_54_" gradientUnits="userSpaceOnUse" x1="23.1566" y1="33.9272" x2="38.1046" y2="48.8752">
			<stop  offset="0" style="stop-color:#FFA900"/>
			<stop  offset="1" style="stop-color:#B44005"/>
		</linearGradient>
		<path class="st45" d="M40.74,36.9L40.74,36.9c0.01-0.36-0.24-0.71-0.65-0.77l-5.68-0.82c-0.25-0.04-0.46-0.19-0.57-0.41
			l-2.54-5.14c-0.28-0.56-1.08-0.56-1.36,0l-2.54,5.14c-0.11,0.22-0.32,0.38-0.57,0.41l-5.68,0.82c-0.41,0.06-0.66,0.41-0.65,0.77h0
			v1.55h0c-0.01,0.21,0.06,0.42,0.23,0.58l4.11,4c0.02,0.02,0.03,0.03,0.05,0.05l-0.8,4.66c-0.04,0.24-0.01,1.82-0.01,1.84
			c0.01,0.07,0.03,0.14,0.05,0.2c0.01,0.02,0.01,0.03,0.02,0.05c0.04,0.08,0.09,0.14,0.15,0.2c0.04,0.03,0.08,0.07,0.12,0.09
			c0.11,0.07,0.25,0.11,0.39,0.12c0.04,0,0.08,0,0.11-0.01c0.05-0.01,0.09-0.02,0.14-0.03c0.01,0,0.02-0.01,0.03-0.01
			c0.02-0.01,0.04-0.02,0.06-0.03c0.01,0,0.02-0.01,0.03-0.01l5.08-2.67c0.22-0.12,0.48-0.12,0.7,0l5.08,2.67
			c0.01,0,0.02,0.01,0.03,0.01c0.08,0.04,0.16,0.06,0.24,0.07c0.04,0,0.07,0.01,0.11,0.01c0.03,0,0.07,0,0.1-0.01
			c0.3-0.05,0.56-0.29,0.62-0.6c0.01-0.03,0.01-0.07,0.01-0.11c0-0.04,0.03-1.54-0.01-1.78l-0.8-4.66c0.01-0.02,0.03-0.03,0.05-0.05
			l4.11-4h0c0.17-0.17,0.24-0.38,0.23-0.58h0V36.9z"/>
		<g>
			<linearGradient id="SVGID_55_" gradientUnits="userSpaceOnUse" x1="30.6306" y1="48.6399" x2="30.6306" y2="29.3273">
				<stop  offset="0" style="stop-color:#FFD700"/>
				<stop  offset="1" style="stop-color:#FFA900"/>
			</linearGradient>
			<path class="st46" d="M31.31,29.75l2.54,5.14c0.11,0.22,0.32,0.38,0.57,0.41l5.68,0.82c0.62,0.09,0.87,0.85,0.42,1.29l-4.11,4
				c-0.18,0.17-0.26,0.42-0.22,0.67l0.97,5.65c0.11,0.62-0.54,1.09-1.1,0.8l-5.08-2.67c-0.22-0.12-0.48-0.12-0.7,0l-5.08,2.67
				c-0.56,0.29-1.2-0.18-1.1-0.8l0.97-5.65c0.04-0.25-0.04-0.5-0.22-0.67l-4.11-4c-0.45-0.44-0.2-1.2,0.42-1.29l5.68-0.82
				c0.25-0.04,0.46-0.19,0.57-0.41l2.54-5.14C30.23,29.19,31.03,29.19,31.31,29.75z"/>
			<linearGradient id="SVGID_56_" gradientUnits="userSpaceOnUse" x1="30.6306" y1="47.9015" x2="30.6306" y2="29.4977">
				<stop  offset="0" style="stop-color:#FFA900"/>
				<stop  offset="1" style="stop-color:#FFD700"/>
			</linearGradient>
			<path class="st47" d="M36.41,47.9c-0.05,0-0.1-0.01-0.14-0.04l-5.08-2.67c-0.17-0.09-0.37-0.14-0.56-0.14
				c-0.2,0-0.39,0.05-0.56,0.14l-5.08,2.67c-0.05,0.02-0.09,0.04-0.14,0.04c-0.09,0-0.18-0.04-0.23-0.11
				c-0.04-0.05-0.08-0.13-0.06-0.24l0.97-5.65c0.07-0.39-0.06-0.79-0.35-1.07l-4.11-4c-0.12-0.12-0.09-0.26-0.08-0.31
				c0.02-0.05,0.08-0.18,0.24-0.21l5.68-0.82c0.39-0.06,0.74-0.31,0.91-0.66l2.54-5.14c0.08-0.15,0.21-0.17,0.27-0.17
				s0.2,0.02,0.27,0.17l2.54,5.14c0.18,0.36,0.52,0.61,0.91,0.66l5.68,0.82c0.17,0.02,0.23,0.15,0.24,0.21
				c0.02,0.05,0.05,0.19-0.08,0.31l-4.11,4c-0.29,0.28-0.42,0.68-0.35,1.07l0.97,5.65c0.02,0.12-0.02,0.2-0.06,0.24
				C36.59,47.86,36.5,47.9,36.41,47.9z"/>
		</g>
		<g>
			<defs>
				<path id="SVGID_57_" d="M31.31,29.75l2.54,5.14c0.11,0.22,0.32,0.38,0.57,0.41l5.68,0.82c0.62,0.09,0.87,0.85,0.42,1.29l-4.11,4
					c-0.18,0.17-0.26,0.42-0.22,0.67l0.97,5.65c0.11,0.62-0.54,1.09-1.1,0.8l-5.08-2.67c-0.22-0.12-0.48-0.12-0.7,0l-5.08,2.67
					c-0.56,0.29-1.2-0.18-1.1-0.8l0.97-5.65c0.04-0.25-0.04-0.5-0.22-0.67l-4.11-4c-0.45-0.44-0.2-1.2,0.42-1.29l5.68-0.82
					c0.25-0.04,0.46-0.19,0.57-0.41l2.54-5.14C30.23,29.19,31.03,29.19,31.31,29.75z"/>
			</defs>
			<clipPath id="SVGID_58_">
				<use xlink:href="#SVGID_57_"  style="overflow:visible;"/>
			</clipPath>
		</g>
	</g>
	<g>
		<rect x="11.57" y="62.28" class="st4" width="74.91" height="31.6"/>
		<path class="st48" d="M5.79,65.83"/>
		<path class="st7" d="M14.73,65.83l4.95,31.6h-6.01c-1.23,0-2.28-0.88-2.5-2.09L5.79,65.83H14.73z"/>
		<path class="st7" d="M85.82,65.83l-4.95,31.6h6.01c1.23,0,2.28-0.88,2.5-2.09l5.38-29.51H85.82z"/>
		<rect x="14.08" y="91.15" class="st7" width="71.31" height="6.27"/>
		<path class="st7" d="M94.77,65.83H5.79v-4.45c0-1.01,0.82-1.82,1.82-1.82h85.22c1.07,0,1.94,0.87,1.94,1.94V65.83z"/>
		<g>
			<g>
				<circle class="st9" cx="84.94" cy="93.64" r="1.54"/>
				<circle class="st9" cx="87.24" cy="83.17" r="1.54"/>
				<circle class="st9" cx="88.8" cy="72.69" r="1.54"/>
				<circle class="st9" cx="90" cy="62.91" r="1.54"/>
			</g>
			<g>
				<circle class="st9" cx="15.15" cy="93.64" r="1.54"/>
				<circle class="st9" cx="28.89" cy="93.64" r="1.54"/>
				<circle class="st9" cx="42.63" cy="93.64" r="1.54"/>
				<circle class="st9" cx="56.37" cy="93.64" r="1.54"/>
				<circle class="st9" cx="70.11" cy="93.64" r="1.54"/>
				<circle class="st9" cx="22.4" cy="62.69" r="1.54"/>
				<path class="st9" d="M34.61,62.69c0,0.85,0.69,1.54,1.54,1.54c0.85,0,1.54-0.69,1.54-1.54c0-0.85-0.69-1.54-1.54-1.54
					C35.29,61.15,34.61,61.84,34.61,62.69z"/>
				<path class="st9" d="M48.02,62.69c0,0.85,0.69,1.54,1.54,1.54c0.85,0,1.54-0.69,1.54-1.54c0-0.85-0.69-1.54-1.54-1.54
					C48.71,61.15,48.02,61.84,48.02,62.69z"/>
				<circle class="st9" cx="63.63" cy="62.69" r="1.54"/>
				<path class="st9" d="M75.98,62.69c0,0.85,0.69,1.54,1.54,1.54c0.85,0,1.54-0.69,1.54-1.54c0-0.85-0.69-1.54-1.54-1.54
					C76.67,61.15,75.98,61.84,75.98,62.69z"/>
				<circle class="st9" cx="12.85" cy="83.17" r="1.54"/>
				<circle class="st9" cx="11.28" cy="72.69" r="1.54"/>
				<circle class="st9" cx="10.08" cy="62.91" r="1.54"/>
			</g>
		</g>
		<rect x="17.26" y="78.69" class="st8" width="66.41" height="1.33"/>
	</g>
	<g>
		<polygon class="st49" points="34.88,40.05 35.68,42.16 37.78,42.96 35.68,43.76 34.88,45.86 34.08,43.76 31.97,42.96 34.08,42.16 
					"/>
		<polygon class="st49" points="62.09,43.25 62.68,44.82 64.25,45.41 62.68,46.01 62.09,47.58 61.49,46.01 59.92,45.41 61.49,44.82 
					"/>
		<polygon class="st49" points="15.51,50.35 16.11,51.92 17.68,52.52 16.11,53.11 15.51,54.68 14.92,53.11 13.35,52.52 14.92,51.92 
					"/>
		<polygon class="st49" points="73.09,51.59 73.68,53.16 75.25,53.76 73.68,54.35 73.09,55.92 72.49,54.35 70.92,53.76 72.49,53.16 
					"/>
	</g>
</g>
</svg>
