<?xml version="1.0" encoding="utf-8"?>
<!-- Generator: Adobe Illustrator 24.2.0, SVG Export Plug-In . SVG Version: 6.00 Build 0)  -->
<svg version="1.1" id="Layer_1" xmlns="http://www.w3.org/2000/svg" xmlns:xlink="http://www.w3.org/1999/xlink" x="0px" y="0px"
	 viewBox="0 0 100 100" style="enable-background:new 0 0 100 100;" xml:space="preserve">
<style type="text/css">
	.st0{fill:#D69440;}
	.st1{fill:#BC823A;}
	.st2{fill:url(#SVGID_1_);}
	.st3{fill:url(#SVGID_2_);}
	.st4{fill:url(#SVGID_3_);}
	.st5{fill:url(#SVGID_6_);}
	.st6{fill:url(#SVGID_7_);}
	.st7{fill:url(#SVGID_8_);}
	.st8{fill:url(#SVGID_11_);}
	.st9{fill:url(#SVGID_12_);}
	.st10{fill:url(#SVGID_13_);}
	.st11{fill:url(#SVGID_16_);}
	.st12{fill:url(#SVGID_17_);}
	.st13{fill:url(#SVGID_18_);}
	.st14{fill:url(#SVGID_19_);}
	.st15{fill:url(#SVGID_20_);}
	.st16{fill:url(#SVGID_21_);}
	.st17{fill:#C8A072;}
	.st18{fill:#A78057;}
</style>
<g>
	<polygon class="st0" points="54.82,25.13 87.13,40.25 45.39,52.45 12.87,35.99 	"/>
	<polygon class="st1" points="54.82,25.13 54.82,71.23 86.94,84.44 87.13,40.25 	"/>
	<g>
		<g>
			<linearGradient id="SVGID_1_" gradientUnits="userSpaceOnUse" x1="26.3576" y1="27.5475" x2="50.5989" y2="51.7888">
				<stop  offset="0" style="stop-color:#FFA900"/>
				<stop  offset="1" style="stop-color:#B44005"/>
			</linearGradient>
			<path class="st2" d="M54.88,32.37L54.88,32.37c0.01-0.58-0.39-1.15-1.05-1.25l-9.21-1.34c-0.4-0.06-0.75-0.31-0.92-0.67
				l-4.12-8.34c-0.45-0.91-1.75-0.91-2.2,0l-4.12,8.34c-0.18,0.36-0.52,0.61-0.92,0.67l-9.21,1.34c-0.66,0.1-1.07,0.67-1.05,1.25h0
				v2.52h0c-0.02,0.33,0.09,0.68,0.37,0.95l6.66,6.49c0.03,0.03,0.05,0.06,0.08,0.08l-1.3,7.55c-0.07,0.39-0.01,2.95-0.01,2.98
				c0.01,0.12,0.04,0.23,0.09,0.33c0.01,0.03,0.02,0.05,0.04,0.08c0.06,0.12,0.15,0.23,0.25,0.33c0.06,0.06,0.12,0.11,0.19,0.15
				c0.19,0.12,0.4,0.19,0.63,0.19c0.06,0,0.12,0,0.18-0.01c0.07-0.01,0.15-0.03,0.22-0.05c0.02-0.01,0.04-0.01,0.05-0.02
				c0.03-0.01,0.06-0.03,0.1-0.04c0.01-0.01,0.03-0.01,0.04-0.02l8.23-4.33c0.36-0.19,0.79-0.19,1.14,0l8.23,4.33
				c0.01,0.01,0.03,0.01,0.04,0.02c0.13,0.06,0.26,0.1,0.39,0.12c0.06,0.01,0.11,0.01,0.17,0.01c0.06,0,0.11-0.01,0.17-0.02
				c0.49-0.08,0.91-0.46,1.01-0.97c0.01-0.06,0.02-0.11,0.02-0.17c0-0.06,0.05-2.5-0.02-2.89l-1.3-7.56
				c0.02-0.03,0.05-0.06,0.08-0.08l6.66-6.49h0c0.28-0.27,0.39-0.61,0.37-0.95h0V32.37z"/>
			<g>
				<linearGradient id="SVGID_2_" gradientUnits="userSpaceOnUse" x1="38.4782" y1="51.4072" x2="38.4782" y2="20.0879">
					<stop  offset="0" style="stop-color:#FFD700"/>
					<stop  offset="1" style="stop-color:#FFA900"/>
				</linearGradient>
				<path class="st3" d="M39.58,20.77l4.12,8.34c0.18,0.36,0.52,0.61,0.92,0.67l9.21,1.34c1.01,0.15,1.41,1.38,0.68,2.09l-6.66,6.49
					c-0.29,0.28-0.42,0.69-0.35,1.09l1.57,9.17c0.17,1-0.88,1.77-1.78,1.29l-8.23-4.33c-0.36-0.19-0.79-0.19-1.14,0l-8.23,4.33
					c-0.9,0.47-1.95-0.29-1.78-1.29l1.57-9.17c0.07-0.4-0.06-0.8-0.35-1.09l-6.66-6.49c-0.73-0.71-0.33-1.95,0.68-2.09l9.21-1.34
					c0.4-0.06,0.75-0.31,0.92-0.67l4.12-8.34C37.83,19.86,39.13,19.86,39.58,20.77z"/>
				<linearGradient id="SVGID_3_" gradientUnits="userSpaceOnUse" x1="38.4782" y1="50.2097" x2="38.4782" y2="20.3642">
					<stop  offset="0" style="stop-color:#FFA900"/>
					<stop  offset="1" style="stop-color:#FFD700"/>
				</linearGradient>
				<path class="st4" d="M47.86,50.21c-0.08,0-0.15-0.02-0.23-0.06l-8.23-4.33c-0.28-0.15-0.6-0.23-0.91-0.23
					c-0.32,0-0.63,0.08-0.91,0.23l-8.23,4.33c-0.07,0.04-0.15,0.06-0.23,0.06c-0.14,0-0.28-0.07-0.38-0.18
					c-0.07-0.08-0.14-0.21-0.1-0.4l1.57-9.17c0.11-0.64-0.1-1.29-0.57-1.74l-6.66-6.49c-0.2-0.19-0.15-0.42-0.12-0.5
					c0.03-0.09,0.12-0.29,0.4-0.33l9.21-1.34c0.64-0.09,1.19-0.49,1.48-1.07l4.12-8.34c0.12-0.25,0.35-0.27,0.44-0.27
					c0.09,0,0.32,0.03,0.44,0.27l4.12,8.34c0.29,0.58,0.84,0.98,1.48,1.07l9.21,1.34c0.27,0.04,0.37,0.25,0.4,0.33
					c0.03,0.09,0.07,0.31-0.12,0.5l-6.66,6.49c-0.46,0.45-0.67,1.1-0.57,1.74l1.57,9.17c0.03,0.19-0.04,0.32-0.1,0.4
					C48.14,50.14,48,50.21,47.86,50.21z"/>
			</g>
			<g>
				<defs>
					<path id="SVGID_4_" d="M39.58,20.77l4.12,8.34c0.18,0.36,0.52,0.61,0.92,0.67l9.21,1.34c1.01,0.15,1.41,1.38,0.68,2.09
						l-6.66,6.49c-0.29,0.28-0.42,0.69-0.35,1.09l1.57,9.17c0.17,1-0.88,1.77-1.78,1.29l-8.23-4.33c-0.36-0.19-0.79-0.19-1.14,0
						l-8.23,4.33c-0.9,0.47-1.95-0.29-1.78-1.29l1.57-9.17c0.07-0.4-0.06-0.8-0.35-1.09l-6.66-6.49c-0.73-0.71-0.33-1.95,0.68-2.09
						l9.21-1.34c0.4-0.06,0.75-0.31,0.92-0.67l4.12-8.34C37.83,19.86,39.13,19.86,39.58,20.77z"/>
				</defs>
				<clipPath id="SVGID_5_">
					<use xlink:href="#SVGID_4_"  style="overflow:visible;"/>
				</clipPath>
			</g>
		</g>
		<g>
			<linearGradient id="SVGID_6_" gradientUnits="userSpaceOnUse" x1="51.7857" y1="34.1754" x2="76.027" y2="58.4167">
				<stop  offset="0" style="stop-color:#FFA900"/>
				<stop  offset="1" style="stop-color:#B44005"/>
			</linearGradient>
			<path class="st5" d="M80.31,39L80.31,39c0.01-0.58-0.39-1.15-1.05-1.25l-9.21-1.34c-0.4-0.06-0.75-0.31-0.92-0.67l-4.12-8.34
				c-0.45-0.91-1.75-0.91-2.2,0l-4.12,8.34c-0.18,0.36-0.52,0.61-0.92,0.67l-9.21,1.34c-0.66,0.1-1.07,0.67-1.05,1.25h0v2.52h0
				c-0.02,0.33,0.09,0.68,0.37,0.95l6.66,6.49c0.03,0.03,0.05,0.06,0.08,0.08l-1.3,7.55c-0.07,0.39-0.01,2.95-0.01,2.98
				c0.01,0.12,0.04,0.23,0.09,0.33c0.01,0.03,0.02,0.05,0.04,0.08c0.06,0.12,0.15,0.23,0.25,0.33c0.06,0.06,0.12,0.11,0.19,0.15
				c0.19,0.12,0.4,0.19,0.63,0.19c0.06,0,0.12,0,0.18-0.01c0.07-0.01,0.15-0.03,0.22-0.05c0.02-0.01,0.04-0.01,0.05-0.02
				c0.03-0.01,0.06-0.03,0.1-0.04c0.01-0.01,0.03-0.01,0.04-0.02l8.23-4.33c0.36-0.19,0.79-0.19,1.14,0l8.23,4.33
				c0.01,0.01,0.03,0.01,0.04,0.02c0.13,0.06,0.26,0.1,0.39,0.12c0.06,0.01,0.11,0.01,0.17,0.01s0.11-0.01,0.17-0.02
				c0.49-0.08,0.91-0.46,1.01-0.97c0.01-0.06,0.02-0.11,0.02-0.17c0-0.06,0.05-2.5-0.02-2.89l-1.3-7.56
				c0.02-0.03,0.05-0.06,0.08-0.08l6.66-6.49h0c0.28-0.27,0.39-0.61,0.37-0.95h0V39z"/>
			<g>
				<linearGradient id="SVGID_7_" gradientUnits="userSpaceOnUse" x1="63.9064" y1="58.0351" x2="63.9064" y2="26.7158">
					<stop  offset="0" style="stop-color:#FFD700"/>
					<stop  offset="1" style="stop-color:#FFA900"/>
				</linearGradient>
				<path class="st6" d="M65.01,27.4l4.12,8.34c0.18,0.36,0.52,0.61,0.92,0.67l9.21,1.34c1.01,0.15,1.41,1.38,0.68,2.09l-6.66,6.49
					c-0.29,0.28-0.42,0.69-0.35,1.09l1.57,9.17c0.17,1-0.88,1.77-1.78,1.29l-8.23-4.33c-0.36-0.19-0.79-0.19-1.14,0l-8.23,4.33
					c-0.9,0.47-1.95-0.29-1.78-1.29l1.57-9.17c0.07-0.4-0.06-0.8-0.35-1.09l-6.66-6.49c-0.73-0.71-0.33-1.95,0.68-2.09l9.21-1.34
					c0.4-0.06,0.75-0.31,0.92-0.67l4.12-8.34C63.26,26.49,64.56,26.49,65.01,27.4z"/>
				<linearGradient id="SVGID_8_" gradientUnits="userSpaceOnUse" x1="63.9064" y1="56.8376" x2="63.9064" y2="26.9921">
					<stop  offset="0" style="stop-color:#FFA900"/>
					<stop  offset="1" style="stop-color:#FFD700"/>
				</linearGradient>
				<path class="st7" d="M73.28,56.84c-0.08,0-0.15-0.02-0.23-0.06l-8.23-4.33c-0.28-0.15-0.6-0.23-0.91-0.23
					c-0.32,0-0.63,0.08-0.91,0.23l-8.23,4.33c-0.07,0.04-0.15,0.06-0.23,0.06c-0.14,0-0.28-0.07-0.38-0.18
					c-0.07-0.08-0.14-0.21-0.1-0.4l1.57-9.17c0.11-0.64-0.1-1.29-0.57-1.74l-6.66-6.49c-0.2-0.19-0.15-0.42-0.12-0.5
					s0.12-0.29,0.4-0.33l9.21-1.34c0.64-0.09,1.19-0.49,1.48-1.07l4.12-8.34c0.12-0.25,0.35-0.27,0.44-0.27
					c0.09,0,0.32,0.03,0.44,0.27l4.12,8.34c0.29,0.58,0.84,0.98,1.48,1.07l9.21,1.34c0.27,0.04,0.37,0.25,0.4,0.33
					c0.03,0.09,0.07,0.31-0.12,0.5l-6.66,6.49c-0.46,0.45-0.67,1.1-0.57,1.74l1.57,9.17c0.03,0.19-0.04,0.32-0.1,0.4
					C73.57,56.77,73.43,56.84,73.28,56.84z"/>
			</g>
			<g>
				<defs>
					<path id="SVGID_9_" d="M65.01,27.4l4.12,8.34c0.18,0.36,0.52,0.61,0.92,0.67l9.21,1.34c1.01,0.15,1.41,1.38,0.68,2.09
						l-6.66,6.49c-0.29,0.28-0.42,0.69-0.35,1.09l1.57,9.17c0.17,1-0.88,1.77-1.78,1.29l-8.23-4.33c-0.36-0.19-0.79-0.19-1.14,0
						l-8.23,4.33c-0.9,0.47-1.95-0.29-1.78-1.29l1.57-9.17c0.07-0.4-0.06-0.8-0.35-1.09l-6.66-6.49c-0.73-0.71-0.33-1.95,0.68-2.09
						l9.21-1.34c0.4-0.06,0.75-0.31,0.92-0.67l4.12-8.34C63.26,26.49,64.56,26.49,65.01,27.4z"/>
				</defs>
				<clipPath id="SVGID_10_">
					<use xlink:href="#SVGID_9_"  style="overflow:visible;"/>
				</clipPath>
			</g>
		</g>
		<g>
			<linearGradient id="SVGID_11_" gradientUnits="userSpaceOnUse" x1="42.7864" y1="15.1691" x2="63.5781" y2="35.9608">
				<stop  offset="0" style="stop-color:#FFA900"/>
				<stop  offset="1" style="stop-color:#B44005"/>
			</linearGradient>
			<path class="st8" d="M67.25,19.31L67.25,19.31c0.01-0.5-0.33-0.99-0.9-1.07l-7.9-1.15c-0.34-0.05-0.64-0.27-0.79-0.58l-3.53-7.16
				c-0.39-0.78-1.5-0.78-1.89,0l-3.53,7.16c-0.15,0.31-0.45,0.53-0.79,0.58l-7.9,1.15c-0.57,0.08-0.91,0.57-0.9,1.07h0v2.16h0
				c-0.02,0.29,0.08,0.58,0.32,0.81l5.71,5.57c0.02,0.02,0.04,0.05,0.07,0.07L44.1,34.4c-0.06,0.34-0.01,2.53-0.01,2.56
				c0.01,0.1,0.04,0.19,0.08,0.28c0.01,0.02,0.02,0.04,0.03,0.06c0.05,0.11,0.13,0.2,0.21,0.28c0.05,0.05,0.11,0.09,0.17,0.13
				c0.16,0.1,0.34,0.16,0.54,0.16c0.05,0,0.1,0,0.16-0.01c0.06-0.01,0.13-0.02,0.19-0.04c0.02-0.01,0.03-0.01,0.05-0.02
				c0.03-0.01,0.05-0.02,0.08-0.04c0.01-0.01,0.02-0.01,0.04-0.02l7.06-3.71c0.31-0.16,0.67-0.16,0.98,0l7.06,3.71
				c0.01,0.01,0.02,0.01,0.03,0.02c0.11,0.05,0.22,0.09,0.33,0.1c0.05,0.01,0.1,0.01,0.15,0.01c0.05,0,0.1-0.01,0.14-0.01
				c0.42-0.07,0.78-0.4,0.87-0.83c0.01-0.05,0.02-0.1,0.02-0.15c0-0.05,0.04-2.15-0.01-2.48l-1.11-6.48
				c0.02-0.02,0.04-0.05,0.07-0.07l5.71-5.57h0c0.24-0.23,0.33-0.53,0.32-0.81h0V19.31z"/>
			<g>
				<linearGradient id="SVGID_12_" gradientUnits="userSpaceOnUse" x1="53.1822" y1="35.6336" x2="53.1822" y2="8.771">
					<stop  offset="0" style="stop-color:#FFD700"/>
					<stop  offset="1" style="stop-color:#FFA900"/>
				</linearGradient>
				<path class="st9" d="M54.13,9.36l3.53,7.16c0.15,0.31,0.45,0.53,0.79,0.58l7.9,1.15c0.86,0.13,1.21,1.19,0.58,1.8l-5.71,5.57
					c-0.25,0.24-0.36,0.59-0.3,0.93l1.35,7.86c0.15,0.86-0.76,1.52-1.53,1.11l-7.06-3.71c-0.31-0.16-0.67-0.16-0.98,0l-7.06,3.71
					c-0.77,0.41-1.68-0.25-1.53-1.11l1.35-7.86c0.06-0.34-0.05-0.69-0.3-0.93l-5.71-5.57c-0.63-0.61-0.28-1.67,0.58-1.8l7.9-1.15
					c0.34-0.05,0.64-0.27,0.79-0.58l3.53-7.16C52.62,8.58,53.74,8.58,54.13,9.36z"/>
				<linearGradient id="SVGID_13_" gradientUnits="userSpaceOnUse" x1="53.1822" y1="34.6064" x2="53.1822" y2="9.008">
					<stop  offset="0" style="stop-color:#FFA900"/>
					<stop  offset="1" style="stop-color:#FFD700"/>
				</linearGradient>
				<path class="st10" d="M61.23,34.61c-0.07,0-0.13-0.02-0.2-0.05l-7.06-3.71c-0.24-0.13-0.51-0.19-0.78-0.19
					c-0.27,0-0.54,0.07-0.78,0.19l-7.06,3.71c-0.06,0.03-0.13,0.05-0.2,0.05c-0.12,0-0.24-0.06-0.33-0.16
					c-0.06-0.07-0.12-0.18-0.09-0.34l1.35-7.86c0.09-0.55-0.09-1.1-0.48-1.49l-5.71-5.57c-0.17-0.16-0.13-0.36-0.11-0.43
					c0.02-0.07,0.11-0.25,0.34-0.29l7.9-1.15c0.55-0.08,1.02-0.42,1.27-0.92l3.53-7.16c0.1-0.21,0.3-0.23,0.38-0.23
					c0.08,0,0.27,0.02,0.38,0.23l3.53,7.16c0.25,0.5,0.72,0.84,1.27,0.92l7.9,1.15c0.23,0.03,0.32,0.21,0.34,0.29
					c0.02,0.07,0.06,0.27-0.11,0.43l-5.71,5.57c-0.4,0.39-0.58,0.94-0.48,1.49l1.35,7.86c0.03,0.16-0.03,0.27-0.09,0.34
					C61.47,34.55,61.35,34.61,61.23,34.61z"/>
			</g>
			<g>
				<defs>
					<path id="SVGID_14_" d="M54.13,9.36l3.53,7.16c0.15,0.31,0.45,0.53,0.79,0.58l7.9,1.15c0.86,0.13,1.21,1.19,0.58,1.8
						l-5.71,5.57c-0.25,0.24-0.36,0.59-0.3,0.93l1.35,7.86c0.15,0.86-0.76,1.52-1.53,1.11l-7.06-3.71c-0.31-0.16-0.67-0.16-0.98,0
						l-7.06,3.71c-0.77,0.41-1.68-0.25-1.53-1.11l1.35-7.86c0.06-0.34-0.05-0.69-0.3-0.93l-5.71-5.57c-0.63-0.61-0.28-1.67,0.58-1.8
						l7.9-1.15c0.34-0.05,0.64-0.27,0.79-0.58l3.53-7.16C52.62,8.58,53.74,8.58,54.13,9.36z"/>
				</defs>
				<clipPath id="SVGID_15_">
					<use xlink:href="#SVGID_14_"  style="overflow:visible;"/>
				</clipPath>
			</g>
		</g>
		<linearGradient id="SVGID_16_" gradientUnits="userSpaceOnUse" x1="21.8789" y1="6.1724" x2="39.2394" y2="23.5329">
			<stop  offset="0" style="stop-color:#FFA900"/>
			<stop  offset="1" style="stop-color:#B44005"/>
		</linearGradient>
		<path class="st11" d="M42.31,9.63L42.31,9.63c0.01-0.42-0.28-0.83-0.75-0.9l-6.59-0.96c-0.29-0.04-0.53-0.22-0.66-0.48l-2.95-5.97
			c-0.32-0.65-1.25-0.65-1.58,0l-2.95,5.97c-0.13,0.26-0.38,0.44-0.66,0.48l-6.59,0.96c-0.48,0.07-0.76,0.48-0.75,0.9h0v1.8h0
			c-0.01,0.24,0.07,0.49,0.26,0.68l4.77,4.65c0.02,0.02,0.04,0.04,0.05,0.06l-0.93,5.41c-0.05,0.28-0.01,2.11-0.01,2.14
			c0.01,0.08,0.03,0.16,0.06,0.24c0.01,0.02,0.02,0.04,0.03,0.05c0.05,0.09,0.11,0.17,0.18,0.24c0.04,0.04,0.09,0.08,0.14,0.11
			c0.13,0.08,0.29,0.13,0.45,0.14c0.04,0,0.09,0,0.13-0.01c0.05-0.01,0.11-0.02,0.16-0.04c0.01,0,0.03-0.01,0.04-0.01
			c0.02-0.01,0.05-0.02,0.07-0.03c0.01,0,0.02-0.01,0.03-0.01l5.9-3.1c0.26-0.13,0.56-0.13,0.82,0l5.9,3.1
			c0.01,0.01,0.02,0.01,0.03,0.01c0.09,0.04,0.18,0.07,0.28,0.08c0.04,0,0.08,0.01,0.12,0.01c0.04,0,0.08,0,0.12-0.01
			c0.35-0.06,0.65-0.33,0.73-0.7c0.01-0.04,0.01-0.08,0.02-0.12c0-0.04,0.04-1.79-0.01-2.07l-0.93-5.41
			c0.02-0.02,0.04-0.04,0.05-0.06l4.77-4.65h0c0.2-0.19,0.28-0.44,0.26-0.68h0V9.63z"/>
		<g>
			<linearGradient id="SVGID_17_" gradientUnits="userSpaceOnUse" x1="30.5591" y1="23.2597" x2="30.5591" y2="0.8302">
				<stop  offset="0" style="stop-color:#FFD700"/>
				<stop  offset="1" style="stop-color:#FFA900"/>
			</linearGradient>
			<path class="st12" d="M31.35,1.32l2.95,5.97c0.13,0.26,0.38,0.44,0.66,0.48l6.59,0.96c0.72,0.1,1.01,0.99,0.49,1.5l-4.77,4.65
				c-0.21,0.2-0.3,0.49-0.25,0.78l1.13,6.57c0.12,0.72-0.63,1.27-1.28,0.93l-5.9-3.1c-0.26-0.13-0.56-0.13-0.82,0l-5.9,3.1
				c-0.65,0.34-1.4-0.21-1.28-0.93l1.13-6.57c0.05-0.29-0.05-0.58-0.25-0.78l-4.77-4.65c-0.52-0.51-0.23-1.4,0.49-1.5l6.59-0.96
				c0.29-0.04,0.53-0.22,0.66-0.48l2.95-5.97C30.09,0.67,31.03,0.67,31.35,1.32z"/>
			<linearGradient id="SVGID_18_" gradientUnits="userSpaceOnUse" x1="30.5591" y1="22.4021" x2="30.5591" y2="1.0281">
				<stop  offset="0" style="stop-color:#FFA900"/>
				<stop  offset="1" style="stop-color:#FFD700"/>
			</linearGradient>
			<path class="st13" d="M37.27,22.4c-0.06,0-0.11-0.01-0.16-0.04l-5.9-3.1c-0.2-0.11-0.43-0.16-0.65-0.16
				c-0.23,0-0.45,0.06-0.65,0.16l-5.9,3.1c-0.05,0.03-0.11,0.04-0.16,0.04c-0.1,0-0.2-0.05-0.27-0.13c-0.05-0.06-0.1-0.15-0.07-0.28
				l1.13-6.57c0.08-0.46-0.07-0.92-0.4-1.25l-4.77-4.65c-0.14-0.14-0.11-0.3-0.09-0.36c0.02-0.06,0.09-0.21,0.28-0.24l6.59-0.96
				c0.46-0.07,0.85-0.35,1.06-0.77l2.95-5.97c0.09-0.18,0.25-0.2,0.32-0.2s0.23,0.02,0.32,0.2l2.95,5.97c0.2,0.42,0.6,0.7,1.06,0.77
				l6.59,0.96c0.2,0.03,0.26,0.18,0.28,0.24c0.02,0.06,0.05,0.22-0.09,0.36l-4.77,4.65c-0.33,0.32-0.48,0.79-0.4,1.25l1.13,6.57
				c0.02,0.13-0.03,0.23-0.07,0.28C37.48,22.35,37.38,22.4,37.27,22.4z"/>
		</g>
		<g>
			<linearGradient id="SVGID_19_" gradientUnits="userSpaceOnUse" x1="67.432" y1="19.4278" x2="82.2738" y2="34.2696">
				<stop  offset="0" style="stop-color:#FFA900"/>
				<stop  offset="1" style="stop-color:#B44005"/>
			</linearGradient>
			<path class="st14" d="M84.9,22.38L84.9,22.38c0.01-0.36-0.24-0.71-0.64-0.77l-5.64-0.82c-0.24-0.04-0.46-0.19-0.57-0.41
				l-2.52-5.11c-0.28-0.56-1.07-0.56-1.35,0l-2.52,5.11c-0.11,0.22-0.32,0.38-0.57,0.41l-5.64,0.82c-0.41,0.06-0.65,0.41-0.64,0.77
				h0v1.54h0c-0.01,0.2,0.06,0.41,0.23,0.58l4.08,3.98c0.02,0.02,0.03,0.03,0.05,0.05l-0.79,4.62c-0.04,0.24-0.01,1.81-0.01,1.83
				c0.01,0.07,0.03,0.14,0.05,0.2c0.01,0.02,0.01,0.03,0.02,0.05c0.04,0.08,0.09,0.14,0.15,0.2c0.04,0.03,0.08,0.07,0.12,0.09
				c0.11,0.07,0.25,0.11,0.38,0.12c0.04,0,0.07,0,0.11-0.01c0.05-0.01,0.09-0.02,0.14-0.03c0.01,0,0.02-0.01,0.03-0.01
				c0.02-0.01,0.04-0.02,0.06-0.03c0.01,0,0.02-0.01,0.02-0.01l5.04-2.65c0.22-0.12,0.48-0.12,0.7,0l5.04,2.65
				c0.01,0,0.02,0.01,0.02,0.01c0.08,0.04,0.16,0.06,0.24,0.07c0.04,0,0.07,0.01,0.1,0.01s0.07,0,0.1-0.01
				c0.3-0.05,0.56-0.28,0.62-0.6c0.01-0.03,0.01-0.07,0.01-0.11c0-0.04,0.03-1.53-0.01-1.77l-0.79-4.63
				c0.01-0.02,0.03-0.03,0.05-0.05l4.08-3.98h0c0.17-0.16,0.24-0.38,0.23-0.58h0V22.38z"/>
			<g>
				<linearGradient id="SVGID_20_" gradientUnits="userSpaceOnUse" x1="74.8529" y1="34.036" x2="74.8529" y2="14.8606">
					<stop  offset="0" style="stop-color:#FFD700"/>
					<stop  offset="1" style="stop-color:#FFA900"/>
				</linearGradient>
				<path class="st15" d="M75.53,15.28l2.52,5.11c0.11,0.22,0.32,0.38,0.57,0.41l5.64,0.82c0.62,0.09,0.86,0.85,0.42,1.28
					l-4.08,3.98c-0.18,0.17-0.26,0.42-0.22,0.67l0.96,5.61c0.11,0.61-0.54,1.08-1.09,0.79L75.2,31.3c-0.22-0.12-0.48-0.12-0.7,0
					l-5.04,2.65c-0.55,0.29-1.2-0.18-1.09-0.79l0.96-5.61c0.04-0.24-0.04-0.49-0.22-0.67l-4.08-3.98c-0.45-0.43-0.2-1.19,0.42-1.28
					l5.64-0.82c0.24-0.04,0.46-0.19,0.57-0.41l2.52-5.11C74.45,14.72,75.25,14.72,75.53,15.28z"/>
				<linearGradient id="SVGID_21_" gradientUnits="userSpaceOnUse" x1="74.8529" y1="33.3028" x2="74.8529" y2="15.0298">
					<stop  offset="0" style="stop-color:#FFA900"/>
					<stop  offset="1" style="stop-color:#FFD700"/>
				</linearGradient>
				<path class="st16" d="M80.59,33.3c-0.05,0-0.09-0.01-0.14-0.04l-5.04-2.65c-0.17-0.09-0.37-0.14-0.56-0.14
					c-0.19,0-0.39,0.05-0.56,0.14l-5.04,2.65c-0.05,0.02-0.09,0.04-0.14,0.04c-0.09,0-0.17-0.04-0.23-0.11
					c-0.04-0.05-0.08-0.13-0.06-0.24l0.96-5.61c0.07-0.39-0.06-0.79-0.35-1.06l-4.08-3.98c-0.12-0.12-0.09-0.25-0.08-0.31
					c0.02-0.05,0.08-0.18,0.24-0.2l5.64-0.82c0.39-0.06,0.73-0.3,0.91-0.66l2.52-5.11c0.07-0.15,0.21-0.17,0.27-0.17
					s0.19,0.02,0.27,0.17l2.52,5.11c0.18,0.36,0.51,0.6,0.91,0.66l5.64,0.82c0.17,0.02,0.23,0.15,0.24,0.2
					c0.02,0.05,0.04,0.19-0.08,0.31l-4.08,3.98c-0.28,0.28-0.41,0.67-0.35,1.06l0.96,5.61c0.02,0.11-0.02,0.19-0.06,0.24
					C80.77,33.26,80.68,33.3,80.59,33.3z"/>
			</g>
			<g>
				<defs>
					<path id="SVGID_22_" d="M75.53,15.28l2.52,5.11c0.11,0.22,0.32,0.38,0.57,0.41l5.64,0.82c0.62,0.09,0.86,0.85,0.42,1.28
						l-4.08,3.98c-0.18,0.17-0.26,0.42-0.22,0.67l0.96,5.61c0.11,0.61-0.54,1.08-1.09,0.79L75.2,31.3c-0.22-0.12-0.48-0.12-0.7,0
						l-5.04,2.65c-0.55,0.29-1.2-0.18-1.09-0.79l0.96-5.61c0.04-0.24-0.04-0.49-0.22-0.67l-4.08-3.98c-0.45-0.43-0.2-1.19,0.42-1.28
						l5.64-0.82c0.24-0.04,0.46-0.19,0.57-0.41l2.52-5.11C74.45,14.72,75.25,14.72,75.53,15.28z"/>
				</defs>
				<clipPath id="SVGID_23_">
					<use xlink:href="#SVGID_22_"  style="overflow:visible;"/>
				</clipPath>
			</g>
		</g>
	</g>
	<polygon class="st17" points="45.48,52.45 45.48,99.17 86.94,84.44 87.13,40.25 	"/>
	<polygon class="st18" points="12.87,35.99 12.87,79.28 45.48,99.17 45.48,52.45 	"/>
</g>
</svg>
