<?xml version="1.0" encoding="utf-8"?>
<!-- Generator: Adobe Illustrator 24.2.0, SVG Export Plug-In . SVG Version: 6.00 Build 0)  -->
<svg version="1.1" id="Layer_1" xmlns="http://www.w3.org/2000/svg" xmlns:xlink="http://www.w3.org/1999/xlink" x="0px" y="0px"
	 viewBox="0 0 100 100" style="enable-background:new 0 0 100 100;" xml:space="preserve">
<style type="text/css">
	.st0{fill:#E9B09A;}
	.st1{fill:#DAEBF1;}
	.st2{opacity:0.62;}
	.st3{fill:#BACDE4;}
	.st4{fill:#FAF0E6;}
	.st5{opacity:0.24;}
	.st6{fill:#EFCDC4;}
	.st7{fill:#FAEEED;}
	.st8{fill:url(#SVGID_1_);}
	.st9{fill:url(#SVGID_2_);}
	.st10{fill:url(#SVGID_3_);}
	.st11{fill:url(#SVGID_6_);}
	.st12{fill:url(#SVGID_7_);}
	.st13{fill:url(#SVGID_8_);}
	.st14{fill:url(#SVGID_11_);}
	.st15{fill:url(#SVGID_12_);}
	.st16{fill:url(#SVGID_13_);}
	.st17{fill:url(#SVGID_16_);}
	.st18{fill:url(#SVGID_17_);}
	.st19{fill:url(#SVGID_18_);}
	.st20{fill:url(#SVGID_21_);}
	.st21{fill:url(#SVGID_22_);}
	.st22{fill:url(#SVGID_23_);}
	.st23{fill:#E0BAB3;}
	.st24{fill:#F8DAD3;}
	.st25{fill:#DB9A86;}
	.st26{fill:#F6C5B0;}
	.st27{fill:#F6C4AF;}
</style>
<g>
	<path class="st0" d="M45.33,6.49c3.93,0,4.23,3.21,6.8,3.46c2.72,0.27,3.41-3.82,7.78-2.03c5.15,2.12,3.13,5.42,5.84,6.93
		c2.78,1.54,5.18-2.54,9.14,1.43c2.99,2.99,0.5,4.87,1.61,7.06c1.7,3.36,6.68,1.2,8.99,6.32c2.03,4.49-1.58,6.93-0.18,10.12
		c0.64,1.47,1.1,1.54,1.89,3.78c0.56,1.61,0.16,3.45-0.94,4.76c-1.1,1.31-2.65,2.14-4.18,2.9c-7.77,3.88-16,6.78-24.19,9.67
		c-3,1.06-6.05,2.12-9.22,2.27c-3.19,0.15-6.34-0.62-9.39-1.58c-8.34-2.61-16.26-6.58-23.34-11.72c-1.75-1.27-3.47-2.64-4.7-4.41
		c-1.23-1.78-1.91-4.04-1.37-6.13c0.82-3.19,4.16-5.22,5.1-8.38c0.48-1.61,0.27-3.33,0.32-5.01c0.05-1.68,0.44-3.51,1.76-4.55
		c1.66-1.32,4.16-0.92,5.96-2.04c2.76-1.71,2.75-6.36,5.73-7.67c4.35-1.91,5.85,0.67,8.62-0.22C40.42,10.48,40.39,6.49,45.33,6.49z"
		/>
	<path class="st1" d="M84.92,48.72c-1.06,1.27-2.55,2.08-4.02,2.83c-7.49,3.78-15.42,6.6-23.31,9.41c-2.89,1.03-5.83,2.06-8.89,2.21
		c-3.07,0.15-6.11-0.61-9.05-1.54c-8.04-2.54-15.67-6.41-22.49-11.41c-1.69-1.23-3.35-2.57-4.53-4.3c-1.18-1.73-1.84-3.93-1.32-5.97
		c0.3-1.2,0.97-2.23,1.73-3.22c1.02-1.34,2.2-2.6,2.88-4.11c0.12-0.27,0.23-0.55,0.31-0.84c0.46-1.57,0.26-3.24,0.31-4.88
		c0.05-1.63,0.42-3.41,1.69-4.43c0.59-0.47,1.3-0.72,2.03-0.9c1.26-0.3,2.62-0.4,3.71-1.09c0.37-0.23,0.69-0.51,0.96-0.84
		c1.75-2.01,2.09-5.53,4.55-6.63c2.17-0.96,3.6-0.76,4.85-0.45c1.17,0.29,2.17,0.66,3.47,0.24c0.89-0.29,1.5-0.84,2.07-1.48
		c1.3-1.47,2.29-3.37,5.61-3.37c1.69,0,2.68,0.62,3.48,1.33c1,0.88,1.7,1.9,3.07,2.04c1.26,0.12,2.07-0.73,3.03-1.46
		c1.05-0.79,2.28-1.43,4.47-0.52c1.58,0.66,2.47,1.44,3.02,2.24v0c1.17,1.7,0.84,3.51,2.62,4.5c0.24,0.14,0.48,0.23,0.72,0.28
		c2.39,0.56,4.61-2.4,8.09,1.11c1.48,1.5,1.57,2.71,1.44,3.83C75.3,22.4,75,23.36,75.52,24.4c0.53,1.06,1.4,1.56,2.4,1.92
		c2.08,0.74,4.76,0.87,6.26,4.24c0.85,1.92,0.67,3.45,0.3,4.82c-0.47,1.77-1.23,3.28-0.47,5.03c0.07,0.16,0.14,0.3,0.2,0.43
		c0.52,1.04,0.94,1.31,1.62,3.25C86.37,45.66,85.98,47.45,84.92,48.72z"/>
	<g class="st2">
		<path class="st3" d="M41.98,55.65l-1.1,1.58c0,0-0.52-0.33-1.42-0.9c-0.45-0.28-1-0.63-1.63-1.03c-0.31-0.2-0.65-0.41-1-0.63
			c-0.35-0.23-0.72-0.48-1.11-0.73c-0.77-0.51-1.6-1.07-2.48-1.65c-0.89-0.58-1.79-1.24-2.73-1.89c-0.95-0.66-1.93-1.33-2.9-2.06
			c-0.98-0.72-1.97-1.45-2.96-2.18c-0.98-0.75-1.95-1.5-2.91-2.24c-0.97-0.73-1.89-1.49-2.79-2.22c-0.89-0.73-1.78-1.42-2.58-2.11
			c-0.81-0.69-1.57-1.33-2.28-1.93c-0.35-0.3-0.69-0.59-1.01-0.86c-0.01-0.01-0.03-0.02-0.04-0.04c1.02-1.34,2.2-2.6,2.88-4.11
			c0.17,0.18,0.36,0.38,0.54,0.58c0.29,0.29,0.6,0.6,0.91,0.92c0.64,0.64,1.33,1.34,2.06,2.08c0.72,0.74,1.53,1.49,2.34,2.28
			c0.82,0.78,1.65,1.61,2.54,2.41c0.88,0.8,1.77,1.63,2.66,2.44c0.91,0.8,1.82,1.6,2.71,2.39c0.89,0.8,1.8,1.54,2.67,2.27
			c0.88,0.72,1.71,1.45,2.52,2.09c0.81,0.65,1.58,1.26,2.29,1.83c0.36,0.28,0.7,0.55,1.02,0.81c0.33,0.25,0.65,0.49,0.94,0.72
			c0.59,0.45,1.11,0.84,1.54,1.17C41.49,55.28,41.98,55.65,41.98,55.65z"/>
	</g>
	<g class="st2">
		<path class="st3" d="M43.86,53.9l-1.65,1L20.25,21.6c1.26-0.3,2.62-0.4,3.71-1.09c0.37-0.23,0.69-0.51,0.96-0.84L43.86,53.9z"/>
	</g>
	<g class="st2">
		<path class="st3" d="M45.89,51.38l-1.04,0.21l-10.53-39c1.17,0.29,2.17,0.66,3.47,0.24c0.89-0.29,1.5-0.84,2.07-1.48L45.89,51.38z
			"/>
	</g>
	<g class="st2">
		<path class="st3" d="M55.06,9.91c-0.07,0.28-0.21,0.8-0.4,1.52c-0.15,0.56-0.32,1.23-0.53,2.01c-0.1,0.39-0.21,0.8-0.32,1.23
			c-0.1,0.44-0.21,0.9-0.32,1.38c-0.22,0.96-0.46,2.01-0.71,3.11c-0.06,0.28-0.13,0.56-0.19,0.84c-0.06,0.29-0.11,0.57-0.17,0.87
			c-0.11,0.58-0.23,1.18-0.34,1.79c-0.23,1.22-0.5,2.47-0.68,3.76c-0.2,1.28-0.41,2.59-0.62,3.9c-0.17,1.31-0.33,2.63-0.5,3.92
			c-0.18,1.29-0.28,2.57-0.4,3.81c-0.06,0.62-0.12,1.23-0.17,1.83c-0.03,0.3-0.06,0.59-0.08,0.88c-0.02,0.29-0.04,0.58-0.06,0.86
			c-0.07,1.14-0.14,2.21-0.2,3.2c-0.03,0.5-0.06,0.98-0.09,1.43c-0.01,0.46-0.02,0.89-0.04,1.3c-0.02,0.82-0.04,1.52-0.06,2.11
			c-0.03,1.17-0.05,1.84-0.05,1.84l-1.45,0.04c0,0-0.06-0.67-0.15-1.83c-0.05-0.58-0.1-1.29-0.17-2.11
			c-0.03-0.41-0.07-0.84-0.11-1.3c-0.02-0.46-0.05-0.95-0.07-1.45c-0.05-1.01-0.1-2.11-0.16-3.27c-0.01-0.29-0.03-0.59-0.04-0.88
			c-0.01-0.3-0.01-0.6-0.01-0.9c-0.01-0.61-0.02-1.23-0.03-1.86c-0.02-1.27-0.06-2.58-0.02-3.91c0.02-1.33,0.04-2.68,0.07-4.04
			c0.07-1.35,0.13-2.71,0.2-4.04c0.05-1.34,0.17-2.64,0.27-3.91c0.05-0.63,0.1-1.26,0.15-1.87c0.02-0.31,0.05-0.61,0.07-0.91
			c0.03-0.3,0.07-0.59,0.1-0.88c0.13-1.16,0.26-2.26,0.37-3.27c0.06-0.51,0.12-0.99,0.17-1.46c0.07-0.46,0.13-0.9,0.19-1.31
			c0.12-0.82,0.23-1.54,0.31-2.13c0.05-0.34,0.09-0.64,0.13-0.89c1,0.88,1.7,1.9,3.07,2.04C53.28,11.49,54.09,10.64,55.06,9.91z"/>
	</g>
	<g class="st2">
		<path class="st3" d="M65.87,16.42c-0.16,0.33-0.33,0.68-0.5,1.04c-0.19,0.42-0.38,0.85-0.59,1.31c-0.41,0.91-0.86,1.9-1.33,2.95
			c-0.47,1.04-0.92,2.17-1.42,3.32c-0.49,1.15-1,2.34-1.47,3.57c-0.48,1.22-0.98,2.47-1.47,3.71c-0.46,1.25-0.92,2.51-1.38,3.75
			c-0.47,1.23-0.88,2.46-1.28,3.65c-0.4,1.19-0.81,2.34-1.15,3.43c-0.34,1.09-0.67,2.13-0.96,3.09c-0.15,0.48-0.29,0.94-0.43,1.37
			c-0.12,0.44-0.25,0.87-0.36,1.26c-0.22,0.79-0.42,1.48-0.58,2.05c-0.32,1.14-0.5,1.78-0.5,1.78l-1.74-0.41
			c0,0,0.13-0.66,0.36-1.82c0.12-0.58,0.25-1.28,0.41-2.09c0.08-0.4,0.17-0.83,0.26-1.28c0.1-0.45,0.21-0.93,0.33-1.42
			c0.23-1,0.47-2.07,0.73-3.21c0.26-1.14,0.58-2.32,0.89-3.56c0.31-1.23,0.63-2.51,1.01-3.79c0.36-1.29,0.73-2.59,1.1-3.9
			c0.4-1.3,0.8-2.6,1.19-3.88c0.38-1.28,0.8-2.53,1.21-3.74c0.41-1.21,0.78-2.38,1.18-3.48c0.4-1.1,0.77-2.14,1.12-3.1
			c0.17-0.48,0.34-0.94,0.5-1.38c0.17-0.44,0.33-0.85,0.48-1.23c0.3-0.77,0.57-1.45,0.78-2.01c0.11-0.28,0.21-0.53,0.29-0.75
			c1.17,1.7,0.84,3.51,2.62,4.5C65.4,16.27,65.64,16.36,65.87,16.42z"/>
	</g>
	<g class="st2">
		<path class="st3" d="M77.92,26.32L54.46,54.71l-1.54-1.17l22.48-32.2C75.3,22.4,75,23.36,75.52,24.4
			C76.05,25.46,76.92,25.96,77.92,26.32z"/>
	</g>
	<g class="st2">
		<path class="st3" d="M84.01,40.41c0.07,0.16,0.14,0.3,0.2,0.43L56.83,56.33l-1.01-1.64l28.67-19.31
			C84.02,37.15,83.25,38.66,84.01,40.41z"/>
	</g>
	<path class="st4" d="M10.92,42.26c0,0,0.01-0.11,0.02-0.31c0.02-0.21,0.01-0.51,0.09-0.91c0.1-0.79,0.41-1.97,1.27-3.22
		c0.83-1.26,2.16-2.54,3.04-4.39c0.23-0.46,0.41-0.95,0.58-1.46c0.14-0.5,0.2-1.06,0.24-1.63c0.08-1.15,0.08-2.38,0.16-3.67
		c0.04-0.64,0.11-1.31,0.25-1.98c0.07-0.34,0.16-0.68,0.3-1.02c0.14-0.34,0.32-0.68,0.62-0.97l0.11-0.11c0.02-0.01,0-0.01,0.04-0.04
		l0.03-0.02l0.05-0.04l0.21-0.15c0.16-0.09,0.34-0.21,0.51-0.28c0.34-0.16,0.68-0.29,1.03-0.41c0.7-0.23,1.4-0.4,2.1-0.6
		c0.69-0.2,1.39-0.41,1.99-0.75l0.22-0.13c0.07-0.05,0.13-0.1,0.2-0.15l0.05-0.04l0.02-0.02c0.01-0.01-0.01,0.01,0.01-0.01l0.1-0.1
		l0.2-0.2c0.07-0.07,0.12-0.13,0.18-0.2l0.16-0.2c0.11-0.13,0.21-0.29,0.32-0.44c0.82-1.23,1.4-2.7,2.26-4.11
		c0.44-0.7,0.97-1.4,1.71-1.93c0.17-0.14,0.39-0.24,0.59-0.35l0.08-0.04l0.04-0.02c0.02-0.01,0,0,0.06-0.03l0.14-0.05l0.29-0.1
		c0.21-0.06,0.45-0.11,0.68-0.16c0.22-0.02,0.44-0.06,0.66-0.07c1.76-0.08,3.4,0.42,4.98,0.4c0.4,0,0.78-0.05,1.15-0.13
		c0.09-0.02,0.18-0.05,0.27-0.08l0.14-0.04l0.07-0.02c0.03-0.01,0,0,0.01,0l0.04-0.02l0.29-0.13l0.15-0.06
		c0.05-0.02,0.08-0.05,0.12-0.07c0.16-0.09,0.33-0.18,0.49-0.3l0.25-0.17l0.24-0.19c0.32-0.25,0.63-0.52,0.94-0.81
		c0.62-0.56,1.23-1.18,1.95-1.71c0.35-0.27,0.75-0.5,1.17-0.69c0.43-0.17,0.89-0.31,1.36-0.32l0.18-0.01l0.09,0l0.04,0
		c0.01,0,0.08,0,0.07,0l0.32,0.03c0.05,0.01,0.1,0.01,0.16,0.02l0.18,0.04c0.12,0.03,0.24,0.06,0.36,0.09
		c0.44,0.16,0.85,0.38,1.22,0.64c0.73,0.52,1.33,1.14,1.98,1.65c0.32,0.26,0.66,0.48,1.01,0.66c0.09,0.04,0.18,0.07,0.27,0.11
		c0.09,0.04,0.18,0.07,0.27,0.09l0.28,0.07c0.1,0.01,0.19,0.02,0.29,0.03L52,11.08c0.03,0-0.01,0,0.01,0l0.04,0l0.08-0.01
		c0.1-0.01,0.21-0.01,0.31-0.02c0.17-0.05,0.34-0.07,0.52-0.16c0.36-0.14,0.69-0.36,1.03-0.6c0.67-0.48,1.4-1,2.26-1.24
		c0.85-0.24,1.74-0.22,2.57-0.07l0.62,0.14c0.22,0.05,0.4,0.12,0.6,0.17c0.19,0.06,0.4,0.15,0.6,0.22c0.2,0.08,0.38,0.19,0.57,0.28
		c0.75,0.42,1.36,1.1,1.69,1.88c0.04,0.1,0.09,0.19,0.13,0.29l0.1,0.28c0.06,0.2,0.13,0.39,0.18,0.58c0.12,0.38,0.23,0.76,0.35,1.12
		c0.24,0.72,0.55,1.43,1.06,1.85c0.06,0.05,0.13,0.1,0.2,0.14c0.07,0.04,0.14,0.08,0.21,0.11l0.03,0.01
		c-0.02-0.01,0.01,0.01,0.02,0.01l0.07,0.03l0.13,0.05l0.23,0.06c0.32,0.07,0.66,0.06,1,0.01c0.68-0.11,1.36-0.39,2.08-0.62
		c0.71-0.23,1.49-0.4,2.29-0.31c0.39,0.04,0.78,0.16,1.13,0.31c0.35,0.16,0.67,0.37,0.97,0.59c0.29,0.23,0.56,0.48,0.79,0.73
		c0.23,0.24,0.48,0.5,0.7,0.77c0.11,0.14,0.22,0.27,0.32,0.43l0.15,0.23c0.05,0.08,0.08,0.16,0.12,0.24
		c0.04,0.08,0.08,0.16,0.11,0.25l0.08,0.26c0.06,0.17,0.09,0.34,0.11,0.52c0.01,0.09,0.03,0.17,0.04,0.26l0.01,0.25
		c0.01,0.17,0.02,0.34,0.02,0.49c0,0.31,0,0.62,0,0.93c0,0.6,0.03,1.19,0.12,1.73c0.09,0.55,0.26,1.06,0.52,1.49l0.1,0.16l0.03,0.04
		c0,0,0.02,0.02,0.01,0.01l0.02,0.02l0.06,0.08l0.12,0.16l0.12,0.13c0.17,0.17,0.35,0.33,0.56,0.44c0.41,0.24,0.88,0.36,1.35,0.47
		c0.47,0.11,0.94,0.21,1.38,0.36c0.11,0.04,0.21,0.07,0.33,0.12c0.1,0.04,0.2,0.08,0.3,0.13c0.2,0.1,0.4,0.2,0.58,0.31
		c0.18,0.1,0.35,0.22,0.52,0.33c0.16,0.12,0.32,0.23,0.47,0.35c1.18,0.95,1.93,1.9,2.25,2.65c0.02,0.05,0.04,0.09,0.06,0.13
		c0.01,0.05,0.03,0.09,0.04,0.13c0.03,0.08,0.05,0.16,0.08,0.24c0.02,0.15,0.05,0.28,0.06,0.38c-0.01,0.21-0.01,0.31-0.01,0.31
		s0-0.11-0.01-0.31c-0.01-0.1-0.05-0.22-0.08-0.37c-0.03-0.07-0.06-0.15-0.09-0.23c-0.02-0.04-0.03-0.08-0.05-0.12
		c-0.02-0.04-0.05-0.08-0.07-0.13c-0.36-0.7-1.15-1.6-2.34-2.45c-0.3-0.21-0.63-0.42-0.98-0.61c-0.18-0.1-0.36-0.18-0.55-0.27
		c-0.1-0.04-0.2-0.08-0.3-0.12c-0.09-0.03-0.2-0.06-0.3-0.09c-0.42-0.12-0.87-0.2-1.35-0.29c-0.48-0.09-1-0.19-1.51-0.46
		c-0.25-0.13-0.49-0.3-0.7-0.51l-0.16-0.16l-0.13-0.16l-0.07-0.08l-0.02-0.02l-0.02-0.03l-0.03-0.05l-0.13-0.18
		c-0.32-0.5-0.53-1.09-0.64-1.69c-0.12-0.6-0.16-1.22-0.18-1.83c-0.03-0.62,0-1.25-0.1-1.82c-0.09-0.58-0.35-1.09-0.76-1.56
		c-0.2-0.24-0.42-0.47-0.67-0.71c-0.24-0.24-0.47-0.45-0.72-0.65c-0.26-0.19-0.53-0.36-0.81-0.49c-0.29-0.13-0.59-0.21-0.9-0.25
		c-0.63-0.08-1.29,0.05-1.98,0.26c-0.69,0.2-1.39,0.48-2.2,0.59c-0.4,0.05-0.83,0.05-1.25-0.05c-0.11-0.03-0.22-0.06-0.32-0.1
		l-0.13-0.05l-0.07-0.03l-0.05-0.02l-0.04-0.02c-0.1-0.05-0.2-0.1-0.29-0.16c-0.09-0.07-0.18-0.13-0.26-0.2
		c-0.33-0.29-0.57-0.65-0.76-1.02c-0.18-0.37-0.32-0.76-0.44-1.14c-0.12-0.38-0.22-0.77-0.32-1.15c-0.05-0.19-0.11-0.38-0.16-0.56
		l-0.09-0.28c-0.03-0.08-0.07-0.17-0.11-0.26c-0.29-0.7-0.79-1.28-1.46-1.67c-0.17-0.08-0.34-0.18-0.52-0.26
		c-0.18-0.07-0.35-0.15-0.55-0.21l-0.29-0.09l-0.15-0.05c-0.03-0.01-0.09-0.02-0.14-0.03l-0.58-0.13c-0.78-0.13-1.59-0.14-2.34,0.08
		c-0.76,0.23-1.41,0.69-2.09,1.19c-0.34,0.25-0.71,0.5-1.14,0.67c-0.2,0.1-0.45,0.15-0.69,0.2l-0.32,0.03l-0.08,0.01l-0.04,0
		c-0.01,0-0.07,0-0.07,0l-0.17-0.01c-0.11-0.01-0.23-0.02-0.34-0.03l-0.34-0.08c-0.11-0.02-0.22-0.06-0.33-0.1
		c-0.11-0.04-0.22-0.08-0.32-0.13c-0.41-0.2-0.79-0.44-1.13-0.71c-0.7-0.53-1.3-1.13-1.98-1.58c-0.33-0.23-0.69-0.4-1.05-0.52
		c-0.09-0.03-0.17-0.04-0.26-0.06l-0.13-0.03c-0.05-0.01-0.1-0.01-0.16-0.01l-0.32-0.02l-0.26,0.02c-0.38,0.02-0.75,0.14-1.11,0.29
		c-0.35,0.17-0.69,0.37-1.01,0.63c-0.65,0.49-1.23,1.09-1.85,1.69c-0.63,0.59-1.27,1.17-2.1,1.64c-0.05,0.03-0.1,0.06-0.15,0.09
		l-0.14,0.07l-0.29,0.13l-0.04,0.02c-0.01,0-0.07,0.03-0.06,0.02l-0.08,0.03l-0.17,0.05c-0.11,0.03-0.22,0.08-0.33,0.1
		c-0.45,0.1-0.9,0.16-1.35,0.16c-1.78,0.03-3.41-0.47-4.95-0.39c-0.19,0-0.38,0.04-0.56,0.06c-0.18,0.04-0.33,0.06-0.52,0.12
		l-0.29,0.1l-0.14,0.05c0.04-0.02-0.01,0,0,0l-0.03,0.02l-0.06,0.03c-0.16,0.08-0.32,0.15-0.46,0.27c-0.59,0.41-1.07,1.01-1.49,1.65
		c-0.83,1.3-1.43,2.78-2.33,4.1c-0.12,0.16-0.22,0.33-0.36,0.49c-0.14,0.15-0.27,0.34-0.41,0.46l-0.2,0.2l-0.1,0.1
		c0.01,0-0.04,0.03-0.04,0.04l-0.03,0.02l-0.06,0.05c-0.09,0.06-0.17,0.13-0.26,0.19l-0.27,0.16c-0.72,0.4-1.46,0.6-2.17,0.8
		c-0.72,0.19-1.42,0.35-2.08,0.56c-0.33,0.1-0.65,0.22-0.95,0.36c-0.15,0.07-0.27,0.14-0.41,0.22l-0.21,0.15l-0.05,0.04l-0.03,0.02
		c0.02-0.02,0,0.01,0,0.01l-0.08,0.07c-0.41,0.38-0.63,1.02-0.78,1.64c-0.15,0.62-0.23,1.26-0.28,1.89
		c-0.12,1.26-0.15,2.49-0.26,3.66c-0.06,0.59-0.13,1.16-0.3,1.72c-0.19,0.54-0.4,1.04-0.65,1.51c-0.49,0.94-1.09,1.73-1.67,2.42
		c-0.58,0.69-1.13,1.3-1.57,1.9c-0.89,1.19-1.23,2.33-1.38,3.11c-0.09,0.39-0.1,0.7-0.13,0.9C10.94,42.15,10.92,42.26,10.92,42.26z"
		/>
	<g class="st5">
		<path class="st3" d="M67.51,51.16c0.29,1.64-0.93,3.13-2.06,4.35c-1.31,1.41-2.64,2.84-4.29,3.83c-3.34,1.99-7.51,1.9-11.34,1.28
			c-5.97-0.97-12.06-3.3-15.77-8.08c-1.53-1.97-2.61-4.39-2.52-6.88c0.09-2.49,1.55-5.01,3.88-5.9c1.22-0.47,2.65-0.5,3.68-1.31
			c1.1-0.86,1.45-2.34,2.21-3.51c1.31-2.01,3.75-2.97,6.12-3.36c3.01-0.51,6.21-0.28,8.95,1.07c2.74,1.36,4.94,3.95,5.41,6.96
			c0.34,2.2-0.16,4.65,1.07,6.5c0.65,0.98,1.68,1.61,2.62,2.32C66.39,49.12,67.3,50.01,67.51,51.16z"/>
	</g>
	<path class="st6" d="M98.2,70.67c-0.37,1.02-1.61,1.45-2.71,1.55c-1.11,0.09-2.27,0-3.26,0.5c-1.51,0.76-2.02,2.58-2.79,4.06
		c-0.35,0.67-0.78,1.29-1.27,1.86c-2.28,2.67-5.86,4.25-9.3,5.42c-13.25,4.5-27.64,5.65-41.48,3.49c-3.76-0.59-7.48-1.42-11.12-2.49
		c-2.66-0.79-5.29-1.7-7.86-2.74c-1.21-0.49-2.64-0.92-3.98-1.47c-1.46-0.59-2.82-1.33-3.68-2.44c-0.31-0.4-0.55-0.86-0.76-1.34
		c0,0,0-0.01,0-0.01c-0.59-1.34-0.93-2.84-1.9-3.66c-0.27-0.24-0.59-0.42-0.99-0.53c-1.41-0.38-3.13,0.1-4.22-0.85
		c-0.96-0.83-0.84-2.42-0.07-3.43c0.72-0.94,1.82-1.5,2.93-1.98c0.08-0.04,0.16-0.07,0.23-0.1c2.94-1.26,5.92-2.4,8.96-3.39
		c5.53-1.82,11.22-3.19,16.98-4.12c17.52-2.82,35.75-1.51,52.61,3.9c3.7,1.19,7.34,2.58,10.89,4.16
		C96.96,67.78,98.77,69.11,98.2,70.67z"/>
	<path class="st7" d="M53.12,64.04c0.94,0,1.71-0.74,1.71-1.65c0-0.91-0.76-1.65-1.71-1.65c-0.94,0-1.71,0.74-1.71,1.65
		C51.41,63.31,52.18,64.04,53.12,64.04z"/>
	<g>
		<linearGradient id="SVGID_1_" gradientUnits="userSpaceOnUse" x1="16.0914" y1="52.6266" x2="39.8638" y2="76.399">
			<stop  offset="0" style="stop-color:#FFA900"/>
			<stop  offset="1" style="stop-color:#B44005"/>
		</linearGradient>
		<path class="st8" d="M44.06,57.36L44.06,57.36c0.01-0.57-0.38-1.13-1.03-1.23L34,54.82c-0.39-0.06-0.73-0.3-0.91-0.66l-4.04-8.18
			c-0.44-0.9-1.72-0.9-2.16,0l-4.04,8.18c-0.18,0.36-0.51,0.6-0.91,0.66l-9.03,1.31c-0.65,0.09-1.04,0.66-1.03,1.23h0v2.47h0
			c-0.02,0.33,0.09,0.66,0.36,0.93l6.53,6.37c0.03,0.03,0.05,0.05,0.07,0.08l-1.27,7.41c-0.07,0.38-0.01,2.9-0.01,2.92
			c0.01,0.11,0.04,0.22,0.09,0.32c0.01,0.03,0.02,0.05,0.04,0.07c0.06,0.12,0.15,0.23,0.24,0.32c0.06,0.06,0.12,0.11,0.19,0.15
			c0.18,0.11,0.39,0.18,0.61,0.19c0.06,0,0.12,0,0.18-0.01c0.07-0.01,0.15-0.03,0.22-0.05c0.02-0.01,0.04-0.01,0.05-0.02
			c0.03-0.01,0.06-0.03,0.09-0.04c0.01-0.01,0.03-0.01,0.04-0.02l8.08-4.25c0.35-0.18,0.77-0.18,1.12,0l8.08,4.25
			c0.01,0.01,0.03,0.01,0.04,0.02c0.13,0.06,0.25,0.1,0.38,0.11c0.06,0.01,0.11,0.01,0.17,0.01c0.06,0,0.11-0.01,0.16-0.02
			c0.48-0.08,0.9-0.46,0.99-0.95c0.01-0.06,0.02-0.11,0.02-0.17c0-0.06,0.05-2.45-0.02-2.84l-1.27-7.41
			c0.02-0.03,0.05-0.05,0.08-0.08l6.53-6.37h0c0.27-0.26,0.38-0.6,0.36-0.93h0V57.36z"/>
		<g>
			<linearGradient id="SVGID_2_" gradientUnits="userSpaceOnUse" x1="27.9776" y1="76.0248" x2="27.9776" y2="45.3113">
				<stop  offset="0" style="stop-color:#FFD700"/>
				<stop  offset="1" style="stop-color:#FFA900"/>
			</linearGradient>
			<path class="st9" d="M29.06,45.98l4.04,8.18c0.18,0.36,0.51,0.6,0.91,0.66l9.03,1.31c0.99,0.14,1.38,1.36,0.67,2.05l-6.53,6.37
				c-0.28,0.28-0.41,0.68-0.35,1.07l1.54,8.99c0.17,0.98-0.86,1.73-1.75,1.27l-8.08-4.25c-0.35-0.18-0.77-0.18-1.12,0l-8.08,4.25
				c-0.88,0.46-1.92-0.29-1.75-1.27l1.54-8.99c0.07-0.39-0.06-0.79-0.35-1.07l-6.53-6.37c-0.71-0.7-0.32-1.91,0.67-2.05l9.03-1.31
				c0.39-0.06,0.73-0.3,0.91-0.66l4.04-8.18C27.34,45.09,28.62,45.09,29.06,45.98z"/>
			<linearGradient id="SVGID_3_" gradientUnits="userSpaceOnUse" x1="27.9776" y1="74.8505" x2="27.9776" y2="45.5823">
				<stop  offset="0" style="stop-color:#FFA900"/>
				<stop  offset="1" style="stop-color:#FFD700"/>
			</linearGradient>
			<path class="st10" d="M37.17,74.85c-0.08,0-0.15-0.02-0.22-0.06l-8.08-4.25c-0.28-0.14-0.59-0.22-0.9-0.22
				c-0.31,0-0.62,0.08-0.9,0.22l-8.08,4.25c-0.07,0.04-0.15,0.06-0.22,0.06c-0.14,0-0.28-0.07-0.37-0.18
				c-0.06-0.08-0.13-0.2-0.1-0.39l1.54-8.99c0.11-0.63-0.1-1.26-0.55-1.71l-6.53-6.37c-0.19-0.19-0.15-0.41-0.12-0.49
				s0.12-0.29,0.39-0.33l9.03-1.31c0.63-0.09,1.17-0.49,1.45-1.05l4.04-8.18c0.12-0.24,0.34-0.27,0.43-0.27
				c0.09,0,0.31,0.03,0.43,0.27l4.04,8.18c0.28,0.57,0.82,0.96,1.45,1.05l9.03,1.31c0.27,0.04,0.36,0.24,0.39,0.33
				c0.03,0.09,0.07,0.31-0.12,0.49l-6.53,6.37c-0.45,0.44-0.66,1.08-0.55,1.71l1.54,8.99c0.03,0.18-0.04,0.31-0.1,0.39
				C37.45,74.78,37.31,74.85,37.17,74.85z"/>
		</g>
		<g>
			<defs>
				<path id="SVGID_4_" d="M29.06,45.98l4.04,8.18c0.18,0.36,0.51,0.6,0.91,0.66l9.03,1.31c0.99,0.14,1.38,1.36,0.67,2.05
					l-6.53,6.37c-0.28,0.28-0.41,0.68-0.35,1.07l1.54,8.99c0.17,0.98-0.86,1.73-1.75,1.27l-8.08-4.25c-0.35-0.18-0.77-0.18-1.12,0
					l-8.08,4.25c-0.88,0.46-1.92-0.29-1.75-1.27l1.54-8.99c0.07-0.39-0.06-0.79-0.35-1.07l-6.53-6.37c-0.71-0.7-0.32-1.91,0.67-2.05
					l9.03-1.31c0.39-0.06,0.73-0.3,0.91-0.66l4.04-8.18C27.34,45.09,28.62,45.09,29.06,45.98z"/>
			</defs>
			<clipPath id="SVGID_5_">
				<use xlink:href="#SVGID_4_"  style="overflow:visible;"/>
			</clipPath>
		</g>
		<linearGradient id="SVGID_6_" gradientUnits="userSpaceOnUse" x1="38.002" y1="55.2305" x2="58.8188" y2="76.0473">
			<stop  offset="0" style="stop-color:#FFA900"/>
			<stop  offset="1" style="stop-color:#B44005"/>
		</linearGradient>
		<path class="st11" d="M62.5,59.38L62.5,59.38c0.01-0.5-0.33-0.99-0.9-1.07l-7.91-1.15c-0.34-0.05-0.64-0.27-0.79-0.58l-3.54-7.16
			c-0.39-0.78-1.5-0.78-1.89,0l-3.54,7.16c-0.15,0.31-0.45,0.53-0.79,0.58l-7.91,1.15c-0.57,0.08-0.92,0.57-0.9,1.07h0v2.16h0
			c-0.02,0.29,0.08,0.58,0.32,0.81l5.72,5.58c0.02,0.02,0.04,0.05,0.07,0.07l-1.11,6.49c-0.06,0.34-0.01,2.54-0.01,2.56
			c0.01,0.1,0.04,0.19,0.08,0.28c0.01,0.02,0.02,0.04,0.03,0.06c0.05,0.11,0.13,0.2,0.21,0.28c0.05,0.05,0.11,0.09,0.17,0.13
			c0.16,0.1,0.34,0.16,0.54,0.16c0.05,0,0.11,0,0.16-0.01c0.06-0.01,0.13-0.02,0.19-0.04c0.02-0.01,0.03-0.01,0.05-0.02
			c0.03-0.01,0.05-0.02,0.08-0.04c0.01-0.01,0.02-0.01,0.04-0.02l7.07-3.72c0.31-0.16,0.67-0.16,0.98,0l7.07,3.72
			c0.01,0.01,0.02,0.01,0.04,0.02c0.11,0.05,0.22,0.09,0.33,0.1c0.05,0.01,0.1,0.01,0.15,0.01c0.05,0,0.1-0.01,0.14-0.01
			c0.42-0.07,0.78-0.4,0.87-0.84c0.01-0.05,0.02-0.1,0.02-0.15c0-0.05,0.04-2.15-0.01-2.48L56.39,68c0.02-0.02,0.04-0.05,0.07-0.07
			l5.72-5.58h0c0.24-0.23,0.33-0.53,0.32-0.81h0V59.38z"/>
		<g>
			<linearGradient id="SVGID_7_" gradientUnits="userSpaceOnUse" x1="48.4104" y1="75.7197" x2="48.4104" y2="48.8247">
				<stop  offset="0" style="stop-color:#FFD700"/>
				<stop  offset="1" style="stop-color:#FFA900"/>
			</linearGradient>
			<path class="st12" d="M49.36,49.41l3.54,7.16c0.15,0.31,0.45,0.53,0.79,0.58l7.91,1.15c0.86,0.13,1.21,1.19,0.58,1.8l-5.72,5.58
				c-0.25,0.24-0.36,0.59-0.3,0.93l1.35,7.87c0.15,0.86-0.76,1.52-1.53,1.11l-7.07-3.72c-0.31-0.16-0.67-0.16-0.98,0l-7.07,3.72
				c-0.77,0.41-1.68-0.25-1.53-1.11l1.35-7.87c0.06-0.34-0.05-0.69-0.3-0.93l-5.72-5.58c-0.63-0.61-0.28-1.67,0.58-1.8l7.91-1.15
				c0.34-0.05,0.64-0.27,0.79-0.58l3.54-7.16C47.85,48.63,48.97,48.63,49.36,49.41z"/>
			<linearGradient id="SVGID_8_" gradientUnits="userSpaceOnUse" x1="48.4104" y1="74.6913" x2="48.4104" y2="49.062">
				<stop  offset="0" style="stop-color:#FFA900"/>
				<stop  offset="1" style="stop-color:#FFD700"/>
			</linearGradient>
			<path class="st13" d="M56.46,74.69c-0.07,0-0.13-0.02-0.2-0.05l-7.07-3.72c-0.24-0.13-0.51-0.19-0.79-0.19
				c-0.27,0-0.54,0.07-0.79,0.19l-7.07,3.72c-0.06,0.03-0.13,0.05-0.2,0.05c-0.12,0-0.24-0.06-0.33-0.16
				c-0.06-0.07-0.12-0.18-0.09-0.34l1.35-7.87c0.09-0.55-0.09-1.11-0.49-1.49l-5.72-5.58c-0.17-0.17-0.13-0.36-0.11-0.43
				c0.02-0.07,0.11-0.25,0.34-0.29l7.91-1.15c0.55-0.08,1.02-0.42,1.27-0.92l3.54-7.16c0.1-0.21,0.3-0.24,0.38-0.24
				s0.27,0.02,0.38,0.24l3.54,7.16c0.25,0.5,0.72,0.84,1.27,0.92l7.91,1.15c0.23,0.03,0.32,0.21,0.34,0.29
				c0.02,0.07,0.06,0.27-0.11,0.43l-5.72,5.58c-0.4,0.39-0.58,0.95-0.49,1.49l1.35,7.87c0.03,0.16-0.03,0.27-0.09,0.34
				C56.71,74.63,56.59,74.69,56.46,74.69z"/>
		</g>
		<g>
			<defs>
				<path id="SVGID_9_" d="M49.36,49.41l3.54,7.16c0.15,0.31,0.45,0.53,0.79,0.58l7.91,1.15c0.86,0.13,1.21,1.19,0.58,1.8
					l-5.72,5.58c-0.25,0.24-0.36,0.59-0.3,0.93l1.35,7.87c0.15,0.86-0.76,1.52-1.53,1.11l-7.07-3.72c-0.31-0.16-0.67-0.16-0.98,0
					l-7.07,3.72c-0.77,0.41-1.68-0.25-1.53-1.11l1.35-7.87c0.06-0.34-0.05-0.69-0.3-0.93l-5.72-5.58c-0.63-0.61-0.28-1.67,0.58-1.8
					l7.91-1.15c0.34-0.05,0.64-0.27,0.79-0.58l3.54-7.16C47.85,48.63,48.97,48.63,49.36,49.41z"/>
			</defs>
			<clipPath id="SVGID_10_">
				<use xlink:href="#SVGID_9_"  style="overflow:visible;"/>
			</clipPath>
		</g>
		<linearGradient id="SVGID_11_" gradientUnits="userSpaceOnUse" x1="55.0736" y1="52.9405" x2="81.2146" y2="79.0815">
			<stop  offset="0" style="stop-color:#FFA900"/>
			<stop  offset="1" style="stop-color:#B44005"/>
		</linearGradient>
		<path class="st14" d="M85.83,58.15L85.83,58.15c0.01-0.63-0.42-1.24-1.14-1.35l-9.93-1.44c-0.43-0.06-0.8-0.33-1-0.72l-4.44-9
			c-0.49-0.98-1.89-0.98-2.37,0l-4.44,9c-0.19,0.39-0.57,0.66-1,0.72l-9.93,1.44c-0.72,0.1-1.15,0.72-1.13,1.35h0v2.71h0
			c-0.02,0.36,0.1,0.73,0.4,1.02l7.18,7c0.03,0.03,0.06,0.06,0.08,0.09l-1.4,8.15c-0.07,0.42-0.01,3.18-0.01,3.22
			c0.02,0.13,0.05,0.24,0.1,0.35c0.01,0.03,0.02,0.05,0.04,0.08c0.07,0.13,0.16,0.25,0.27,0.35c0.06,0.06,0.13,0.12,0.21,0.16
			c0.2,0.13,0.43,0.2,0.68,0.21c0.07,0,0.13,0,0.2-0.01c0.08-0.01,0.16-0.03,0.24-0.06c0.02-0.01,0.04-0.01,0.06-0.02
			c0.03-0.01,0.07-0.03,0.1-0.04c0.01-0.01,0.03-0.01,0.04-0.02l8.88-4.67c0.39-0.2,0.85-0.2,1.23,0l8.88,4.67
			c0.01,0.01,0.03,0.01,0.04,0.02c0.14,0.07,0.28,0.11,0.42,0.12c0.06,0.01,0.12,0.01,0.18,0.01c0.06,0,0.12-0.01,0.18-0.02
			c0.53-0.09,0.98-0.5,1.09-1.05c0.01-0.06,0.02-0.12,0.02-0.19c0-0.06,0.05-2.7-0.02-3.12l-1.4-8.15c0.03-0.03,0.05-0.06,0.08-0.09
			l7.18-7h0c0.3-0.29,0.42-0.66,0.4-1.02h0V58.15z"/>
		<g>
			<linearGradient id="SVGID_12_" gradientUnits="userSpaceOnUse" x1="68.1441" y1="78.67" x2="68.1441" y2="44.8962">
				<stop  offset="0" style="stop-color:#FFD700"/>
				<stop  offset="1" style="stop-color:#FFA900"/>
			</linearGradient>
			<path class="st15" d="M69.33,45.63l4.44,9c0.19,0.39,0.57,0.66,1,0.72l9.93,1.44c1.09,0.16,1.52,1.49,0.73,2.26l-7.18,7
				c-0.31,0.3-0.45,0.74-0.38,1.17l1.7,9.89c0.19,1.08-0.95,1.91-1.92,1.4l-8.88-4.67c-0.39-0.2-0.85-0.2-1.23,0l-8.88,4.67
				c-0.97,0.51-2.11-0.31-1.92-1.4l1.7-9.89c0.07-0.43-0.07-0.87-0.38-1.17l-7.18-7c-0.79-0.77-0.35-2.1,0.73-2.26l9.93-1.44
				c0.43-0.06,0.8-0.33,1-0.72l4.44-9C67.44,44.65,68.85,44.65,69.33,45.63z"/>
			<linearGradient id="SVGID_13_" gradientUnits="userSpaceOnUse" x1="68.1441" y1="77.3787" x2="68.1441" y2="45.1942">
				<stop  offset="0" style="stop-color:#FFA900"/>
				<stop  offset="1" style="stop-color:#FFD700"/>
			</linearGradient>
			<path class="st16" d="M78.26,77.38c-0.08,0-0.17-0.02-0.25-0.06l-8.88-4.67c-0.3-0.16-0.64-0.24-0.99-0.24
				c-0.34,0-0.68,0.08-0.99,0.24l-8.88,4.67c-0.08,0.04-0.16,0.06-0.25,0.06c-0.15,0-0.31-0.07-0.41-0.2
				c-0.07-0.08-0.15-0.22-0.11-0.43l1.7-9.89c0.12-0.69-0.11-1.39-0.61-1.88l-7.18-7c-0.21-0.21-0.16-0.45-0.13-0.54
				c0.03-0.09,0.13-0.32,0.43-0.36l9.93-1.44c0.69-0.1,1.29-0.53,1.6-1.16l4.44-9c0.13-0.27,0.38-0.3,0.47-0.3s0.34,0.03,0.47,0.3
				l4.44,9c0.31,0.63,0.91,1.06,1.6,1.16l9.93,1.44c0.29,0.04,0.4,0.27,0.43,0.36c0.03,0.09,0.08,0.34-0.13,0.54l-7.18,7
				c-0.5,0.49-0.73,1.19-0.61,1.88l1.7,9.89c0.03,0.2-0.04,0.34-0.11,0.43C78.56,77.31,78.41,77.38,78.26,77.38z"/>
		</g>
		<g>
			<defs>
				<path id="SVGID_14_" d="M69.33,45.63l4.44,9c0.19,0.39,0.57,0.66,1,0.72l9.93,1.44c1.09,0.16,1.52,1.49,0.73,2.26l-7.18,7
					c-0.31,0.3-0.45,0.74-0.38,1.17l1.7,9.89c0.19,1.08-0.95,1.91-1.92,1.4l-8.88-4.67c-0.39-0.2-0.85-0.2-1.23,0l-8.88,4.67
					c-0.97,0.51-2.11-0.31-1.92-1.4l1.7-9.89c0.07-0.43-0.07-0.87-0.38-1.17l-7.18-7c-0.79-0.77-0.35-2.1,0.73-2.26l9.93-1.44
					c0.43-0.06,0.8-0.33,1-0.72l4.44-9C67.44,44.65,68.85,44.65,69.33,45.63z"/>
			</defs>
			<clipPath id="SVGID_15_">
				<use xlink:href="#SVGID_14_"  style="overflow:visible;"/>
			</clipPath>
		</g>
		<linearGradient id="SVGID_16_" gradientUnits="userSpaceOnUse" x1="26.5541" y1="24.7827" x2="50.5797" y2="48.8083">
			<stop  offset="0" style="stop-color:#FFA900"/>
			<stop  offset="1" style="stop-color:#B44005"/>
		</linearGradient>
		<path class="st17" d="M54.82,29.57L54.82,29.57c0.01-0.58-0.38-1.14-1.04-1.24L44.66,27c-0.4-0.06-0.74-0.31-0.92-0.67l-4.08-8.27
			c-0.45-0.9-1.74-0.9-2.18,0l-4.08,8.27c-0.18,0.36-0.52,0.61-0.92,0.67l-9.12,1.33c-0.66,0.1-1.06,0.66-1.04,1.24h0v2.49h0
			c-0.02,0.33,0.09,0.67,0.37,0.94l6.6,6.44c0.03,0.03,0.05,0.05,0.08,0.08L28.07,47c-0.07,0.39-0.01,2.93-0.01,2.95
			c0.01,0.11,0.04,0.22,0.09,0.33c0.01,0.03,0.02,0.05,0.04,0.07c0.06,0.12,0.15,0.23,0.25,0.33c0.06,0.06,0.12,0.11,0.19,0.15
			c0.18,0.12,0.4,0.18,0.62,0.19c0.06,0,0.12,0,0.18-0.01c0.07-0.01,0.15-0.03,0.22-0.05c0.02-0.01,0.04-0.01,0.05-0.02
			c0.03-0.01,0.06-0.03,0.09-0.04c0.01-0.01,0.03-0.01,0.04-0.02L38,46.59c0.35-0.19,0.78-0.19,1.13,0l8.16,4.29
			c0.01,0.01,0.03,0.01,0.04,0.02c0.13,0.06,0.26,0.1,0.38,0.11c0.06,0.01,0.11,0.01,0.17,0.01c0.06,0,0.11-0.01,0.17-0.02
			c0.49-0.08,0.9-0.46,1-0.96c0.01-0.06,0.02-0.11,0.02-0.17c0-0.06,0.05-2.48-0.02-2.87l-1.28-7.49c0.02-0.03,0.05-0.06,0.08-0.08
			l6.6-6.44h0c0.27-0.27,0.39-0.61,0.37-0.94h0V29.57z"/>
		<linearGradient id="SVGID_17_" gradientUnits="userSpaceOnUse" x1="38.5669" y1="48.4301" x2="38.5669" y2="17.3894">
			<stop  offset="0" style="stop-color:#FFD700"/>
			<stop  offset="1" style="stop-color:#FFA900"/>
		</linearGradient>
		<path class="st18" d="M39.66,18.07l4.08,8.27c0.18,0.36,0.52,0.61,0.92,0.67l9.12,1.33c1,0.15,1.4,1.37,0.67,2.08l-6.6,6.44
			c-0.29,0.28-0.42,0.68-0.35,1.08L49.06,47c0.17,0.99-0.87,1.75-1.77,1.28L39.13,44c-0.35-0.19-0.78-0.19-1.13,0l-8.16,4.29
			C28.95,48.76,27.9,48,28.07,47l1.56-9.09c0.07-0.39-0.06-0.8-0.35-1.08l-6.6-6.44c-0.72-0.7-0.32-1.93,0.67-2.08L32.48,27
			c0.4-0.06,0.74-0.31,0.92-0.67l4.08-8.27C37.92,17.16,39.21,17.16,39.66,18.07z"/>
		<linearGradient id="SVGID_18_" gradientUnits="userSpaceOnUse" x1="38.5669" y1="47.2432" x2="38.5669" y2="17.6633">
			<stop  offset="0" style="stop-color:#FFA900"/>
			<stop  offset="1" style="stop-color:#FFD700"/>
		</linearGradient>
		<path class="st19" d="M47.86,47.24c-0.08,0-0.15-0.02-0.23-0.06l-8.16-4.29c-0.28-0.15-0.59-0.22-0.91-0.22
			c-0.31,0-0.63,0.08-0.91,0.22l-8.16,4.29c-0.07,0.04-0.15,0.06-0.23,0.06c-0.14,0-0.28-0.07-0.38-0.18
			c-0.06-0.08-0.13-0.21-0.1-0.39l1.56-9.09c0.11-0.63-0.1-1.28-0.56-1.72l-6.6-6.44c-0.2-0.19-0.15-0.41-0.12-0.5
			c0.03-0.09,0.12-0.29,0.39-0.33l9.12-1.33c0.63-0.09,1.18-0.49,1.47-1.07l4.08-8.27c0.12-0.24,0.35-0.27,0.44-0.27
			c0.09,0,0.32,0.03,0.44,0.27l4.08,8.27c0.28,0.57,0.83,0.97,1.47,1.07l9.12,1.33c0.27,0.04,0.36,0.24,0.39,0.33
			c0.03,0.09,0.07,0.31-0.12,0.5l-6.6,6.44c-0.46,0.45-0.67,1.09-0.56,1.72l1.56,9.09c0.03,0.19-0.04,0.32-0.1,0.39
			C48.14,47.18,48,47.24,47.86,47.24z"/>
		<g>
			<defs>
				<path id="SVGID_19_" d="M39.66,18.07l4.08,8.27c0.18,0.36,0.52,0.61,0.92,0.67l9.12,1.33c1,0.15,1.4,1.37,0.67,2.08l-6.6,6.44
					c-0.29,0.28-0.42,0.68-0.35,1.08L49.06,47c0.17,0.99-0.87,1.75-1.77,1.28L39.13,44c-0.35-0.19-0.78-0.19-1.13,0l-8.16,4.29
					C28.95,48.76,27.9,48,28.07,47l1.56-9.09c0.07-0.39-0.06-0.8-0.35-1.08l-6.6-6.44c-0.72-0.7-0.32-1.93,0.67-2.08L32.48,27
					c0.4-0.06,0.74-0.31,0.92-0.67l4.08-8.27C37.92,17.16,39.21,17.16,39.66,18.07z"/>
			</defs>
			<clipPath id="SVGID_20_">
				<use xlink:href="#SVGID_19_"  style="overflow:visible;"/>
			</clipPath>
		</g>
		<linearGradient id="SVGID_21_" gradientUnits="userSpaceOnUse" x1="52.677" y1="27.0775" x2="72.8353" y2="47.2358">
			<stop  offset="0" style="stop-color:#FFA900"/>
			<stop  offset="1" style="stop-color:#B44005"/>
		</linearGradient>
		<path class="st20" d="M76.4,31.09L76.4,31.09c0.01-0.48-0.32-0.96-0.88-1.04l-7.66-1.11c-0.33-0.05-0.62-0.26-0.77-0.56
			l-3.42-6.94c-0.37-0.76-1.46-0.76-1.83,0l-3.42,6.94c-0.15,0.3-0.44,0.51-0.77,0.56l-7.66,1.11c-0.55,0.08-0.89,0.56-0.87,1.04h0
			v2.09h0c-0.02,0.28,0.08,0.56,0.31,0.79l5.54,5.4c0.02,0.02,0.04,0.05,0.06,0.07l-1.08,6.28c-0.06,0.33-0.01,2.46-0.01,2.48
			c0.01,0.1,0.04,0.19,0.07,0.27c0.01,0.02,0.02,0.04,0.03,0.06c0.05,0.1,0.12,0.19,0.21,0.27c0.05,0.05,0.1,0.09,0.16,0.13
			c0.15,0.1,0.33,0.15,0.52,0.16c0.05,0,0.1,0,0.15-0.01c0.06-0.01,0.12-0.02,0.19-0.04c0.02-0.01,0.03-0.01,0.05-0.02
			c0.03-0.01,0.05-0.02,0.08-0.03c0.01-0.01,0.02-0.01,0.03-0.02l6.85-3.6c0.3-0.16,0.65-0.16,0.95,0l6.85,3.6
			c0.01,0.01,0.02,0.01,0.03,0.02c0.11,0.05,0.21,0.08,0.32,0.1c0.05,0.01,0.09,0.01,0.14,0.01c0.05,0,0.09-0.01,0.14-0.01
			c0.41-0.07,0.76-0.39,0.84-0.81c0.01-0.05,0.02-0.1,0.02-0.14c0-0.05,0.04-2.08-0.01-2.41l-1.08-6.28
			c0.02-0.02,0.04-0.05,0.06-0.07l5.54-5.4h0c0.23-0.22,0.32-0.51,0.31-0.79h0V31.09z"/>
		<linearGradient id="SVGID_22_" gradientUnits="userSpaceOnUse" x1="62.7561" y1="46.9185" x2="62.7561" y2="20.8743">
			<stop  offset="0" style="stop-color:#FFD700"/>
			<stop  offset="1" style="stop-color:#FFA900"/>
		</linearGradient>
		<path class="st21" d="M63.67,21.44l3.42,6.94c0.15,0.3,0.44,0.51,0.77,0.56l7.66,1.11c0.84,0.12,1.17,1.15,0.57,1.74l-5.54,5.4
			c-0.24,0.23-0.35,0.57-0.29,0.9l1.31,7.62c0.14,0.83-0.73,1.47-1.48,1.08l-6.85-3.6c-0.3-0.16-0.65-0.16-0.95,0l-6.85,3.6
			c-0.75,0.39-1.62-0.24-1.48-1.08l1.31-7.62c0.06-0.33-0.05-0.67-0.29-0.9l-5.54-5.4c-0.61-0.59-0.27-1.62,0.57-1.74l7.66-1.11
			c0.33-0.05,0.62-0.26,0.77-0.56l3.42-6.94C62.21,20.68,63.3,20.68,63.67,21.44z"/>
		<linearGradient id="SVGID_23_" gradientUnits="userSpaceOnUse" x1="62.7561" y1="45.9227" x2="62.7561" y2="21.1041">
			<stop  offset="0" style="stop-color:#FFA900"/>
			<stop  offset="1" style="stop-color:#FFD700"/>
		</linearGradient>
		<path class="st22" d="M70.55,45.92c-0.06,0-0.13-0.02-0.19-0.05l-6.85-3.6c-0.23-0.12-0.5-0.19-0.76-0.19
			c-0.26,0-0.53,0.06-0.76,0.19l-6.85,3.6c-0.06,0.03-0.13,0.05-0.19,0.05c-0.12,0-0.24-0.06-0.32-0.15
			c-0.05-0.06-0.11-0.17-0.09-0.33l1.31-7.62c0.09-0.53-0.08-1.07-0.47-1.45l-5.54-5.4c-0.16-0.16-0.13-0.35-0.1-0.42
			s0.1-0.24,0.33-0.28l7.66-1.11c0.53-0.08,0.99-0.41,1.23-0.89l3.42-6.94c0.1-0.21,0.29-0.23,0.37-0.23c0.08,0,0.26,0.02,0.37,0.23
			l3.42,6.94c0.24,0.48,0.7,0.82,1.23,0.89l7.66,1.11c0.23,0.03,0.31,0.21,0.33,0.28c0.02,0.07,0.06,0.26-0.1,0.42l-5.54,5.4
			c-0.39,0.38-0.56,0.92-0.47,1.45l1.31,7.62c0.03,0.16-0.03,0.26-0.09,0.33C70.79,45.87,70.67,45.92,70.55,45.92z"/>
		<g>
			<defs>
				<path id="SVGID_24_" d="M63.67,21.44l3.42,6.94c0.15,0.3,0.44,0.51,0.77,0.56l7.66,1.11c0.84,0.12,1.17,1.15,0.57,1.74
					l-5.54,5.4c-0.24,0.23-0.35,0.57-0.29,0.9l1.31,7.62c0.14,0.83-0.73,1.47-1.48,1.08l-6.85-3.6c-0.3-0.16-0.65-0.16-0.95,0
					l-6.85,3.6c-0.75,0.39-1.62-0.24-1.48-1.08l1.31-7.62c0.06-0.33-0.05-0.67-0.29-0.9l-5.54-5.4c-0.61-0.59-0.27-1.62,0.57-1.74
					l7.66-1.11c0.33-0.05,0.62-0.26,0.77-0.56l3.42-6.94C62.21,20.68,63.3,20.68,63.67,21.44z"/>
			</defs>
			<clipPath id="SVGID_25_">
				<use xlink:href="#SVGID_24_"  style="overflow:visible;"/>
			</clipPath>
		</g>
	</g>
	<path class="st23" d="M98.2,70.67c-0.37,1.02-1.61,1.45-2.71,1.55c-1.11,0.09-2.27,0-3.26,0.5c-1.51,0.76-2.02,2.58-2.79,4.06
		c-0.35,0.67-0.78,1.29-1.27,1.86c-1.38,0.6-2.8,1.09-4.27,1.38c-2.51,0.5-5.11,0.45-7.58,1.12c-2.21,0.6-4.21,1.77-6.27,2.77
		c-2.06,1-4.1,3.65-6.39,3.57c-2.29-0.08-7.54-1.74-8.38-3.87c0.88,1.57,6.12,1.71,7.85,1.19c1.72-0.52,2.71-2.82,3.82-4.23
		c1.12-1.41,2.07-2.97,3.37-4.22c2.46-2.38,6.11-3.48,9.47-2.84c0.92,0.17,1.83,0.46,2.76,0.4c1.57-0.11,2.88-1.19,4.07-2.22
		c1.01-0.88,2.08-1.87,2.3-3.19c0.23-1.38-0.58-2.77-1.69-3.63c-1.11-0.86-3.1-1.87-2.73-1.94c3.7,1.19,7.34,2.58,10.89,4.16
		C96.96,67.78,98.77,69.11,98.2,70.67z"/>
	<path class="st24" d="M59.26,86.2c-5.02-2.05-10.76-2.31-15.94-0.73c-2,0.61-3.92,1.48-5.92,2.07c-0.07,0.02-0.15,0.05-0.22,0.07
		c-2.08,0.6-4.34,0.88-6.41,0.22c-1.69-0.54-3.1-1.65-4.49-2.77c-1.37-1.11-2.74-2.24-4.37-2.87c-2.05-0.8-4.31-0.74-6.47-1.12
		c-0.33-0.06-0.67-0.13-1-0.22c-1.83-0.5-3.58-1.5-4.26-3.23c-0.07-0.18-0.12-0.35-0.18-0.54c0,0,0-0.01,0-0.01
		c-0.31-1.13-0.35-2.38-1.18-3.19c-0.21-0.21-0.46-0.36-0.72-0.47c-0.27-0.24-0.59-0.42-0.99-0.53c-1.41-0.38-3.13,0.1-4.22-0.85
		c-0.96-0.83-0.84-2.42-0.07-3.43c0.72-0.94,1.82-1.5,2.93-1.98c0.08-0.04,0.16-0.07,0.23-0.1c2.94-1.26,5.92-2.4,8.96-3.39
		c-0.19,0.17-0.37,0.35-0.54,0.55c-0.88,1.03-1.29,2.6-0.61,3.77c0.75,1.28,2.57,1.78,3.02,3.19c0.58,1.8-1.48,3.8-0.62,5.48
		c0.62,1.22,2.36,1.31,3.64,0.83c1.28-0.48,2.42-1.36,3.77-1.55c2.14-0.3,4.09,1.18,5.59,2.73c1.5,1.55,2.96,3.34,5.04,3.93
		c2.52,0.72,5.14-0.54,7.42-1.83c2.28-1.29,4.76-2.69,7.34-2.28c2.29,0.37,4.1,2.09,5.74,3.73C56.24,83.19,57.75,84.7,59.26,86.2z"
		/>
	<path class="st23" d="M59.88,84.16c5.05,0.74,9.95-1.71,14.46-4.1c-0.83,2.28-2.71,4.07-4.86,5.21s-4.54,1.7-6.93,2.14
		c-16.82,3.06-34.78,0.82-49.77-7.41c-1.52-0.84-3.08-2.61-3.28-4.34c-0.09-0.8,0.16-1.61,0.08-2.41c-0.08-0.8-0.73-1.67-1.52-1.52
		c0.73-0.76,1.92-1.04,2.92-0.68c0.99,0.36,1.74,1.33,1.82,2.38c0.1,1.19-0.58,2.42-0.18,3.55c0.43,1.24,1.97,1.74,3.28,1.6
		s2.54-0.7,3.84-0.87c2.78-0.36,5.43,1.14,7.77,2.68c2.34,1.54,4.78,3.25,7.58,3.38c3.99,0.19,7.48-2.84,11.46-3.18
		C51.17,80.21,55.3,83.49,59.88,84.16z"/>
	<path class="st0" d="M97.89,71.21c-1.63,1.45-3.31,2.87-5.02,4.26c-1.77,1.43-3.58,2.83-5.42,4.18c-2.52,1.86-5.09,3.65-7.69,5.37
		c-0.33,0.22-0.66,0.44-1,0.66c-0.53,0.35-1.06,0.69-1.6,1.03c-0.68,0.44-1.39,0.89-2.11,1.31h0c-2.72,1.62-5.69,2.94-8.68,2.25
		c-0.32-0.07-0.64-0.13-0.94-0.16c-2.7-0.27-4.76,1.06-6.32,2.12c-0.84,0.58-1.54,1.07-2.11,1.21c-1.17,0.28-2.72-0.34-4.15-0.97
		c-0.46-0.2-0.92-0.41-1.34-0.59h0c-0.23-0.09-0.46-0.18-0.67-0.25c-0.07-0.03-0.14-0.05-0.2-0.07c-1.67-0.52-2.93,0.02-4.29,0.64
		c-0.94,0.44-1.93,0.91-3.14,1.08c-1.71,0.25-3.41-0.11-5.08-0.63c-0.58-0.18-1.15-0.37-1.72-0.57c-0.86-0.3-1.68-0.41-2.53-0.49h0
		c-0.16-0.02-0.33-0.03-0.49-0.05h0c-1.01-0.09-2.06-0.18-3.23-0.49c0,0-0.01,0-0.01,0c-1.41-0.38-2.99-1.09-4.87-2.53
		c-1.82-1.39-3.62-2.61-5.4-3.76c-2.15-1.39-4.27-2.67-6.35-4.03c-0.01-0.01-0.03-0.02-0.04-0.03c-0.29-0.19-0.58-0.38-0.86-0.57
		c-0.83-0.55-1.65-1.12-2.46-1.71c-0.01,0-0.01-0.01-0.02-0.01c-1.06-0.77-2.1-1.59-3.14-2.48c-0.5-0.43-1.01-0.88-1.51-1.35
		c-1.72-1.61-5.75-3.38-2.69-5.99c-1.04,1.56-0.43,3.01,1.01,3.36c0.61,0.14,1.23,0.14,1.85,0.08c0.86-0.08,1.72-0.25,2.57-0.29
		c1.07-0.04,2.29,0.29,2.98,1.03c0.27,0.28,0.46,0.63,0.52,1.04c0.04,0.25,0.04,0.49,0,0.73c-0.13,0.91-0.69,1.8-0.69,2.74
		c0,1.24,0.98,2.23,2.16,2.68c0.01,0,0.01,0,0.02,0.01c0.34,0.13,0.69,0.2,1.04,0.23c0.4,0.03,0.8,0.01,1.19-0.04
		c1.17-0.16,2.3-0.63,3.41-1.07c0.21-0.08,0.42-0.17,0.63-0.24c1.29-0.48,2.66-0.85,4-0.58c2.26,0.46,3.64,2.48,5.16,4.33
		c0,0,0,0,0,0c0.69,0.84,1.39,1.64,2.23,2.24c0,0,0,0,0,0c0.42,0.3,0.86,0.56,1.35,0.74c0.99,0.38,2.04,0.42,3.07,0.23
		c1.64-0.29,3.27-1.12,4.69-2.05c2.32-1.5,4.66-3.29,7.42-3.42c2.78-0.13,5.22,1.44,7.64,3.06c0.45,0.3,0.9,0.6,1.35,0.89l0.01,0
		c2.17,1.41,4.37,2.6,6.82,2.39c0.1-0.01,0.2-0.02,0.31-0.03c2.18-0.3,3.94-1.67,5.64-3.2c2.43-2.18,4.71-4.67,7.84-4.77
		c1.95-0.06,3.44,0.53,5.33,0.99c0.09,0.02,0.18,0.04,0.28,0.06c0.64,0.12,1.35,0.13,2.05,0.02h0c0.17-0.02,0.34-0.06,0.51-0.09
		c0.98-0.22,1.89-0.67,2.49-1.35c0.11-0.12,0.21-0.25,0.31-0.39c0.65-1,0.64-1.54,0.94-2.71c0.71-2.71,3.66-4.57,6.49-4.58
		C96.28,70.69,97.12,70.85,97.89,71.21z"/>
	<path class="st25" d="M13.52,80.74c-0.3-0.2-0.6-0.4-0.9-0.6c-0.47-0.42-0.99-0.79-1.52-1.13c-0.31-0.2-0.62-0.39-0.94-0.58
		c-0.01,0-0.01-0.01-0.02-0.01c-0.96-0.58-1.92-1.16-2.72-1.94C7.27,76.35,7.13,76.16,7,75.95c-0.61-0.99-1.05-2.61-1.32-3.9
		c0.86-0.08,1.72-0.25,2.57-0.29c1.07-0.04,2.29,0.29,2.98,1.03c0.06,0.15,0.12,0.3,0.17,0.45c0.15,0.44,0.26,0.88,0.35,1.33
		c-0.13,0.91-0.69,1.8-0.69,2.74c0,1.24,0.99,2.24,2.18,2.69C13.32,80.25,13.42,80.5,13.52,80.74z"/>
	<path class="st25" d="M33.87,91.6c-1.16-0.11-2.36-0.17-3.73-0.54c0,0-0.01,0-0.01,0c-1.55-0.85-2.98-1.97-4.22-3.23
		c-2.59-2.61-4.51-5.8-6.4-8.95c-0.01-0.01-0.01-0.02-0.02-0.03c2.08-1.63,5.29-0.77,7.18,1.07c0.81,0.79,1.45,1.72,2,2.71
		c0,0,0,0,0,0c0.73,1.32,1.31,2.74,1.94,4.12C31.42,88.52,32.43,90.33,33.87,91.6z"/>
	<path class="st25" d="M53.57,85.89c-0.24,1.39-0.6,2.77-1.1,4.1c-0.24,0.67-0.54,1.35-0.98,1.9h0c-0.31-0.13-0.6-0.24-0.87-0.32
		c-1.67-0.52-2.93,0.02-4.29,0.64c-0.93-1.93-1.71-3.94-2.35-5.99c-0.4-1.28-0.72-2.72-0.09-3.9c0.61-1.14,1.97-1.7,3.26-1.7
		c1.29-0.01,2.53,0.45,3.74,0.9c0.92,0.34,1.91,0.74,2.43,1.58C53.82,83.91,53.73,84.95,53.57,85.89z"/>
	<path class="st25" d="M69.51,82.6c-0.11,0.3-0.22,0.6-0.33,0.9c-0.8,2.15-1.7,4.3-3.2,6.02c-0.18,0.2-0.36,0.4-0.56,0.59
		c-2.7-0.27-4.76,1.06-6.32,2.12c-0.02,0-0.03-0.01-0.05-0.01c1.92-1.33,3.4-3.28,4.18-5.49c0.01-0.03,0.02-0.05,0.03-0.08
		C65.77,86.21,68.08,84.71,69.51,82.6z"/>
	<path class="st25" d="M88.44,77.95c-0.32,0.57-0.65,1.14-0.99,1.69c-2.84,2.1-5.75,4.11-8.69,6.03c1.23-1.79,2.69-3.87,3.88-5.89
		c0.64,0.12,1.35,0.13,2.05,0.02h0c0.11,0.06,0.21,0.07,0.31,0.01c0.07-0.04,0.13-0.07,0.2-0.11c0.83-0.45,1.66-0.9,2.49-1.35
		C87.94,78.22,88.19,78.09,88.44,77.95z"/>
	<path class="st25" d="M97.89,71.21c-1.63,1.45-3.31,2.87-5.02,4.26c0.32-0.81,0.64-1.62,0.96-2.43c0.32-0.8,0.66-1.64,1.31-2.15
		c0.09-0.07,0.2-0.14,0.3-0.2C96.28,70.69,97.12,70.85,97.89,71.21z"/>
	<path class="st26" d="M12.02,79.4c0.1,0.1,0.21,0.2,0.31,0.29C12.22,79.62,12.11,79.52,12.02,79.4z"/>
	<path class="st26" d="M19.86,84.77c-2.15-1.39-4.27-2.67-6.35-4.03c-0.01-0.01-0.03-0.02-0.04-0.03c-0.39-0.33-0.77-0.67-1.14-1.02
		c0.25,0.17,0.56,0.26,0.88,0.3c0.2,0.03,0.41,0.04,0.6,0.04c0.56,0,1.14-0.04,1.65,0.16c0.09,0.04,0.19,0.08,0.28,0.13
		c0.25,0.15,0.45,0.37,0.64,0.59C17.54,82.2,18.7,83.49,19.86,84.77z"/>
	<path class="st26" d="M38.12,92.66c-0.58-0.18-1.15-0.37-1.72-0.57c-0.86-0.3-1.68-0.41-2.53-0.49h0
		c-0.16-0.02-0.33-0.03-0.49-0.05h0c-1.93-2.28-3.39-4.95-4.25-7.81c0.54,0.45,1.14,0.83,1.78,1.13c0,0,0,0,0,0
		c1.36,0.65,2.89,0.94,4.4,0.8c0.01,0.06,0.01,0.12,0.02,0.18C35.61,88.32,36.59,90.7,38.12,92.66z"/>
	<path class="st27" d="M56.91,85.52c0.03,0.63-0.29,1.22-0.59,1.77c-0.57,1.02-1.15,2.04-1.73,3.06c-0.43,0.75-0.88,1.53-1.59,2.03
		c-0.05,0.03-0.1,0.07-0.15,0.1c-0.46-0.2-0.92-0.41-1.34-0.59h0c-0.23-0.09-0.46-0.18-0.67-0.25c0.89-2.86,1.78-5.71,2.67-8.56
		c0.53,0.1,1.06,0.2,1.56,0.38c0.21,0.07,0.41,0.17,0.6,0.28c0.28,0.16,0.54,0.37,0.75,0.62l0.01,0
		C56.7,84.68,56.88,85.08,56.91,85.52z"/>
	<path class="st27" d="M82.91,79.91c-0.89,1.76-1.93,3.44-3.1,5.03c-0.02,0.03-0.04,0.06-0.06,0.08c-0.33,0.22-0.66,0.44-1,0.66
		c-0.53,0.35-1.06,0.69-1.6,1.03c-0.68,0.44-1.39,0.89-2.11,1.31c1.92-2.71,3.31-5.8,4.05-9.04C80.37,79.29,81.65,79.6,82.91,79.91z
		"/>
	<path class="st4" d="M5.45,72.07c0,0,0.11-0.01,0.32-0.02c0.21-0.02,0.53-0.03,0.94-0.08c0.41-0.05,0.91-0.11,1.51-0.16
		c0.3-0.04,0.62-0.03,0.97-0.04c0.09,0,0.17-0.01,0.27,0c0.09,0.01,0.18,0.03,0.27,0.04c0.09,0.01,0.18,0.04,0.28,0.07
		c0.09,0.03,0.19,0.06,0.29,0.1c0.36,0.16,0.73,0.37,1.07,0.65c0.08,0.07,0.17,0.14,0.25,0.23l0.06,0.06
		c0.02,0.02,0.05,0.07,0.08,0.11c0.03,0.04,0.03,0.08,0.04,0.1l0.02,0.08c0.03,0.11,0.06,0.21,0.07,0.34
		c0.02,0.12,0.04,0.24,0.04,0.36c0.03,0.49-0.04,0.99-0.17,1.48c-0.12,0.49-0.28,0.99-0.34,1.49c-0.03,0.25-0.03,0.5,0.01,0.75
		c0.05,0.26,0.14,0.47,0.27,0.7c0.26,0.45,0.68,0.83,1.15,1.13c0.49,0.29,1.02,0.49,1.62,0.51c0.58,0.03,1.17-0.1,1.78-0.3
		c0.6-0.21,1.24-0.47,1.88-0.7c0.64-0.24,1.31-0.47,2-0.68c0.69-0.2,1.42-0.4,2.21-0.43l0.28-0.01c0.09-0.01,0.18-0.01,0.29,0
		c0.2,0.02,0.41,0.02,0.62,0.05c0.2,0.04,0.4,0.08,0.6,0.14c0.19,0.07,0.39,0.14,0.58,0.22c0.76,0.35,1.38,0.88,1.97,1.39l0.11,0.1
		l0.07,0.06l0.05,0.05l0.21,0.2l0.42,0.41c0.29,0.26,0.55,0.58,0.83,0.88c0.28,0.3,0.54,0.61,0.8,0.92
		c0.26,0.31,0.53,0.62,0.78,0.93l0.38,0.47l0.19,0.24l0.05,0.06l0.02,0.03c0.01,0.01-0.02-0.02,0.01,0.01l0.1,0.11
		c0.15,0.17,0.25,0.24,0.38,0.36l0.22,0.16l0.23,0.14c1.29,0.72,2.98,0.85,4.45,0.42l0.25-0.08l0.29-0.12l0.59-0.25
		c0.41-0.15,0.75-0.35,1.12-0.54c0.18-0.1,0.36-0.18,0.54-0.28l0.54-0.32c0.36-0.21,0.73-0.43,1.08-0.67
		c1.43-0.91,2.92-1.98,4.69-2.58c0.23-0.07,0.45-0.14,0.68-0.2l0.7-0.14l0.69-0.06c0.21-0.03,0.46-0.01,0.71,0
		c0.5,0,0.96,0.09,1.42,0.16c0.23,0.04,0.45,0.11,0.68,0.16l0.34,0.09l0.33,0.11c0.88,0.28,1.7,0.68,2.5,1.1l0.59,0.33l0.57,0.35
		c0.37,0.23,0.75,0.45,1.12,0.69c0.74,0.49,1.48,0.97,2.2,1.42c0.18,0.11,0.36,0.23,0.55,0.34L58.72,85l0.55,0.31l0.28,0.16
		l0.03,0.02c-0.03-0.01,0.01,0.01,0.02,0.01l0.07,0.03l0.15,0.07c0.2,0.1,0.37,0.16,0.55,0.22c0.18,0.06,0.38,0.11,0.56,0.17
		c0.39,0.08,0.78,0.15,1.18,0.17c0.79,0.04,1.59-0.04,2.36-0.26c0.76-0.22,1.49-0.55,2.16-0.97c0.17-0.1,0.33-0.22,0.49-0.34
		l0.23-0.17l0.24-0.2c0.32-0.26,0.64-0.53,0.96-0.79c0.31-0.26,0.64-0.52,0.94-0.79c0.3-0.27,0.6-0.54,0.89-0.81
		c0.3-0.27,0.59-0.54,0.89-0.8l0.46-0.41c0.14-0.13,0.33-0.26,0.49-0.39c1.34-1,2.84-1.64,4.45-1.88c0.19-0.02,0.37-0.04,0.57-0.05
		c0.2,0,0.41-0.01,0.61,0c0.39,0.02,0.78,0.06,1.15,0.12c0.75,0.12,1.46,0.3,2.15,0.47c1.37,0.35,2.69,0.64,3.92,0.47
		c0.16-0.02,0.33-0.04,0.46-0.09c0.14-0.04,0.28-0.06,0.42-0.12c0.28-0.09,0.55-0.23,0.8-0.37c0.5-0.29,0.89-0.71,1.12-1.19
		l0.05-0.09c0,0,0.01-0.03,0.01-0.01l0.01-0.03l0.02-0.05l0.08-0.21c0.05-0.14,0.1-0.28,0.16-0.41c0.1-0.27,0.17-0.54,0.26-0.81
		c0.17-0.53,0.33-1.07,0.54-1.59c0.05-0.13,0.09-0.25,0.15-0.39c0.06-0.12,0.12-0.23,0.18-0.35c0.07-0.12,0.15-0.24,0.22-0.36
		c0.07-0.12,0.16-0.22,0.24-0.32c0.33-0.42,0.7-0.76,1.08-1.06c0.77-0.58,1.6-0.92,2.36-1.13c0.77-0.2,1.47-0.28,2.09-0.23
		c0.62,0.07,1.11,0.18,1.51,0.28c0.8,0.2,1.23,0.3,1.23,0.3s-0.11-0.01-0.32-0.03c-0.21-0.03-0.53-0.06-0.93-0.11
		c-0.4-0.04-0.92-0.12-1.49-0.14c-0.07,0-0.15,0-0.23,0l-0.06,0c-0.01,0-0.03,0-0.02,0l-0.03,0l-0.12,0.01
		c-0.16,0.02-0.32,0.04-0.48,0.07c-0.33,0.05-0.67,0.14-1.03,0.25c-0.71,0.23-1.46,0.6-2.16,1.14c-0.35,0.28-0.67,0.6-0.96,0.98
		c-0.07,0.1-0.14,0.19-0.2,0.29c-0.06,0.1-0.12,0.2-0.18,0.3c-0.06,0.12-0.11,0.24-0.17,0.35c-0.04,0.12-0.08,0.23-0.12,0.35
		c-0.19,0.48-0.32,1.01-0.49,1.56c-0.09,0.28-0.16,0.57-0.26,0.84c-0.05,0.14-0.1,0.28-0.15,0.42l-0.08,0.21l-0.02,0.05l-0.01,0.03
		c-0.02,0.04-0.01,0.03-0.02,0.04l-0.06,0.11c-0.29,0.61-0.78,1.12-1.36,1.48c-0.29,0.18-0.6,0.33-0.93,0.45
		c-0.16,0.07-0.34,0.1-0.51,0.15c-0.18,0.05-0.34,0.07-0.5,0.1c-1.41,0.2-2.82-0.11-4.2-0.45c-1.38-0.33-2.78-0.69-4.21-0.48
		c-0.67,0.12-1.4,0.33-2.07,0.63c-0.68,0.29-1.33,0.7-1.92,1.15c-0.15,0.12-0.29,0.22-0.44,0.36l-0.43,0.39
		c-0.3,0.28-0.59,0.55-0.89,0.83c-0.3,0.28-0.6,0.56-0.9,0.84c-0.3,0.28-0.62,0.54-0.93,0.81c-0.31,0.27-0.63,0.54-0.94,0.81
		l-0.24,0.2c-0.1,0.08-0.18,0.14-0.27,0.21c-0.17,0.14-0.35,0.27-0.54,0.39c-0.74,0.49-1.55,0.88-2.41,1.14
		c-0.86,0.26-1.78,0.38-2.7,0.35c-0.46-0.01-0.92-0.08-1.38-0.18c-0.23-0.06-0.45-0.11-0.68-0.19c-0.23-0.08-0.47-0.17-0.65-0.26
		l-0.15-0.07l-0.07-0.03l-0.06-0.03l-0.04-0.02l-0.29-0.16l-0.58-0.32l-0.58-0.32c-0.19-0.11-0.38-0.23-0.56-0.34
		c-0.76-0.46-1.49-0.93-2.22-1.39c-0.37-0.23-0.75-0.46-1.12-0.69l-0.55-0.33l-0.56-0.31c-0.75-0.39-1.52-0.76-2.31-1.01l-0.3-0.1
		l-0.3-0.08c-0.2-0.05-0.4-0.11-0.6-0.14l-0.61-0.09l-0.15-0.02l-0.14-0.01l-0.29-0.01c-0.19-0.01-0.38-0.03-0.61,0l-0.62,0.05
		l-0.59,0.12c-0.2,0.05-0.39,0.11-0.58,0.17c-0.77,0.25-1.52,0.63-2.26,1.05c-0.73,0.42-1.44,0.9-2.19,1.37
		c-0.36,0.24-0.74,0.46-1.12,0.68l-0.57,0.33c-0.19,0.11-0.4,0.2-0.6,0.31c-0.4,0.2-0.8,0.42-1.2,0.56l-0.59,0.24l-0.3,0.12
		c-0.06,0.02-0.04,0.01-0.07,0.02l-0.04,0.01l-0.08,0.03l-0.17,0.05c-0.45,0.13-0.9,0.21-1.35,0.24c-0.45,0.04-0.91,0.03-1.36-0.02
		c-0.9-0.1-1.78-0.35-2.57-0.81l-0.29-0.18l-0.28-0.21c-0.18-0.15-0.39-0.35-0.51-0.49l-0.1-0.12l-0.07-0.08l-0.05-0.06l-0.19-0.24
		l-0.37-0.48c-0.24-0.32-0.5-0.63-0.75-0.94c-0.25-0.31-0.5-0.62-0.75-0.9c-0.26-0.29-0.49-0.58-0.78-0.86l-0.41-0.42l-0.2-0.21
		l-0.05-0.05c0.01,0.01-0.03-0.03-0.04-0.04l-0.11-0.1c-0.56-0.52-1.12-1-1.73-1.3c-0.16-0.07-0.31-0.13-0.47-0.19
		c-0.16-0.05-0.33-0.08-0.49-0.12c-0.16-0.03-0.33-0.04-0.49-0.06c-0.08-0.01-0.17-0.01-0.26-0.01l-0.28,0.01
		c-0.67,0.01-1.36,0.17-2.03,0.35c-0.67,0.18-1.33,0.4-1.98,0.62c-0.65,0.21-1.26,0.45-1.91,0.66c-0.32,0.1-0.65,0.19-0.99,0.24
		c-0.17,0.02-0.33,0.06-0.52,0.05c-0.18,0-0.37,0.02-0.51-0.01l-0.23-0.02l-0.06-0.01l-0.03,0c-0.05-0.01-0.03-0.01-0.05-0.01
		l-0.13-0.03c-0.17-0.03-0.33-0.08-0.48-0.14c-0.31-0.11-0.6-0.26-0.87-0.43c-0.53-0.35-0.99-0.79-1.29-1.34
		c-0.15-0.27-0.26-0.58-0.3-0.87c-0.05-0.3-0.03-0.6,0.01-0.88c0.09-0.56,0.27-1.06,0.4-1.53c0.14-0.47,0.22-0.93,0.21-1.37
		c0-0.11-0.01-0.22-0.02-0.32c-0.01-0.1-0.03-0.21-0.06-0.32l-0.02-0.08c-0.01-0.03-0.01-0.06-0.02-0.05
		c-0.01-0.01-0.01-0.01-0.02-0.02l-0.05-0.06c-0.07-0.08-0.15-0.14-0.22-0.21c-0.31-0.27-0.64-0.49-0.97-0.65
		c-0.08-0.03-0.17-0.06-0.25-0.09c-0.08-0.03-0.16-0.06-0.26-0.08C9.6,72,9.51,71.99,9.42,71.97c-0.07-0.02-0.17-0.01-0.25-0.01
		c-0.34,0-0.65-0.03-0.95-0.01c-0.59,0.03-1.1,0.06-1.51,0.08c-0.41,0.03-0.73,0.02-0.94,0.03C5.56,72.07,5.45,72.07,5.45,72.07z"/>
</g>
</svg>
