<svg width="54" height="18" viewBox="0 0 54 18" fill="none" xmlns="http://www.w3.org/2000/svg">
<g clip-path="url(#clip0_509_7863)">
<path d="M23.3775 17.728H19.0073L21.7408 0.826416H26.1107L23.3775 17.728Z" fill="black"/>
<path d="M39.2198 1.23959C38.3578 0.897607 36.9906 0.52002 35.3001 0.52002C30.9843 0.52002 27.9452 2.82139 27.9266 6.11165C27.8907 8.5392 30.1025 9.88751 31.7567 10.6969C33.4475 11.524 34.0222 12.0639 34.0222 12.8011C34.005 13.9334 32.656 14.4554 31.3978 14.4554C29.653 14.4554 28.7181 14.1863 27.2974 13.5563L26.7219 13.2863L26.1104 17.0803C27.1353 17.5473 29.0237 17.9617 30.9843 17.9798C35.5699 17.9798 38.5552 15.7141 38.5906 12.2078C38.608 10.2837 37.4401 8.80948 34.9222 7.60479C33.3937 6.83145 32.4576 6.31 32.4576 5.51874C32.4756 4.79942 33.2494 4.06264 34.9748 4.06264C36.3956 4.02656 37.4394 4.36806 38.2302 4.7098L38.6255 4.88927L39.2198 1.23959Z" fill="black"/>
<path d="M45.0285 11.7404C45.3884 10.7694 46.7733 7.01143 46.7733 7.01143C46.7551 7.04752 47.1325 6.02254 47.3483 5.39331L47.6537 6.84964C47.6537 6.84964 48.4813 10.8953 48.661 11.7404C47.978 11.7404 45.8917 11.7404 45.0285 11.7404ZM50.423 0.826416H47.0426C46.0002 0.826416 45.2082 1.13183 44.7585 2.22875L38.2671 17.7277H42.8526C42.8526 17.7277 43.6076 15.6417 43.7698 15.1924C44.2729 15.1924 48.7337 15.1924 49.3808 15.1924C49.5063 15.7858 49.9023 17.7277 49.9023 17.7277H53.9487L50.423 0.826416Z" fill="black"/>
<path d="M15.357 0.826416L11.0772 12.3517L10.6095 10.0142C9.81822 7.31709 7.33667 4.38673 4.56738 2.92967L8.48759 17.7101H13.109L19.9782 0.826416H15.357Z" fill="black"/>
<path d="M7.10317 0.826416H0.0719324L0 1.16792C5.48481 2.57049 9.11729 5.95132 10.6097 10.0149L9.0812 2.24715C8.82956 1.16768 8.05622 0.862024 7.10317 0.826416Z" fill="black"/>
</g>
<defs>
<clipPath id="clip0_509_7863">
<rect width="54" height="17.4785" fill="white" transform="translate(0 0.52002)"/>
</clipPath>
</defs>
</svg>
