<svg width="170" height="80" viewBox="0 0 170 80" fill="none" xmlns="http://www.w3.org/2000/svg">
<path d="M36.7001 47.05C36.7001 48.5508 36.3668 50.6684 35.7001 53.4032C35.0335 56.1045 34.5501 57.5887 34.2501 57.8554C34.1501 57.9554 33.9168 58.0054 33.5501 58.0054C32.8168 58.0054 31.6668 57.8388 30.1001 57.5052L29.3501 57.3051C29.0835 57.2716 28.4001 57.2551 27.3001 57.2551L11.6501 57.7053C11.3168 57.7053 10.9501 57.2385 10.5501 56.3046C10.1835 55.3707 10.0001 54.6203 10.0001 54.0535C10.0001 53.4867 10.0168 53.1365 10.0501 53.003C10.5835 51.869 12.2335 49.4177 15.0001 45.6494C17.8001 41.881 20.4335 38.3458 22.9001 35.0442C25.3668 31.7092 26.6001 29.8583 26.6001 29.4914C26.6001 29.2913 25.3501 29.1913 22.8501 29.1913C20.3835 29.1913 18.6501 29.4414 17.6501 29.9416C17.1835 30.1084 16.2835 31.359 14.9501 33.6935L14.3001 34.794C13.8335 34.794 13.1668 34.5439 12.3001 34.0437C11.4668 33.5434 11.0501 33.1599 11.0501 32.8931C11.0501 32.0927 11.2168 30.8921 11.5501 29.2913C11.9168 27.6905 12.3001 26.2565 12.7001 24.9892C13.1335 23.7219 13.4168 23.0883 13.5501 23.0883C14.4835 23.0883 15.4335 23.305 16.4001 23.7386C17.3668 24.1388 17.8835 24.3389 17.9501 24.3389C20.9501 23.9053 24.3001 23.6886 28.0001 23.6886C31.7335 23.6886 33.9001 23.7886 34.5001 23.9887C34.7668 24.2222 35.0668 24.7391 35.4001 25.5395C35.7668 26.3399 35.9501 27.2403 35.9501 28.2408C35.9501 28.3409 35.8168 28.5243 35.5501 28.7911C33.4835 31.1256 30.2835 35.3443 25.9501 41.4473C21.6501 47.5503 19.5001 50.9685 19.5001 51.7023C19.5001 51.9359 20.8835 52.0525 23.6501 52.0525C26.4501 52.0525 28.2835 51.7858 29.1501 51.2521C29.6835 50.7853 30.4168 49.8349 31.3501 48.4007C32.2835 46.9665 32.9001 45.816 33.2001 44.949C33.2001 44.8824 33.3335 44.849 33.6001 44.849C33.9001 44.849 34.4835 45.1156 35.3501 45.6494C36.2501 46.1831 36.7001 46.6498 36.7001 47.05Z" fill="url(#paint0_linear)"/>
<path d="M43.4191 27.1403C44.3522 27.1403 45.1022 27.4404 45.6691 28.0407C46.2357 28.641 46.5191 29.4248 46.5191 30.3919C46.5191 31.359 46.1357 32.1928 45.3691 32.8931C44.6357 33.5601 43.8022 33.8936 42.8691 33.8936C41.9691 33.8936 41.2357 33.6101 40.6691 33.0432C40.1357 32.4429 39.8691 31.6592 39.8691 30.692C39.8691 29.7249 40.2357 28.8911 40.9691 28.1908C41.7022 27.4905 42.5191 27.1403 43.4191 27.1403ZM45.9691 39.5964L45.8691 47.7004C45.8691 50.3017 45.9357 52.2191 46.0691 53.4532C46.2357 54.6538 46.6691 55.7878 47.3691 56.8549C47.3691 57.1885 46.6857 57.7218 45.3191 58.4557C43.9522 59.1895 42.7857 59.5562 41.8191 59.5562C41.5191 59.5562 41.2191 59.0559 40.9191 58.0555C40.6191 57.055 40.4191 56.1045 40.3191 55.2041C40.2522 54.3036 40.2191 51.2687 40.2191 46.0996C40.2191 40.9305 40.3357 38.1123 40.5691 37.6454C41.3357 37.0451 42.6857 36.745 44.6191 36.745C45.3857 36.745 45.8522 36.845 46.0191 37.0451L45.9691 39.5964Z" fill="url(#paint1_linear)"/>
<path d="M56.9053 45.7493L56.9553 47.6002V51.4021C56.9553 54.9704 56.8888 56.8213 56.7553 56.9548C56.3223 57.3885 55.5723 57.7217 54.5053 57.9553C53.4388 58.1889 52.5553 58.3055 51.8553 58.3055C51.1888 58.3055 50.8553 58.2554 50.8553 58.1554C51.0888 56.6546 51.2053 54.1869 51.2053 50.7518L51.0553 39.4962C51.0553 37.4286 51.1388 36.3113 51.3053 36.1446C51.6723 35.7777 52.3053 35.4609 53.2053 35.1941C54.1053 34.894 54.9388 34.7439 55.7053 34.7439C56.5053 34.7439 56.9053 34.8273 56.9053 34.994C56.8053 35.7944 56.7553 36.5948 56.7553 37.3952C56.7553 38.1956 56.8053 38.5958 56.9053 38.5958L57.0553 38.4957C57.2223 38.2623 57.4723 37.9788 57.8054 37.6453C58.1388 37.2785 58.8388 36.8116 59.9053 36.2446C61.0053 35.6443 62.0388 35.3442 63.0053 35.3442C64.0053 35.3442 64.8388 35.5276 65.5054 35.8945C66.2053 36.228 66.7723 36.6448 67.2054 37.1451C67.6388 37.6453 68.0054 38.3623 68.3054 39.2961C68.6388 40.2301 68.8888 41.097 69.0554 41.8974C69.2223 42.6978 69.3554 43.7649 69.4554 45.099C69.5554 46.9333 69.6054 49.2676 69.6054 52.1024L69.4554 57.9553C69.4554 58.1889 68.9054 58.4055 67.8054 58.6056C66.7054 58.8392 65.8223 58.9558 65.1554 58.9558L63.5054 58.7057C63.8388 55.7042 64.0054 52.8028 64.0054 50.0014C64.0054 47.1665 63.8223 45.049 63.4553 43.6483C63.0888 42.2141 62.3554 41.4972 61.2554 41.4972C60.1554 41.4972 59.2554 41.7974 58.5554 42.3977C57.8888 42.9979 57.4553 43.5982 57.2553 44.1985L56.9053 45.049V45.7493Z" fill="url(#paint2_linear)"/>
<path d="M86.5977 35.5443L86.4977 28.1406C86.4977 26.073 86.5477 24.9891 86.6477 24.889C87.0477 24.4888 87.6977 24.1053 88.5977 23.7385C89.5312 23.3383 90.4142 23.1382 91.2477 23.1382C92.0812 23.1382 92.4977 23.2049 92.4977 23.3383C92.2312 28.8743 92.0977 34.7605 92.0977 40.9969C92.0977 47.2335 92.1977 50.9518 92.3977 52.1524C92.6312 53.9533 93.1812 55.2874 94.0477 56.1544C94.0477 56.488 93.3477 57.0048 91.9477 57.7052C90.5812 58.439 89.4143 58.8057 88.4477 58.8057C88.3477 58.8057 88.1977 58.6722 87.9977 58.4055C87.3643 57.5716 86.9812 56.438 86.8477 55.0038C86.8477 54.9038 86.8143 54.8537 86.7477 54.8537L86.5977 54.9538C85.1977 56.9548 83.1143 57.9553 80.3477 57.9553C78.1143 57.9553 76.3477 57.0714 75.0477 55.304C73.7477 53.5366 73.0977 51.5521 73.0977 49.351C73.0977 45.5827 74.2643 42.3811 76.5977 39.7463C78.9312 37.0784 82.2643 35.6777 86.5977 35.5443ZM86.6977 40.7968C86.6977 40.7303 86.5142 40.6968 86.1477 40.6968H85.9477C83.8143 40.6968 82.1312 41.3806 80.8977 42.7478C79.6977 44.115 79.0977 45.8493 79.0977 47.9504C79.0977 49.1844 79.3812 50.2015 79.9477 51.0019C80.5477 51.7688 81.4312 52.1524 82.5977 52.1524C83.7977 52.1524 84.7477 51.6356 85.4477 50.6017C86.1812 49.5677 86.5477 48.7508 86.5477 48.1505C86.5477 44.4486 86.5977 41.9974 86.6977 40.7968Z" fill="url(#paint3_linear)"/>
<path d="M116.166 45.8493C116.166 50.0179 116.216 52.4525 116.316 53.1529C116.583 54.9872 117.15 56.3044 118.016 57.1048C118.016 57.4715 117.35 58.0218 116.016 58.7556C114.716 59.4894 113.533 59.8562 112.466 59.8562C112.166 59.8562 111.85 59.4059 111.516 58.5055C111.183 57.6385 110.983 56.9882 110.916 56.5545C110.883 56.1209 110.85 55.9042 110.816 55.9042L110.666 56.0043C108.9 57.405 106.833 58.1053 104.466 58.1053C102.1 58.1053 100.266 57.5385 98.9664 56.4045C97.6995 55.2374 97.0664 53.7197 97.0664 51.8522C97.0664 49.9848 97.4664 48.4171 98.2664 47.1499C99.0995 45.8493 100.066 44.8654 101.166 44.1985C102.266 43.5316 103.483 42.9979 104.816 42.5977C106.85 41.9308 108.45 41.5972 109.616 41.5972L109.716 41.5472C109.716 39.9129 107.65 39.096 103.516 39.096C101.883 39.096 100.666 39.1626 99.8664 39.2961H99.8164C99.8164 38.6292 100.016 37.7953 100.416 36.7949C100.85 35.7944 101.2 35.144 101.466 34.8439C101.766 34.5438 102.966 34.3937 105.066 34.3937C108.866 34.3937 111.666 35.1274 113.466 36.5948C115.266 38.0288 116.166 40.2631 116.166 43.298V45.8493ZM110.616 49.0509V47.1499C110.616 46.4161 110.6 46.0494 110.566 46.0494C108.333 46.0494 106.4 46.6331 104.766 47.8003C103.733 48.5341 103.216 49.4511 103.216 50.5516C103.216 51.2519 103.466 51.8357 103.966 52.3025C104.466 52.7692 105.216 53.0028 106.216 53.0028C107.25 53.0028 108.233 52.7027 109.166 52.1024C110.133 51.5021 110.616 50.485 110.616 49.0509Z" fill="url(#paint4_linear)"/>
<path d="M139.566 44.5988L139.666 56.4546C139.666 59.0559 139.316 61.357 138.616 63.358C137.916 65.3924 137.066 66.9598 136.066 68.0603C135.066 69.1943 133.916 70.1113 132.616 70.8116C130.516 71.9788 128.399 72.5625 126.266 72.5625C126.166 72.5625 125.966 72.3124 125.666 71.8121C125.366 71.3119 125.082 70.6281 124.816 69.7611C124.549 68.8942 124.416 68.0938 124.416 67.36H125.366C126.032 67.36 126.666 67.2934 127.266 67.1599C127.899 67.0598 128.666 66.7431 129.566 66.2094C130.466 65.6757 131.232 64.9753 131.866 64.1084C132.499 63.2414 133.049 61.9573 133.516 60.2565C133.982 58.5556 134.216 56.5712 134.216 54.3035C134.216 54.17 134.199 54.1034 134.166 54.1034L134.016 54.2535C132.616 56.4211 130.432 57.5051 127.466 57.5051C125.232 57.5051 123.449 56.6212 122.116 54.8538C120.782 53.0864 120.116 51.102 120.116 48.9009C120.116 44.8989 121.399 41.5973 123.966 38.996C126.532 36.3948 130.216 35.0941 135.016 35.0941C136.182 35.0941 136.766 35.1775 136.766 35.3442C136.866 35.9112 136.916 36.5282 136.916 37.1951L136.866 37.9455H137.416C138.482 37.9455 139.199 38.0456 139.566 38.2457V44.5988ZM134.116 40.3967L133.066 40.2466C130.932 40.2466 129.232 40.947 127.966 42.3477C126.732 43.7149 126.116 45.4327 126.116 47.5002C126.116 48.5342 126.416 49.4346 127.016 50.2015C127.649 50.9684 128.549 51.3521 129.716 51.3521C130.916 51.3521 131.916 50.8853 132.716 49.9514C133.516 49.0175 133.916 48.2671 133.916 47.7003C133.916 43.8984 133.982 41.4638 134.116 40.3967Z" fill="url(#paint5_linear)"/>
<path d="M147.228 27.1403C148.161 27.1403 148.911 27.4404 149.478 28.0407C150.044 28.641 150.328 29.4248 150.328 30.3919C150.328 31.359 149.944 32.1928 149.178 32.8931C148.444 33.5601 147.611 33.8936 146.678 33.8936C145.778 33.8936 145.044 33.6101 144.478 33.0432C143.944 32.4429 143.678 31.6592 143.678 30.692C143.678 29.7249 144.044 28.8911 144.778 28.1908C145.511 27.4905 146.328 27.1403 147.228 27.1403ZM149.778 39.5964L149.678 47.7004C149.678 50.3017 149.744 52.2191 149.878 53.4532C150.044 54.6538 150.478 55.7878 151.178 56.8549C151.178 57.1885 150.494 57.7218 149.128 58.4557C147.761 59.1895 146.594 59.5562 145.628 59.5562C145.328 59.5562 145.028 59.0559 144.728 58.0555C144.428 57.055 144.228 56.1045 144.128 55.2041C144.061 54.3036 144.028 51.2687 144.028 46.0996C144.028 40.9305 144.144 38.1123 144.378 37.6454C145.144 37.0451 146.494 36.745 148.428 36.745C149.194 36.745 149.661 36.845 149.828 37.0451L149.778 39.5964Z" fill="url(#paint6_linear)"/>
<path d="M143.462 26.5513H151.154V33.8626H143.462V26.5513Z" fill="white"/>
<path d="M147.129 34.7501C150.211 34.7501 152.719 32.2671 152.719 29.2151C152.719 27.245 151.674 25.5122 150.104 24.5311V25.877C151.073 26.7234 151.625 27.9279 151.625 29.2151C151.625 31.6699 149.608 33.6671 147.129 33.6671C144.649 33.6671 142.632 31.67 142.632 29.2152C142.632 27.9279 143.184 26.7234 144.154 25.8771V24.5312C142.584 25.5122 141.539 27.245 141.539 29.2152C141.539 32.2671 144.046 34.7501 147.129 34.7501Z" fill="url(#paint7_linear)"/>
<path d="M145.055 26.0852C145.055 26.2209 144.993 26.3491 144.886 26.4338C144.027 27.114 143.534 28.1279 143.534 29.2155C143.534 31.1781 145.147 32.7749 147.128 32.7749C149.111 32.7749 150.723 31.1781 150.723 29.2155C150.723 28.1279 150.231 27.114 149.371 26.4338C149.264 26.3491 149.202 26.2208 149.202 26.0852V24.0739C148.543 23.8128 147.847 23.6805 147.128 23.6805C146.41 23.6805 145.714 23.8128 145.055 24.0739V26.0852ZM149.492 29.2155C149.492 30.506 148.432 31.556 147.128 31.556C145.825 31.556 144.765 30.506 144.765 29.2155C144.765 27.9249 145.825 26.875 147.128 26.875C148.432 26.875 149.492 27.9249 149.492 29.2155ZM147.631 25.5074C147.643 25.7762 147.392 26.0052 147.128 26.0052C146.847 26.0052 146.638 25.7771 146.626 25.5074C146.614 25.2386 146.866 25.0097 147.128 25.0097C147.41 25.0097 147.619 25.2378 147.631 25.5074Z" fill="url(#paint8_linear)"/>
<path d="M147.128 30.6635C147.936 30.6635 148.591 30.0152 148.591 29.2155C148.591 28.4158 147.936 27.7675 147.128 27.7675C146.321 27.7675 145.666 28.4158 145.666 29.2155C145.666 30.0152 146.321 30.6635 147.128 30.6635Z" fill="#FF3D00"/>
<path fill-rule="evenodd" clip-rule="evenodd" d="M163.846 26.6454C163.16 27.3371 162.397 27.9042 161.502 28.2489C160.142 28.7724 158.89 28.4619 157.706 27.6795C157.429 27.4971 157.174 27.2784 156.914 27.0325C158.321 27.056 159.715 26.9983 161.082 26.6619C161.085 26.6278 161.086 26.5948 161.087 26.5607C160.394 26.4713 159.704 26.3466 159.009 26.3007C158.318 26.256 157.621 26.2913 156.927 26.2913C156.91 26.2548 156.893 26.2172 156.876 26.1807C157.327 25.8784 157.759 25.5372 158.23 25.2784C159.869 24.3807 161.411 24.7054 162.869 25.7783C163.206 26.0266 163.521 26.3089 163.845 26.576C163.846 26.5995 163.846 26.6219 163.846 26.6454Z" fill="#00A513"/>
<path fill-rule="evenodd" clip-rule="evenodd" d="M130.385 26.5762C130.866 26.2032 131.326 25.7915 131.834 25.4668C133.707 24.2715 135.605 24.6209 137.38 26.2891C136.616 26.2891 135.918 26.2538 135.225 26.2985C134.527 26.3433 133.834 26.4679 133.141 26.6056C134.509 26.9973 135.901 27.0562 137.396 26.9856C136.514 27.7773 135.626 28.3256 134.558 28.4656C132.992 28.6691 131.761 27.9009 130.626 26.875C130.543 26.8009 130.464 26.7221 130.383 26.6456C130.385 26.622 130.385 26.5997 130.385 26.5762Z" fill="#00A513"/>
<path fill-rule="evenodd" clip-rule="evenodd" d="M152.291 17.7737C153.064 16.4891 153.701 15.1726 154.09 13.729C153.123 14.8055 152.374 16.042 151.734 17.3726C151.431 16.7008 151.515 14.9973 151.902 14.0879C152.599 12.4479 153.933 11.6902 155.442 11.1597C156.242 14.1008 155.302 16.7737 152.291 17.7737Z" fill="#00A513"/>
<path fill-rule="evenodd" clip-rule="evenodd" d="M140.113 13.7583C140.543 15.1748 141.158 16.4971 141.931 17.7536C139.496 17.4441 137.76 13.823 138.772 11.203C141.707 12.0148 143.153 14.283 142.535 17.3818C142.166 16.7289 141.83 16.0771 141.441 15.463C141.053 14.8512 140.613 14.2771 140.195 13.6865C140.168 13.7112 140.14 13.7348 140.113 13.7583Z" fill="#00A513"/>
<path fill-rule="evenodd" clip-rule="evenodd" d="M147.015 15.5961C146.943 16.6514 146.871 17.7067 146.801 18.7361C145.386 17.8079 145.526 14.8397 147.104 13.3491C148.699 14.9867 148.886 16.982 147.43 18.7879C147.36 17.7255 147.291 16.6632 147.222 15.6008C147.152 15.5997 147.084 15.5985 147.015 15.5961Z" fill="#00A513"/>
<path fill-rule="evenodd" clip-rule="evenodd" d="M140.916 30.7593C140.236 33.0804 138.474 33.884 136.36 33.2863C136.421 31.3275 138.822 29.6311 140.627 30.2911C140.186 30.5769 139.741 30.8393 139.323 31.1416C138.915 31.4357 138.533 31.7711 138.167 32.1299C139.148 31.8558 140.028 31.364 140.916 30.7593Z" fill="#00A513"/>
<path fill-rule="evenodd" clip-rule="evenodd" d="M136.334 19.9868C138.468 19.3786 140.246 20.1798 140.896 22.4562C140.441 22.1915 140.007 21.9151 139.553 21.6809C139.097 21.4456 138.622 21.2515 138.135 21.0786C138.868 21.8598 139.727 22.4409 140.653 22.9586C138.486 23.5091 136.915 22.2903 136.334 19.9868Z" fill="#00A513"/>
<path fill-rule="evenodd" clip-rule="evenodd" d="M153.643 22.996C154.48 22.3913 155.322 21.7831 156.164 21.1749C156.142 21.1384 156.121 21.1019 156.1 21.0654C155.123 21.3843 154.226 21.8866 153.353 22.4725C153.49 20.5854 155.982 19.2325 157.89 19.9878C157.375 22.1337 155.916 23.4948 153.643 22.996Z" fill="#00A513"/>
<path fill-rule="evenodd" clip-rule="evenodd" d="M153.575 30.2962C155.698 29.7974 157.303 30.8844 157.885 33.2573C155.962 33.8938 153.995 33.1809 153.349 30.8574C154.237 31.3174 155.156 31.7938 156.076 32.2703C156.095 32.2326 156.113 32.195 156.132 32.1574C155.377 31.4091 154.512 30.8279 153.575 30.2962Z" fill="#00A513"/>
<path fill-rule="evenodd" clip-rule="evenodd" d="M143.873 20.7633C144.039 21.1304 144.207 21.4963 144.374 21.8669C143.498 21.6151 143.119 20.7386 143.38 19.7622C144.238 19.8198 144.919 20.888 144.611 21.6951C144.4 21.3645 144.189 21.0339 143.977 20.7033C143.943 20.7233 143.908 20.7434 143.873 20.7633Z" fill="#00A513"/>
<path fill-rule="evenodd" clip-rule="evenodd" d="M149.616 21.6986C149.335 20.8832 149.9 19.9715 150.825 19.7444C151.156 20.7127 150.716 21.6221 149.857 21.8762C150.038 21.4715 150.217 21.0738 150.397 20.675C150.37 20.6574 150.343 20.6409 150.316 20.6233C150.082 20.9832 149.849 21.3421 149.616 21.6986Z" fill="#00A513"/>
<path fill-rule="evenodd" clip-rule="evenodd" d="M152.347 26.79C152.777 26.7523 153.172 26.7194 153.568 26.6841C153.567 26.6476 153.567 26.6112 153.566 26.5735C153.165 26.5418 152.763 26.51 152.368 26.4782C152.98 25.7676 153.925 25.8994 154.561 26.6029C153.995 27.3829 153.017 27.4676 152.347 26.79Z" fill="#00A513"/>
<defs>
<linearGradient id="paint0_linear" x1="80.589" y1="23.0883" x2="80.589" y2="72.5626" gradientUnits="userSpaceOnUse">
<stop stop-color="#F18CED"/>
<stop offset="1" stop-color="#4E4EA6"/>
</linearGradient>
<linearGradient id="paint1_linear" x1="80.5887" y1="23.0883" x2="80.5887" y2="72.5626" gradientUnits="userSpaceOnUse">
<stop stop-color="#F18CED"/>
<stop offset="1" stop-color="#4E4EA6"/>
</linearGradient>
<linearGradient id="paint2_linear" x1="80.5888" y1="23.0882" x2="80.5888" y2="72.5625" gradientUnits="userSpaceOnUse">
<stop stop-color="#F18CED"/>
<stop offset="1" stop-color="#4E4EA6"/>
</linearGradient>
<linearGradient id="paint3_linear" x1="80.5889" y1="23.0882" x2="80.5889" y2="72.5624" gradientUnits="userSpaceOnUse">
<stop stop-color="#F18CED"/>
<stop offset="1" stop-color="#4E4EA6"/>
</linearGradient>
<linearGradient id="paint4_linear" x1="80.5887" y1="23.0881" x2="80.5887" y2="72.5624" gradientUnits="userSpaceOnUse">
<stop stop-color="#F18CED"/>
<stop offset="1" stop-color="#4E4EA6"/>
</linearGradient>
<linearGradient id="paint5_linear" x1="80.5889" y1="23.0882" x2="80.5889" y2="72.5625" gradientUnits="userSpaceOnUse">
<stop stop-color="#F18CED"/>
<stop offset="1" stop-color="#4E4EA6"/>
</linearGradient>
<linearGradient id="paint6_linear" x1="80.5889" y1="23.0883" x2="80.5889" y2="72.5626" gradientUnits="userSpaceOnUse">
<stop stop-color="#F18CED"/>
<stop offset="1" stop-color="#4E4EA6"/>
</linearGradient>
<linearGradient id="paint7_linear" x1="147.129" y1="24.5311" x2="147.129" y2="34.7501" gradientUnits="userSpaceOnUse">
<stop stop-color="#F18CED"/>
<stop offset="1" stop-color="#4E4EA6"/>
</linearGradient>
<linearGradient id="paint8_linear" x1="147.128" y1="23.6805" x2="147.128" y2="32.7749" gradientUnits="userSpaceOnUse">
<stop stop-color="#F18CED"/>
<stop offset="1" stop-color="#4E4EA6"/>
</linearGradient>
</defs>
</svg>
