<svg version="1.1" id="Layer_1" xmlns="http://www.w3.org/2000/svg" xmlns:xlink="http://www.w3.org/1999/xlink" x="0px" y="0px"
	 viewBox="0 0 128.15 128.59" style="enable-background:new 0 0 128.15 128.59;" xml:space="preserve">
<style type="text/css">
	.st0{fill:#0068C9;}
	.st1{fill:#FF0000;}
</style>
<g>
	<path class="st0" d="M94.57,15.27v14.2c9.7,8.5,15.86,20.94,15.86,34.83c0,25.56-20.8,46.36-46.36,46.36S17.71,89.86,17.71,64.3
		c0-13.88,6.16-26.33,15.86-34.83v-14.2C17.2,25.49,6.26,43.62,6.26,64.3c0,31.88,25.94,57.82,57.82,57.82s57.82-25.94,57.82-57.82
		C121.89,43.62,110.94,25.49,94.57,15.27z"/>
	<path class="st0" d="M85.64,35.5V10.7c-5.21-2.09-10.75-3.46-16.57-3.95c-1.65-0.16-3.29-0.27-4.99-0.27
		c-1.7,0-3.35,0.11-4.99,0.27c-5.82,0.49-11.36,1.87-16.57,3.95v24.8C33.74,42.08,28.03,52.5,28.03,64.3
		c0,19.86,16.19,36.05,36.05,36.05s36.05-16.19,36.05-36.05C100.13,52.5,94.37,42.08,85.64,35.5z M68.85,21.17
		c0,2.63-2.14,4.77-4.77,4.77c-2.63,0-4.77-2.14-4.77-4.77c0-1.21,0.49-2.25,1.21-3.07c0.88-0.99,2.09-1.7,3.57-1.7
		c1.43,0,2.69,0.71,3.57,1.7C68.36,18.93,68.85,19.97,68.85,21.17z M64.08,88.88c-13.55,0-24.58-11.03-24.58-24.58
		c0-13.55,11.03-24.58,24.58-24.58S88.66,50.75,88.66,64.3C88.66,77.85,77.63,88.88,64.08,88.88z"/>
	<path class="st1" d="M64.07,50.34c-7.71,0-13.96,6.25-13.96,13.96s6.25,13.96,13.96,13.96s13.96-6.25,13.96-13.96
		S71.78,50.34,64.07,50.34z"/>
</g>
</svg>
