<svg width="19px" height="16px" viewBox="0 0 19 16" version="1.1" xmlns="http://www.w3.org/2000/svg" xmlns:xlink="http://www.w3.org/1999/xlink">
    <g id="Admin-Settings-Company-Management" stroke="none" stroke-width="1" fill="none" fill-rule="evenodd">
        <g id="21.9.1-Setup-Company" transform="translate(-319.000000, -320.000000)" fill="#FFFFFF" fill-rule="nonzero">
            <g id="Group-5" transform="translate(155.000000, 90.000000)">
                <g id="Group-4" transform="translate(66.000000, 118.000000)">
                    <g id="Group-10" transform="translate(98.000000, 112.000000)">
                        <path d="M15.9262673,2.90012903 L14.2437235,2.90012903 L13.6088111,1.63034101 C13.1059908,0.624700461 12.0951889,-4.08562073e-14 10.9708387,-4.08562073e-14 L7.90470046,-4.08562073e-14 C6.78035023,-4.08562073e-14 5.76954839,0.624700461 5.26672811,1.63034101 L4.63181567,2.90012903 L2.94930876,2.90012903 C1.32305991,2.90012903 -4.08562073e-14,4.22318894 -4.08562073e-14,5.84943779 L-4.08562073e-14,13.0445346 C-4.08562073e-14,14.6707834 1.32305991,15.9938433 2.94930876,15.9938433 L15.9262673,15.9938433 C17.5525161,15.9938433 18.875576,14.6707834 18.875576,13.0445346 L18.875576,5.84943779 C18.875576,4.22315207 17.5525161,2.90012903 15.9262673,2.90012903 Z M17.4009217,13.0445346 C17.4009217,13.857659 16.7393917,14.5191889 15.9262673,14.5191889 L2.94930876,14.5191889 C2.13618433,14.5191889 1.47465438,13.857659 1.47465438,13.0445346 L1.47465438,5.84943779 C1.47465438,5.03631336 2.13618433,4.37478341 2.94930876,4.37478341 L5.0875576,4.37478341 C5.36685714,4.37478341 5.62211982,4.21699539 5.74705991,3.96718894 L6.58576959,2.28980645 C6.83716129,1.78698618 7.34256221,1.47461751 7.90473733,1.47461751 L10.9708756,1.47461751 C11.5330507,1.47461751 12.0384516,1.78698618 12.2898433,2.28980645 L13.128553,3.96718894 C13.2534562,4.21699539 13.5087189,4.37478341 13.7880184,4.37478341 L15.9262673,4.37478341 C16.7393917,4.37478341 17.4009217,5.03631336 17.4009217,5.84943779 L17.4009217,13.0445346 Z M9.43778802,5.06296774 C7.43207373,5.06296774 5.80029493,6.69474654 5.80029493,8.70046083 C5.80029493,10.7061751 7.43207373,12.3379539 9.43778802,12.3379539 C11.4435023,12.3379539 13.0752811,10.7061751 13.0752811,8.70046083 C13.0752811,6.69470968 11.4435023,5.06296774 9.43778802,5.06296774 Z M9.43778802,10.8632627 C8.24519816,10.8632627 7.27494931,9.89301382 7.27494931,8.70042396 C7.27494931,7.5078341 8.24519816,6.53758525 9.43778802,6.53758525 C10.6303779,6.53758525 11.6006267,7.5078341 11.6006267,8.70042396 C11.6006267,9.89301382 10.6303779,10.8632627 9.43778802,10.8632627 Z" id="Shape"></path>
                    </g>
                </g>
            </g>
        </g>
    </g>
</svg>