<svg width="24" height="24" viewBox="0 0 24 24" fill="none" xmlns="http://www.w3.org/2000/svg">
<g clip-path="url(#clip0)">
<path d="M20.4853 3.51469C18.2188 1.24823 15.2053 0 12 0C8.79469 0 5.78123 1.24823 3.51469 3.51469C1.24823 5.78123 0 8.79469 0 12C0 15.2053 1.24823 18.2188 3.51469 20.4853C5.78123 22.7518 8.79469 24 12 24C15.2053 24 18.2188 22.7518 20.4853 20.4853C22.7518 18.2188 24 15.2053 24 12C24 8.79469 22.7518 5.78123 20.4853 3.51469ZM16.2363 7.06055C17.792 7.06055 19.0576 8.32617 19.0576 9.88186H17.6514C17.6514 9.10158 17.0166 8.4668 16.2363 8.4668C15.456 8.4668 14.8213 9.10158 14.8213 9.88186H13.415C13.4151 8.32617 14.6807 7.06055 16.2363 7.06055ZM7.76367 7.06055C9.31936 7.06055 10.585 8.32617 10.585 9.88186H9.17873C9.17873 9.10158 8.54395 8.4668 7.76367 8.4668C6.98339 8.4668 6.34861 9.10158 6.34861 9.88186H4.94236C4.94241 8.32617 6.20803 7.06055 7.76367 7.06055ZM12 19.7637C8.91272 19.7637 6.11897 17.9354 4.88269 15.1058L6.17128 14.5427C7.18378 16.86 9.47166 18.3574 12 18.3574C14.5283 18.3574 16.8162 16.86 17.8287 14.5428L19.1173 15.1058C17.881 17.9354 15.0873 19.7637 12 19.7637Z" fill="#D7D7D7"/>
</g>
<defs>
<clipPath id="clip0">
<rect width="24" height="24" fill="white"/>
</clipPath>
</defs>
</svg>
