<svg xmlns="http://www.w3.org/2000/svg" width="22" height="16" viewBox="0 0 22 18">
    <g fill="#767171" fill-rule="nonzero" opacity="0.699999988">
        <path d="M19.52.238a.807.807 0 0 0-1.142 0l-2.867 2.868c-3.554-1.613-7.344-1.22-10.96 1.142C1.858 6.005.223 8.214.155 8.308a.814.814 0 0 0 .023.985c1.532 1.882 3.136 3.347 4.776 4.369l-2.522 2.523a.811.811 0 0 0 0 1.142.805.805 0 0 0 1.138 0L19.52 1.381a.811.811 0 0 0 0-1.143zM8.983 9.634a2.098 2.098 0 0 1-.175-.851c0-.578.225-1.125.637-1.537a2.176 2.176 0 0 1 2.388-.462l-2.85 2.85zm4.042-4.037a3.79 3.79 0 0 0-4.718.506 3.755 3.755 0 0 0-1.107 2.675c0 .735.21 1.438.6 2.043l-1.662 1.663c-1.456-.843-2.89-2.088-4.283-3.715.595-.699 1.855-2.048 3.58-3.172 2.984-1.945 5.954-2.366 8.849-1.26l-1.26 1.26zM21.779 8.272c-1.107-1.362-2.254-2.51-3.419-3.419a.816.816 0 0 0-1.138.139.811.811 0 0 0 .139 1.134c.923.72 1.846 1.617 2.742 2.666a17.68 17.68 0 0 1-2.957 2.746c-2.693 1.958-5.413 2.666-8.079 2.102a.804.804 0 0 0-.954.622.804.804 0 0 0 .623.955c.694.148 1.393.22 2.097.22a10.66 10.66 0 0 0 3.185-.498c1.394-.435 2.778-1.152 4.118-2.128 2.258-1.654 3.607-3.477 3.665-3.553a.814.814 0 0 0-.022-.986z"/>
    </g>
</svg>