<svg xmlns="http://www.w3.org/2000/svg" width="20" height="16" viewBox="0 0 22 14">
    <g fill="#767171" fill-rule="nonzero" opacity="0.699999988">
        <path d="M21.819 6.179c-3.323-4.086-6.91-6.16-10.672-6.16-1.49 0-3 .332-4.49.983-1.172.516-2.335 1.23-3.453 2.124C1.314 4.639.201 6.147.156 6.21a.815.815 0 0 0 .022.988c3.318 4.09 6.91 6.16 10.672 6.16 1.491 0 3-.332 4.49-.983 1.172-.517 2.335-1.23 3.453-2.124 1.89-1.513 3.003-3.022 3.048-3.085a.815.815 0 0 0-.022-.987zm-4.072 2.837c-1.563 1.244-4.023 2.726-6.897 2.726-3.102 0-6.128-1.702-9.002-5.06a17.764 17.764 0 0 1 2.398-2.317C5.808 3.12 8.269 1.64 11.142 1.64c3.103 0 6.129 1.701 9.002 5.06a17.492 17.492 0 0 1-2.397 2.316z"/>
        <path d="M13.975 5.882a.81.81 0 0 0-.808.809 2.175 2.175 0 0 1-2.173 2.173A2.175 2.175 0 0 1 8.821 6.69c0-1.2.974-2.174 2.173-2.174a.81.81 0 0 0 .808-.808.81.81 0 0 0-.808-.808 3.793 3.793 0 0 0-3.79 3.79 3.793 3.793 0 0 0 3.79 3.789 3.793 3.793 0 0 0 3.79-3.79.81.81 0 0 0-.809-.808z"/>
    </g>
</svg>
