<svg width="43" height="43" viewBox="0 0 43 43" fill="none" xmlns="http://www.w3.org/2000/svg">
<g clip-path="url(#clip0)">
<path d="M30.4579 16.1268H12.5423C12.0479 16.1268 11.6465 16.5282 11.6465 17.0226V31.355C11.6465 33.5193 13.1873 35.3269 15.2297 35.7444V40.3128C15.2297 41.7944 16.4354 43.0001 17.917 43.0001C19.3986 43.0001 20.6043 41.7944 20.6043 40.3128V35.834H22.3958V40.3128C22.3958 41.7944 23.6015 43.0001 25.0832 43.0001C26.5648 43.0001 27.7705 41.7944 27.7705 40.3128V35.7444C29.8128 35.3288 31.3536 33.5193 31.3536 31.355V17.0226C31.3536 16.5264 30.9523 16.1268 30.4579 16.1268Z" fill="url(#paint0_linear)"/>
<path d="M26.1885 4.77382L27.6988 1.24982C27.894 0.794738 27.6826 0.26987 27.2275 0.0745356C26.7778 -0.122563 26.2458 0.088896 26.0523 0.545741L24.542 4.07151C23.5835 3.75978 22.5624 3.58603 21.5017 3.58603C20.4411 3.58603 19.42 3.75978 18.4614 4.07151L16.9477 0.545741C16.7542 0.088896 16.2221 -0.124326 15.7724 0.0745356C15.3173 0.269786 15.1077 0.796501 15.3031 1.24982L16.8133 4.77382C13.7373 6.44357 11.6465 9.70237 11.6465 13.4395C11.6465 13.934 12.0479 14.3353 12.5423 14.3353H30.4578C30.9523 14.3353 31.3536 13.934 31.3536 13.4395C31.3535 9.70237 29.2628 6.44357 26.1885 4.77382ZM17.9169 10.7522C17.4224 10.7522 17.0211 10.3509 17.0211 9.85639C17.0211 9.36192 17.4224 8.96058 17.9169 8.96058C18.4114 8.96058 18.8127 9.36192 18.8127 9.85639C18.8127 10.3509 18.4114 10.7522 17.9169 10.7522ZM25.0831 10.7522C24.5887 10.7522 24.1873 10.3509 24.1873 9.85639C24.1873 9.36192 24.5887 8.96058 25.0831 8.96058C25.5776 8.96058 25.979 9.36192 25.979 9.85639C25.979 10.3509 25.5776 10.7522 25.0831 10.7522Z" fill="#FA8700"/>
<path d="M35.8323 16.1268C34.3506 16.1268 33.145 17.3325 33.145 18.8142V27.7719C33.145 29.2536 34.3506 30.4592 35.8323 30.4592C37.3139 30.4592 38.5196 29.2536 38.5196 27.7719V18.8142C38.5196 17.3326 37.3139 16.1268 35.8323 16.1268Z" fill="url(#paint1_linear)"/>
<path d="M7.16749 16.1268C5.68585 16.1268 4.48016 17.3325 4.48016 18.8142V27.7719C4.48016 29.2536 5.68585 30.4592 7.16749 30.4592C8.64913 30.4592 9.85481 29.2536 9.85481 27.7719V18.8142C9.85481 17.3326 8.64913 16.1268 7.16749 16.1268Z" fill="url(#paint2_linear)"/>
</g>
<defs>
<linearGradient id="paint0_linear" x1="21.5001" y1="16.1268" x2="21.5001" y2="43.0001" gradientUnits="userSpaceOnUse">
<stop stop-color="#FF9F2F"/>
<stop offset="1" stop-color="#C15303"/>
</linearGradient>
<linearGradient id="paint1_linear" x1="35.8323" y1="16.1268" x2="35.8323" y2="30.4592" gradientUnits="userSpaceOnUse">
<stop stop-color="#FF9F2F"/>
<stop offset="1" stop-color="#C15303"/>
</linearGradient>
<linearGradient id="paint2_linear" x1="7.16749" y1="16.1268" x2="7.16749" y2="30.4592" gradientUnits="userSpaceOnUse">
<stop stop-color="#FF9F2F"/>
<stop offset="1" stop-color="#C15303"/>
</linearGradient>
<clipPath id="clip0">
<rect width="43" height="43" fill="white"/>
</clipPath>
</defs>
</svg>
