<svg width="27" height="20" viewBox="0 0 27 20" fill="none" xmlns="http://www.w3.org/2000/svg">
<path d="M10.366 12.2351H16.4028V17.9481H10.366V12.2351Z" fill="white"/>
<path d="M13.448 19.0223C15.8673 19.0223 17.8352 17.0822 17.8352 14.6973C17.8352 13.1578 17.0149 11.8039 15.7828 11.0373V12.0889C16.5437 12.7503 16.9768 13.6915 16.9768 14.6973C16.9768 16.6155 15.394 18.1761 13.448 18.1761C11.5024 18.1761 9.91958 16.6155 9.91958 14.6974C9.91958 13.6915 10.3527 12.7503 11.1136 12.089V11.0373C9.88155 11.8039 9.06116 13.1578 9.06116 14.6974C9.06116 17.0822 11.0291 19.0223 13.448 19.0223Z" fill="url(#paint0_linear)"/>
<path d="M11.8208 12.2513C11.8208 12.3573 11.7722 12.4575 11.688 12.5236C11.0137 13.0551 10.6271 13.8474 10.6271 14.6973C10.6271 16.2309 11.8927 17.4786 13.448 17.4786C15.0037 17.4786 16.2693 16.2309 16.2693 14.6973C16.2693 13.8474 15.8827 13.0552 15.208 12.5236C15.1241 12.4574 15.0752 12.3572 15.0752 12.2513V10.6796C14.5585 10.4756 14.0122 10.3723 13.448 10.3723C12.8842 10.3723 12.3379 10.4756 11.8208 10.6796V12.2513ZM15.3031 14.6973C15.3031 15.7057 14.471 16.5261 13.448 16.5261C12.4251 16.5261 11.593 15.7057 11.593 14.6973C11.593 13.6888 12.4251 12.8684 13.448 12.8684C14.471 12.8684 15.3031 13.6888 15.3031 14.6973ZM13.8425 11.7998C13.8522 12.0098 13.6545 12.1887 13.448 12.1887C13.2271 12.1887 13.0632 12.0105 13.0535 11.7998C13.0442 11.5897 13.2419 11.4108 13.448 11.4108C13.6693 11.4108 13.8332 11.5891 13.8425 11.7998Z" fill="url(#paint1_linear)"/>
<path d="M13.4478 15.8288C14.0817 15.8288 14.5957 15.3222 14.5957 14.6973C14.5957 14.0724 14.0817 13.5659 13.4478 13.5659C12.814 13.5659 12.3002 14.0724 12.3002 14.6973C12.3002 15.3222 12.814 15.8288 13.4478 15.8288Z" fill="#FF3D00"/>
<path fill-rule="evenodd" clip-rule="evenodd" d="M26.5677 12.6889C26.0289 13.2294 25.4303 13.6725 24.7283 13.9419C23.661 14.351 22.6785 14.1083 21.7488 13.4969C21.5318 13.3544 21.3314 13.1835 21.1271 12.9913C22.2315 13.0097 23.3256 12.9647 24.3987 12.7018C24.4005 12.6751 24.4014 12.6494 24.4023 12.6227C23.8581 12.5529 23.3169 12.4554 22.7712 12.4196C22.2291 12.3846 21.6824 12.4122 21.1376 12.4122C21.1246 12.3837 21.1108 12.3543 21.0978 12.3258C21.4515 12.0895 21.7905 11.8229 22.1605 11.6207C23.4467 10.9193 24.6564 11.173 25.8007 12.0114C26.0651 12.2053 26.3126 12.426 26.5668 12.6347C26.5677 12.653 26.5677 12.6705 26.5677 12.6889Z" fill="#00A513"/>
<path fill-rule="evenodd" clip-rule="evenodd" d="M0.30791 12.6346C0.685808 12.3431 1.0465 12.0214 1.44523 11.7677C2.91517 10.8337 4.40443 11.1067 5.7977 12.4103C5.19826 12.4103 4.65013 12.3827 4.10622 12.4176C3.55869 12.4526 3.01477 12.55 2.47086 12.6575C3.5448 12.9637 4.63714 13.0096 5.81068 12.9545C5.11797 13.5732 4.42103 14.0015 3.58283 14.1109C2.35406 14.27 1.38788 13.6697 0.497165 12.8681C0.432572 12.8101 0.370091 12.7486 0.307007 12.6888C0.307912 12.6704 0.30791 12.6529 0.30791 12.6346Z" fill="#00A513"/>
<path fill-rule="evenodd" clip-rule="evenodd" d="M17.4992 5.75659C18.1056 4.75275 18.6061 3.72405 18.9115 2.59609C18.1521 3.43725 17.5641 4.40341 17.0625 5.44312C16.8246 4.91822 16.8904 3.58708 17.1941 2.87647C17.7413 1.59498 18.7878 1.00296 19.9725 0.588379C20.5997 2.88658 19.862 4.9752 17.4992 5.75659Z" fill="#00A513"/>
<path fill-rule="evenodd" clip-rule="evenodd" d="M7.94203 2.61902C8.27948 3.72584 8.76272 4.75911 9.36911 5.74091C7.45788 5.49913 6.09569 2.66959 6.88983 0.622345C9.19345 1.25664 10.328 3.02903 9.843 5.45042C9.55323 4.94022 9.28943 4.43092 8.98427 3.95105C8.67972 3.47302 8.33472 3.02443 8.00692 2.56294C7.98549 2.58224 7.96376 2.60064 7.94203 2.61902Z" fill="#00A513"/>
<path fill-rule="evenodd" clip-rule="evenodd" d="M13.359 4.05474C13.3029 4.87934 13.2464 5.70394 13.1912 6.5083C12.0807 5.78299 12.1906 3.46365 13.429 2.29892C14.6804 3.57855 14.8274 5.13766 13.685 6.54878C13.6303 5.71864 13.576 4.88854 13.5214 4.05841C13.4671 4.05751 13.4133 4.05657 13.359 4.05474Z" fill="#00A513"/>
<path fill-rule="evenodd" clip-rule="evenodd" d="M8.57293 15.9035C8.03928 17.7172 6.65657 18.3451 4.99707 17.8781C5.04536 16.3475 6.92973 15.0219 8.34625 15.5376C7.99975 15.761 7.65112 15.966 7.32242 16.2022C7.00248 16.432 6.70245 16.6941 6.4154 16.9744C7.18569 16.7602 7.87599 16.376 8.57293 15.9035Z" fill="#00A513"/>
<path fill-rule="evenodd" clip-rule="evenodd" d="M4.97729 7.48548C6.65158 7.01018 8.04728 7.63624 8.55768 9.41504C8.20031 9.20819 7.85954 8.99218 7.50337 8.80924C7.14539 8.62538 6.77262 8.47371 6.3905 8.33855C6.9655 8.94897 7.6401 9.4031 8.36632 9.80758C6.66607 10.2378 5.43307 9.28541 4.97729 7.48548Z" fill="#00A513"/>
<path fill-rule="evenodd" clip-rule="evenodd" d="M18.5605 9.83701C19.2176 9.36449 19.8783 8.88922 20.539 8.41396C20.5218 8.38545 20.5052 8.35695 20.4889 8.32845C19.7219 8.57759 19.0178 8.97011 18.3329 9.42793C18.44 7.95337 20.3962 6.89622 21.8934 7.48638C21.4895 9.16318 20.3443 10.2268 18.5605 9.83701Z" fill="#00A513"/>
<path fill-rule="evenodd" clip-rule="evenodd" d="M18.5071 15.5414C20.1736 15.1516 21.4328 16.001 21.8895 17.8552C20.3803 18.3525 18.8367 17.7955 18.33 15.9799C19.0269 16.3393 19.748 16.7116 20.4703 17.0839C20.4851 17.0545 20.4996 17.0251 20.5143 16.9957C19.9218 16.411 19.243 15.9569 18.5071 15.5414Z" fill="#00A513"/>
<path fill-rule="evenodd" clip-rule="evenodd" d="M10.8933 8.09244C11.024 8.37927 11.1553 8.66516 11.2869 8.95475C10.5993 8.75801 10.3017 8.07314 10.5069 7.31015C11.1803 7.35519 11.714 8.1899 11.4728 8.82052C11.3068 8.5622 11.1417 8.30389 10.9754 8.04557C10.9488 8.0612 10.9211 8.07684 10.8933 8.09244Z" fill="#00A513"/>
<path fill-rule="evenodd" clip-rule="evenodd" d="M15.4004 8.8229C15.18 8.18581 15.6228 7.47336 16.349 7.29596C16.6086 8.05251 16.2636 8.76312 15.589 8.9617C15.7318 8.64547 15.8718 8.33474 16.0128 8.02311C15.992 8.00931 15.9711 7.99644 15.9497 7.98266C15.7662 8.26396 15.583 8.54434 15.4004 8.8229Z" fill="#00A513"/>
<path fill-rule="evenodd" clip-rule="evenodd" d="M17.5435 12.802C17.8809 12.7726 18.1912 12.7469 18.5018 12.7193C18.5009 12.6908 18.5009 12.6623 18.5 12.6329C18.1852 12.6081 17.8704 12.5832 17.5601 12.5584C18.04 12.0032 18.7819 12.1061 19.2808 12.6559C18.8365 13.2654 18.0693 13.3315 17.5435 12.802Z" fill="#00A513"/>
<defs>
<linearGradient id="paint0_linear" x1="13.4482" y1="11.0373" x2="13.4482" y2="19.0223" gradientUnits="userSpaceOnUse">
<stop stop-color="#FF9F2F"/>
<stop offset="1" stop-color="#C15303"/>
</linearGradient>
<linearGradient id="paint1_linear" x1="13.4482" y1="10.3723" x2="13.4482" y2="17.4786" gradientUnits="userSpaceOnUse">
<stop stop-color="#FF9F2F"/>
<stop offset="1" stop-color="#C15303"/>
</linearGradient>
</defs>
</svg>
