<svg width="207" height="91" viewBox="0 0 207 91" fill="none" xmlns="http://www.w3.org/2000/svg">
<path d="M8.28 68C7.34647 68 6.53471 67.655 5.84471 66.965C5.15471 66.275 4.80971 65.4632 4.80971 64.5297V27.0262C4.80971 26.0926 5.15471 25.2809 5.84471 24.5909C6.53471 23.9009 7.34647 23.5559 8.28 23.5559H9.80206C10.8574 23.5559 11.8315 23.84 12.7244 24.4082C13.6174 24.9765 14.2668 25.7274 14.6726 26.6609L25.3271 49.6744C25.3271 49.715 25.3474 49.7353 25.3879 49.7353C25.4285 49.7353 25.4488 49.715 25.4488 49.6744L36.1032 26.6609C36.5091 25.7274 37.1585 24.9765 38.0515 24.4082C38.9444 23.84 39.9185 23.5559 40.9738 23.5559H42.7394C43.6729 23.5559 44.4847 23.9009 45.1747 24.5909C45.8647 25.2809 46.2097 26.0926 46.2097 27.0262V64.5297C46.2097 65.4632 45.8647 66.275 45.1747 66.965C44.4847 67.655 43.6729 68 42.7394 68H41.4C40.4665 68 39.6547 67.655 38.9647 66.965C38.2747 66.275 37.9297 65.4632 37.9297 64.5297V38.0459C37.9297 38.0053 37.9094 37.985 37.8688 37.985C37.8282 37.985 37.8079 38.0053 37.8079 38.0459L30.5021 53.6926C30.0556 54.6262 29.3656 55.3974 28.4321 56.0062C27.5391 56.5744 26.5853 56.8585 25.5706 56.8585H25.2053C24.1906 56.8585 23.2165 56.5744 22.2829 56.0062C21.39 55.3974 20.7203 54.6262 20.2738 53.6926L12.9679 38.0459C12.9679 38.0053 12.9476 37.985 12.9071 37.985C12.8665 37.985 12.8462 38.0053 12.8462 38.0459V64.5297C12.8462 65.4632 12.5012 66.275 11.8112 66.965C11.1212 67.655 10.3094 68 9.37588 68H8.28ZM60.5104 68C59.5769 68 58.7651 67.655 58.0751 66.965C57.3851 66.275 57.0401 65.4632 57.0401 64.5297V39.8115C57.0401 38.8779 57.3851 38.0662 58.0751 37.3762C58.7651 36.6862 59.5769 36.3412 60.5104 36.3412H62.0933C63.0269 36.3412 63.8386 36.6862 64.5286 37.3762C65.2186 38.0662 65.5636 38.8779 65.5636 39.8115V64.5297C65.5636 65.4632 65.2186 66.275 64.5286 66.965C63.8386 67.655 63.0269 68 62.0933 68H60.5104ZM60.5104 29.6441C59.5769 29.6441 58.7651 29.2991 58.0751 28.6091C57.3851 27.9191 57.0401 27.1074 57.0401 26.1738V25.8085C57.0401 24.875 57.3851 24.0632 58.0751 23.3732C58.7651 22.6832 59.5769 22.3382 60.5104 22.3382H62.0933C63.0269 22.3382 63.8386 22.6832 64.5286 23.3732C65.2186 24.0632 65.5636 24.875 65.5636 25.8085V26.1738C65.5636 27.1074 65.2186 27.9191 64.5286 28.6091C63.8386 29.2991 63.0269 29.6441 62.0933 29.6441H60.5104ZM86.1961 64.7124L73.5934 26.8435C73.3093 26.0318 73.4108 25.2809 73.8979 24.5909C74.3849 23.9009 75.0546 23.5559 75.907 23.5559H78.0987C79.1134 23.5559 80.047 23.8806 80.8993 24.53C81.7517 25.1388 82.2996 25.9303 82.5432 26.9044L91.8582 59.5982C91.8582 59.6388 91.8784 59.6591 91.919 59.6591C91.9596 59.6591 91.9799 59.6388 91.9799 59.5982L101.417 26.8435C101.701 25.8694 102.249 25.0779 103.061 24.4691C103.913 23.8603 104.846 23.5559 105.861 23.5559H107.809C108.662 23.5559 109.331 23.9009 109.818 24.5909C110.306 25.2809 110.407 26.0318 110.123 26.8435L97.5202 64.7124C97.1955 65.6865 96.607 66.4779 95.7546 67.0868C94.9429 67.6956 94.0093 68 92.954 68H90.7623C89.7476 68 88.814 67.6956 87.9617 67.0868C87.1499 66.4779 86.5614 65.6865 86.1961 64.7124ZM120.858 68C119.924 68 119.112 67.655 118.422 66.965C117.732 66.275 117.387 65.4632 117.387 64.5297V39.8115C117.387 38.8779 117.732 38.0662 118.422 37.3762C119.112 36.6862 119.924 36.3412 120.858 36.3412H122.441C123.374 36.3412 124.186 36.6862 124.876 37.3762C125.566 38.0662 125.911 38.8779 125.911 39.8115V64.5297C125.911 65.4632 125.566 66.275 124.876 66.965C124.186 67.655 123.374 68 122.441 68H120.858ZM120.858 29.6441C119.924 29.6441 119.112 29.2991 118.422 28.6091C117.732 27.9191 117.387 27.1074 117.387 26.1738V25.8085C117.387 24.875 117.732 24.0632 118.422 23.3732C119.112 22.6832 119.924 22.3382 120.858 22.3382H122.441C123.374 22.3382 124.186 22.6832 124.876 23.3732C125.566 24.0632 125.911 24.875 125.911 25.8085V26.1738C125.911 27.1074 125.566 27.9191 124.876 28.6091C124.186 29.2991 123.374 29.6441 122.441 29.6441H120.858ZM149.344 41.8206C144.676 41.8206 142.342 45.2706 142.342 52.1706C142.342 55.6206 142.972 58.2182 144.23 59.9635C145.488 61.6682 147.193 62.5206 149.344 62.5206C151.252 62.5206 152.895 61.8915 154.275 60.6332C155.655 59.375 156.345 57.9341 156.345 56.3106V48.0306C156.345 46.4071 155.655 44.9662 154.275 43.7079C152.895 42.4497 151.252 41.8206 149.344 41.8206ZM146.909 68.6088C143.296 68.6088 140.293 67.1476 137.898 64.2253C135.503 61.2624 134.306 57.2441 134.306 52.1706C134.306 46.9347 135.442 42.8962 137.715 40.055C140.029 37.1732 143.093 35.7324 146.909 35.7324C150.359 35.7324 153.403 36.9906 156.041 39.5071C156.082 39.5476 156.122 39.5679 156.163 39.5679C156.203 39.5679 156.224 39.5476 156.224 39.5071V25.8085C156.224 24.875 156.569 24.0632 157.259 23.3732C157.949 22.6832 158.76 22.3382 159.694 22.3382H160.912C161.845 22.3382 162.657 22.6832 163.347 23.3732C164.037 24.0632 164.382 24.875 164.382 25.8085V64.5297C164.382 65.4632 164.037 66.275 163.347 66.965C162.657 67.655 161.845 68 160.912 68H160.242C159.268 68 158.436 67.6753 157.746 67.0259C157.096 66.3359 156.751 65.5038 156.711 64.5297L156.65 64.1035C156.65 64.0629 156.63 64.0426 156.589 64.0426C156.548 64.0426 156.508 64.0629 156.467 64.1035C153.788 67.1071 150.602 68.6088 146.909 68.6088ZM188.03 52.7794C182.226 52.7794 179.324 54.5653 179.324 58.1371C179.324 59.4359 179.689 60.4912 180.42 61.3029C181.191 62.1147 182.165 62.5206 183.342 62.5206C185.656 62.5206 187.523 61.8103 188.943 60.3897C190.364 58.9285 191.074 56.9397 191.074 54.4232V53.3274C191.074 52.9621 190.891 52.7794 190.526 52.7794H188.03ZM181.15 68.6088C178.39 68.6088 176.097 67.7159 174.271 65.93C172.485 64.1035 171.592 61.7494 171.592 58.8676C171.592 55.3365 172.931 52.5968 175.61 50.6485C178.329 48.7003 182.469 47.7262 188.03 47.7262H190.526C190.891 47.7262 191.074 47.5435 191.074 47.1782V46.6912C191.074 44.8241 190.628 43.5253 189.735 42.7947C188.842 42.0235 187.259 41.6379 184.986 41.6379C182.632 41.6379 179.75 42.0641 176.341 42.9165C175.61 43.1194 174.94 42.9976 174.331 42.5512C173.723 42.0641 173.418 41.435 173.418 40.6638C173.418 39.7303 173.702 38.8982 174.271 38.1676C174.839 37.3965 175.569 36.9297 176.462 36.7674C179.547 36.0774 182.449 35.7324 185.168 35.7324C190.364 35.7324 193.996 36.6659 196.066 38.5329C198.136 40.4 199.171 43.6674 199.171 48.335V64.5297C199.171 65.4632 198.826 66.275 198.136 66.965C197.487 67.655 196.696 68 195.762 68H195.092C194.118 68 193.286 67.6753 192.596 67.0259C191.906 66.3359 191.541 65.5038 191.5 64.5297V63.6774C191.5 63.6368 191.48 63.6165 191.439 63.6165C191.358 63.6165 191.318 63.6368 191.318 63.6774C188.842 66.965 185.453 68.6088 181.15 68.6088Z" fill="url(#paint0_linear)"/>
<path d="M117.244 21.7437H127.162V31.1293H117.244V21.7437Z" fill="#879485"/>
<path d="M122.308 32.8935C126.282 32.8935 129.515 29.706 129.515 25.7881C129.515 23.259 128.167 21.0346 126.143 19.7751V21.5029C127.393 22.5895 128.105 24.1357 128.105 25.7881C128.105 28.9394 125.505 31.5032 122.308 31.5032C119.111 31.5032 116.511 28.9395 116.511 25.7882C116.511 24.1357 117.222 22.5895 118.473 21.503V19.7752C116.448 21.0346 115.101 23.259 115.101 25.7882C115.101 29.706 118.334 32.8935 122.308 32.8935Z" fill="url(#paint1_linear)"/>
<path d="M119.634 21.7698C119.634 21.9439 119.554 22.1086 119.416 22.2173C118.308 23.0905 117.673 24.392 117.673 25.7882C117.673 28.3077 119.752 30.3575 122.307 30.3575C124.863 30.3575 126.942 28.3077 126.942 25.7882C126.942 24.392 126.307 23.0905 125.199 22.2173C125.061 22.1085 124.981 21.9439 124.981 21.7698V19.1879C124.132 18.8526 123.234 18.6829 122.307 18.6829C121.381 18.6829 120.483 18.8526 119.634 19.1879V21.7698ZM125.355 25.7882C125.355 27.4449 123.988 28.7928 122.307 28.7928C120.627 28.7928 119.26 27.4449 119.26 25.7882C119.26 24.1315 120.627 22.7836 122.307 22.7836C123.988 22.7836 125.355 24.1314 125.355 25.7882ZM122.955 21.0281C122.971 21.3731 122.646 21.6671 122.307 21.6671C121.944 21.6671 121.675 21.3743 121.659 21.0281C121.644 20.683 121.969 20.3891 122.307 20.3891C122.671 20.3891 122.94 20.6819 122.955 21.0281Z" fill="url(#paint2_linear)"/>
<path d="M122.307 27.6471C123.349 27.6471 124.193 26.8148 124.193 25.7883C124.193 24.7617 123.349 23.9294 122.307 23.9294C121.266 23.9294 120.422 24.7617 120.422 25.7883C120.422 26.8148 121.266 27.6471 122.307 27.6471Z" fill="url(#paint3_linear)"/>
<path fill-rule="evenodd" clip-rule="evenodd" d="M143.861 22.4887C142.976 23.3767 141.993 24.1046 140.839 24.5471C139.086 25.2192 137.472 24.8205 135.945 23.8162C135.588 23.5821 135.259 23.3012 134.923 22.9855C136.738 23.0157 138.535 22.9417 140.298 22.5098C140.301 22.466 140.302 22.4237 140.304 22.3799C139.41 22.2651 138.521 22.105 137.624 22.0462C136.734 21.9888 135.836 22.0341 134.941 22.0341C134.919 21.9872 134.896 21.9389 134.875 21.8921C135.456 21.504 136.013 21.066 136.621 20.7337C138.734 19.5814 140.721 19.9983 142.601 21.3756C143.036 21.6942 143.442 22.0567 143.86 22.3996C143.861 22.4297 143.861 22.4584 143.861 22.4887Z" fill="#00A513"/>
<path fill-rule="evenodd" clip-rule="evenodd" d="M100.72 22.3996C101.341 21.9208 101.934 21.3923 102.589 20.9754C105.004 19.441 107.45 19.8896 109.739 22.0311C108.754 22.0311 107.854 21.9858 106.96 22.0432C106.061 22.1006 105.167 22.2606 104.274 22.4373C106.038 22.9402 107.833 23.0158 109.76 22.9251C108.622 23.9416 107.478 24.6453 106.1 24.825C104.082 25.0863 102.494 24.1001 101.031 22.7832C100.925 22.688 100.822 22.5869 100.719 22.4887C100.72 22.4585 100.72 22.4298 100.72 22.3996Z" fill="#00A513"/>
<path fill-rule="evenodd" clip-rule="evenodd" d="M128.963 11.0998C129.959 9.4506 130.782 7.76058 131.283 5.90751C130.036 7.28942 129.07 8.87669 128.246 10.5848C127.855 9.72244 127.963 7.53557 128.462 6.36814C129.361 4.26284 131.08 3.29023 133.026 2.60913C134.057 6.38474 132.845 9.81605 128.963 11.0998Z" fill="#00A513"/>
<path fill-rule="evenodd" clip-rule="evenodd" d="M113.262 5.94529C113.817 7.76364 114.611 9.46116 115.607 11.0741C112.467 10.6769 110.229 6.02837 111.534 2.66504C115.318 3.7071 117.182 6.61888 116.385 10.5969C115.909 9.75869 115.476 8.92198 114.975 8.13363C114.474 7.3483 113.907 6.61132 113.369 5.85316C113.334 5.88487 113.298 5.9151 113.262 5.94529Z" fill="#00A513"/>
<path fill-rule="evenodd" clip-rule="evenodd" d="M122.161 8.30424C122.069 9.65894 121.976 11.0136 121.885 12.3351C120.061 11.1435 120.241 7.33317 122.276 5.41968C124.332 7.52192 124.573 10.0833 122.697 12.4016C122.607 11.0378 122.518 9.67406 122.428 8.31027C122.339 8.30879 122.25 8.30725 122.161 8.30424Z" fill="#00A513"/>
<path fill-rule="evenodd" clip-rule="evenodd" d="M114.298 27.7699C113.422 30.7496 111.15 31.7811 108.424 31.0139C108.503 28.4994 111.599 26.3215 113.926 27.1688C113.357 27.5358 112.784 27.8726 112.244 28.2607C111.718 28.6383 111.225 29.0687 110.754 29.5293C112.019 29.1775 113.153 28.5461 114.298 27.7699Z" fill="#00A513"/>
<path fill-rule="evenodd" clip-rule="evenodd" d="M108.391 13.9406C111.142 13.1598 113.435 14.1883 114.273 17.1106C113.686 16.7708 113.126 16.4159 112.541 16.1154C111.953 15.8133 111.341 15.5641 110.713 15.3421C111.657 16.3449 112.766 17.091 113.959 17.7555C111.165 18.4623 109.14 16.8976 108.391 13.9406Z" fill="#00A513"/>
<path fill-rule="evenodd" clip-rule="evenodd" d="M130.707 17.8037C131.786 17.0274 132.872 16.2466 133.957 15.4658C133.929 15.419 133.901 15.3722 133.875 15.3253C132.615 15.7346 131.458 16.3795 130.333 17.1316C130.509 14.7091 133.722 12.9724 136.182 13.9419C135.519 16.6967 133.637 18.444 130.707 17.8037Z" fill="#00A513"/>
<path fill-rule="evenodd" clip-rule="evenodd" d="M130.619 27.1748C133.356 26.5345 135.425 27.93 136.175 30.9761C133.696 31.7932 131.16 30.878 130.328 27.8952C131.473 28.4857 132.657 29.0974 133.844 29.709C133.868 29.6607 133.892 29.6124 133.916 29.5641C132.943 28.6035 131.828 27.8574 130.619 27.1748Z" fill="#00A513"/>
<path fill-rule="evenodd" clip-rule="evenodd" d="M118.11 14.9373C118.325 15.4085 118.541 15.8782 118.757 16.3539C117.627 16.0307 117.138 14.9056 117.475 13.6521C118.582 13.7261 119.458 15.0974 119.062 16.1334C118.789 15.709 118.518 15.2847 118.245 14.8603C118.201 14.886 118.156 14.9117 118.11 14.9373Z" fill="#00A513"/>
<path fill-rule="evenodd" clip-rule="evenodd" d="M125.515 16.1379C125.153 15.0913 125.88 13.9208 127.073 13.6294C127.5 14.8723 126.933 16.0397 125.825 16.366C126.059 15.8464 126.289 15.336 126.521 14.824C126.487 14.8013 126.453 14.7802 126.417 14.7576C126.116 15.2197 125.815 15.6803 125.515 16.1379Z" fill="#00A513"/>
<path fill-rule="evenodd" clip-rule="evenodd" d="M129.036 22.6745C129.59 22.6261 130.1 22.5838 130.61 22.5385C130.609 22.4917 130.609 22.4449 130.607 22.3965C130.09 22.3558 129.573 22.315 129.063 22.2742C129.851 21.362 131.07 21.5312 131.89 22.4343C131.16 23.4356 129.899 23.5444 129.036 22.6745Z" fill="#00A513"/>
<defs>
<linearGradient id="paint0_linear" x1="103.5" y1="0" x2="103.5" y2="90.4538" gradientUnits="userSpaceOnUse">
<stop stop-color="#FF9F2F"/>
<stop offset="1" stop-color="#C15303"/>
</linearGradient>
<linearGradient id="paint1_linear" x1="122.308" y1="19.7751" x2="122.308" y2="32.8935" gradientUnits="userSpaceOnUse">
<stop stop-color="#FF9F2F"/>
<stop offset="1" stop-color="#C15303"/>
</linearGradient>
<linearGradient id="paint2_linear" x1="122.308" y1="18.6829" x2="122.308" y2="30.3575" gradientUnits="userSpaceOnUse">
<stop stop-color="#FF9F2F"/>
<stop offset="1" stop-color="#C15303"/>
</linearGradient>
<linearGradient id="paint3_linear" x1="122.307" y1="23.9294" x2="122.307" y2="27.6471" gradientUnits="userSpaceOnUse">
<stop stop-color="#FF9F2F"/>
<stop offset="1" stop-color="#C15303"/>
</linearGradient>
</defs>
</svg>
