<svg width="134" height="40" viewBox="0 0 134 40" fill="none" xmlns="http://www.w3.org/2000/svg">
<rect width="134" height="40" rx="20" fill="#F14336"/>
<path d="M14.4746 23.9268H19.1914V25H13.1553V15.0469H14.4746V23.9268ZM20.1553 21.2334C20.1553 20.5088 20.2965 19.8571 20.5791 19.2783C20.8662 18.6995 21.2627 18.2529 21.7686 17.9385C22.279 17.624 22.86 17.4668 23.5117 17.4668C24.5189 17.4668 25.3324 17.8154 25.9521 18.5127C26.5765 19.21 26.8887 20.1374 26.8887 21.2949V21.3838C26.8887 22.1038 26.7497 22.751 26.4717 23.3252C26.1982 23.8949 25.804 24.3392 25.2891 24.6582C24.7786 24.9772 24.1908 25.1367 23.5254 25.1367C22.5228 25.1367 21.7093 24.7881 21.085 24.0908C20.4652 23.3936 20.1553 22.4707 20.1553 21.3223V21.2334ZM21.4268 21.3838C21.4268 22.2041 21.6159 22.8626 21.9941 23.3594C22.377 23.8561 22.8874 24.1045 23.5254 24.1045C24.168 24.1045 24.6784 23.8538 25.0566 23.3525C25.4349 22.8467 25.624 22.1403 25.624 21.2334C25.624 20.4222 25.4303 19.766 25.043 19.2646C24.6602 18.7588 24.1497 18.5059 23.5117 18.5059C22.8874 18.5059 22.3838 18.7542 22.001 19.251C21.6182 19.7477 21.4268 20.4587 21.4268 21.3838ZM28.1738 21.2402C28.1738 20.0872 28.4404 19.1712 28.9736 18.4922C29.5068 17.8086 30.2132 17.4668 31.0928 17.4668C31.9951 17.4668 32.6992 17.7858 33.2051 18.4238L33.2666 17.6035H34.4219V24.8223C34.4219 25.7793 34.137 26.5335 33.5674 27.085C33.0023 27.6364 32.2412 27.9121 31.2842 27.9121C30.751 27.9121 30.2292 27.7982 29.7188 27.5703C29.2083 27.3424 28.8187 27.0303 28.5498 26.6338L29.2061 25.875C29.7484 26.5449 30.4115 26.8799 31.1953 26.8799C31.8105 26.8799 32.2891 26.7067 32.6309 26.3604C32.9772 26.014 33.1504 25.5264 33.1504 24.8975V24.2617C32.6445 24.8451 31.9541 25.1367 31.0791 25.1367C30.2132 25.1367 29.5114 24.7881 28.9736 24.0908C28.4404 23.3936 28.1738 22.4434 28.1738 21.2402ZM29.4453 21.3838C29.4453 22.2178 29.6162 22.874 29.958 23.3525C30.2998 23.8265 30.7783 24.0635 31.3936 24.0635C32.1911 24.0635 32.7767 23.7012 33.1504 22.9766V19.5996C32.763 18.8932 32.182 18.54 31.4072 18.54C30.792 18.54 30.3112 18.7793 29.9648 19.2578C29.6185 19.7363 29.4453 20.445 29.4453 21.3838ZM41.1826 25H39.918V17.6035H41.1826V25ZM39.8154 15.6416C39.8154 15.4365 39.877 15.2633 40 15.1221C40.1276 14.9808 40.3145 14.9102 40.5605 14.9102C40.8066 14.9102 40.9935 14.9808 41.1211 15.1221C41.2487 15.2633 41.3125 15.4365 41.3125 15.6416C41.3125 15.8467 41.2487 16.0176 41.1211 16.1543C40.9935 16.291 40.8066 16.3594 40.5605 16.3594C40.3145 16.3594 40.1276 16.291 40 16.1543C39.877 16.0176 39.8154 15.8467 39.8154 15.6416ZM44.4092 17.6035L44.4502 18.5332C45.0153 17.8223 45.7536 17.4668 46.665 17.4668C48.2282 17.4668 49.0166 18.3486 49.0303 20.1123V25H47.7656V20.1055C47.7611 19.5723 47.638 19.1781 47.3965 18.9229C47.1595 18.6676 46.7881 18.54 46.2822 18.54C45.8721 18.54 45.512 18.6494 45.2021 18.8682C44.8923 19.0869 44.6507 19.374 44.4775 19.7295V25H43.2129V17.6035H44.4092ZM60.959 23.2568L62.3809 17.6035H63.6455L61.4922 25H60.4668L58.6689 19.3945L56.9189 25H55.8936L53.7471 17.6035H55.0049L56.4609 23.1406L58.1836 17.6035H59.2021L60.959 23.2568ZM66.3115 25H65.0469V17.6035H66.3115V25ZM64.9443 15.6416C64.9443 15.4365 65.0059 15.2633 65.1289 15.1221C65.2565 14.9808 65.4434 14.9102 65.6895 14.9102C65.9355 14.9102 66.1224 14.9808 66.25 15.1221C66.3776 15.2633 66.4414 15.4365 66.4414 15.6416C66.4414 15.8467 66.3776 16.0176 66.25 16.1543C66.1224 16.291 65.9355 16.3594 65.6895 16.3594C65.4434 16.3594 65.2565 16.291 65.1289 16.1543C65.0059 16.0176 64.9443 15.8467 64.9443 15.6416ZM70.0576 15.8125V17.6035H71.4385V18.5811H70.0576V23.168C70.0576 23.4642 70.1191 23.6875 70.2422 23.8379C70.3652 23.9837 70.5749 24.0566 70.8711 24.0566C71.0169 24.0566 71.2174 24.0293 71.4727 23.9746V25C71.14 25.0911 70.8164 25.1367 70.502 25.1367C69.9368 25.1367 69.5107 24.9658 69.2236 24.624C68.9365 24.2822 68.793 23.7969 68.793 23.168V18.5811H67.4463V17.6035H68.793V15.8125H70.0576ZM74.1865 18.499C74.7471 17.8109 75.4762 17.4668 76.374 17.4668C77.9372 17.4668 78.7256 18.3486 78.7393 20.1123V25H77.4746V20.1055C77.4701 19.5723 77.347 19.1781 77.1055 18.9229C76.8685 18.6676 76.4971 18.54 75.9912 18.54C75.5811 18.54 75.221 18.6494 74.9111 18.8682C74.6012 19.0869 74.3597 19.374 74.1865 19.7295V25H72.9219V14.5H74.1865V18.499Z" fill="white"/>
<path d="M93 0H114C125.046 0 134 8.95431 134 20C134 31.0457 125.046 40 114 40H93V0Z" fill="white"/>
<g clip-path="url(#clip0)">
<path d="M106.097 21.8991L105.297 24.8879L102.371 24.9498C101.496 23.3278 101 21.472 101 19.4999C101 17.5929 101.464 15.7946 102.286 14.2112H102.286L104.892 14.6888L106.033 17.2783C105.794 17.9746 105.664 18.7221 105.664 19.4999C105.664 20.3441 105.817 21.1529 106.097 21.8991Z" fill="#FBBB00"/>
<path d="M123.799 17.3516C123.931 18.0473 124 18.7657 124 19.4999C124 20.3233 123.914 21.1264 123.749 21.9011C123.189 24.5372 121.726 26.8391 119.7 28.468L119.699 28.4674L116.418 28.3L115.953 25.401C117.298 24.6124 118.349 23.3784 118.902 21.9011H112.753V17.3516H118.992H123.799Z" fill="#518EF8"/>
<path d="M119.699 28.4675L119.699 28.4681C117.729 30.0522 115.225 31 112.5 31C108.12 31 104.313 28.5522 102.37 24.9499L106.097 21.8992C107.068 24.4912 109.569 26.3362 112.5 26.3362C113.76 26.3362 114.94 25.9956 115.953 25.401L119.699 28.4675Z" fill="#28B446"/>
<path d="M119.84 10.6475L116.115 13.6975C115.067 13.0423 113.828 12.6638 112.5 12.6638C109.502 12.6638 106.955 14.5935 106.033 17.2783L102.287 14.2113H102.286C104.2 10.5212 108.055 8 112.5 8C115.29 8 117.849 8.99394 119.84 10.6475Z" fill="#F14336"/>
</g>
<defs>
<clipPath id="clip0">
<rect width="23" height="23" fill="white" transform="translate(101 8)"/>
</clipPath>
</defs>
</svg>
