<svg width="25" height="25" viewBox="0 0 25 25" fill="none" xmlns="http://www.w3.org/2000/svg">
<mask id="path-1-inside-1" fill="white">
<path d="M17.3929 4H8.46428C5.99873 4 4 5.99873 4 8.46429V17.3929C4 19.8584 5.99873 21.8571 8.46428 21.8571H17.3929C19.8584 21.8571 21.8571 19.8584 21.8571 17.3929V8.46429C21.8571 5.99873 19.8584 4 17.3929 4Z"/>
<path d="M16.5 12.3661C16.6102 13.1092 16.4833 13.8681 16.1373 14.5348C15.7913 15.2016 15.2439 15.7423 14.5729 16.0801C13.9019 16.4178 13.1415 16.5354 12.3998 16.416C11.6581 16.2967 10.973 15.9465 10.4418 15.4153C9.91064 14.8841 9.56047 14.199 9.44113 13.4573C9.32179 12.7157 9.43934 11.9553 9.77708 11.2843C10.1148 10.6133 10.6555 10.0658 11.3223 9.71986C11.9891 9.37388 12.748 9.24696 13.4911 9.35714C14.249 9.46954 14.9508 9.82274 15.4926 10.3646C16.0344 10.9064 16.3876 11.6081 16.5 12.3661Z"/>
<path d="M19.1786 7.57143C19.1786 8.06454 18.7788 8.46429 18.2857 8.46429C17.7926 8.46429 17.3929 8.06454 17.3929 7.57143C17.3929 7.07832 17.7926 6.67857 18.2857 6.67857C18.7788 6.67857 19.1786 7.07832 19.1786 7.57143Z"/>
</mask>
<path d="M16.5 12.3661L15.5108 12.5128L16.5 12.3661ZM13.4911 9.35714L13.3444 10.3463L13.4911 9.35714ZM8.46428 5H17.3929V3H8.46428V5ZM17.3929 5C19.3061 5 20.8571 6.55101 20.8571 8.46429H22.8571C22.8571 5.44644 20.4107 3 17.3929 3V5ZM20.8571 8.46429V17.3929H22.8571V8.46429H20.8571ZM20.8571 17.3929C20.8571 19.3061 19.3061 20.8571 17.3929 20.8571V22.8571C20.4107 22.8571 22.8571 20.4107 22.8571 17.3929H20.8571ZM17.3929 20.8571H8.46428V22.8571H17.3929V20.8571ZM8.46428 20.8571C6.55101 20.8571 5 19.3061 5 17.3929H3C3 20.4107 5.44644 22.8571 8.46428 22.8571V20.8571ZM5 17.3929V8.46429H3V17.3929H5ZM5 8.46429C5 6.55101 6.55101 5 8.46428 5V3C5.44644 3 3 5.44644 3 8.46429H5ZM15.5108 12.5128C15.5902 13.0478 15.4988 13.5942 15.2497 14.0743L17.0249 14.9954C17.4678 14.1419 17.6302 13.1705 17.4892 12.2194L15.5108 12.5128ZM15.2497 14.0743C15.0006 14.5544 14.6064 14.9437 14.1233 15.1868L15.0225 16.9733C15.8813 16.541 16.5821 15.8489 17.0249 14.9954L15.2497 14.0743ZM14.1233 15.1868C13.6402 15.43 13.0927 15.5146 12.5587 15.4287L12.2409 17.4033C13.1903 17.5561 14.1636 17.4056 15.0225 16.9733L14.1233 15.1868ZM12.5587 15.4287C12.0247 15.3428 11.5314 15.0907 11.1489 14.7082L9.73471 16.1224C10.4146 16.8023 11.2916 17.2506 12.2409 17.4033L12.5587 15.4287ZM11.1489 14.7082C10.7665 14.3258 10.5144 13.8325 10.4284 13.2985L8.45383 13.6162C8.60659 14.5655 9.0548 15.4425 9.73471 16.1224L11.1489 14.7082ZM10.4284 13.2985C10.3425 12.7645 10.4271 12.217 10.6703 11.7339L8.88384 10.8347C8.45154 11.6936 8.30107 12.6669 8.45383 13.6162L10.4284 13.2985ZM10.6703 11.7339C10.9135 11.2507 11.3028 10.8566 11.7829 10.6075L10.8617 8.83224C10.0083 9.27509 9.31614 9.97579 8.88384 10.8347L10.6703 11.7339ZM11.7829 10.6075C12.263 10.3584 12.8094 10.267 13.3444 10.3463L13.6378 8.36796C12.6866 8.22692 11.7152 8.38938 10.8617 8.83224L11.7829 10.6075ZM13.3444 10.3463C13.8901 10.4273 14.3954 10.6816 14.7855 11.0717L16.1997 9.65745C15.5062 8.96392 14.608 8.51183 13.6378 8.36796L13.3444 10.3463ZM14.7855 11.0717C15.1756 11.4618 15.4299 11.967 15.5108 12.5128L17.4892 12.2194C17.3453 11.2492 16.8932 10.351 16.1997 9.65745L14.7855 11.0717ZM18.1786 7.57143C18.1786 7.51226 18.2265 7.46429 18.2857 7.46429V9.46429C19.3311 9.46429 20.1786 8.61683 20.1786 7.57143H18.1786ZM18.2857 7.46429C18.3449 7.46429 18.3929 7.51226 18.3929 7.57143H16.3929C16.3929 8.61683 17.2403 9.46429 18.2857 9.46429V7.46429ZM18.3929 7.57143C18.3929 7.6306 18.3449 7.67857 18.2857 7.67857V5.67857C17.2403 5.67857 16.3929 6.52603 16.3929 7.57143H18.3929ZM18.2857 7.67857C18.2265 7.67857 18.1786 7.6306 18.1786 7.57143H20.1786C20.1786 6.52603 19.3311 5.67857 18.2857 5.67857V7.67857Z" fill="white" mask="url(#path-1-inside-1)"/>
</svg>
