<svg width="35" height="44" viewBox="0 0 35 44" fill="none" xmlns="http://www.w3.org/2000/svg">
<path d="M11.604 44C5.25323 43.9622 0 30.5945 0 23.7866C0 12.6659 8.09045 10.2313 11.2085 10.2313C12.6136 10.2313 14.114 10.8003 15.4374 11.3038C16.3628 11.655 17.3199 12.0176 17.8522 12.0176C18.1709 12.0176 18.9217 11.7092 19.5846 11.4386C20.9983 10.8582 22.7575 10.137 24.8061 10.137C24.8097 10.137 24.8147 10.137 24.8182 10.137C26.3479 10.137 30.9859 10.4831 33.7743 14.801L34.4274 15.813L33.4874 16.5445C32.1445 17.5893 29.6943 19.4952 29.6943 23.2705C29.6943 27.7419 32.4692 29.4616 33.8024 30.2886C34.3909 30.6537 35 31.0301 35 31.8534C35 32.3909 30.8394 43.9333 24.7975 43.9333C23.3191 43.9333 22.2741 43.475 21.3523 43.071C20.4196 42.6618 19.615 42.3094 18.2855 42.3094C17.6116 42.3094 16.7595 42.6379 15.8573 42.9867C14.6244 43.4611 13.2289 44 11.6455 44H11.604Z" fill="url(#paint0_linear)"/>
<path d="M25.4464 0C25.6037 5.85028 21.5462 9.90894 17.4934 9.65439C16.8256 4.98566 21.5457 0 25.4464 0Z" fill="#0073FA"/>
<defs>
<linearGradient id="paint0_linear" x1="17.5" y1="10.137" x2="17.5" y2="44" gradientUnits="userSpaceOnUse">
<stop stop-color="#0085FF"/>
<stop offset="1" stop-color="#004C94"/>
</linearGradient>
</defs>
</svg>
