<svg width="25" height="25" viewBox="0 0 25 25" fill="none" xmlns="http://www.w3.org/2000/svg">
<path d="M22.3216 4.47333C21.4666 5.07644 20.5199 5.53772 19.518 5.83941C18.9803 5.22111 18.2656 4.78288 17.4707 4.58398C16.6758 4.38508 15.839 4.43512 15.0734 4.72731C14.3079 5.0195 13.6505 5.53976 13.1903 6.21772C12.7301 6.89568 12.4892 7.69863 12.5001 8.51798V9.41083C10.9311 9.45152 9.37628 9.10352 7.97426 8.39784C6.57223 7.69215 5.36649 6.65069 4.46443 5.36619C4.46443 5.36619 0.892996 13.4019 8.92871 16.9733C7.0899 18.2215 4.89939 18.8474 2.67871 18.759C10.7144 23.2233 20.5359 18.759 20.5359 8.49119C20.535 8.24249 20.5111 7.9944 20.4644 7.75012C21.3757 6.85145 22.0187 5.71683 22.3216 4.47333V4.47333Z" stroke="white" stroke-width="2" stroke-linecap="round" stroke-linejoin="round"/>
</svg>
