<svg width="53" height="53" viewBox="0 0 53 53" fill="none" xmlns="http://www.w3.org/2000/svg">
<g clip-path="url(#clip0)">
<path d="M37.541 19.8772H15.4591C14.8496 19.8772 14.355 20.3719 14.355 20.9813V38.6468C14.355 41.3144 16.2541 43.5424 18.7714 44.0569V49.6878C18.7714 51.514 20.2575 53.0001 22.0837 53.0001C23.9099 53.0001 25.3959 51.514 25.3959 49.6878V44.1674H27.6041V49.6878C27.6041 51.514 29.0902 53.0001 30.9164 53.0001C32.7426 53.0001 34.2287 51.514 34.2287 49.6878V44.0569C36.746 43.5447 38.6451 41.3144 38.6451 38.6468V20.9813C38.6451 20.3697 38.1505 19.8772 37.541 19.8772Z" fill="url(#paint0_linear)"/>
<path d="M32.2788 5.88395L34.1403 1.54042C34.3809 0.979501 34.1204 0.332572 33.5595 0.0918103C33.0052 -0.151125 32.3494 0.10951 32.1109 0.672598L30.2494 5.01831C29.068 4.63409 27.8094 4.41993 26.502 4.41993C25.1948 4.41993 23.9362 4.63409 22.7547 5.01831L20.889 0.672598C20.6505 0.10951 19.9947 -0.153298 19.4404 0.0918103C18.8794 0.332468 18.6211 0.981675 18.8619 1.54042L20.7234 5.88395C16.9319 7.94202 14.355 11.9587 14.355 16.5649C14.355 17.1744 14.8496 17.669 15.4591 17.669H37.5409C38.1504 17.669 38.6451 17.1744 38.6451 16.5649C38.645 11.9587 36.068 7.94202 32.2788 5.88395ZM22.0836 13.2526C21.4741 13.2526 20.9794 12.758 20.9794 12.1485C20.9794 11.5391 21.4741 11.0444 22.0836 11.0444C22.693 11.0444 23.1877 11.5391 23.1877 12.1485C23.1877 12.758 22.693 13.2526 22.0836 13.2526ZM30.9164 13.2526C30.3069 13.2526 29.8123 12.758 29.8123 12.1485C29.8123 11.5391 30.3069 11.0444 30.9164 11.0444C31.5258 11.0444 32.0205 11.5391 32.0205 12.1485C32.0205 12.758 31.5258 13.2526 30.9164 13.2526Z" fill="#D0A0E2"/>
<path d="M44.1653 19.8772C42.3391 19.8772 40.853 21.3633 40.853 23.1895V34.2304C40.853 36.0566 42.3391 37.5427 44.1653 37.5427C45.9915 37.5427 47.4776 36.0566 47.4776 34.2304V23.1895C47.4776 21.3634 45.9915 19.8772 44.1653 19.8772Z" fill="url(#paint1_linear)"/>
<path d="M8.83425 19.8772C7.00805 19.8772 5.52197 21.3633 5.52197 23.1895V34.2304C5.52197 36.0566 7.00805 37.5427 8.83425 37.5427C10.6605 37.5427 12.1465 36.0566 12.1465 34.2304V23.1895C12.1465 21.3634 10.6605 19.8772 8.83425 19.8772Z" fill="url(#paint2_linear)"/>
</g>
<defs>
<linearGradient id="paint0_linear" x1="26.5" y1="19.8772" x2="26.5" y2="53.0001" gradientUnits="userSpaceOnUse">
<stop stop-color="#CE7EDE"/>
<stop offset="1" stop-color="#5651A9"/>
</linearGradient>
<linearGradient id="paint1_linear" x1="44.1653" y1="19.8772" x2="44.1653" y2="37.5427" gradientUnits="userSpaceOnUse">
<stop stop-color="#CE7EDE"/>
<stop offset="1" stop-color="#5651A9"/>
</linearGradient>
<linearGradient id="paint2_linear" x1="8.83425" y1="19.8772" x2="8.83425" y2="37.5427" gradientUnits="userSpaceOnUse">
<stop stop-color="#CE7EDE"/>
<stop offset="1" stop-color="#5651A9"/>
</linearGradient>
<clipPath id="clip0">
<rect width="53" height="53" fill="white"/>
</clipPath>
</defs>
</svg>
