<svg width="50" height="36" viewBox="0 0 50 36" fill="none" xmlns="http://www.w3.org/2000/svg">
<path d="M19.6606 23.1893H31.0633V33.9806H19.6606V23.1893Z" fill="white"/>
<path d="M25.0963 35.2905C29.6659 35.2905 33.3832 31.6257 33.3832 27.121C33.3832 24.2131 31.8336 21.6556 29.5063 20.2076V22.1941C30.9436 23.4434 31.7618 25.2212 31.7618 27.121C31.7618 30.7443 28.772 33.692 25.0963 33.692C21.4212 33.692 18.4314 30.7443 18.4314 27.1211C18.4314 25.2212 19.2496 23.4434 20.6869 22.1941V20.2076C18.3596 21.6557 16.81 24.2131 16.81 27.1211C16.81 31.6257 20.5272 35.2905 25.0963 35.2905Z" fill="url(#paint0_linear)"/>
<path d="M22.0227 22.5009C22.0227 22.7011 21.9309 22.8904 21.7718 23.0154C20.4982 24.0193 19.7678 25.5158 19.7678 27.1211C19.7678 30.0179 22.1584 32.3747 25.0963 32.3747C28.0348 32.3747 30.4254 30.0179 30.4254 27.1211C30.4254 25.5158 29.695 24.0194 28.4208 23.0154C28.2623 22.8903 28.1699 22.701 28.1699 22.5009V19.5323C27.1938 19.1468 26.1619 18.9516 25.0963 18.9516C24.0313 18.9516 22.9993 19.1468 22.0227 19.5323V22.5009ZM28.6004 27.1211C28.6004 29.0259 27.0285 30.5757 25.0963 30.5757C23.1641 30.5757 21.5922 29.0259 21.5922 27.1211C21.5922 25.2163 23.1641 23.6665 25.0963 23.6665C27.0285 23.6665 28.6004 25.2162 28.6004 27.1211ZM25.8415 21.6481C25.8597 22.0448 25.4863 22.3828 25.0963 22.3828C24.679 22.3828 24.3694 22.0461 24.3511 21.6481C24.3335 21.2513 24.7069 20.9134 25.0963 20.9134C25.5142 20.9134 25.8238 21.2501 25.8415 21.6481Z" fill="url(#paint1_linear)"/>
<path fill-rule="evenodd" clip-rule="evenodd" d="M49.8778 23.3275C48.8601 24.3484 47.7295 25.1854 46.4034 25.6941C44.3874 26.4669 42.5316 26.0085 40.7756 24.8537C40.3657 24.5846 39.9871 24.2616 39.6011 23.8987C41.6872 23.9334 43.754 23.8483 45.7808 23.3518C45.7842 23.3014 45.7859 23.2528 45.7876 23.2024C44.7597 23.0704 43.7374 22.8864 42.7066 22.8187C41.6827 22.7527 40.6502 22.8048 39.6211 22.8048C39.5965 22.7509 39.5703 22.6954 39.5458 22.6415C40.214 22.1953 40.8543 21.6917 41.5532 21.3097C43.9826 19.9848 46.2677 20.4641 48.4291 22.0477C48.9285 22.4141 49.396 22.8308 49.8761 23.225C49.8778 23.2597 49.8778 23.2927 49.8778 23.3275Z" fill="#00A513"/>
<path fill-rule="evenodd" clip-rule="evenodd" d="M0.275997 23.225C0.989806 22.6745 1.67112 22.0668 2.42427 21.5876C5.20083 19.8234 8.01386 20.3391 10.6456 22.8013C9.51332 22.8013 8.47797 22.7492 7.45058 22.8152C6.41636 22.8812 5.38896 23.0652 4.36158 23.2684C6.39012 23.8466 8.45343 23.9335 10.6701 23.8292C9.36166 24.9979 8.04523 25.8071 6.46196 26.0137C4.14095 26.3141 2.31595 25.1802 0.63348 23.6661C0.511471 23.5566 0.39345 23.4403 0.274292 23.3275C0.276002 23.2927 0.275997 23.2597 0.275997 23.225Z" fill="#00A513"/>
<path fill-rule="evenodd" clip-rule="evenodd" d="M32.7487 10.233C33.8941 8.33691 34.8394 6.3938 35.4163 4.26321C33.9819 5.85208 32.8712 7.67705 31.9237 9.64095C31.4744 8.64946 31.5987 6.13509 32.1723 4.79283C33.2059 2.37224 35.1826 1.25398 37.4204 0.470875C38.6051 4.81192 37.2117 8.75709 32.7487 10.233Z" fill="#00A513"/>
<path fill-rule="evenodd" clip-rule="evenodd" d="M14.6965 4.30666C15.3339 6.39732 16.2466 8.34906 17.3921 10.2036C13.7819 9.74687 11.2089 4.40219 12.709 0.535168C17.0602 1.73328 19.2034 5.08113 18.2872 9.65486C17.7398 8.69115 17.2415 7.72914 16.6651 6.82273C16.0899 5.91978 15.4382 5.07244 14.819 4.20073C14.7785 4.2372 14.7375 4.27196 14.6965 4.30666Z" fill="#00A513"/>
<path fill-rule="evenodd" clip-rule="evenodd" d="M24.9275 7.0189C24.8215 8.57647 24.7149 10.1341 24.6105 11.6534C22.513 10.2834 22.7205 5.9024 25.0598 3.70235C27.4236 6.11942 27.7013 9.06441 25.5433 11.7299C25.4401 10.1618 25.3375 8.59385 25.2343 7.02583C25.1316 7.02412 25.0302 7.02236 24.9275 7.0189Z" fill="#00A513"/>
<path fill-rule="evenodd" clip-rule="evenodd" d="M15.8875 29.3997C14.8795 32.8257 12.2677 34.0117 9.13306 33.1296C9.22428 30.2385 12.7836 27.7345 15.4593 28.7087C14.8048 29.1306 14.1463 29.5178 13.5254 29.9641C12.921 30.3982 12.3543 30.8931 11.8121 31.4227C13.2671 31.0181 14.571 30.2922 15.8875 29.3997Z" fill="#00A513"/>
<path fill-rule="evenodd" clip-rule="evenodd" d="M9.09544 13.4993C12.258 12.6016 14.8943 13.7841 15.8584 17.1441C15.1834 16.7534 14.5397 16.3453 13.8669 15.9998C13.1907 15.6525 12.4866 15.366 11.7648 15.1107C12.8509 16.2637 14.1252 17.1215 15.4969 17.8855C12.2854 18.6982 9.95635 16.8992 9.09544 13.4993Z" fill="#00A513"/>
<path fill-rule="evenodd" clip-rule="evenodd" d="M34.7532 17.9411C35.9944 17.0485 37.2425 16.1508 38.4905 15.2531C38.458 15.1992 38.4266 15.1454 38.3959 15.0916C36.9471 15.5622 35.617 16.3036 34.3234 17.1684C34.5258 14.3831 38.2208 12.3862 41.0487 13.501C40.2859 16.6683 38.1228 18.6773 34.7532 17.9411Z" fill="#00A513"/>
<path fill-rule="evenodd" clip-rule="evenodd" d="M34.6518 28.7155C37.7995 27.9793 40.1781 29.5838 41.0407 33.0861C38.19 34.0255 35.2744 32.9732 34.3171 29.5438C35.6335 30.2228 36.9956 30.926 38.3599 31.6293C38.3879 31.5737 38.4152 31.5181 38.4432 31.4626C37.324 30.3582 36.0418 29.5004 34.6518 28.7155Z" fill="#00A513"/>
<path fill-rule="evenodd" clip-rule="evenodd" d="M20.2701 14.6453C20.5169 15.1871 20.7649 15.7271 21.0135 16.2741C19.7147 15.9025 19.1526 14.6088 19.5403 13.1676C20.8123 13.2527 21.8203 14.8294 21.3647 16.0206C21.0512 15.5326 20.7393 15.0447 20.4251 14.5568C20.375 14.5863 20.3225 14.6158 20.2701 14.6453Z" fill="#00A513"/>
<path fill-rule="evenodd" clip-rule="evenodd" d="M28.7839 16.0258C28.3677 14.8224 29.2041 13.4767 30.5758 13.1416C31.0662 14.5706 30.4145 15.9129 29.1403 16.288C29.4099 15.6906 29.6745 15.1037 29.9407 14.5151C29.9014 14.489 29.862 14.4647 29.8216 14.4387C29.4749 14.97 29.1289 15.4996 28.7839 16.0258Z" fill="#00A513"/>
<path fill-rule="evenodd" clip-rule="evenodd" d="M32.8319 23.5411C33.4693 23.4855 34.0554 23.4368 34.6421 23.3848C34.6404 23.3309 34.6403 23.2771 34.6386 23.2215C34.044 23.1747 33.4493 23.1278 32.8632 23.0809C33.7698 22.0321 35.1711 22.2266 36.1136 23.265C35.2743 24.4162 33.825 24.5412 32.8319 23.5411Z" fill="#00A513"/>
<path d="M25.0963 29.2583C26.2936 29.2583 27.2645 28.3014 27.2645 27.1211C27.2645 25.9408 26.2936 24.9839 25.0963 24.9839C23.899 24.9839 22.9286 25.9408 22.9286 27.1211C22.9286 28.3014 23.899 29.2583 25.0963 29.2583Z" fill="url(#paint2_linear)"/>
<defs>
<linearGradient id="paint0_linear" x1="25.0963" y1="20.2076" x2="25.0963" y2="35.2905" gradientUnits="userSpaceOnUse">
<stop stop-color="#F18CED"/>
<stop offset="1" stop-color="#4E4EA6"/>
</linearGradient>
<linearGradient id="paint1_linear" x1="25.0963" y1="18.9516" x2="25.0963" y2="32.3747" gradientUnits="userSpaceOnUse">
<stop stop-color="#F18CED"/>
<stop offset="1" stop-color="#4E4EA6"/>
</linearGradient>
<linearGradient id="paint2_linear" x1="25.0963" y1="24.9839" x2="25.0963" y2="29.2583" gradientUnits="userSpaceOnUse">
<stop stop-color="#F18CED"/>
<stop offset="1" stop-color="#4E4EA6"/>
</linearGradient>
</defs>
</svg>
