<svg width="45" height="54" viewBox="0 0 45 54" fill="none" xmlns="http://www.w3.org/2000/svg">
<path d="M14.6847 54C6.64791 53.9537 0 37.5478 0 29.1927C0 15.5446 10.2384 12.5567 14.1842 12.5567C15.9624 12.5567 17.8611 13.255 19.5359 13.8729C20.707 14.304 21.9182 14.749 22.5918 14.749C22.995 14.749 23.9452 14.3704 24.7841 14.0383C26.5732 13.3261 28.7994 12.4409 31.3918 12.4409C31.3965 12.4409 31.4027 12.4409 31.4072 12.4409C33.343 12.4409 39.2123 12.8657 42.741 18.1649L43.5676 19.407L42.378 20.3046C40.6786 21.5869 37.5778 23.926 37.5778 28.5594C37.5778 34.047 41.0895 36.1574 42.7765 37.1725C43.5213 37.6205 44.2921 38.0824 44.2921 39.0928C44.2921 39.7525 39.0269 53.9182 31.381 53.9182C29.51 53.9182 28.1876 53.3558 27.0211 52.8599C25.8408 52.3577 24.8226 51.9252 23.1402 51.9252C22.2873 51.9252 21.2089 52.3284 20.0672 52.7564C18.507 53.3387 16.7411 54 14.7373 54H14.6847Z" fill="url(#paint0_linear)"/>
<path d="M32.202 0C32.4011 7.17989 27.2664 12.161 22.1377 11.8486C21.2925 6.11877 27.2658 0 32.202 0Z" fill="#D5A2E4"/>
<defs>
<linearGradient id="paint0_linear" x1="22.1461" y1="12.4409" x2="22.1461" y2="54" gradientUnits="userSpaceOnUse">
<stop stop-color="#CE7EDE"/>
<stop offset="1" stop-color="#5651A9"/>
</linearGradient>
</defs>
</svg>
