<svg width="252" height="117" viewBox="0 0 252 117" fill="none" xmlns="http://www.w3.org/2000/svg">
<path d="M54.4023 69.4446C54.4023 71.6596 53.9082 74.7851 52.92 78.8216C51.9317 82.8087 51.2153 84.9993 50.7705 85.3929C50.6223 85.5406 50.2764 85.6144 49.7329 85.6144C48.6458 85.6144 46.9411 85.3685 44.6188 84.8761L43.507 84.5807C43.1117 84.5313 42.0988 84.5069 40.4682 84.5069L17.2694 85.1714C16.7752 85.1714 16.2317 84.4825 15.6388 83.1041C15.0953 81.7256 14.8235 80.6181 14.8235 79.7815C14.8235 78.9449 14.8482 78.428 14.8976 78.2309C15.6882 76.5572 18.1341 72.9392 22.2353 67.3772C26.3858 61.8152 30.2894 56.5973 33.9458 51.7242C37.6023 46.8018 39.4305 44.0699 39.4305 43.5285C39.4305 43.2332 37.5776 43.0855 33.8717 43.0855C30.2153 43.0855 27.6458 43.4547 26.1635 44.193C25.4717 44.4391 24.1376 46.285 22.1611 49.7306L21.1976 51.355C20.5059 51.355 19.5176 50.9858 18.2329 50.2475C16.9976 49.5091 16.38 48.9431 16.38 48.5493C16.38 47.3679 16.627 45.5959 17.1211 43.2332C17.6646 40.8705 18.2329 38.7538 18.8258 36.8834C19.4682 35.0129 19.8882 34.0776 20.0858 34.0776C21.4694 34.0776 22.8776 34.3976 24.3105 35.0375C25.7435 35.6282 26.5094 35.9235 26.6082 35.9235C31.0553 35.2836 36.0211 34.9637 41.5058 34.9637C47.04 34.9637 50.2517 35.1113 51.1411 35.4067C51.5364 35.7512 51.9811 36.5142 52.4753 37.6956C53.0188 38.8769 53.2905 40.2059 53.2905 41.6826C53.2905 41.8303 53.0929 42.1011 52.6976 42.4948C49.6341 45.9405 44.8906 52.1672 38.467 61.1751C32.0929 70.1829 28.9058 75.2281 28.9058 76.3112C28.9058 76.656 30.9564 76.8281 35.0576 76.8281C39.2082 76.8281 41.9259 76.4345 43.2105 75.6467C44.0012 74.9578 45.0882 73.5549 46.4717 71.4381C47.8553 69.3213 48.7694 67.6231 49.2141 66.3435C49.2141 66.2453 49.4117 66.1958 49.807 66.1958C50.2517 66.1958 51.1165 66.5894 52.4011 67.3772C53.7353 68.165 54.4023 68.8539 54.4023 69.4446Z" fill="url(#paint0_linear)"/>
<path d="M64.3627 40.0583C65.7458 40.0583 66.8576 40.5013 67.698 41.3873C68.5378 42.2733 68.958 43.4301 68.958 44.8576C68.958 46.285 68.3896 47.5156 67.2533 48.5493C66.166 49.5338 64.9305 50.026 63.5474 50.026C62.2133 50.026 61.126 49.6076 60.2862 48.7708C59.4954 47.8848 59.1003 46.728 59.1003 45.3006C59.1003 43.8731 59.6437 42.6425 60.7309 41.6088C61.8176 40.5751 63.0286 40.0583 64.3627 40.0583ZM68.1427 58.4432L67.9945 70.4045C67.9945 74.2439 68.0931 77.074 68.2909 78.8955C68.5378 80.6675 69.1803 82.3413 70.218 83.9162C70.218 84.4087 69.2049 85.1959 67.1792 86.279C65.1529 87.3621 63.4237 87.9033 61.9909 87.9033C61.5462 87.9033 61.1015 87.165 60.6568 85.6883C60.2121 84.2116 59.9156 82.8087 59.7674 81.4797C59.6682 80.1507 59.6192 75.6712 59.6192 68.0417C59.6192 60.4123 59.7919 56.2527 60.138 55.5636C61.2743 54.6776 63.2754 54.2346 66.1415 54.2346C67.2778 54.2346 67.9694 54.3823 68.2168 54.6776L68.1427 58.4432Z" fill="url(#paint1_linear)"/>
<path d="M84.354 67.5249L84.4281 70.2568V75.8682C84.4281 81.1349 84.3295 83.8668 84.1316 84.0639C83.4897 84.704 82.3779 85.1959 80.7963 85.5406C79.2153 85.8854 77.9057 86.0575 76.8681 86.0575C75.8801 86.0575 75.3857 85.9836 75.3857 85.836C75.7318 83.6209 75.9046 79.9786 75.9046 74.9084L75.6822 58.2955C75.6822 55.2437 75.8059 53.5947 76.0528 53.3486C76.5967 52.8071 77.5352 52.3395 78.8693 51.9457C80.2034 51.5027 81.4389 51.2812 82.5752 51.2812C83.761 51.2812 84.354 51.4043 84.354 51.6504C84.2057 52.8317 84.1316 54.0131 84.1316 55.1944C84.1316 56.3758 84.2057 56.9665 84.354 56.9665L84.5763 56.8188C84.8238 56.4742 85.1944 56.0559 85.6881 55.5636C86.1824 55.0222 87.2201 54.333 88.801 53.4962C90.4316 52.6102 91.9636 52.1672 93.3963 52.1672C94.8787 52.1672 96.1142 52.438 97.1022 52.9794C98.1399 53.4716 98.9802 54.0869 99.6222 54.8253C100.265 55.5636 100.808 56.6219 101.253 58.0002C101.747 59.3786 102.118 60.6582 102.365 61.8396C102.612 63.0209 102.809 64.5959 102.958 66.565C103.106 69.2725 103.18 72.7177 103.18 76.9019L102.958 85.5406C102.958 85.8854 102.142 86.2051 100.512 86.5005C98.881 86.8452 97.572 87.0173 96.5834 87.0173L94.1375 86.6481C94.6318 82.218 94.8787 77.9356 94.8787 73.8009C94.8787 69.6167 94.6073 66.4912 94.0634 64.4238C93.5201 62.307 92.4328 61.2489 90.8022 61.2489C89.1716 61.2489 87.8375 61.6919 86.7999 62.5779C85.8118 63.464 85.1693 64.35 84.8728 65.236L84.354 66.4912V67.5249Z" fill="url(#paint2_linear)"/>
<path d="M128.368 52.4626L128.22 41.535C128.22 38.4832 128.294 36.8834 128.443 36.7357C129.036 36.145 129.999 35.5789 131.333 35.0375C132.717 34.4468 134.026 34.1515 135.261 34.1515C136.497 34.1515 137.114 34.2499 137.114 34.4468C136.719 42.6179 136.521 51.3058 136.521 60.5106C136.521 69.7155 136.67 75.2037 136.966 76.9758C137.312 79.6338 138.127 81.6029 139.412 82.8826C139.412 83.375 138.374 84.1378 136.299 85.1715C134.273 86.2546 132.544 86.7958 131.111 86.7958C130.963 86.7958 130.74 86.5987 130.444 86.2051C129.505 84.9744 128.937 83.3012 128.739 81.1844C128.739 81.0367 128.689 80.9629 128.591 80.9629L128.368 81.1105C126.293 84.0639 123.205 85.5406 119.104 85.5406C115.793 85.5406 113.174 84.236 111.247 81.6274C109.32 79.0187 108.357 76.0897 108.357 72.841C108.357 67.279 110.086 62.5535 113.545 58.6647C117.004 54.7269 121.945 52.6595 128.368 52.4626ZM128.517 60.2152C128.517 60.117 128.245 60.0676 127.701 60.0676H127.405C124.242 60.0676 121.747 61.0768 119.919 63.0948C118.14 65.1128 117.251 67.6726 117.251 70.7736C117.251 72.5951 117.671 74.0962 118.511 75.2776C119.4 76.4095 120.71 76.9758 122.439 76.9758C124.218 76.9758 125.626 76.213 126.664 74.6869C127.751 73.1608 128.294 71.955 128.294 71.069C128.294 65.6052 128.368 61.9873 128.517 60.2152Z" fill="url(#paint3_linear)"/>
<path d="M172.2 67.6725C172.2 73.8253 172.274 77.4188 172.422 78.4525C172.817 81.1599 173.657 83.104 174.942 84.2854C174.942 84.8267 173.954 85.6389 171.978 86.722C170.051 87.8051 168.296 88.3463 166.715 88.3463C166.27 88.3463 165.801 87.6818 165.307 86.3528C164.813 85.0732 164.516 84.1133 164.418 83.4732C164.368 82.8331 164.318 82.5134 164.269 82.5134L164.047 82.661C161.428 84.7284 158.364 85.7621 154.856 85.7621C151.348 85.7621 148.63 84.9255 146.703 83.2517C144.825 81.5291 143.887 79.2891 143.887 76.5327C143.887 73.7764 144.48 71.4626 145.666 69.5923C146.901 67.6725 148.334 66.2203 149.965 65.236C151.595 64.2517 153.399 63.464 155.375 62.8733C158.389 61.889 160.761 61.3966 162.49 61.3966L162.639 61.3227C162.639 58.9106 159.575 57.7048 153.448 57.7048C151.027 57.7048 149.223 57.8031 148.038 58.0002H147.963C147.963 57.0159 148.26 55.7851 148.853 54.3084C149.495 52.8317 150.014 51.8719 150.409 51.4289C150.854 50.9859 152.633 50.7643 155.746 50.7643C161.379 50.7643 165.529 51.8473 168.198 54.0131C170.866 56.1297 172.2 59.4275 172.2 63.907V67.6725ZM163.973 72.398V69.5923C163.973 68.5092 163.948 67.9679 163.899 67.9679C160.588 67.9679 157.722 68.8295 155.301 70.5521C153.769 71.6352 153.003 72.9887 153.003 74.613C153.003 75.6467 153.374 76.5083 154.115 77.1973C154.856 77.8862 155.968 78.2309 157.45 78.2309C158.982 78.2309 160.44 77.7879 161.823 76.9019C163.256 76.0159 163.973 74.5148 163.973 72.398Z" fill="url(#paint4_linear)"/>
<path d="M206.886 65.8267L207.034 83.3256C207.034 87.165 206.515 90.5614 205.477 93.5148C204.44 96.5176 203.18 98.8309 201.697 100.455C200.215 102.129 198.51 103.483 196.583 104.516C193.47 106.239 190.332 107.1 187.17 107.1C187.022 107.1 186.726 106.731 186.281 105.993C185.836 105.255 185.416 104.245 185.021 102.966C184.625 101.686 184.428 100.505 184.428 99.4216H185.836C186.824 99.4216 187.763 99.3233 188.653 99.1262C189.591 98.9786 190.728 98.5111 192.062 97.7234C193.396 96.9356 194.533 95.9019 195.472 94.6223C196.41 93.3427 197.225 91.4474 197.917 88.937C198.609 86.4266 198.955 83.4977 198.955 80.1507C198.955 79.9536 198.93 79.8553 198.881 79.8553L198.659 80.0768C196.583 83.2761 193.347 84.8761 188.949 84.8761C185.638 84.8761 182.995 83.5715 181.019 80.9628C179.042 78.3542 178.054 75.4252 178.054 72.1765C178.054 66.2697 179.956 61.3966 183.761 57.5572C187.566 53.7177 193.026 51.798 200.141 51.798C201.87 51.798 202.735 51.9211 202.735 52.1672C202.883 53.004 202.957 53.9147 202.957 54.8991L202.883 56.0066H203.699C205.28 56.0066 206.342 56.1543 206.886 56.4496V65.8267ZM198.807 59.6245L197.25 59.403C194.088 59.403 191.568 60.4367 189.69 62.5041C187.862 64.5221 186.948 67.0575 186.948 70.1091C186.948 71.6352 187.393 72.9642 188.282 74.0962C189.221 75.2281 190.555 75.7944 192.285 75.7944C194.063 75.7944 195.546 75.1055 196.732 73.727C197.917 72.3486 198.51 71.2411 198.51 70.4044C198.51 64.793 198.609 61.1995 198.807 59.6245Z" fill="url(#paint5_linear)"/>
<path d="M218.243 40.0583C219.627 40.0583 220.739 40.5013 221.579 41.3873C222.418 42.2733 222.839 43.4301 222.839 44.8576C222.839 46.285 222.27 47.5156 221.134 48.5493C220.047 49.5338 218.812 50.026 217.428 50.026C216.094 50.026 215.007 49.6076 214.167 48.7708C213.376 47.8848 212.981 46.728 212.981 45.3006C212.981 43.8731 213.524 42.6425 214.612 41.6088C215.699 40.5751 216.909 40.0583 218.243 40.0583ZM222.023 58.4432L221.875 70.4045C221.875 74.2439 221.974 77.074 222.172 78.8955C222.418 80.6675 223.061 82.3413 224.099 83.9162C224.099 84.4087 223.085 85.1959 221.06 86.279C219.034 87.3621 217.304 87.9033 215.872 87.9033C215.427 87.9033 214.982 87.165 214.537 85.6883C214.093 84.2116 213.796 82.8087 213.648 81.4797C213.549 80.1507 213.5 75.6712 213.5 68.0417C213.5 60.4123 213.673 56.2527 214.019 55.5636C215.155 54.6776 217.156 54.2346 220.022 54.2346C221.158 54.2346 221.851 54.3823 222.097 54.6776L222.023 58.4432Z" fill="url(#paint6_linear)"/>
<path d="M212.661 39.1893H224.063V49.9806H212.661V39.1893Z" fill="white"/>
<path d="M218.096 51.2905C222.666 51.2905 226.383 47.6257 226.383 43.121C226.383 40.2131 224.834 37.6556 222.506 36.2076V38.1941C223.944 39.4434 224.762 41.2212 224.762 43.121C224.762 46.7443 221.772 49.692 218.096 49.692C214.421 49.692 211.432 46.7443 211.432 43.1211C211.432 41.2212 212.25 39.4434 213.687 38.1941V36.2076C211.36 37.6557 209.81 40.2131 209.81 43.1211C209.81 47.6257 213.527 51.2905 218.096 51.2905Z" fill="url(#paint7_linear)"/>
<path d="M215.023 38.5009C215.023 38.7011 214.931 38.8904 214.772 39.0154C213.498 40.0194 212.768 41.5158 212.768 43.1211C212.768 46.0179 215.158 48.3747 218.096 48.3747C221.035 48.3747 223.425 46.0179 223.425 43.1211C223.425 41.5158 222.695 40.0194 221.421 39.0154C221.262 38.8904 221.17 38.7011 221.17 38.5009V35.5323C220.194 35.1468 219.162 34.9517 218.096 34.9517C217.031 34.9517 215.999 35.1468 215.023 35.5323V38.5009ZM221.6 43.1211C221.6 45.0259 220.029 46.5757 218.096 46.5757C216.164 46.5757 214.592 45.0259 214.592 43.1211C214.592 41.2163 216.164 39.6665 218.096 39.6665C220.029 39.6665 221.6 41.2162 221.6 43.1211ZM218.841 37.6481C218.86 38.0448 218.486 38.3828 218.096 38.3828C217.679 38.3828 217.369 38.0461 217.351 37.6481C217.333 37.2513 217.707 36.9135 218.096 36.9135C218.514 36.9135 218.824 37.2501 218.841 37.6481Z" fill="url(#paint8_linear)"/>
<path d="M218.096 45.2583C219.294 45.2583 220.265 44.3014 220.265 43.1211C220.265 41.9407 219.294 40.9839 218.096 40.9839C216.899 40.9839 215.929 41.9407 215.929 43.1211C215.929 44.3014 216.899 45.2583 218.096 45.2583Z" fill="url(#paint9_linear)"/>
<path fill-rule="evenodd" clip-rule="evenodd" d="M242.878 39.3274C241.86 40.3484 240.73 41.1854 239.403 41.6941C237.387 42.4669 235.532 42.0084 233.776 40.8537C233.366 40.5846 232.987 40.2616 232.601 39.8987C234.687 39.9334 236.754 39.8483 238.781 39.3518C238.784 39.3014 238.786 39.2528 238.788 39.2024C237.76 39.0704 236.738 38.8864 235.707 38.8187C234.683 38.7527 233.65 38.8047 232.621 38.8047C232.597 38.7509 232.57 38.6954 232.546 38.6415C233.214 38.1953 233.854 37.6917 234.553 37.3097C236.983 35.9848 239.268 36.4641 241.429 38.0477C241.929 38.414 242.396 38.8308 242.876 39.225C242.878 39.2597 242.878 39.2927 242.878 39.3274Z" fill="#00A513"/>
<path fill-rule="evenodd" clip-rule="evenodd" d="M193.276 39.225C193.99 38.6745 194.671 38.0668 195.424 37.5876C198.201 35.8234 201.014 36.3391 203.646 38.8013C202.513 38.8013 201.478 38.7492 200.451 38.8152C199.416 38.8812 198.389 39.0652 197.362 39.2684C199.39 39.8466 201.454 39.9335 203.67 39.8292C202.362 40.9979 201.045 41.8071 199.462 42.0137C197.141 42.3141 195.316 41.1802 193.634 39.6661C193.512 39.5566 193.394 39.4403 193.274 39.3274C193.276 39.2927 193.276 39.2597 193.276 39.225Z" fill="#00A513"/>
<path fill-rule="evenodd" clip-rule="evenodd" d="M225.749 26.2331C226.894 24.3369 227.839 22.3938 228.416 20.2632C226.982 21.8521 225.871 23.6771 224.924 25.641C224.475 24.6495 224.599 22.1351 225.172 20.7928C226.206 18.3722 228.183 17.254 230.42 16.4709C231.605 20.8119 230.212 24.7571 225.749 26.2331Z" fill="#00A513"/>
<path fill-rule="evenodd" clip-rule="evenodd" d="M207.696 20.3066C208.334 22.3973 209.247 24.3491 210.392 26.2036C206.782 25.7469 204.209 20.4022 205.709 16.5352C210.06 17.7333 212.203 21.0811 211.287 25.6549C210.74 24.6911 210.242 23.7291 209.665 22.8227C209.09 21.9198 208.438 21.0724 207.819 20.2007C207.779 20.2372 207.738 20.2719 207.696 20.3066Z" fill="#00A513"/>
<path fill-rule="evenodd" clip-rule="evenodd" d="M217.928 23.0189C217.822 24.5765 217.715 26.134 217.611 27.6534C215.513 26.2834 215.721 21.9024 218.06 19.7023C220.424 22.1194 220.701 25.0644 218.543 27.7298C218.44 26.1618 218.338 24.5938 218.234 23.0258C218.132 23.0241 218.03 23.0223 217.928 23.0189Z" fill="#00A513"/>
<path fill-rule="evenodd" clip-rule="evenodd" d="M208.888 45.3998C207.88 48.8257 205.268 50.0117 202.133 49.1296C202.225 46.2385 205.784 43.7345 208.46 44.7087C207.805 45.1306 207.147 45.5178 206.526 45.9641C205.921 46.3982 205.355 46.8931 204.812 47.4227C206.267 47.0181 207.571 46.2923 208.888 45.3998Z" fill="#00A513"/>
<path fill-rule="evenodd" clip-rule="evenodd" d="M202.095 29.4993C205.258 28.6016 207.894 29.7841 208.858 33.144C208.183 32.7533 207.54 32.3453 206.867 31.9998C206.191 31.6525 205.487 31.366 204.765 31.1107C205.851 32.2637 207.125 33.1215 208.497 33.8855C205.285 34.6982 202.956 32.8992 202.095 29.4993Z" fill="#00A513"/>
<path fill-rule="evenodd" clip-rule="evenodd" d="M227.753 33.9411C228.995 33.0486 230.243 32.1508 231.491 31.2531C231.458 31.1993 231.427 31.1454 231.396 31.0916C229.947 31.5622 228.617 32.3036 227.323 33.1684C227.526 30.3831 231.221 28.3863 234.049 29.501C233.286 32.6683 231.123 34.6773 227.753 33.9411Z" fill="#00A513"/>
<path fill-rule="evenodd" clip-rule="evenodd" d="M227.652 44.7155C230.8 43.9793 233.178 45.5838 234.041 49.0861C231.19 50.0255 228.274 48.9733 227.317 45.5439C228.634 46.2228 229.996 46.926 231.36 47.6293C231.388 47.5737 231.415 47.5181 231.443 47.4626C230.324 46.3582 229.042 45.5004 227.652 44.7155Z" fill="#00A513"/>
<path fill-rule="evenodd" clip-rule="evenodd" d="M213.27 30.6453C213.517 31.1871 213.765 31.7271 214.014 32.2741C212.715 31.9025 212.153 30.6089 212.54 29.1677C213.812 29.2527 214.82 30.8294 214.365 32.0206C214.051 31.5327 213.739 31.0447 213.425 30.5568C213.375 30.5863 213.323 30.6159 213.27 30.6453Z" fill="#00A513"/>
<path fill-rule="evenodd" clip-rule="evenodd" d="M221.784 32.0258C221.368 30.8224 222.204 29.4767 223.576 29.1416C224.066 30.5706 223.415 31.9129 222.14 32.288C222.41 31.6907 222.675 31.1037 222.941 30.5151C222.901 30.489 222.862 30.4647 222.822 30.4387C222.475 30.97 222.129 31.4997 221.784 32.0258Z" fill="#00A513"/>
<path fill-rule="evenodd" clip-rule="evenodd" d="M225.832 39.5411C226.469 39.4855 227.056 39.4369 227.642 39.3848C227.641 39.3309 227.641 39.2771 227.639 39.2215C227.044 39.1747 226.45 39.1278 225.863 39.0809C226.77 38.0321 228.171 38.2266 229.114 39.265C228.275 40.4162 226.825 40.5413 225.832 39.5411Z" fill="#00A513"/>
<defs>
<linearGradient id="paint0_linear" x1="119.461" y1="34.0776" x2="119.461" y2="107.1" gradientUnits="userSpaceOnUse">
<stop stop-color="#F18CED"/>
<stop offset="1" stop-color="#4E4EA6"/>
</linearGradient>
<linearGradient id="paint1_linear" x1="119.461" y1="34.0777" x2="119.461" y2="107.1" gradientUnits="userSpaceOnUse">
<stop stop-color="#F18CED"/>
<stop offset="1" stop-color="#4E4EA6"/>
</linearGradient>
<linearGradient id="paint2_linear" x1="119.461" y1="34.0776" x2="119.461" y2="107.1" gradientUnits="userSpaceOnUse">
<stop stop-color="#F18CED"/>
<stop offset="1" stop-color="#4E4EA6"/>
</linearGradient>
<linearGradient id="paint3_linear" x1="119.461" y1="34.0777" x2="119.461" y2="107.1" gradientUnits="userSpaceOnUse">
<stop stop-color="#F18CED"/>
<stop offset="1" stop-color="#4E4EA6"/>
</linearGradient>
<linearGradient id="paint4_linear" x1="119.461" y1="34.0776" x2="119.461" y2="107.1" gradientUnits="userSpaceOnUse">
<stop stop-color="#F18CED"/>
<stop offset="1" stop-color="#4E4EA6"/>
</linearGradient>
<linearGradient id="paint5_linear" x1="119.461" y1="34.0776" x2="119.461" y2="107.1" gradientUnits="userSpaceOnUse">
<stop stop-color="#F18CED"/>
<stop offset="1" stop-color="#4E4EA6"/>
</linearGradient>
<linearGradient id="paint6_linear" x1="119.461" y1="34.0777" x2="119.461" y2="107.1" gradientUnits="userSpaceOnUse">
<stop stop-color="#F18CED"/>
<stop offset="1" stop-color="#4E4EA6"/>
</linearGradient>
<linearGradient id="paint7_linear" x1="218.096" y1="36.2076" x2="218.096" y2="51.2905" gradientUnits="userSpaceOnUse">
<stop stop-color="#F18CED"/>
<stop offset="1" stop-color="#4E4EA6"/>
</linearGradient>
<linearGradient id="paint8_linear" x1="218.096" y1="34.9517" x2="218.096" y2="48.3747" gradientUnits="userSpaceOnUse">
<stop stop-color="#F18CED"/>
<stop offset="1" stop-color="#4E4EA6"/>
</linearGradient>
<linearGradient id="paint9_linear" x1="218.096" y1="40.9839" x2="218.096" y2="45.2583" gradientUnits="userSpaceOnUse">
<stop stop-color="#F18CED"/>
<stop offset="1" stop-color="#4E4EA6"/>
</linearGradient>
</defs>
</svg>
